<svg id="arrow-right" xmlns="http://www.w3.org/2000/svg" width="25.691" height="15.415" viewBox="0 0 25.691 15.415">
  <path id="Path_3230" data-name="Path 3230" d="M22.822,10.447a1.1,1.1,0,0,1,1.559,0l6.6,6.6a1.1,1.1,0,0,1,0,1.559l-6.6,6.6a1.1,1.1,0,0,1-1.559-1.559l5.827-5.826L22.821,12a1.1,1.1,0,0,1,0-1.559Z" transform="translate(-5.618 -10.123)" fill="#d20030" fill-rule="evenodd"/>
  <path id="Path_3231" data-name="Path 3231" d="M4.5,17.976a1.085,1.085,0,0,1,1.069-1.1h22.45a1.1,1.1,0,0,1,0,2.2H5.569A1.085,1.085,0,0,1,4.5,17.976Z" transform="translate(-4.5 -10.269)" fill="#d20030" fill-rule="evenodd"/>
</svg>
