<svg xmlns="http://www.w3.org/2000/svg" width="23.07" height="26.267" viewBox="0 0 23.07 26.267">
  <g id="Group_7584" data-name="Group 7584" transform="translate(-209.472 -20.995)">
    <path id="Path_68348" data-name="Path 68348" d="M162.3,20.515l-4.5,4.07V16.3a2.243,2.243,0,0,0-2.241-2.241H142.478a2.242,2.242,0,0,0-2.241,2.241V38.082a2.242,2.242,0,0,0,2.241,2.241h13.086a2.243,2.243,0,0,0,2.241-2.241V26.6l5.5-4.976Zm-5.994,5.421-2.6,2.351-3.685-4.209-1.125.983,4.686,5.353,2.723-2.463V38.082a.748.748,0,0,1-.747.747H142.478a.748.748,0,0,1-.747-.747V16.3a.747.747,0,0,1,.747-.747h13.086a.747.747,0,0,1,.747.747Z" transform="translate(69.235 6.939)" fill="#fff"/>
    <path id="Path_68349" data-name="Path 68349" d="M146.475,28.167a1.323,1.323,0,1,0,1.323,1.322,1.322,1.322,0,0,0-1.323-1.322" transform="translate(71.662 13.906)" fill="#fff"/>
    <rect id="Rectangle_2319" data-name="Rectangle 2319" width="8.072" height="1.494" transform="translate(213.254 24.911)" fill="#fff"/>
    <rect id="Rectangle_2320" data-name="Rectangle 2320" width="8.072" height="1.494" transform="translate(213.254 38.354)" fill="#fff"/>
  </g>
</svg>
