<svg xmlns="http://www.w3.org/2000/svg" width="31.347" height="28.831" viewBox="0 0 31.347 28.831">
  <g id="Group_7579" data-name="Group 7579" transform="translate(-201.087 7.694) rotate(-7)">
    <path id="Path_68367" data-name="Path 68367" d="M165.637,22.869c-.1.487-.171.985-.3,1.461a7.938,7.938,0,0,1-1.711,3.08.9.9,0,0,0-.2.436,3.37,3.37,0,0,0,.871,2.844.9.9,0,0,1,.213.538c0,.292-.268.477-.611.47a6.04,6.04,0,0,1-3.975-1.542.455.455,0,0,0-.464-.095c-.85.176-1.705.324-2.56.477-.153.028-.311.031-.487.048-.047.295-.08.586-.14.872a8.251,8.251,0,0,1-4.307,5.636,10.422,10.422,0,0,1-6.825,1.13c-.62-.092-1.23-.258-1.838-.41a.35.35,0,0,0-.365.1,6.111,6.111,0,0,1-3.967,1.566.585.585,0,0,1-.616-.331.574.574,0,0,1,.165-.678,3.267,3.267,0,0,0,.89-2.78,1.1,1.1,0,0,0-.236-.537,7.628,7.628,0,0,1-1.973-5.337,7.386,7.386,0,0,1,2.587-5.373,10.41,10.41,0,0,1,6.286-2.69c.284-.025.372-.108.407-.4a7.629,7.629,0,0,1,2.322-4.619,9.755,9.755,0,0,1,6.037-2.757c.1-.01.2-.034.3-.051h1.444a19.7,19.7,0,0,1,3.326.78,10.611,10.611,0,0,1,2.846,1.7,8.565,8.565,0,0,1,2.886,5.242ZM140.065,38.2a1.4,1.4,0,0,0,.147-.026,4.921,4.921,0,0,0,2.255-1.356.623.623,0,0,1,.721-.207,10.482,10.482,0,0,0,3.091.62,8.874,8.874,0,0,0,6.778-2.28,6.5,6.5,0,0,0,.168-9.683,8.5,8.5,0,0,0-5.473-2.412,9.232,9.232,0,0,0-7.372,2.557,6.229,6.229,0,0,0-2.076,4.768,6.48,6.48,0,0,0,1.8,4.335,1.444,1.444,0,0,1,.363.728,4.59,4.59,0,0,1-.4,2.958m16.327-8.759a.809.809,0,0,0,.115.016,12.836,12.836,0,0,0,1.972-.277c.468-.108,1.136-.486,1.6-.33.423.14.786.677,1.17.931a4.582,4.582,0,0,0,1.507.648,3.63,3.63,0,0,1,.187-3.959,6.618,6.618,0,0,0,1.507-3.256c.664-4.538-3.667-7.818-7.8-8.153-3.938-.319-8.922,2.2-9.093,6.641a18.146,18.146,0,0,1,2.557.478c.486.152.939.41,1.421.557a4.493,4.493,0,0,0,1.305.073h6.033c.543,0,2.165-.315,2.3.464.155.9-1.343.646-1.833.646h-5.948a8.062,8.062,0,0,1,3,5.519" transform="translate(62.911 6.386)" fill="#fff"/>
    <path id="Path_68368" data-name="Path 68368" d="M145.406,26.13h3.015c.519,0,2.137-.314,2.141.55s-1.59.56-2.119.56H142.2c-.5,0-1.94.287-1.968-.546-.028-.874,1.581-.566,2.086-.566h3.083" transform="translate(64.307 11.957)" fill="#fff"/>
    <path id="Path_68369" data-name="Path 68369" d="M144.314,23.833c.872,0,1.743,0,2.615,0,.48,0,1.441-.14,1.4.611-.035.721-1.127.5-1.616.5h-4.952c-.464,0-1.52.174-1.505-.569.015-.693.939-.544,1.39-.544h2.663" transform="translate(64.318 10.922)" fill="#fff"/>
    <path id="Path_68370" data-name="Path 68370" d="M152.136,17.743c.821,0,1.641,0,2.462,0,.464,0,1.9-.143,1.55.756-.228.578-1.254.354-1.736.354h-4.994c-.442,0-1.345.125-1.333-.567.013-.76,1.154-.546,1.632-.546h2.418" transform="translate(67.906 8.123)" fill="#fff"/>
  </g>
</svg>
