<svg xmlns="http://www.w3.org/2000/svg" width="21.582" height="13.841" viewBox="0 0 21.582 13.841">
  <g id="Group_7575" data-name="Group 7575" transform="translate(-240.669 -18.871)">
    <path id="Path_68342" data-name="Path 68342" d="M188.286,27.788l.112-.018a.348.348,0,0,0-.054-.009,1.705,1.705,0,0,1-.982-.41,1.588,1.588,0,0,1-.593-1.1c-.011-.12,0-.244,0-.364a.082.082,0,0,0-.028-.061,3.249,3.249,0,0,1-1.165-1.375,2.456,2.456,0,0,1-.238-.912c-.016-.406-.012-.813-.016-1.22q-.008-.919-.014-1.84c0-.2.014-.4.012-.6,0-.4.009-.8-.016-1.2a2.43,2.43,0,0,0-1.105-1.9l-.054-.038-.073.072a1.761,1.761,0,0,1-1.084.486,1.8,1.8,0,0,1-1.616-.654c-.027-.034-.045-.041-.088-.018a2.538,2.538,0,0,0-1.268,1.526c-.051.17-.07.349-.105.53l-.179-.009c-.16-.008-.319-.018-.479-.024-.042,0-.049-.015-.045-.055a2.912,2.912,0,0,1,.118-.616,3.288,3.288,0,0,1,.683-1.208,3.325,3.325,0,0,1,1-.759.059.059,0,0,0,.024-.047c-.008-.085-.024-.17-.031-.256a1.522,1.522,0,0,1,.3-1.009,1.713,1.713,0,0,1,1.185-.728,1.769,1.769,0,0,1,1.8.724,1.529,1.529,0,0,1,.3,1.059,2.047,2.047,0,0,1-.074.357.061.061,0,0,0,.03.081,3.127,3.127,0,0,1,.6.486,3.051,3.051,0,0,1,.846,1.68,4.049,4.049,0,0,1,.041.511c.005.371,0,.741,0,1.114,0,.624.008,1.249.009,1.874,0,.452-.009.9-.008,1.354a2.3,2.3,0,0,0,.21,1,2.521,2.521,0,0,0,.755.955c.032.024.045.018.065-.009a1.782,1.782,0,0,1,1.243-.736,1.837,1.837,0,0,1,1.793.823c.023.039.047.077.078.127.146-.112.294-.212.426-.329a2.368,2.368,0,0,0,.79-1.413,3.657,3.657,0,0,0,.037-.5c.005-.291.005-.583,0-.875,0-.17-.012-.342-.012-.514q0-1.1,0-2.191c0-.272,0-.544.015-.816a2.287,2.287,0,0,1,.2-.793,2.592,2.592,0,0,1,.838-1.049.1.1,0,0,0,.042-.1A1.692,1.692,0,0,1,193.908,15a1.8,1.8,0,0,1,1.744.53,1.591,1.591,0,0,1,.445,1,1.435,1.435,0,0,1-.019.388.069.069,0,0,0,.023.055,2.669,2.669,0,0,1,.636.775,2.436,2.436,0,0,1,.244.664,2.571,2.571,0,0,1,.064.574V21.5l-.057,0c-.207,0-.415,0-.622.005-.043,0-.043-.019-.043-.049,0-.484,0-.969,0-1.453,0-.363.008-.725,0-1.088a1.857,1.857,0,0,0-.522-1.277c-.007-.008-.011-.018-.02-.031a1.865,1.865,0,0,1-3-.074c-.018.015-.035.03-.051.046a1.925,1.925,0,0,0-.549,1,1.313,1.313,0,0,0-.024.261c0,1,0,1.992,0,2.988q0,.645,0,1.291a3.2,3.2,0,0,1-1.137,2.486,3.537,3.537,0,0,1-.626.414.076.076,0,0,0-.047.078,1.62,1.62,0,0,1-.636,1.285,1.8,1.8,0,0,1-.848.371,1.353,1.353,0,0,1-.156.008l.069.024Zm-4.41-12.154a1.031,1.031,0,0,0-1.035-1.015,1.015,1.015,0,1,0,1.035,1.015m11.508,1a1.084,1.084,0,0,0-2.161-.012,1.061,1.061,0,0,0,1.11,1.032,1.042,1.042,0,0,0,1.051-1.02m-6.836,8.448a1.015,1.015,0,1,0,1.078,1.015,1.041,1.041,0,0,0-1.078-1.015" transform="translate(63.269 4.924)" fill="#fff"/>
    <path id="Path_68343" data-name="Path 68343" d="M177.872,21.848c.008.03.015.06.02.081a1.827,1.827,0,0,1,.863-1.36,1.6,1.6,0,0,1-.238-1.354,1.647,1.647,0,0,1,.629-.907,1.881,1.881,0,0,1,2.258.012,1.643,1.643,0,0,1,.649,1.058,1.606,1.606,0,0,1-.272,1.188c.077.058.156.111.226.172a1.805,1.805,0,0,1,.639,1.2,3.377,3.377,0,0,1,.015.35c0,.353,0,.706,0,1.058,0,.062,0,.061-.069.061-.2,0-.394,0-.59,0-.049,0-.064-.009-.064-.057,0-.44.015-.881,0-1.321a1.121,1.121,0,0,0-.637-.954.068.068,0,0,0-.076.007,1.856,1.856,0,0,1-.985.257,1.888,1.888,0,0,1-.928-.257.073.073,0,0,0-.084,0,1.17,1.17,0,0,0-.621.851,1.276,1.276,0,0,0-.016.216c0,.4,0,.8,0,1.2v.065h-.717Zm2.4-1.2a1.022,1.022,0,0,0,1.093-1.046,1.1,1.1,0,0,0-2.184.158,1.042,1.042,0,0,0,1.091.888" transform="translate(62.797 6.332)" fill="#fff"/>
    <path id="Path_68344" data-name="Path 68344" d="M191.067,23.363c.014-.084.035-.215.058-.346s.053-.261.076-.394a.079.079,0,0,0-.026-.057c-.164-.146-.33-.291-.494-.438a.633.633,0,0,1-.222-.475.67.67,0,0,1,.572-.628c.245-.035.488-.066.733-.1a.1.1,0,0,0,.058-.046c.087-.166.166-.334.249-.5a.746.746,0,0,1,.373-.38.7.7,0,0,1,.89.279c.107.189.206.382.3.575a.156.156,0,0,0,.145.1c.237.024.476.046.708.089a.66.66,0,0,1,.518.633.613.613,0,0,1-.181.422c-.172.164-.346.323-.524.482a.11.11,0,0,0-.039.116c.043.2.091.407.126.612a.66.66,0,0,1-.759.747.832.832,0,0,1-.256-.083c-.2-.095-.406-.2-.606-.3a.091.091,0,0,0-.1,0l-.534.276a.779.779,0,0,1-.434.108.684.684,0,0,1-.639-.69m2.607-.005,0-.035a1.78,1.78,0,0,1-.08-.951c.119-.29.461-.456.663-.689-.323-.091-.712-.02-1-.218a2.175,2.175,0,0,1-.529-.844c-.157.269-.241.641-.51.835a.867.867,0,0,1-.409.143c-.2.026-.4.054-.6.081.218.221.553.414.668.706a1.978,1.978,0,0,1-.085.971.5.5,0,0,0,.188-.084l.238-.118a1.176,1.176,0,0,1,.49-.173,2.219,2.219,0,0,1,.965.375" transform="translate(67.241 7.038)" fill="#fff"/>
  </g>
</svg>
