<svg xmlns="http://www.w3.org/2000/svg" width="25.567" height="24.077" viewBox="0 0 25.567 24.077">
  <g id="Group_7581" data-name="Group 7581" transform="translate(-332.565 -18.895)">
    <path id="Path_68372" data-name="Path 68372" d="M232.626,12.311h-6.355a9.608,9.608,0,0,0,0,19.216h.157v4.861l6.012-4.861h.186a9.608,9.608,0,0,0,0-19.216m0,17.975H232l-4.336,3.506V30.286h-1.4a8.368,8.368,0,0,1,0-16.735h6.355a8.368,8.368,0,0,1,0,16.735" transform="translate(115.899 6.584)" fill="#fff"/>
    <path id="Path_68373" data-name="Path 68373" d="M221.387,17.46a1.239,1.239,0,1,0,1.24,1.239,1.238,1.238,0,0,0-1.24-1.239" transform="translate(117.762 9.339)" fill="#fff"/>
    <path id="Path_68374" data-name="Path 68374" d="M225.426,17.46a1.239,1.239,0,1,0,1.24,1.239,1.239,1.239,0,0,0-1.24-1.239" transform="translate(119.922 9.339)" fill="#fff"/>
    <path id="Path_68375" data-name="Path 68375" d="M229.464,17.46A1.239,1.239,0,1,0,230.7,18.7a1.239,1.239,0,0,0-1.239-1.239" transform="translate(122.082 9.339)" fill="#fff"/>
  </g>
</svg>
