<svg xmlns="http://www.w3.org/2000/svg" width="24.587" height="22.929" viewBox="0 0 24.587 22.929">
  <g id="Group_7574" data-name="Group 7574" transform="translate(-218.241 -22.779)">
    <path id="Path_68361" data-name="Path 68361" d="M139.485,17.472a.358.358,0,0,0,.041-.081A2.185,2.185,0,0,1,141.76,15.6q4.438,0,8.875,0c.92,0,1.84,0,2.758,0a1.417,1.417,0,0,1,.216.006.478.478,0,0,1,.411.483.472.472,0,0,1-.433.463,2.457,2.457,0,0,1-.263,0q-5.745,0-11.491,0a1.252,1.252,0,0,0-1.389,1.394V30.187a1.253,1.253,0,0,0,1.4,1.388H161.7a1.253,1.253,0,0,0,1.386-1.377V23.1a2.029,2.029,0,0,1,0-.239.477.477,0,0,1,.948,0,1.652,1.652,0,0,1,.006.216V30.2a2.2,2.2,0,0,1-2.349,2.336h-8.016c.05.084.08.138.113.189.649,1.017,1.3,2.031,1.948,3.049a.312.312,0,0,0,.305.171c.512-.009,1.023-.006,1.535,0a.484.484,0,1,1,0,.958q-5.816,0-11.633,0a.484.484,0,1,1,0-.958c.519,0,1.04,0,1.56-.006a.313.313,0,0,0,.232-.108c.7-1.078,1.393-2.161,2.117-3.292H141.9a2.2,2.2,0,0,1-2.388-1.835c0-.014-.02-.023-.03-.036Zm15.2,18.462a.378.378,0,0,0-.019-.072c-.684-1.07-1.364-2.14-2.056-3.207a.326.326,0,0,0-.23-.116c-.391-.011-.784,0-1.175-.009a.327.327,0,0,0-.324.181c-.637,1.006-1.281,2.007-1.923,3.009-.041.064-.075.131-.122.214Z" transform="translate(78.756 8.809)" fill="#fff"/>
    <path id="Path_68362" data-name="Path 68362" d="M157.2,14.559c1.6.53,1.3,2.04,1.3,3.436,0,.809.006,1.619,0,2.428a1.671,1.671,0,0,1-.695,1.53,3.694,3.694,0,0,1-1.992.247c-.746,0-1.66-.2-2.239.333-.322.3-.624.62-.934.931-.2.2-.465.595-.8.59-.74-.011-.477-1.424-.477-1.86a1.819,1.819,0,0,1-1.765-.724,5.2,5.2,0,0,1-.225-2.569c0-.939-.061-1.906.006-2.843a1.67,1.67,0,0,1,1.252-1.5Zm-4.88,7.789.072.03c.283-.291.573-.577.846-.876a.792.792,0,0,1,.637-.266c1.006.009,2.012.006,3.02,0a.577.577,0,0,0,.64-.637q0-2.218,0-4.433a.584.584,0,0,0-.634-.649q-2.971,0-5.944,0a.574.574,0,0,0-.626.629q0,2.227,0,4.456a.572.572,0,0,0,.641.634c.28,0,.559-.006.839,0a.475.475,0,0,1,.505.515c.006.2,0,.393,0,.59" transform="translate(84.31 8.22)" fill="#fff"/>
    <path id="Path_68363" data-name="Path 68363" d="M150.324,22.61a3.949,3.949,0,0,1,2.089,3.785c0,.291.106.912-.059,1.158-.2.3-.643.216-.961.217-.986,0-1.97,0-2.956,0-.933,0-1.87.034-2.8,0-.9-.033-.746-.626-.731-1.378a3.969,3.969,0,0,1,2.1-3.78,2.677,2.677,0,1,1,3.323,0M151.43,26.8a7.9,7.9,0,0,0-.009-1.249,2.77,2.77,0,0,0-3.348-2.292,2.919,2.919,0,0,0-2.186,3.541ZM148.655,22.2a1.7,1.7,0,0,0,1.716-1.691,1.708,1.708,0,1,0-1.716,1.691" transform="translate(81.806 10.076)" fill="#fff"/>
  </g>
</svg>
