<svg xmlns="http://www.w3.org/2000/svg" xmlns:xlink="http://www.w3.org/1999/xlink" width="50" height="50" viewBox="0 0 50 50">
  <defs>
    <clipPath id="clip-path">
      <rect id="Rectangle_380" data-name="Rectangle 380" width="23.863" height="24.365" fill="#fff"/>
    </clipPath>
  </defs>
  <g id="Group_7503" data-name="Group 7503" transform="translate(-140 -9689)">
    <g id="Icon" transform="translate(140 9689)">
      <rect id="Rectangle_16" data-name="Rectangle 16" width="50" height="50" rx="16" fill="#ee1f4f"/>
      <g id="Group_1522" data-name="Group 1522" transform="translate(12.375 12.4)">
        <g id="Group_1521" data-name="Group 1521" transform="translate(0 0)" clip-path="url(#clip-path)">
          <path id="Path_8458" data-name="Path 8458" d="M3.774,24.365a.733.733,0,0,1-.4-.842c.151-1.371.27-2.745.4-4.118a8.28,8.28,0,0,1,.568-2.443A3.445,3.445,0,0,1,7.758,14.67h2.612c.008-.069.019-.128.019-.188,0-.191-.01-.382,0-.571a2,2,0,0,0-.517-1.8.57.57,0,0,1-.112-.181A11.793,11.793,0,0,0,8.8,10.183a2.962,2.962,0,0,1-.332-2.208A2.216,2.216,0,0,0,8.353,6.8a5.454,5.454,0,0,1-.294-3.287,4.145,4.145,0,0,1,.906-1.757,1.111,1.111,0,0,1,1.274-.405,1.584,1.584,0,0,0,1.61-.335c.3-.231.621-.439.941-.645A2.221,2.221,0,0,1,15.24.362a4.618,4.618,0,0,1,.672.487c.615.512,1.218,1.04,1.833,1.552A2.773,2.773,0,0,1,18.9,5.057a9.8,9.8,0,0,1-.216,1.118,7.653,7.653,0,0,0-.359,1.1A8.2,8.2,0,0,0,18.456,8.4a2.784,2.784,0,0,1-.83,2.381.383.383,0,0,0-.1.182,4.375,4.375,0,0,1-.926,1.7.377.377,0,0,0-.113.2c-.009.593-.005,1.186-.005,1.809h.3c.9.008,1.81-.016,2.711.032a3.258,3.258,0,0,1,2.662,1.6,6.033,6.033,0,0,1,.887,2.635c.177,1.559.315,3.123.476,4.684a.673.673,0,0,1-.423.741ZM9.553,8.633a1.472,1.472,0,0,0,.4,1.206,1.263,1.263,0,0,1,.524.886.959.959,0,0,0,.1.291,3.7,3.7,0,0,0,1.188,1.458,2.882,2.882,0,0,0,3.485-.112A4.635,4.635,0,0,0,16.429,10.6a1.525,1.525,0,0,1,.5-.734.708.708,0,0,0,.207-.285,2.433,2.433,0,0,0,.155-1.351.208.208,0,0,0-.091-.122.625.625,0,0,1-.272-.549A2.133,2.133,0,0,0,14.9,5.239,10.112,10.112,0,0,1,12.791,4.8a.934.934,0,0,0-.534-.013A3,3,0,0,0,10.1,7.818c.022.486-.074.635-.545.815m7.731,7.179c-.331,0-.624-.015-.915.007a.566.566,0,0,0-.343.148c-.687.714-1.362,1.44-2.042,2.161a.635.635,0,0,1-1.087,0c-.679-.721-1.356-1.445-2.04-2.162a.471.471,0,0,0-.274-.146c-.268-.02-.539,0-.808-.01-.133,0-.182.049-.193.177-.02.213-.052.424-.082.636a3.556,3.556,0,0,0,.076,1.706c.335.989.6,2,.894,3q.276.943.55,1.886h4.829a1.423,1.423,0,0,0,.054-.133q.776-2.655,1.549-5.312a.687.687,0,0,0,.029-.256c-.06-.558-.126-1.116-.194-1.7m-12.728,7.4H6.9v-.269c0-.825,0-1.65,0-2.474a.55.55,0,0,1,.7-.578c.284.057.431.257.433.62,0,.817,0,1.633,0,2.45,0,.083.008.167.011.251h1.76c-.021-.084-.037-.153-.056-.221-.431-1.482-.853-2.967-1.3-4.444a3.181,3.181,0,0,1-.158-1.54c.013-.07.02-.141.029-.212l.115-.961c-.358,0-.691-.017-1.021,0A2.076,2.076,0,0,0,5.588,17.01a5.353,5.353,0,0,0-.513,1.469c-.164.959-.242,1.932-.347,2.9-.066.6-.114,1.212-.171,1.83m13.876-7.39c.043.339.088.644.12.95a3.581,3.581,0,0,1-.032,1.457c-.478,1.575-.926,3.16-1.385,4.74-.023.079-.042.158-.062.237h1.786c0-.914,0-1.809,0-2.7,0-.395.2-.619.556-.625A.549.549,0,0,1,20,20.5c0,.737,0,1.474,0,2.212v.5h2.324c-.1-1.083-.206-2.147-.3-3.213a8.622,8.622,0,0,0-.449-2.325,2.706,2.706,0,0,0-1.432-1.661,3.93,3.93,0,0,0-1.709-.188M17.611,5.688a1.913,1.913,0,0,0-.5-2.307c-.322-.281-.67-.533-.994-.813-.39-.336-.74-.725-1.155-1.025a1.274,1.274,0,0,0-1.8-.068c-.385.265-.771.529-1.166.778a1.965,1.965,0,0,1-1.771.245.36.36,0,0,0-.162-.032.453.453,0,0,0-.248.08,3.392,3.392,0,0,0-.527,3.4c.007,0,.017-.006.02-.012.027-.048.054-.1.08-.145a4.26,4.26,0,0,1,2.263-2,2.138,2.138,0,0,1,1.6-.039,5.7,5.7,0,0,0,1.553.3A3.512,3.512,0,0,1,17.3,5.27c.111.132.206.276.311.418m-6.078,8.018c0,.392-.011.758.007,1.121a.557.557,0,0,0,.135.327c.51.554,1.034,1.1,1.55,1.645a2.549,2.549,0,0,1,.191.263c.657-.7,1.264-1.348,1.87-2a.178.178,0,0,0,.053-.1c0-.414,0-.827,0-1.256a4.333,4.333,0,0,1-3.807,0" transform="translate(-1.679 0)" fill="#fff"/>
          <path id="Path_8459" data-name="Path 8459" d="M0,4.1a.716.716,0,0,1,.685-.554c.29-.035.575-.115.866-.148a.368.368,0,0,0,.318-.237c.154-.3.324-.6.481-.9a.56.56,0,0,1,.526-.342.578.578,0,0,1,.525.348c.165.316.329.633.51.939a.422.422,0,0,0,.247.177c.347.078.7.136,1.05.195a.561.561,0,0,1,.489.4.581.581,0,0,1-.161.61c-.251.253-.5.5-.742.771a.418.418,0,0,0-.09.287c.034.363.092.723.138,1.084a.557.557,0,0,1-.779.625,3.3,3.3,0,0,1-.708-.331.788.788,0,0,0-.975,0,4.743,4.743,0,0,1-.616.307A.576.576,0,0,1,.9,6.733c.03-.339.08-.676.133-1.013A.417.417,0,0,0,.9,5.3,6.6,6.6,0,0,1,.363,4.73C.231,4.577.121,4.406,0,4.243Zm2.877-.4a1.129,1.129,0,0,1-1.126.822A1.181,1.181,0,0,1,2.2,5.836a1.085,1.085,0,0,1,1.375.008A1.144,1.144,0,0,1,4,4.515,1.1,1.1,0,0,1,2.878,3.7" transform="translate(0 -0.958)" fill="#fff"/>
          <path id="Path_8460" data-name="Path 8460" d="M34.852,21.251c.069-.483.151-1,.211-1.519a.439.439,0,0,0-.1-.31c-.329-.365-.67-.719-1.016-1.069a.588.588,0,0,1,.348-1.038c.461-.08.919-.171,1.38-.246a.417.417,0,0,0,.341-.246c.22-.43.459-.85.686-1.276a.559.559,0,0,1,.529-.336.574.574,0,0,1,.529.339c.232.433.474.86.7,1.3a.381.381,0,0,0,.308.218c.46.079.919.169,1.38.247a.6.6,0,0,1,.541.4.631.631,0,0,1-.2.668c-.34.344-.674.693-1,1.052a.412.412,0,0,0-.091.287c.053.488.125.974.19,1.461a.562.562,0,0,1-.81.646c-.468-.193-.918-.43-1.383-.63a.483.483,0,0,0-.344,0c-.464.2-.917.432-1.379.639a.572.572,0,0,1-.83-.582m3.488-.838c-.044-.31-.07-.529-.106-.746a.929.929,0,0,1,.3-.9c.162-.148.3-.316.479-.5-.273-.05-.511-.1-.752-.135a.835.835,0,0,1-.675-.5c-.1-.208-.218-.41-.347-.65-.13.239-.244.436-.344.64a.855.855,0,0,1-.693.509c-.236.031-.47.084-.733.133l.567.6a.768.768,0,0,1,.216.674c-.038.263-.067.526-.111.88a1.537,1.537,0,0,1,2.2-.005" transform="translate(-16.86 -7.6)" fill="#fff"/>
          <path id="Path_8461" data-name="Path 8461" d="M6.146,21.567c.012.476-.349.757-.735.61-.362-.137-.7-.327-1.062-.473A.5.5,0,0,0,4,21.7c-.322.132-.632.292-.946.443a.57.57,0,0,1-.628-.035A.591.591,0,0,1,2.2,21.5c.054-.352.1-.706.138-1.06a.359.359,0,0,0-.081-.247c-.238-.266-.488-.52-.736-.777A.581.581,0,0,1,1.858,18.4c.344-.057.687-.118,1.026-.2a.469.469,0,0,0,.262-.195c.185-.3.343-.625.518-.935a.564.564,0,0,1,1.027,0c.17.3.335.594.486.9a.41.41,0,0,0,.338.251c.336.051.669.126,1,.187a.571.571,0,0,1,.483.4.552.552,0,0,1-.153.588c-.241.252-.477.51-.729.75A.386.386,0,0,0,6,20.526c.057.368.1.737.144,1.041M4.177,18.54a1.132,1.132,0,0,1-1.117.807,1.15,1.15,0,0,1,.413,1.326,1.115,1.115,0,0,1,1.391-.013A1.15,1.15,0,0,1,5.3,19.345a1.121,1.121,0,0,1-1.118-.805" transform="translate(-0.661 -8.365)" fill="#fff"/>
          <path id="Path_8462" data-name="Path 8462" d="M21.917,41.637a1.61,1.61,0,0,1-1.625-1.586,1.608,1.608,0,0,1,3.216-.03,1.6,1.6,0,0,1-1.591,1.615m0-1.144a.441.441,0,0,0,.444-.458.445.445,0,0,0-.465-.463.439.439,0,0,0-.439.46.433.433,0,0,0,.46.46" transform="translate(-10.139 -19.202)" fill="#fff"/>
        </g>
      </g>
    </g>
  </g>
</svg>
