<svg xmlns="http://www.w3.org/2000/svg" xmlns:xlink="http://www.w3.org/1999/xlink" width="50" height="50" viewBox="0 0 50 50">
  <defs>
    <clipPath id="clip-path">
      <rect id="Rectangle_2058" data-name="Rectangle 2058" width="29.854" height="24.451" fill="#fff"/>
    </clipPath>
  </defs>
  <g id="Group_7502" data-name="Group 7502" transform="translate(-642 -9689)">
    <g id="Icon" transform="translate(642.428 9689)">
      <rect id="Rectangle_16" data-name="Rectangle 16" width="50" height="50" rx="16" transform="translate(-0.429)" fill="#ee1f4f"/>
      <g id="Group_6990" data-name="Group 6990" transform="translate(9.284 12.734)">
        <g id="Group_6989" data-name="Group 6989" clip-path="url(#clip-path)">
          <path id="Path_56927" data-name="Path 56927" d="M6.077,2.894H29.152c.591,0,.7.11.7.7q0,10.072,0,20.144c0,.608-.093.7-.687.7-8.66,0-17.32-.012-25.98.01A3.186,3.186,0,0,1,.05,22.063,2.43,2.43,0,0,1,0,21.586q0-9.26,0-18.52A3.009,3.009,0,0,1,2.676.017,3.045,3.045,0,0,1,6,2.435c.032.145.052.292.081.459M28.909,23.516V3.842H6.066q0,6.337,0,12.674V19.5c0,.423.259,1.908-.545,1.8-.476-.065-.59-1.016-1.02-1.315a2.464,2.464,0,0,0-2.048-.274,1.886,1.886,0,0,0-.991,3.1c1.044,1.165,3.213.709,4.593.708q11.427,0,22.855,0M5.116,19.174c0-.069.009-.108.009-.148q0-8,0-15.99a2.248,2.248,0,0,0-.1-.649A2.069,2.069,0,0,0,2.762.951,2.083,2.083,0,0,0,.926,3.122q-.006,8.025,0,16.05A2.272,2.272,0,0,0,.95,19.4a3.66,3.66,0,0,1,4.167-.23" transform="translate(0 0)" fill="#fff"/>
          <path id="Path_56928" data-name="Path 56928" d="M104.111,161.26h2.37q0-1.855,0-3.71c0-.482-.372-2.857.546-2.695.753.133.4,2.22.4,2.764q0,1.842,0,3.683h2.051c0-.96,0-1.919,0-2.879,0-.382-.224-2.017.584-1.78.588.173.344,1.528.345,1.981,0,.892,0,1.783,0,2.675h2.059c0-.641-.39-4.088.452-4.131s.476,3.506.476,4.133h2.051c0-.517-.4-3.625.533-3.479.789.124.41,2.9.41,3.5.369,0,1.459-.069,1.121.669-.242.528-1.587.274-2.042.274H105.207c-.441,0-1.557.222-1.908-.131s-.13-1.479-.13-1.922q0-2.671,0-5.342c0-.536-.363-4.022.652-3.586.506.217.289,1.276.289,1.692q0,1.319,0,2.637,0,2.637,0,5.274Z" transform="translate(-95.152 -139.585)" fill="#fff"/>
          <path id="Path_56929" data-name="Path 56929" d="M186.275,80.118c.941.84,1.952,1.641,2.84,2.535.784.789-.367,1.487-1.08,1.876a4.993,4.993,0,1,1-1.445-9.308c.636.122,3.141,1.02,2.307,1.957-.866.972-1.733,1.943-2.623,2.941m1.709-3.293a3.981,3.981,0,0,0-6.253,3.957.324.324,0,0,0,.089,0q1.738-.518,3.475-1.04a.457.457,0,0,0,.2-.119c.827-.924,1.649-1.853,2.487-2.8M181.95,81.7a4,4,0,0,0,6.36,1.432c-.893-.805-1.784-1.611-2.682-2.409a.3.3,0,0,0-.242-.049c-1.141.335-2.28.679-3.436,1.026" transform="translate(-166.774 -69.344)" fill="#fff"/>
          <path id="Path_56930" data-name="Path 56930" d="M279.5,93.965a5.053,5.053,0,0,1-1.338,3.411c-.3.332-.521.336-.835.019q-1.509-1.527-3.014-3.059c-.3-.3-.291-.456,0-.759q1.455-1.5,2.91-2.993c.352-.362.59-.363.932,0a4.94,4.94,0,0,1,1.341,3.38m-1.764,2.456a3.909,3.909,0,0,0,.024-4.865l-2.519,2.367,2.5,2.5" transform="translate(-252.965 -83.35)" fill="#fff"/>
        </g>
      </g>
    </g>
  </g>
</svg>
