<svg xmlns="http://www.w3.org/2000/svg" xmlns:xlink="http://www.w3.org/1999/xlink" width="49" height="50" viewBox="0 0 49 50">
  <defs>
    <clipPath id="clip-path">
      <rect id="Rectangle_2059" data-name="Rectangle 2059" width="27.302" height="27.305" fill="#fafafa"/>
    </clipPath>
  </defs>
  <g id="Group_7501" data-name="Group 7501" transform="translate(-1147 -9689)">
    <g id="Icon" transform="translate(1146.883 9689)">
      <rect id="Rectangle_16" data-name="Rectangle 16" width="49" height="50" rx="16" transform="translate(0.117)" fill="#ee1f4f"/>
      <g id="Group_6992" data-name="Group 6992" transform="translate(10.966 11.348)">
        <g id="Group_6991" data-name="Group 6991" clip-path="url(#clip-path)">
          <path id="Path_56931" data-name="Path 56931" d="M27.3,114.355a.6.6,0,0,1-.564.27q-13.092-.006-26.183,0H.5c-.315-.006-.5-.152-.5-.4s.182-.4.493-.4c.667,0,1.333,0,2,0h.494V113.5q0-4.225,0-8.451c0-.524.1-.631.615-.631H7.468c.487,0,.591.105.591.6q0,4.225,0,8.451v.334h3.048v-.342q0-5.225,0-10.45c0-.08,0-.16,0-.24.017-.347.146-.482.5-.484.818-.006,1.635,0,2.453,0,.515,0,1.031,0,1.546,0,.467,0,.586.118.586.582q0,2.466,0,4.932v6.008h3.048v-.355q0-7.611,0-15.222c0-.559.094-.654.646-.654H23.7c.5,0,.614.119.614.614q0,7.624,0,15.249v.384h.294c.711,0,1.422.007,2.133,0a.586.586,0,0,1,.563.271ZM20.06,113.8H23.5V98.391H20.06Zm-8.135.009h3.439V103.1H11.925Zm-8.128,0H7.243v-8.561H3.8Z" transform="translate(0 -87.32)" fill="#fafafa"/>
          <path id="Path_56932" data-name="Path 56932" d="M29.031,0A1.451,1.451,0,0,1,30.05,1.365c.068.944-.005,1.93-.008,2.878,0,.725-.11,1.368-.886,1.621-.9.293-1.293-.4-1.695-1.053-.663.713-1.321,1.425-2.03,2.094q-.587.553-1.2,1.077a6.466,6.466,0,0,1-1.148.936c-.314.15-.739.087-.667-.375.054-.344.739-.706.977-.9a31.921,31.921,0,0,0,2.387-2.2q.568-.581,1.105-1.192c.241-.274.525-.812.9-.916.96-.269.274,1.357.731,1.7.933.705.732-1.608.732-1.919,0-.719.371-2.224-.6-2.3a9.518,9.518,0,0,0-1.773.224,7.693,7.693,0,0,0-1.478.187c-.3.1-.669.359-.385.729.316.412,1.136.032,1.542.036,1.191.012.166,1.073-.2,1.5a30.7,30.7,0,0,1-2.187,2.266,31.25,31.25,0,0,1-9.722,6.123,32.037,32.037,0,0,1-6.1,1.774c-.53.1-1.063.185-1.6.251a8.633,8.633,0,0,0-1.466.155c-.327.1-.625.431-.321.757.269.287.931.11,1.263.077a32.23,32.23,0,0,0,11.64-3.576Q19.1,10.659,20.293,9.9c.289-.183.9-.76,1.2-.294.32.5-.678.917-.987,1.11a34.069,34.069,0,0,1-5.566,2.806,34.466,34.466,0,0,1-5.971,1.742c-1,.2-2,.326-3.014.428-.827.084-1.742.035-1.916-.976-.22-1.276,1.03-1.425,1.951-1.527a29.387,29.387,0,0,0,3.668-.637,33.068,33.068,0,0,0,6.118-2.127,29.93,29.93,0,0,0,5.41-3.233,29.757,29.757,0,0,0,2.356-1.973q.616-.572,1.2-1.178a4.266,4.266,0,0,0,.977-1.11,1.472,1.472,0,0,1-1.467-.672A1.274,1.274,0,0,1,24.469.818,2.59,2.59,0,0,1,26.119.324,13.234,13.234,0,0,0,28.5,0Z" transform="translate(-3.596)" fill="#fafafa"/>
        </g>
      </g>
    </g>
  </g>
</svg>
