<svg xmlns="http://www.w3.org/2000/svg" xmlns:xlink="http://www.w3.org/1999/xlink" width="50" height="50" viewBox="0 0 50 50">
  <defs>
    <clipPath id="clip-path">
      <rect id="Rectangle_2064" data-name="Rectangle 2064" width="29.864" height="29.844" fill="#fafafa"/>
    </clipPath>
  </defs>
  <g id="Group_7505" data-name="Group 7505" transform="translate(-140 -10829)">
    <g id="Icon" transform="translate(140 10829)">
      <rect id="Rectangle_16" data-name="Rectangle 16" width="50" height="50" rx="16" fill="#ee1f4f"/>
      <g id="Group_6994" data-name="Group 6994" transform="translate(10 8.328)">
        <g id="Group_6993" data-name="Group 6993" clip-path="url(#clip-path)">
          <path id="Path_56933" data-name="Path 56933" d="M0,119.839c.239-.536,1.017-.367,1.478-.367v-8.926h1v8.9H3.47v-8.9h1v8.923c1.992,0,3.983.007,5.975,0a3.8,3.8,0,0,1,2.256.3c.256.187.376.523.669.651a4.189,4.189,0,0,0,1.367.048,10.9,10.9,0,0,0,1.367-.013c.462-.058.487-.211.8-.52.6-.587,1.414-.468,2.191-.466,2.072,0,4.145,0,6.217,0v-.978H26.3v.951h1V118.5h1v.969c.524,0,1.284-.189,1.486.426a4.748,4.748,0,0,1-.031,1.93,2.072,2.072,0,0,1-2.156,1.615c-3.3.1-6.625,0-9.93,0H2.844c-1.435,0-2.324-.251-2.844-1.686v-1.921m1,.627a10.537,10.537,0,0,0,.007,1.129c.061.552.5.857,1.16.857H27.623a1.933,1.933,0,0,0,.347-.023.931.931,0,0,0,.8-.809,10.627,10.627,0,0,0,.008-1.136c-.089-.006-.164-.016-.24-.016q-5.236,0-10.471,0a.57.57,0,0,0-.55.3,1.25,1.25,0,0,1-1.087.673c-1.045.016-2.092.01-3.137-.012a1.147,1.147,0,0,1-.975-.6.71.71,0,0,0-.693-.365c-3.432.01-6.865.006-10.3.006H1" transform="translate(0 -93.642)" fill="#fafafa"/>
          <path id="Path_56934" data-name="Path 56934" d="M99.409,0a10.762,10.762,0,0,1,1.235,1.208c.372.4.414.383.91.233.4-.121,1.106-.524,1.529-.43s.447.447.539.826.1,1.162.376,1.436,1.059.276,1.435.367c1.23.3.693,1.034.395,2.03-.168.562-.157.593.272.992.3.28,1.088.756,1.151,1.191.129.887-1.551,1.177-1.522,2.065.021.672.932,1.619.267,2.174-.324.27-1.09.271-1.489.364-.642.149-.607.351-.748,1.007-.212.984-.209,1.6-1.311,1.268-.359-.107-.984-.474-1.357-.42-.5.072-.939,1-1.313,1.313-.977.814-1.331-.933-2.088-1.26-.727-.314-1.752.966-2.45.365-.318-.274-.332-1.166-.422-1.551-.13-.559-.179-.607-.718-.727-1.013-.226-1.931-.151-1.574-1.36.111-.376.493-1.037.393-1.422s-.761-.768-1.047-1.044c-1.183-1.144.462-1.28.952-2.238.385-.751-.89-1.846-.306-2.509.3-.341,1.181-.346,1.592-.443.68-.159.622-.351.769-1.034.082-.383.1-1.193.536-1.363.4-.155,1.081.215,1.46.338.566.185.675.3,1.093-.145.4-.423.778-.842,1.207-1.232h.233m5.718,4.593c-.532-.118-1.029-.242-1.532-.335-.8-.148-.788-1.494-.928-2.121-.513.163-1.394.646-1.929.5S99.68,1.632,99.316,1.233c-.363.4-.883,1.262-1.419,1.407s-1.418-.339-1.933-.5c-.113.505-.126,1.539-.508,1.936S94,4.484,93.51,4.6a5.186,5.186,0,0,1,.525,1.831c-.1.587-1.006,1.134-1.428,1.517.4.364,1.256.881,1.4,1.417s-.337,1.422-.5,1.936c.523.116,1.542.139,1.929.534s.407,1.4.523,1.921c.515-.162,1.393-.636,1.928-.495s1.059,1,1.425,1.4c.353-.387.9-1.282,1.421-1.421s1.425.358,1.92.515c.144-.532.146-1.625.595-1.985a5.384,5.384,0,0,1,1.872-.471c-.158-.5-.652-1.41-.515-1.929s1.029-1.069,1.416-1.422c-.387-.353-1.282-.9-1.417-1.423s.361-1.431.519-1.929" transform="translate(-77.47)" fill="#fafafa"/>
          <path id="Path_56935" data-name="Path 56935" d="M0,71.82a.637.637,0,0,1,.66-.368c2.374.006,4.749,0,7.123,0,.5,0,.655.165.655.668q0,1.818,0,3.636c0,.492-.17.658-.67.658-2.365,0-4.729,0-7.094,0A.7.7,0,0,1,0,76.069Zm7.436.653H1.015v2.936h6.42Z" transform="translate(0 -60.526)" fill="#fafafa"/>
          <path id="Path_56936" data-name="Path 56936" d="M40.28,95.364c.244.57,1.5,2.557.812,2.985-.43.269-1.376.09-1.864.077-.691-.018-.784-.272-1.079-.877a3.915,3.915,0,0,0-.866-1.479c-.411-.29-.834-.317-1.16-.76a1.925,1.925,0,0,1,.246-2.546c.39-.357.906-.558,1.329-.876a13.588,13.588,0,0,0,1.449-1.337c1.014-1.023,2.044-2.03,3.07-3.042.264-.261.661-.8,1.087-.578s.563,1.237.711,1.667L45.4,92.631c.243.7,1.427,2.677.132,2.8a45.181,45.181,0,0,1-4.9-.069c-.1,0-.21,0-.354,0m4.7-.932-2.134-6.186L38.831,92.4a8.063,8.063,0,0,0,.873,1.741c.365.383.938.238,1.453.244,1.274.017,2.547.049,3.821.049M37.969,92.9c-.315.2-.613.365-.879.57a.908.908,0,0,0,.037,1.438c.566.421,1.185-.029,1.719-.273L37.969,92.9m2.116,4.534-.825-1.9-.8.4a4.917,4.917,0,0,0,.686,1.386c.247.209.63.119.941.119" transform="translate(-30.287 -73.593)" fill="#fafafa"/>
          <path id="Path_56937" data-name="Path 56937" d="M132.608,91.259v-.97h.987v.945h.994V87.8h1v3.459c.321,0,.609,0,.9,0,.405.007.6.187.6.587q.006,2.9,0,5.79a.511.511,0,0,1-.551.573c-.087.006-.174,0-.262,0h-8.784c-.087,0-.175,0-.262,0-.391-.023-.559-.192-.561-.587,0-.921,0-1.843,0-2.764,0-.989,0-1.979,0-2.968,0-.459.174-.632.634-.632q2.487,0,4.974,0h.334m3.472,1.012h-8.4V97.2h8.4Z" transform="translate(-107.296 -74.374)" fill="#fafafa"/>
          <path id="Path_56938" data-name="Path 56938" d="M21.128,45.433v1H14.634a9.908,9.908,0,0,0-2.9.095c-.9.3-.986,1.041-1.04,1.871H9.759a2.511,2.511,0,0,1,.808-2.33,3.742,3.742,0,0,1,2.713-.63q3.744,0,7.487,0Z" transform="translate(-8.227 -38.485)" fill="#fafafa"/>
          <path id="Path_56939" data-name="Path 56939" d="M33.381,58.476v.957H23.016a.872.872,0,0,1,.751-.946,2.143,2.143,0,0,1,.347-.023q4.491,0,8.982,0c.086,0,.172.007.285.012" transform="translate(-19.486 -49.523)" fill="#fafafa"/>
          <path id="Path_56940" data-name="Path 56940" d="M102.818,107.529l.323.936-1.633.57-.331-.934,1.641-.571" transform="translate(-85.706 -91.087)" fill="#fafafa"/>
          <path id="Path_56941" data-name="Path 56941" d="M94.886,82.829l-1.05,1.1-.663-.742,1.042-1.09.671.733" transform="translate(-78.926 -69.543)" fill="#fafafa"/>
          <rect id="Rectangle_2060" data-name="Rectangle 2060" width="1.465" height="0.951" transform="translate(16.888 20.39)" fill="#fafafa"/>
          <path id="Path_56942" data-name="Path 56942" d="M125.286,39.349l-.617-.6,4.936-4.938.571.644-4.89,4.892" transform="translate(-105.606 -28.643)" fill="#fafafa"/>
          <path id="Path_56943" data-name="Path 56943" d="M149.411,53.561a1.483,1.483,0,1,1,1.475,1.489,1.493,1.493,0,0,1-1.475-1.489m1.969.01a.482.482,0,0,0-.463-.494.486.486,0,1,0,.463.494" transform="translate(-126.564 -44.127)" fill="#fafafa"/>
          <path id="Path_56944" data-name="Path 56944" d="M119.978,33.964a1.483,1.483,0,1,1-1.465-1.5,1.491,1.491,0,0,1,1.465,1.5m-.995,0a.486.486,0,0,0-.466-.494.487.487,0,1,0,.466.494" transform="translate(-99.134 -27.503)" fill="#fafafa"/>
          <rect id="Rectangle_2061" data-name="Rectangle 2061" width="2.452" height="0.954" transform="translate(3.989 12.932)" fill="#fafafa"/>
          <rect id="Rectangle_2062" data-name="Rectangle 2062" width="0.959" height="0.954" transform="translate(1.997 12.937)" fill="#fafafa"/>
          <rect id="Rectangle_2063" data-name="Rectangle 2063" width="6.418" height="0.958" transform="translate(21.367 20.872)" fill="#fafafa"/>
        </g>
      </g>
    </g>
  </g>
</svg>
