<svg xmlns="http://www.w3.org/2000/svg" xmlns:xlink="http://www.w3.org/1999/xlink" width="49" height="50" viewBox="0 0 49 50">
  <defs>
    <clipPath id="clip-path">
      <rect id="Rectangle_2066" data-name="Rectangle 2066" width="28.938" height="30" fill="#fff"/>
    </clipPath>
  </defs>
  <g id="Icon" transform="translate(-0.117)">
    <rect id="Rectangle_16" data-name="Rectangle 16" width="49" height="50" rx="16" transform="translate(0.117)" fill="#ee1f4f"/>
    <g id="Group_6998" data-name="Group 6998" transform="translate(10.117 10)">
      <g id="Group_6997" data-name="Group 6997" clip-path="url(#clip-path)">
        <path id="Path_56951" data-name="Path 56951" d="M6.749,59.709a4.517,4.517,0,0,1-1.6-1.284q-.917-.921-1.836-1.84L1.472,54.747A5.586,5.586,0,0,1,.108,53.2a1.557,1.557,0,0,1,.445-1.705,12.25,12.25,0,0,1,1.657-1.641,1.538,1.538,0,0,1,.823-.332c.3-.021.6.167.881.113.552-.1,1.3-1,1.734-1.359A12.011,12.011,0,0,1,9.139,45.8a6.7,6.7,0,0,1,3.854-.074,16.672,16.672,0,0,0,4.554.521c1.388-.008,2.715-.113,3.661,1.093,1.138-1,2.223-2.058,3.367-3.051a2.932,2.932,0,0,1,3.354-.583,1.531,1.531,0,0,1,.512,2.572c-1.043,1.174-2.252,2.234-3.361,3.346a19.117,19.117,0,0,1-3.228,3.026,10.123,10.123,0,0,1-4.075,1.182,31.675,31.675,0,0,1-4.59.152,3.933,3.933,0,0,0-3.421,1.427c.439.995.581,1.572-.224,2.414a9.109,9.109,0,0,1-2.264,1.888ZM9.12,54.747c.11-.12.252-.293.414-.448A4.009,4.009,0,0,1,11.7,53.146a12.018,12.018,0,0,1,2.009-.086,23.989,23.989,0,0,0,5.678-.453,4.962,4.962,0,0,0,2.552-1.159q2.956-2.928,5.887-5.882a.515.515,0,0,0-.077-.884,1.919,1.919,0,0,0-2.425.181c-1.172,1.063-2.337,2.133-3.51,3.2a.373.373,0,0,0-.138.4A1.518,1.518,0,0,1,20.037,50.4H12.1a2.585,2.585,0,0,1-.293-.005.432.432,0,0,1-.415-.419.427.427,0,0,1,.339-.482,1.436,1.436,0,0,1,.376-.031l8.029,0c.466,0,.661-.211.637-.669a1.735,1.735,0,0,0-1.759-1.616q-1.787-.013-3.575,0a6.631,6.631,0,0,1-1.868-.3,10.878,10.878,0,0,0-2.024-.428,4.587,4.587,0,0,0-3.587,1.107c-.627.558-1.287,1.079-1.931,1.618-.463.387-.926.775-1.409,1.18l4.5,4.4m-2.08,4.07a2.049,2.049,0,0,0,.4-.233q.819-.8,1.617-1.614a.531.531,0,0,0,0-.827q-2.739-2.749-5.488-5.489a.536.536,0,0,0-.848,0q-.794.78-1.574,1.574a.541.541,0,0,0,0,.869q2.731,2.736,5.471,5.465a2.12,2.12,0,0,0,.42.255" transform="translate(0 -29.709)" fill="#fff"/>
        <path id="Path_56952" data-name="Path 56952" d="M48.977,19.868a9.309,9.309,0,0,1-1.586-.678c-.721-.392-1.043-.252-1.746.118-1.017.537-2.453.853-2.924-.594-.35-1.076.649-2.149-.223-3.053-.786-.814-1.839-1.641-1.046-2.875.661-1.029,1.913-.455,2.79-1,.9-.561.7-2.043,1.865-2.419,1.064-.344,1.742.35,2.181,1.219.2.4.349.973.761,1.214.513.3,1.281.164,1.845.331a1.633,1.633,0,0,1,.934,2.431c-.347.542-1.032.862-1.348,1.41-.3.525.032,1.408.121,1.975a1.682,1.682,0,0,1-1.623,1.92m-2.341-1.986a8.2,8.2,0,0,1,.827.289c.519.242,1.368.994,1.938.581.5-.364.2-1.128.119-1.625a2.125,2.125,0,0,1,.156-1.645c.337-.523.973-.823,1.3-1.344.857-1.376-1.667-1.165-2.331-1.486-.9-.432-1.065-2.562-2.1-2.42-.552.075-.724.778-.936,1.2a2.136,2.136,0,0,1-1.234,1.312c-.563.178-1.3.048-1.829.312-.687.347-.39.94.019,1.356a4.5,4.5,0,0,1,1.184,1.368c.279.734-.1,1.469-.144,2.205-.094,1.751,2.252.155,3.033-.106" transform="translate(-28.182 -6.351)" fill="#fff"/>
        <path id="Path_56953" data-name="Path 56953" d="M76.974,13.835c-.444-.429-.508-.766.1-1.117.314-.181,1.343-.2.93.454-.221.35-.628.45-1.03.663" transform="translate(-52.456 -8.631)" fill="#fff"/>
        <path id="Path_56954" data-name="Path 56954" d="M68.9,3.3c.9-.015.452,1.289-.073,1.484a.514.514,0,0,1-.65-.344c-.063-.3.329-.772.489-1.008.056-.083.193-.111.234-.133" transform="translate(-46.667 -2.256)" fill="#fff"/>
        <path id="Path_56955" data-name="Path 56955" d="M57.036.8c0-.322-.04-.7.355-.789.578-.124.585.542.56.936-.021.335-.073.683-.5.645s-.419-.455-.419-.792h0" transform="translate(-39.042 0)" fill="#fff"/>
        <path id="Path_56956" data-name="Path 56956" d="M36.869,13.683c-.343-.163-1.589-.674-.9-1.2.394-.3,1.543.321,1.273.836a1.71,1.71,0,0,1-.372.368" transform="translate(-24.482 -8.488)" fill="#fff"/>
        <path id="Path_56957" data-name="Path 56957" d="M33.37,25.434c-.971,0-1-.939.019-.938s.972.938-.019.938" transform="translate(-22.339 -16.768)" fill="#fff"/>
        <path id="Path_56958" data-name="Path 56958" d="M80.277,25.431c-.965,0-1.007-.934.015-.938,1.04-.005.988.939-.015.939h0" transform="translate(-54.448 -16.766)" fill="#fff"/>
        <path id="Path_56959" data-name="Path 56959" d="M46.228,4.291c-.553.577-.939.47-1.24-.314-.191-.5.349-1.169.739-.567.172.266.315.55.5.88" transform="translate(-30.769 -2.171)" fill="#fff"/>
      </g>
    </g>
  </g>
</svg>
