<svg xmlns="http://www.w3.org/2000/svg" xmlns:xlink="http://www.w3.org/1999/xlink" width="50" height="50" viewBox="0 0 50 50">
  <defs>
    <clipPath id="clip-path">
      <rect id="Rectangle_2065" data-name="Rectangle 2065" width="24.754" height="29.03" fill="#fff"/>
    </clipPath>
  </defs>
  <g id="Group_7506" data-name="Group 7506" transform="translate(-642 -10829)">
    <g id="Icon" transform="translate(642.428 10829)">
      <rect id="Rectangle_16" data-name="Rectangle 16" width="50" height="50" rx="16" transform="translate(-0.429)" fill="#ee1f4f"/>
      <g id="Group_6996" data-name="Group 6996" transform="translate(12.572 10)">
        <g id="Group_6995" data-name="Group 6995" clip-path="url(#clip-path)">
          <path id="Path_56945" data-name="Path 56945" d="M12.541,0A48.449,48.449,0,0,0,24.023,4.933c.638.18.723.3.722.952,0,2.183.034,4.367-.021,6.548A17.579,17.579,0,0,1,19.9,24.33a17.991,17.991,0,0,1-5.42,4.037,11.009,11.009,0,0,1-1.56.584,2.788,2.788,0,0,1-1.845-.236,16.159,16.159,0,0,1-4.609-2.837A18.012,18.012,0,0,1,1.47,19.2,15.9,15.9,0,0,1,.08,13.45C-.008,10.855.017,8.255,0,5.658c0-.381.15-.558.558-.674a50.673,50.673,0,0,0,5.35-1.834A48.128,48.128,0,0,0,11.74.268L12.2,0ZM23.576,9.741h-.042c0-1.115-.01-2.23.007-3.345a.362.362,0,0,0-.313-.427,48.587,48.587,0,0,1-10.573-4.5.49.49,0,0,0-.563,0A47.554,47.554,0,0,1,1.686,5.924c-.479.14-.483.145-.476.634.031,2.361.006,4.725.118,7.082a14.834,14.834,0,0,0,1.612,5.827,16.937,16.937,0,0,0,4.334,5.5,15.867,15.867,0,0,0,4.14,2.583,2.106,2.106,0,0,0,1.8.043c.264-.125.541-.225.8-.356a17.233,17.233,0,0,0,7.412-7.065,15.661,15.661,0,0,0,2-6.555c.1-1.289.1-2.585.15-3.877" transform="translate(0)" fill="#fff"/>
          <path id="Path_56946" data-name="Path 56946" d="M44.8,78.133a2.749,2.749,0,0,1,.232-.336q2.893-2.9,5.79-5.8a1.983,1.983,0,0,1,3.08,2.5,3.966,3.966,0,0,1-.3.34q-3.636,3.64-7.274,7.277a1.983,1.983,0,0,1-2.546.413,2.408,2.408,0,0,1-.464-.368q-1.729-1.718-3.448-3.447a1.985,1.985,0,0,1,.117-3.054,1.912,1.912,0,0,1,2.41.016c.745.667,1.435,1.4,2.146,2.1a3.155,3.155,0,0,1,.257.357m.029,3.545a4.39,4.39,0,0,0,.642-.444q3.636-3.617,7.257-7.25a2.221,2.221,0,0,0,.193-.207.755.755,0,0,0-.42-1.211.829.829,0,0,0-.828.31q-3.134,3.138-6.271,6.272c-.468.468-.738.466-1.213-.008-.809-.808-1.613-1.619-2.427-2.422a.763.763,0,1,0-1.085,1.07q1.775,1.791,3.57,3.563a2.736,2.736,0,0,0,.584.326" transform="translate(-34.388 -62.553)" fill="#fff"/>
          <path id="Path_56947" data-name="Path 56947" d="M23.653,46.384c0,1.046-2.466,1.064-3.108,1.54-.462.343-.229,1.087-.246,1.627-.014.431-.078,1.088-.7.972-.586-.108-.524-.862-.53-1.31-.007-.5-.187-1.468.088-1.928s1.11-.566,1.569-.728c.672-.238,1.344-.477,2.016-.713.492-.173.916.081.915.54" transform="translate(-16.664 -40.157)" fill="#fff"/>
          <path id="Path_56948" data-name="Path 56948" d="M127.342,160.118c-.363.8-3.954,5.436-4.75,4.13-.3-.5.2-.852.535-1.138a18.21,18.21,0,0,0,1.36-1.24,14.586,14.586,0,0,0,1.2-1.406c.268-.358.549-1.054,1.075-1.033a.613.613,0,0,1,.578.687" transform="translate(-107.431 -139.822)" fill="#fff"/>
          <path id="Path_56949" data-name="Path 56949" d="M110.19,199.92a.616.616,0,1,1,.581.609.6.6,0,0,1-.581-.609" transform="translate(-96.637 -174.791)" fill="#fff"/>
          <path id="Path_56950" data-name="Path 56950" d="M61.775,41.112a.6.6,0,1,1,.63-.6.642.642,0,0,1-.63.6" transform="translate(-53.67 -35)" fill="#fff"/>
        </g>
      </g>
    </g>
  </g>
</svg>
