<svg xmlns="http://www.w3.org/2000/svg" xmlns:xlink="http://www.w3.org/1999/xlink" width="81" height="77" viewBox="0 0 81 77">
  <defs>
    <clipPath id="clip-path">
      <rect id="Rectangle_1675" data-name="Rectangle 1675" width="54.945" height="54.952" fill="#e1003e"/>
    </clipPath>
  </defs>
  <g id="Group_2170" data-name="Group 2170" transform="translate(-0.289)">
    <rect id="Rectangle_182" data-name="Rectangle 182" width="81" height="77" rx="16" transform="translate(0.289)" fill="#ee1f4f" opacity="0.2"/>
    <g id="Group_6578" data-name="Group 6578" transform="translate(13.289 11.09)">
      <g id="Group_6577" data-name="Group 6577" transform="translate(0 0)" clip-path="url(#clip-path)">
        <path id="Path_46642" data-name="Path 46642" d="M0,47.371c.162-.131.336-.251.484-.4q5.748-5.747,11.485-11.506a1.136,1.136,0,0,1,.893-.355c5.956.009,11.912.063,17.866-.015a5.281,5.281,0,0,1,5.556,5.533,1.74,1.74,0,0,0,.029.271c.715,0,1.426.024,2.133-.017.176-.01.358-.209.5-.354,2.33-2.324,4.643-4.664,6.984-6.978a5.238,5.238,0,0,1,7.65,7.156c-.539.6-1.125,1.151-1.694,1.72q-6.351,6.358-12.7,12.72a1.19,1.19,0,0,1-.934.382q-11.455-.015-22.911-.015a1.247,1.247,0,0,0-.983.4c-1.958,1.988-3.941,3.95-5.9,5.934a1.07,1.07,0,0,1-.843.342c-2.539-.012-5.08-.007-7.619-.007V47.371m18.365-5.043h.7q5.929,0,11.858,0a2.034,2.034,0,0,0,1.7-.744,1.894,1.894,0,0,0,.251-2.113,1.94,1.94,0,0,0-1.907-1.137c-5.633,0-11.267,0-16.9.015a1.157,1.157,0,0,0-.726.329q-4.91,4.878-9.783,9.793a1.229,1.229,0,0,0-.33.777c-.023,3.058-.015,6.116-.014,9.175,0,.171.015.343.025.537,1.052,0,2.053.026,3.051-.015a1.354,1.354,0,0,0,.825-.342Q10.088,55.689,13,52.727a1.3,1.3,0,0,1,1.023-.432c7.636.014,15.273.007,22.91.019a1.193,1.193,0,0,0,.933-.39q6.472-6.5,12.961-12.989a5.726,5.726,0,0,0,.442-.468,2.009,2.009,0,0,0-1.2-3.25,2.052,2.052,0,0,0-1.933.674c-2.6,2.609-5.212,5.208-7.8,7.826a1.288,1.288,0,0,1-1.031.419c-1.412-.026-2.826-.016-4.239,0a1,1,0,0,0-.587.169,5.582,5.582,0,0,1-3.726,1.251c-3.935-.016-7.869-.005-11.8-.005h-.579Z" transform="translate(0 -7.236)" fill="#e1003e"/>
        <path id="Path_46643" data-name="Path 46643" d="M38.153,0a19.4,19.4,0,0,1,1.886.55A7.605,7.605,0,0,1,42.68,12.922c-1.627,1.683-3.3,3.318-4.959,4.974q-3.069,3.07-6.156,6.156c-.1-.081-.179-.143-.252-.216-3.6-3.6-7.222-7.184-10.8-10.809A7.608,7.608,0,0,1,23.822.286C24.2.179,24.576.1,24.953,0h1.825a26.2,26.2,0,0,1,2.5.8,10.936,10.936,0,0,1,2.269,1.673A10.258,10.258,0,0,1,36.328,0Zm-6.58,7.068c-.165-.156-.295-.274-.418-.4C29.515,5.046,27.972,2.966,25.4,3.247A4.437,4.437,0,0,0,21.494,7.2c-.245,2.713,2.177,4.446,3.888,6.159,2.02,2.022,3.962,4.25,6.143,6.1,2.109-2.094,4.23-4.178,6.334-6.277,1.761-1.757,4.124-3.4,3.7-6.184a4.417,4.417,0,0,0-4.349-3.792c-2.463-.04-4.072,2.281-5.635,3.861" transform="translate(-4.134 0)" fill="#e1003e"/>
      </g>
    </g>
  </g>
</svg>
