<svg xmlns="http://www.w3.org/2000/svg" xmlns:xlink="http://www.w3.org/1999/xlink" width="81" height="77" viewBox="0 0 81 77">
  <defs>
    <clipPath id="clip-path">
      <rect id="Rectangle_1674" data-name="Rectangle 1674" width="45.207" height="46.666" transform="translate(0 0)" fill="#e1003e"/>
    </clipPath>
  </defs>
  <g id="Group_2170" data-name="Group 2170" transform="translate(-0.289)">
    <rect id="Rectangle_182" data-name="Rectangle 182" width="81" height="77" rx="16" transform="translate(0.289)" fill="#ee1f4f" opacity="0.2"/>
    <g id="Group_6576" data-name="Group 6576" transform="translate(18.289 15)">
      <g id="Group_6575" data-name="Group 6575" clip-path="url(#clip-path)">
        <path id="Path_46640" data-name="Path 46640" d="M0,38.919c.3-1.28.906-1.593,1.817-2.367.764-.65.672-2.033.938-2.98a12.162,12.162,0,0,1,3.338-5.595c4.042-3.809,9.954-4.208,15.162-3.057-.157-3.375-.312-6.7-.471-10.1-.73,0-1.754.236-2.188-.48a7.026,7.026,0,0,1-.062-3.125c.158-.848.638-.823,1.429-.834,1.19-.016,2.382,0,3.572,0q-.587-2.784-1.183-5.568c-.238-1.108-1.469-4-.386-4.81h.455a1.128,1.128,0,0,1,.609.894c.458,2.181.928,4.359,1.394,6.538.209.976.42,1.951.635,2.946h.581q9.246,0,18.49-.007a1.008,1.008,0,0,1,1.077.567v3.281c-.269.736-.941.565-1.526.618q-.367,8.186-.758,16.369-.2,4.215-.4,8.43-.092,1.93-.18,3.861c-.038.834.258,2.629-.6,3.169h-35c-1.7-.606-3.1-1.13-3.942-2.865-.482-.992-.485-1.456-1.436-2.066A3.294,3.294,0,0,1,0,39.648ZM22.275,14.863c.083,1.867.162,3.686.247,5.505.063,1.354.128,2.708.2,4.061.08,1.434,1.13,1.621,2.3,2.25A7.512,7.512,0,0,1,37.56,24.917c4.051,4.9.266,12.126-5.922,12.12.966,1.205,1.369,2.763.307,4.059-.49.6-1.229.772-1.663,1.38-.588.825-.76,1.868-1.4,2.695h11.9q.705-15.165,1.41-30.308Zm6.6,21.393a11.04,11.04,0,0,0-4.442-8.1,10.839,10.839,0,0,0-6.533-2.2,19.029,19.029,0,0,0-7.241.79,10.992,10.992,0,0,0-6.9,9.508ZM37.79,29.55c-.024-.235-.038-.617-.108-.988a5.85,5.85,0,0,0-6.465-4.792,5.747,5.747,0,0,0-4.789,3.514c-.13.275-.185.507.123.745a5.555,5.555,0,0,1,.784.822,12.139,12.139,0,0,1,2.817,5.925.7.7,0,0,0,.662.683A5.959,5.959,0,0,0,37.79,29.55M16.317,37.807c-4.419,0-8.839-.008-13.258.015a1.963,1.963,0,0,0-1.042.34,1.379,1.379,0,0,0-.43,1.6,1.478,1.478,0,0,0,1.406.973c1.093.012,2.187,0,3.28,0q11.6,0,23.192,0a1.5,1.5,0,0,0,1.647-1.493,1.522,1.522,0,0,0-1.627-1.457c-4.389.036-8.779.016-13.168.016M3.8,42.263a6.425,6.425,0,0,0,.243.713,3.687,3.687,0,0,0,3.571,2.213q8.109.014,16.217,0c.637,0,1.275-.019,1.91-.069a3.526,3.526,0,0,0,3.009-2.858ZM43.7,11.889H20.044v1.4H43.7Z" fill="#e1003e"/>
        <rect id="Rectangle_1670" data-name="Rectangle 1670" width="1.422" height="1.439" transform="translate(21.526 31.877)" fill="#e1003e"/>
        <path id="Path_46641" data-name="Path 46641" d="M8.207,33.305c-.066-1.746-.322-1.474,1.408-1.411v1.411Z" fill="#e1003e"/>
        <rect id="Rectangle_1671" data-name="Rectangle 1671" width="1.401" height="1.414" transform="translate(17.083 28.192)" fill="#e1003e"/>
        <rect id="Rectangle_1672" data-name="Rectangle 1672" width="1.417" height="1.426" transform="translate(8.939 28.919)" fill="#e1003e"/>
        <rect id="Rectangle_1673" data-name="Rectangle 1673" width="1.426" height="1.428" transform="translate(14.86 32.626)" fill="#e1003e"/>
      </g>
    </g>
  </g>
</svg>
