<svg xmlns="http://www.w3.org/2000/svg" xmlns:xlink="http://www.w3.org/1999/xlink" width="81" height="77" viewBox="0 0 81 77">
  <defs>
    <clipPath id="clip-path">
      <rect id="Rectangle_1669" data-name="Rectangle 1669" width="55.252" height="55.268" transform="translate(0 0)" fill="#d80028"/>
    </clipPath>
  </defs>
  <g id="Group_2170" data-name="Group 2170" transform="translate(-0.289)">
    <rect id="Rectangle_182" data-name="Rectangle 182" width="81" height="77" rx="16" transform="translate(0.289)" fill="#ee1f4f" opacity="0.2"/>
    <g id="Group_6574" data-name="Group 6574" transform="translate(13.289 11.356)">
      <g id="Group_6573" data-name="Group 6573" transform="translate(0 0)" clip-path="url(#clip-path)">
        <path id="Path_46632" data-name="Path 46632" d="M23.746,0c1.151.514,2.16.86,2.737,2.085.685,1.455.37,3.361.371,4.917q0,5.709,0,11.418c2.91,0,6.434-.523,7.827,2.7.648,1.5.465,3.277.471,4.873.007,1.965-.009,3.931-.009,5.9l.089.029c1.548-2.807,2.822-5.8,4.213-8.686,1.037-2.154,2.149-3.61,4.7-2.539,2.888,1.215,5.688,2.731,8.513,4.089,2.718,1.307,5.87,2.4,8.271,4.223v.69a104.615,104.615,0,0,0-4.784,9.8L51.122,49.933l-1.116,2.319c-.234.486-.544,1.58-1.055,1.9-1,.623-2.945-.881-3.874-1.328-3.341-1.608-6.657-3.291-10.038-4.814a4.776,4.776,0,0,1-2.892,3.28,2.789,2.789,0,1,1-5.175.32h-7.6a2.783,2.783,0,1,1-5.173-.3c-3.309-1.679-2.991-4.452-3-7.752q-.014-5.854-.009-11.709,0-2.848.007-5.7c0-1.553-.26-3.373.326-4.852,1.329-3.351,5.02-2.881,7.961-2.881q0-5.907,0-11.814c0-1.438-.253-3.144.355-4.5A3.207,3.207,0,0,1,20.85.85C21.3.508,22.114.37,22.48,0ZM19.479,20.26c-1.214,0-2.345,0-3.476,0-3.682.012-2.962,4.264-2.962,6.767q0,5.419,0,10.838,0,2.55,0,5.1a23.365,23.365,0,0,0,.061,4.46c.582,2.868,3.812,2.305,6.029,2.3,3.248,0,6.5,0,9.744,0,1.3,0,2.732.16,3.695-.9.947-1.046.693-1.668-.447-2.246-2.736-1.385-2.408-3.122-1.215-5.606.691-1.437,1.463-2.86,2.079-4.331a10.64,10.64,0,0,0,.312-4.1c0-3.18.36-6.6-.022-9.754-.392-3.242-4.092-2.463-6.451-2.463v4.506H25V20.305H21.307v4.52H19.479Zm21.128,4.852a.784.784,0,0,0-.077.122Q36.193,34.24,31.862,43.25c-.33.687-.144,1.1.609,1.464q7.557,3.638,15.117,7.273c.13.062.269.106.425.167L57.18,33.1,40.607,25.112M25.013,18.391V11.478q0-3.826,0-7.652A1.845,1.845,0,1,0,21.332,3.8q-.011,7.105,0,14.211a3.245,3.245,0,0,0,.043.38Zm33.754,11.4c-.191-.1-.339-.182-.491-.255q-4.622-2.227-9.244-4.452-2.182-1.05-4.365-2.1c-.664-.317-2.9-1.72-2.973,0-.047,1.112,2.276,1.712,3.029,2.075l4.506,2.172q4.371,2.106,8.748,4.2l.789-1.635M16.747,53.408a.926.926,0,0,0,.894-.926c-.035-2.642-3.517,1-.894.926m12.867,0a.928.928,0,0,0,.919-.9c.052-2.642-3.552.906-.919.9" transform="translate(-5.676 0)" fill="#d80028"/>
        <path id="Path_46633" data-name="Path 46633" d="M78.025,0c.677.655,1.735,1.283,1.337,2.311A15.608,15.608,0,0,1,77.16,5.3c1.161.772,2.32,1.691,3.548,2.351.986.531,1.392-.063,2.283-.633,1.207-.773,1.519-.571,2.536.439.8.8,1.778,1.387,1.008,2.484A21.821,21.821,0,0,1,83.889,12.6c-.835.822-1.627,1.732-2.905,1.671a6.8,6.8,0,0,1-2.919-1.4q-1.778-1.081-3.554-2.165Q71.095,8.62,67.682,6.529c-1.007-.617-2.692-1.276-3.454-2.158s.113-1.655.851-2.265A4.818,4.818,0,0,1,67.629.982c1.506-.17,2.175.412,3.425,1.044,2,1.011,4.521-1.113,6.279-2.026ZM66.3,3.527,70.355,6q3.815,2.332,7.63,4.664c.991.607,2.514,2.088,3.678,1.512,1.065-.527,2.1-2.117,2.94-2.963-.88-1.121-1.522.173-2.509.6-1.309.57-2.458-.656-3.515-1.355-.808-.534-3.474-1.738-3.657-2.772-.172-.966,1.566-2.579,2.1-3.3-1.418.6-4.022,2.6-5.521,1.981-1.791-.738-3.291-2.547-5.208-.846" transform="translate(-32.558 0)" fill="#d80028"/>
        <path id="Path_46634" data-name="Path 46634" d="M53.082,0,54.2.184c-.06.582-.12,1.16-.168,1.629l-7.146.252C46.806,1.6,46.709,1.042,46.6.4L49.629,0Z" transform="translate(-23.731 0)" fill="#d80028"/>
        <path id="Path_46635" data-name="Path 46635" d="M11.459,10.78,12.5,12.212a26.185,26.185,0,0,0-8,32.342l-1.581.786C-2.9,34.37.013,18.724,11.459,10.78" transform="translate(0 -5.49)" fill="#d80028"/>
        <path id="Path_46636" data-name="Path 46636" d="M65.349,106.6l.516,1.568a26.947,26.947,0,0,1-7.6,1.358v-1.679l7.081-1.247" transform="translate(-29.674 -54.288)" fill="#d80028"/>
        <path id="Path_46637" data-name="Path 46637" d="M46.975,26.057V24.244a3.279,3.279,0,0,0,2.083-.992,6.409,6.409,0,0,1,8.686.009c.143.128.276.267.42.394a1.015,1.015,0,0,0,1.451.051c1.631-1.26,2.964-1.191,4.412.3a20.8,20.8,0,0,0,6.007,4.661,16.954,16.954,0,0,0,5.938,1.586c-.46-1.124-.881-2.15-1.32-3.218l1.587-.8A27.013,27.013,0,0,1,79.1,36.7c-.562.034-1.073.091-1.581.075-.1,0-.254-.273-.283-.438-.216-1.244-.411-2.493-.6-3.741-.052-.335-.209-.461-.561-.486A18.7,18.7,0,0,1,63.518,26.1c-.344-.361-.7-.714-1.059-1.056a1.014,1.014,0,0,0-1.491-.073,2.878,2.878,0,0,1-4.3-.194,4.579,4.579,0,0,0-6.478-.074,4.621,4.621,0,0,1-3.219,1.355" transform="translate(-23.923 -10.98)" fill="#d80028"/>
        <rect id="Rectangle_1666" data-name="Rectangle 1666" width="1.772" height="21.115" transform="translate(16.603 26.734)" fill="#d80028"/>
        <rect id="Rectangle_1667" data-name="Rectangle 1667" width="1.776" height="21.107" transform="translate(11.077 26.751)" fill="#d80028"/>
        <rect id="Rectangle_1668" data-name="Rectangle 1668" width="1.774" height="21.107" transform="translate(22.138 26.734)" fill="#d80028"/>
        <path id="Path_46638" data-name="Path 46638" d="M74.067,61.418a6.44,6.44,0,1,1-6.487,6.394,6.49,6.49,0,0,1,6.487-6.394m-.256,11.037A4.751,4.751,0,0,0,77.7,70.64L76.143,69.9l-2.332,2.559m-4.262-5.678a4.572,4.572,0,0,0,1.065,4.141c.084-.74.118-1.409.243-2.061.3-1.544.315-1.541-1.308-2.08m8.89,2.168a4.1,4.1,0,0,0-.973-4.047l-.513,3.334,1.485.713m-4.4-5.658A4.064,4.064,0,0,0,70.441,65.1l1.531.738Q73,64.555,74.034,63.286m-1.217,5-.354,2.539.216.1,1.762-1.844-1.624-.8m2.772-3.39-.2-.121-1.769,1.857,1.634.772.34-2.509" transform="translate(-34.417 -31.278)" fill="#d80028"/>
        <path id="Path_46639" data-name="Path 46639" d="M62.464,89l.8-1.654,8.288,3.981-.794,1.659L62.464,89" transform="translate(-31.811 -44.483)" fill="#d80028"/>
      </g>
    </g>
  </g>
</svg>
