<svg xmlns="http://www.w3.org/2000/svg" xmlns:xlink="http://www.w3.org/1999/xlink" width="81" height="77" viewBox="0 0 81 77">
  <defs>
    <clipPath id="clip-path">
      <rect id="Rectangle_1665" data-name="Rectangle 1665" width="49.256" height="49.25" fill="#e1003e"/>
    </clipPath>
  </defs>
  <g id="Group_2170" data-name="Group 2170" transform="translate(-0.289)">
    <rect id="Rectangle_182" data-name="Rectangle 182" width="81" height="77" rx="16" transform="translate(0.289)" fill="#ee1f4f" opacity="0.2"/>
    <g id="Group_6572" data-name="Group 6572" transform="translate(16.289 13.559)">
      <g id="Group_6571" data-name="Group 6571" transform="translate(0 0.001)" clip-path="url(#clip-path)">
        <path id="Path_46625" data-name="Path 46625" d="M16.291,71.778c-2.512-.921-3-2.486-3-5.01H5.964c-1.667,0-4.178.521-5.38-.979-1.088-1.358-.258-3.195.542-4.478a9.583,9.583,0,0,1,4.4-3.565c-3.393-3.013-1.394-8.952,3.387-8.56,4.4.36,5.735,5.773,2.623,8.565a9.066,9.066,0,0,1,3.807,2.737,11.66,11.66,0,0,1,5.843-4.259c-4.6-3.462-2.724-11.189,3.351-11.312,6.19-.126,8.312,7.785,3.6,11.31a11.665,11.665,0,0,1,5.848,4.26,9.013,9.013,0,0,1,3.826-2.733c-3.2-2.821-1.738-8.391,2.783-8.584,4.574-.2,6.658,5.572,3.282,8.509a14.506,14.506,0,0,1,3.555,2.587A17.023,17.023,0,0,1,49.288,63.7v.962c-.924,2.169-2.377,2.109-4.528,2.109H36.029c0,2.5-.488,4.1-3,5.01Zm8.373-1.54c2.54,0,5.163.2,7.694,0,2.364-.187,2.311-2.511,2.107-4.375-.781-7.123-9.185-10.855-15.136-7.075a9.826,9.826,0,0,0-4.489,9.506c.31,1.808,1.7,1.945,3.28,1.946q3.272,0,6.544,0m.016-23.792a4.621,4.621,0,1,0,3.211,7.924,4.611,4.611,0,0,0-3.211-7.924M36.073,65.226c3.5,0,7.076.009,10.647-.007a1.011,1.011,0,0,0,.955-1.383,7.215,7.215,0,0,0-12.647-2.161.566.566,0,0,0-.065.458c.346,1.009.717,2.01,1.11,3.093m-22.82,0c.373-1.055.694-2.026,1.066-2.975a.578.578,0,0,0-.082-.68A6.989,6.989,0,0,0,7.293,58.9a6.882,6.882,0,0,0-5.545,4.631c-.418,1.1.023,1.7,1.2,1.7h10.3ZM37.539,53.984a3.264,3.264,0,1,0,5.556-2.331,3.268,3.268,0,0,0-5.556,2.331m-25.756,0A3.247,3.247,0,0,0,8.54,50.7a3.261,3.261,0,1,0,3.242,3.28" transform="translate(-0.032 -22.528)" fill="#e1003e"/>
        <path id="Path_46626" data-name="Path 46626" d="M83.578,18.323a23.539,23.539,0,0,1-2.7,2.384c-1.142.914-.655,1.518-.3,2.84.225.83.972,2.333.048,2.974-.964.668-2.31-.685-3.07-1.183-.389-.255-1.077-.932-1.564-.931s-1.189.692-1.579.947c-.756.494-2.1,1.839-3.057,1.166-.892-.625-.209-2,.009-2.81.278-1.027.9-1.955.068-2.757-.8-.772-2.124-1.325-2.755-2.248s.007-1.652.944-1.8a18.36,18.36,0,0,1,2-.1,4.972,4.972,0,0,0,1.754-.106c.71-.394,1.046-2.393,1.344-3.131.315-.779.846-1.838,1.868-1.184.793.507,1.073,2.219,1.382,3.045.144.385.231,1.042.622,1.267a5.258,5.258,0,0,0,1.846.122c1.014.048,2.529-.218,3.134.831Zm-2.3.075c-.795-.036-1.442-.053-2.087-.1-.691-.047-1.443.06-1.918-.515a12.278,12.278,0,0,1-1.283-3.217c-.347.911-.7,2.846-1.516,3.443-.843.618-2.7.323-3.739.409.8.645,2.41,1.491,2.739,2.518s-.473,2.669-.743,3.674c.848-.554,2.22-1.887,3.275-1.876s2.421,1.331,3.255,1.878c-.266-.975-1.12-2.669-.8-3.679s2.048-1.914,2.818-2.536" transform="translate(-34.322 -6.11)" fill="#e1003e"/>
        <path id="Path_46627" data-name="Path 46627" d="M45.6,26.722c-1.1-.52-2.033-1.288-3.072-1.906-.732-.435-.774-.432-1.507,0-.572.337-1.117.737-1.675,1.1-.725.47-2.006,1.416-2.577.182-.357-.771.3-2.092.5-2.843a5.026,5.026,0,0,0,.439-1.7c-.089-.448-.7-.741-1.024-1-.667-.532-2.32-1.408-2.482-2.317-.409-2.283,3.95-.977,4.945-1.531,1.187-.66.849-5.1,2.936-4.441.931.293,1.167,1.872,1.465,2.656.545,1.438.5,1.809,2.069,1.871a8.785,8.785,0,0,1,3.023.247c1.228.557.582,1.557-.146,2.192-.635.553-2.513,1.5-2.668,2.346a5.293,5.293,0,0,0,.459,1.754q.271.992.527,1.988A1.109,1.109,0,0,1,45.6,26.722M38.534,24.6c.923-.6,1.726-1.12,2.521-1.652,1.228-.821,2.893,1.07,3.956,1.582-.261-.983-1.056-2.6-.715-3.606.346-1.023,1.95-1.866,2.758-2.518-.972-.052-2.944.207-3.761-.386-.843-.612-1.155-2.494-1.523-3.454-.347.915-.7,2.851-1.518,3.449-.843.614-2.7.308-3.729.415.784.632,2.6,1.571,2.821,2.629.208,1-.571,2.549-.81,3.541" transform="translate(-17.145 -6.117)" fill="#e1003e"/>
        <path id="Path_46628" data-name="Path 46628" d="M11.435,26.723A33.493,33.493,0,0,1,8.323,24.8c-.724-.431-.748-.43-1.473,0-.572.337-1.119.733-1.676,1.1-.722.473-2,1.442-2.592.206-.367-.769.306-2.13.509-2.88.406-1.5.644-1.691-.583-2.672C1.8,19.988.033,19.055,0,18.039c-.068-2.165,4.017-.664,5.039-1.4,1.054-.757.816-4.952,2.823-4.4.946.261,1.214,1.894,1.509,2.674.166.438.3,1.321.65,1.648s1.026.21,1.466.228c.88.035,2.3-.184,3.1.267,1.09.616.365,1.612-.293,2.174s-2.5,1.5-2.645,2.368a5.477,5.477,0,0,0,.465,1.778c.178.652.348,1.307.515,1.962a1.1,1.1,0,0,1-1.2,1.381M7.58,14.568C7.187,15.6,6.842,16.5,6.508,17.4c-.5,1.344-3.051.949-4.2,1.011.787.635,2.474,1.51,2.8,2.52s-.535,2.734-.794,3.691c.824-.539,2.226-1.9,3.251-1.914s2.43,1.355,3.276,1.9c-.258-.962-1.1-2.708-.775-3.688s2.018-1.879,2.794-2.5c-.989-.054-2.943.2-3.767-.426S7.939,15.5,7.58,14.568" transform="translate(0 -6.116)" fill="#e1003e"/>
        <path id="Path_46629" data-name="Path 46629" d="M57.685,12.568c-.927-.809-.616-1.211.244-2.009.655-.609,1.827-2.132,2.691-2.359.967-.255,1.2.6.763,1.3-.643,1.026-2.162,1.958-3.073,2.762a3,3,0,0,1-.625.308" transform="translate(-28.65 -4.09)" fill="#e1003e"/>
        <path id="Path_46630" data-name="Path 46630" d="M33.33,7.905c.77.41,4.917,3.35,3.672,4.289-.884.667-4.507-2.735-4.269-3.724.052-.216.374-.367.6-.565" transform="translate(-16.413 -3.965)" fill="#e1003e"/>
        <path id="Path_46631" data-name="Path 46631" d="M49.37,2.164c0,.666.288,2.181-.781,2.18-1.033,0-.762-1.513-.762-2.155S47.549-.019,48.613,0c1.032.018.758,1.523.758,2.164" transform="translate(-23.972 0)" fill="#e1003e"/>
      </g>
    </g>
  </g>
</svg>
