<svg id="Icon" xmlns="http://www.w3.org/2000/svg" xmlns:xlink="http://www.w3.org/1999/xlink" width="50" height="50" viewBox="0 0 50 50">
  <defs>
    <clipPath id="clip-path">
      <rect id="Rectangle_2075" data-name="Rectangle 2075" width="19.372" height="28.722" fill="#fefefe"/>
    </clipPath>
  </defs>
  <rect id="Rectangle_16" data-name="Rectangle 16" width="50" height="50" rx="16" fill="#ee1f4f"/>
  <g id="Group_7006" data-name="Group 7006" transform="translate(15.571 10.705)">
    <g id="Group_7005" data-name="Group 7005" clip-path="url(#clip-path)">
      <path id="Path_56980" data-name="Path 56980" d="M2.3,28.722l.032-.02c-.729-.147-.149-1.377.123-1.716a2.189,2.189,0,0,1,.756-.59c.093-.045.377-.082.423-.166.031-.056-.015-.244-.02-.308L3.581,25.5c-.156-1.85-.3-3.7-.459-5.552-.086-1.038-.134-2.086-.256-3.12H.922c-.24,0-.516-.019-.6-.3a1.7,1.7,0,0,1-.013-.451q0-.269,0-.538c0-1.352,0-2.7,0-4.057q0-2.055,0-4.11V5.339A2.654,2.654,0,0,1,.35,4.456.46.46,0,0,1,.829,4.2c1.5-.023,3.01,0,4.514,0a5.181,5.181,0,0,0,0-.8q0-.458,0-.916a1.171,1.171,0,0,1,.068-.611c.106-.166.329-.207.5-.265L6.7,1.35c.089-.029.266-.051.323-.127s.058-.289.093-.4A1.2,1.2,0,0,1,7.96.046,1.262,1.262,0,0,1,9.533,1.419a1.267,1.267,0,0,1-1.823.955A1.328,1.328,0,0,1,7.4,2.139c-.121-.121-.142-.1-.306-.046l-.426.143a1.771,1.771,0,0,0-.427.141c-.106.076-.058.265-.058.388q0,.232,0,.465c0,.319-.026.651,0,.968h7.57q0-.456,0-.912,0-.19,0-.379a1.479,1.479,0,0,0,0-.487c-.04-.078-.215-.1-.294-.122l-.394-.13a1.221,1.221,0,0,0-.4-.127c-.083.012-.184.154-.248.206a1.264,1.264,0,0,1-1.976-.622A1.261,1.261,0,0,1,12.607.439a1.192,1.192,0,0,1,.266.544c.015.071,0,.185.048.245.071.092.317.121.423.156.309.1.626.192.93.307a.445.445,0,0,1,.317.447c.027.685-.051,1.381,0,2.065h3.993c.257,0,.656-.078.877.082s.173.484.173.731q0,1.017,0,2.034,0,4.095,0,8.189c0,.36.01.721,0,1.081a.459.459,0,0,1-.333.491,2.125,2.125,0,0,1-.5.016H17.089c-.144,1.837-.3,3.673-.451,5.509q-.113,1.367-.225,2.734-.028.339-.058.679-.013.151-.027.3c-.009.1-.037.161.05.215.16.1.369.127.535.226a2.3,2.3,0,0,1,.4.3,2.024,2.024,0,0,1,.55.9,1.87,1.87,0,0,1,.095.591c-.011.251-.155.349-.37.438ZM18.8,5.049H1.14V15.981H18.8ZM16.247,16.833H3.7q.126,1.442.241,2.885c.136,1.694.279,3.387.419,5.081q.051.619.1,1.238c.026.322.167.819-.227.968a3.654,3.654,0,0,1-.458.073,1.22,1.22,0,0,0-.367.151,1.318,1.318,0,0,0-.513.649H17.058a1.318,1.318,0,0,0-.55-.671,1.808,1.808,0,0,0-.947-.166H8.194c-.786,0-1.581.036-2.366,0-.274-.013-.524-.2-.462-.506.07-.346.432-.334.71-.334h9.4l.771-9.364M12.073,1.255a.416.416,0,0,0-.41-.418.42.42,0,1,0,.41.418m-3.363,0A.415.415,0,0,0,8.3.836a.42.42,0,1,0,.414.415" transform="translate(-0.271 0)" fill="#fefefe"/>
      <path id="Path_56981" data-name="Path 56981" d="M0,55.112a1.165,1.165,0,0,1,.013.123q0,3.882,0,7.763,0,1.865,0,3.731c0,.046-.008.092-.012.138V55.112" transform="translate(0 -50.503)" fill="#fefefe"/>
      <path id="Path_56982" data-name="Path 56982" d="M60.672,74.99a4.621,4.621,0,1,1,4.49,4.7,4.619,4.619,0,0,1-4.49-4.7m5.6-.345a.286.286,0,0,0,0-.036c-.035-.386-.061-.773-.109-1.157a5.43,5.43,0,0,0-.448-1.655,1.3,1.3,0,0,0-.3-.46.149.149,0,0,0-.235,0,1.18,1.18,0,0,0-.165.207,3.654,3.654,0,0,0-.447,1.141,10.537,10.537,0,0,0-.252,1.941.072.072,0,0,0,.008.022Zm0,.845H64.437c-.121,0-.121,0-.111.124,0,.019,0,.037,0,.056a10.706,10.706,0,0,0,.168,1.453,4.657,4.657,0,0,0,.409,1.282,2.205,2.205,0,0,0,.277.392c.07.083.14.081.22.006a1.056,1.056,0,0,0,.186-.225,3.709,3.709,0,0,0,.392-.977,9.42,9.42,0,0,0,.265-1.686c.01-.139.016-.278.025-.426m2.789-.842a3.755,3.755,0,0,0-.96-2.126,3.634,3.634,0,0,0-1.591-1.035,1.8,1.8,0,0,0,.076.212,7.462,7.462,0,0,1,.393,1.521,10.57,10.57,0,0,1,.122,1.345c0,.067.022.084.089.084.6,0,1.2,0,1.793,0Zm-7.527.845a3.71,3.71,0,0,0,.832,1.974,3.764,3.764,0,0,0,1.732,1.2,8.935,8.935,0,0,1-.611-3.172Zm4.968,3.16a3.785,3.785,0,0,0,1.712-1.169,3.715,3.715,0,0,0,.845-1.989H67.1a8.814,8.814,0,0,1-.6,3.157m-3.012-4.008a10.348,10.348,0,0,1,.155-1.613,6.651,6.651,0,0,1,.453-1.55,3.756,3.756,0,0,0-2.563,3.164Z" transform="translate(-55.597 -64.555)" fill="#fefefe"/>
    </g>
  </g>
</svg>
