<svg id="Icon" xmlns="http://www.w3.org/2000/svg" xmlns:xlink="http://www.w3.org/1999/xlink" width="50" height="50" viewBox="0 0 50 50">
  <defs>
    <clipPath id="clip-path">
      <rect id="Rectangle_2067" data-name="Rectangle 2067" width="26.941" height="27.726" fill="#fafafa"/>
    </clipPath>
  </defs>
  <rect id="Rectangle_16" data-name="Rectangle 16" width="50" height="50" rx="16" fill="#ee1f4f"/>
  <g id="Group_7000" data-name="Group 7000" transform="translate(11.477 11.249)">
    <g id="Group_6999" data-name="Group 6999" transform="translate(0 0)" clip-path="url(#clip-path)">
      <path id="Path_56960" data-name="Path 56960" d="M1.44,68.734a1.861,1.861,0,0,1-.929-3.1,4.3,4.3,0,0,1,3.5-1.724,4.278,4.278,0,0,1,3.429,1.645,1.881,1.881,0,0,1-.846,3.178ZM4,67.868a7.718,7.718,0,0,0,2.63-.072c.758-.325.576-1.142.171-1.669a3.537,3.537,0,0,0-2.865-1.355,3.49,3.49,0,0,0-2.875,1.561C-.1,68.23,3.078,67.868,4,67.868" transform="translate(0 -41.008)" fill="#fafafa"/>
      <path id="Path_56961" data-name="Path 56961" d="M25.995,68.724c-1.879-.528-1.711-2.418-.53-3.58a4.418,4.418,0,0,1,6.541.424,1.889,1.889,0,0,1-.859,3.156Zm2.547-.866a9.255,9.255,0,0,0,2.534-.043c.851-.276.7-1.154.249-1.722a3.551,3.551,0,0,0-2.858-1.332,3.511,3.511,0,0,0-2.857,1.56.937.937,0,0,0,.552,1.529,12.911,12.911,0,0,0,2.381.01" transform="translate(-15.771 -40.997)" fill="#fafafa"/>
      <path id="Path_56962" data-name="Path 56962" d="M50.3,68.735c-.692-.331-1.3-.667-1.433-1.5a2.251,2.251,0,0,1,.669-1.769,4.321,4.321,0,0,1,3.589-1.552,4.268,4.268,0,0,1,3.333,1.813,1.839,1.839,0,0,1-1.007,3.006Zm2.6-.866a9.032,9.032,0,0,0,2.534-.046c.834-.278.685-1.146.247-1.708a3.553,3.553,0,0,0-5.716.2.938.938,0,0,0,.555,1.542,13.363,13.363,0,0,0,2.38.009" transform="translate(-31.34 -41.009)" fill="#fafafa"/>
      <path id="Path_56963" data-name="Path 56963" d="M18.269,25.553c-1.121,0-2.565-.153-2.458-1.652.11-1.538,1.743-1.42,2.871-1.42,0-1.328-.265-2.842.812-3.842,1.019-.946,2.594-.673,3.871-.669,1.2,0,2.423-.091,3.246.944.786.988.544,2.393.544,3.567,1.106,0,2.675-.141,2.867,1.331.2,1.553-1.312,1.741-2.45,1.741v2.026c0,.426.235,1.672-.364,1.779-.718.128-.5-1.122-.5-1.513q0-1.135,0-2.27H19.132c0,.6.373,3.8-.439,3.791-.791-.014-.424-2.879-.424-3.444v-.368m1.287-3.088h6.738c0-.908.255-2.239-.355-3.006-.678-.854-1.906-.622-2.867-.623s-2.335-.269-3.083.5c-.732.756-.434,2.171-.434,3.126m3.365.88H19.046c-.608,0-2.487-.344-2.364.746.109.973,2.028.6,2.668.6h7.435c.574,0,2.7.334,2.364-.853-.233-.822-1.87-.491-2.48-.491H22.921" transform="translate(-10.141 -11.505)" fill="#fafafa"/>
      <path id="Path_56964" data-name="Path 56964" d="M50.655,5.28H48.649a13.485,13.485,0,0,1-2.006,0c-1.541-.245.835-1.8,1.247-2.21.779-.776.14-1.993,1.209-2.7.886-.586,2.432-.3,3.436-.3.985,0,2.429-.265,3.262.4.879.7.776,2.082.679,3.087a1.841,1.841,0,0,1-1.782,1.725c-1.335.086-2.7,0-4.04,0m-2.95-.9a.527.527,0,0,0,.1.029q3.069,0,6.138,0c.756,0,1.536.039,1.672-.885.092-.633.215-1.957-.359-2.395-.593-.451-1.869-.2-2.576-.2a12.6,12.6,0,0,0-2.772.025c-.932.227-.663,1.089-.755,1.8-.095.722-.921,1.17-1.444,1.626" transform="translate(-29.598 0)" fill="#fafafa"/>
      <path id="Path_56965" data-name="Path 56965" d="M30.536.206a2.884,2.884,0,0,1,2,4.9,2.888,2.888,0,0,1-4.877-2.047,2.879,2.879,0,0,1,2.88-2.85m0,.866A2.007,2.007,0,0,0,28.52,3.057a2.017,2.017,0,0,0,3.4,1.435,2.013,2.013,0,0,0-1.389-3.419" transform="translate(-17.745 -0.132)" fill="#fafafa"/>
      <path id="Path_56966" data-name="Path 56966" d="M9.233,49.9a2.489,2.489,0,1,1-2.474-2.491A2.506,2.506,0,0,1,9.233,49.9m-.864-.01a1.623,1.623,0,1,0-2.761,1.166,1.618,1.618,0,0,0,2.761-1.166" transform="translate(-2.742 -30.422)" fill="#fafafa"/>
      <path id="Path_56967" data-name="Path 56967" d="M33.722,49.909a2.49,2.49,0,1,1-2.473-2.5,2.509,2.509,0,0,1,2.473,2.5m-.865,0a1.624,1.624,0,1,0-2.77,1.149,1.622,1.622,0,0,0,2.77-1.149" transform="translate(-18.454 -30.423)" fill="#fafafa"/>
      <path id="Path_56968" data-name="Path 56968" d="M53.192,49.947a2.49,2.49,0,1,1,2.48,2.49,2.51,2.51,0,0,1-2.48-2.49m.865.006A1.625,1.625,0,1,0,56.83,48.8a1.627,1.627,0,0,0-2.773,1.158" transform="translate(-34.13 -30.462)" fill="#fafafa"/>
      <path id="Path_56969" data-name="Path 56969" d="M60.887,7.061c-.4,0-1.506.216-1.5-.433s1.111-.434,1.508-.434,1.513-.212,1.51.437-1.121.43-1.513.43" transform="translate(-38.102 -3.952)" fill="#fafafa"/>
    </g>
  </g>
</svg>
