<svg xmlns="http://www.w3.org/2000/svg" xmlns:xlink="http://www.w3.org/1999/xlink" width="50" height="50" viewBox="0 0 50 50">
  <defs>
    <clipPath id="clip-path">
      <rect id="Rectangle_2068" data-name="Rectangle 2068" width="26.248" height="29.082" fill="#fff"/>
    </clipPath>
  </defs>
  <g id="Icon" transform="translate(0.429)">
    <rect id="Rectangle_16" data-name="Rectangle 16" width="50" height="50" rx="16" transform="translate(-0.429)" fill="#ee1f4f"/>
    <g id="Group_7002" data-name="Group 7002" transform="translate(11.572 10.01)">
      <g id="Group_7001" data-name="Group 7001" transform="translate(0 0)" clip-path="url(#clip-path)">
        <path id="Path_56970" data-name="Path 56970" d="M23.512,29.082H2.734C1.566,28.639,1.9,26.74,2.2,25.8a4.713,4.713,0,0,1,2.37-2.658,2.988,2.988,0,0,1-.973-3.269c-.882,0-1.987.181-2.752-.369a2.433,2.433,0,0,1-.795-2.185q0-3.631,0-7.263,0-1.811,0-3.621A35.542,35.542,0,0,1,.058,2.792C.279.663,2.362,1.075,3.909.952c.018-.3,0-.818.353-.929.545-.169.606.6.711.933H8.264c.065-.391-.078-.938.5-.936s.449.541.5.933h3.371c0-.357-.042-.932.47-.948s.5.578.5.942H16.98c.025-.366.013-.9.472-.936.588-.048.471.579.53.944h3.364c.042-.393-.073-.937.5-.936s.443.555.5.95c1.713,0,3.752-.184,3.857,2.06.112,2.4,0,4.835,0,7.24s.012,4.827,0,7.24a2.211,2.211,0,0,1-.848,2.03,4.885,4.885,0,0,1-2.692.335,2.956,2.956,0,0,1-.973,3.275A4.639,4.639,0,0,1,24,25.654c.341.923.7,2.975-.489,3.428M16.058,18.909c.483,0,.972.01,1.461-.007a.611.611,0,0,0,.367-.148,2.905,2.905,0,0,1,4.031-.007.642.642,0,0,0,.392.155c.586.017,1.173.008,1.759.007.8,0,1.161-.356,1.161-1.159q0-6.289,0-12.578c0-.1-.009-.2-.014-.311H1.036c-.007.089-.018.162-.018.236q0,6.388,0,12.777a.961.961,0,0,0,1.027,1.033c.643.006,1.287.009,1.93,0a.559.559,0,0,0,.341-.142,2.887,2.887,0,0,1,4.046,0c.059.056.134.134.2.135.545.011,1.091.006,1.63.006.264-1.825,1.31-2.87,2.874-2.9,1.588-.033,2.628.969,2.987,2.9M3.831,1.944c-.613,0-1.274-.017-1.934.006-1.028.036-.86,1.207-.86,1.905h24.19c0-.582.156-1.429-.448-1.782s-1.77-.121-2.442-.121c-.048.4.085.939-.494.937s-.444-.541-.5-.936H17.984c-.076.392.083.935-.5.936s-.447-.541-.509-.934H13.607c0,.363.055.865-.415.938-.579.09-.552-.557-.552-.933H9.251c0,.365.032.969-.508.942-.5-.025-.458-.579-.458-.944H4.9c-.023.311-.008.824-.376.932-.537.158-.594-.617-.7-.948M9.771,28.1h6.711c0-1.12.072-2.229-.016-3.325a3.368,3.368,0,0,0-6.685,0c-.091,1.089-.033,2.192-.041,3.288,0,.007.011.015.032.039m-6.794,0H8.738a11.292,11.292,0,0,0,.028-1.956c0-.475.137-1.124-.156-1.513a3.149,3.149,0,0,0-2.588-.859c-2.264.215-3.22,2.276-3.045,4.327m20.31.005c0-.388.024-.766,0-1.139a3.424,3.424,0,0,0-3.405-3.222c-.7,0-2.02.348-2.358,1.054a4.978,4.978,0,0,0-.036,1.733c0,.525.005,1.049.005,1.575Zm-12.1-9.191a1.936,1.936,0,1,0,3.3-1.38,1.937,1.937,0,0,0-3.3,1.38m-4.836,0a1.935,1.935,0,1,0,1.353,3.3,1.937,1.937,0,0,0-1.353-3.3m13.551,0A1.936,1.936,0,1,0,21.279,22.2,1.941,1.941,0,0,0,19.9,18.909m-4.946,2.339a4.426,4.426,0,0,1,2.256,2.441l.9-.544a2.939,2.939,0,0,1-.968-3.255h-1.2l-.989,1.358M9.093,19.877a2.946,2.946,0,0,1-.964,3.267l.908.544a4.406,4.406,0,0,1,2.226-2.431c-.2-.312-.543-1.108-.873-1.3a2.9,2.9,0,0,0-1.3-.083" transform="translate(0 0)" fill="#fff"/>
        <path id="Path_56971" data-name="Path 56971" d="M21.157,20.679c.531-1.337-1.39-1.808-1.213-3.05.186-1.307,2.1-.926,2.783-1.811.562-.731,1.29-2.137,2.328-1.138.5.483.7,1.339,1.352,1.647.533.25,1.19.2,1.7.516,1.279.8-.037,1.883-.534,2.649-.54.831.362,2.217-.54,2.891-.5.376-1.111.078-1.622-.1a2.466,2.466,0,0,0-1.954-.1c-.894.312-2.362.758-2.3-.779.008-.217,0-.435,0-.722m3.137-5.428c-.384.555-.739,1.055-1.079,1.564-.329.494-1.047.519-1.572.659-.565.15-.9.138-.491.673.383.5.951.924,1.035,1.586a15.529,15.529,0,0,1-.046,1.883,7.461,7.461,0,0,1,2.139-.7,7.192,7.192,0,0,1,2.112.677,5.541,5.541,0,0,1,.143-2.325c.171-.337,1.25-1.161,1.143-1.521-.121-.405-1.7-.421-2.06-.672a7.513,7.513,0,0,1-1.325-1.825" transform="translate(-11.173 -8.034)" fill="#fff"/>
      </g>
    </g>
  </g>
</svg>
