<svg xmlns="http://www.w3.org/2000/svg" xmlns:xlink="http://www.w3.org/1999/xlink" width="49" height="50" viewBox="0 0 49 50">
  <defs>
    <clipPath id="clip-path">
      <rect id="Rectangle_2074" data-name="Rectangle 2074" width="26.309" height="28.906" fill="#fff"/>
    </clipPath>
  </defs>
  <g id="Icon" transform="translate(-0.117)">
    <rect id="Rectangle_16" data-name="Rectangle 16" width="49" height="50" rx="16" transform="translate(0.117)" fill="#ee1f4f"/>
    <g id="Group_7004" data-name="Group 7004" transform="translate(11.117 10.421)">
      <g id="Group_7003" data-name="Group 7003" clip-path="url(#clip-path)">
        <path id="Path_56972" data-name="Path 56972" d="M24.831,172.9v-8.586H23.124c.062-.136.1-.222.138-.3.545-1.092,1.094-2.182,1.632-3.278a.374.374,0,0,1,.39-.248q8.62.01,17.241,0c.146,0,.266-.006.35.167.571,1.165,1.156,2.323,1.735,3.484a1.54,1.54,0,0,1,.057.165H42.977v8.6Zm8.589-5.735v-4.032c-.33.461-.4,1.051-.984,1.181a11.025,11.025,0,0,1-2.194-.008c-1.474,0-2.949,0-4.423,0v7.619h7.616v-3.3h.953v3.294h7.6v-7.618q-2.16,0-4.32,0a9.192,9.192,0,0,1-2.373,0c-.491-.157-.624-.735-.854-1.19l-.07.018v4.028Zm1.261-5.712c.293.587.572,1.122.827,1.668.209.447,1.256.243,1.658.242l2.057,0c1.3,0,2.622.055,3.924-.015-.244-.49-.586-1.7-1.123-1.886a8.8,8.8,0,0,0-2.4-.006q-2.471,0-4.941,0m-1.552,0c-2.5,0-4.936,0-7.372.008-.405,0-.954,1.573-1.072,1.9q2.558,0,5.116,0l1.272,0c.266,0,.837.108,1.069-.036.433-.269.76-1.413.988-1.869" transform="translate(-20.748 -143.996)" fill="#fff"/>
        <path id="Path_56973" data-name="Path 56973" d="M99.281,7.081a9.759,9.759,0,0,0-2.2-.52,9.853,9.853,0,0,0-2.192.519,12.523,12.523,0,0,0-.215-2.243A9.452,9.452,0,0,0,93.537,2.72a8.571,8.571,0,0,0,2.122-1.013A12.336,12.336,0,0,0,97.082,0,10.269,10.269,0,0,0,98.6,1.777a9.689,9.689,0,0,0,2.028.941,6.676,6.676,0,0,0-1.178,2.267c-.066.687-.112,1.377-.168,2.1M95.707,5.947a3.048,3.048,0,0,1,2.7-.042,7.169,7.169,0,0,1,.147-1.473,7.373,7.373,0,0,1,.721-1.3,3.255,3.255,0,0,1-2.2-1.683,3.256,3.256,0,0,1-2.229,1.7,3.57,3.57,0,0,1,.863,2.8" transform="translate(-83.926)" fill="#fff"/>
        <path id="Path_56974" data-name="Path 56974" d="M38.67,77.442,40.041,74.7c2.613,1.757,3,4.57,3.184,7.5A33.472,33.472,0,0,0,40.4,78.867c-.531-.509-1.137-.941-1.733-1.426m1.214-.287c.354.3.7.572,1.03.863s.664.609.953.876a4.636,4.636,0,0,0-1.512-2.686l-.471.947" transform="translate(-34.697 -67.027)" fill="#fff"/>
        <path id="Path_56975" data-name="Path 56975" d="M175.869,74.709l1.4,2.8c-1.974,1.132-3.186,3-4.63,4.679a27.433,27.433,0,0,1,.631-4.1,6,6,0,0,1,2.6-3.382m-1.851,4.243,1.993-1.826-.475-.944a5.138,5.138,0,0,0-1.518,2.77" transform="translate(-154.9 -67.033)" fill="#fff"/>
        <path id="Path_56976" data-name="Path 56976" d="M4.325,52.51a3.358,3.358,0,0,0-.793,2.618,3.054,3.054,0,0,0-2.707,0A3.369,3.369,0,0,0,0,52.468a3.194,3.194,0,0,0,2.155-1.635,6.738,6.738,0,0,0,.908,1.073,6.557,6.557,0,0,0,1.261.6m-1.463.442-.681-.5-.68.5.277.856h.8l.282-.855" transform="translate(0 -45.61)" fill="#fff"/>
        <path id="Path_56977" data-name="Path 56977" d="M214.461,54.745a3.355,3.355,0,0,0-.835-2.612,3.194,3.194,0,0,0,2.179-1.671,3.169,3.169,0,0,0,2.179,1.658,3.386,3.386,0,0,0-.821,2.621,6.531,6.531,0,0,0-1.371-.3,6.083,6.083,0,0,0-1.332.3m1.746-1.27.285-.852-.68-.5-.684.5.28.859Z" transform="translate(-191.676 -45.277)" fill="#fff"/>
        <path id="Path_56978" data-name="Path 56978" d="M81.327,73.737h-.919a18.057,18.057,0,0,0-.37-4.7,8.913,8.913,0,0,0-.807-1.974c-.315-.571-.78-1.06-1.083-1.629l.709-.589c2.179,2.575,2.718,5.6,2.469,8.888" transform="translate(-70.118 -58.186)" fill="#fff"/>
        <path id="Path_56979" data-name="Path 56979" d="M147.459,73.726H146.5c-.251-3.258.28-6.289,2.469-8.88l.734.61c-2.048,2.4-2.48,5.236-2.248,8.27" transform="translate(-131.399 -58.183)" fill="#fff"/>
        <rect id="Rectangle_2069" data-name="Rectangle 2069" width="0.906" height="6.183" transform="translate(12.701 9.352)" fill="#fff"/>
        <rect id="Rectangle_2070" data-name="Rectangle 2070" width="0.897" height="0.93" transform="translate(12.707 7.442)" fill="#fff"/>
        <rect id="Rectangle_2071" data-name="Rectangle 2071" width="2.839" height="0.915" transform="translate(6.002 24.157)" fill="#fff"/>
        <rect id="Rectangle_2072" data-name="Rectangle 2072" width="2.839" height="0.916" transform="translate(6.002 26.065)" fill="#fff"/>
        <rect id="Rectangle_2073" data-name="Rectangle 2073" width="0.926" height="0.928" transform="translate(9.832 26.059)" fill="#fff"/>
      </g>
    </g>
  </g>
</svg>
