<svg xmlns="http://www.w3.org/2000/svg" xmlns:xlink="http://www.w3.org/1999/xlink" width="1763.876" height="2482.279" viewBox="0 0 1763.876 2482.279">
  <defs>
    <clipPath id="clip-path">
      <rect id="Rectangle_1660" data-name="Rectangle 1660" width="48" height="48" transform="translate(-0.117 -0.117)" fill="#fff"/>
    </clipPath>
    <clipPath id="clip-path-2">
      <rect id="Rectangle_1652" data-name="Rectangle 1652" width="49.063" height="49.067" transform="translate(0 0)" fill="#fff"/>
    </clipPath>
    <clipPath id="clip-path-3">
      <rect id="Rectangle_1653" data-name="Rectangle 1653" width="58.999" height="52.312" fill="#fff"/>
    </clipPath>
    <clipPath id="clip-path-4">
      <rect id="Rectangle_1657" data-name="Rectangle 1657" width="53" height="53" fill="#fff"/>
    </clipPath>
    <clipPath id="clip-path-5">
      <rect id="Rectangle_1658" data-name="Rectangle 1658" width="53.078" height="52.974" fill="#fff"/>
    </clipPath>
    <clipPath id="clip-path-6">
      <rect id="Rectangle_1659" data-name="Rectangle 1659" width="41.151" height="58.301" fill="#fff"/>
    </clipPath>
  </defs>
  <g id="Group_7566" data-name="Group 7566" transform="translate(-88.492 -5664)">
    <g id="Blobs" transform="translate(88.492 5664)">
      <rect id="Rectangle_1540" data-name="Rectangle 1540" width="37.109" height="6.683" transform="translate(1063.565 2191.509)" fill="#333"/>
      <g id="Group_1387" data-name="Group 1387">
        <rect id="Rectangle_1541" data-name="Rectangle 1541" width="37.109" height="6.683" transform="translate(1011.36 15.213)" fill="#ee1f4f"/>
        <rect id="Rectangle_1542" data-name="Rectangle 1542" width="6.683" height="37.117" transform="translate(1026.573)" fill="#ee1f4f"/>
      </g>
      <g id="Group_1389" data-name="Group 1389">
        <rect id="Rectangle_1543" data-name="Rectangle 1543" width="37.117" height="6.683" transform="translate(0 1724.345)" fill="#ee1f4f"/>
        <rect id="Rectangle_1544" data-name="Rectangle 1544" width="6.683" height="37.117" transform="translate(15.213 1709.132)" fill="#ee1f4f"/>
      </g>
      <g id="Group_1388" data-name="Group 1388">
        <rect id="Rectangle_1545" data-name="Rectangle 1545" width="37.117" height="6.683" transform="translate(1726.759 1230.373)" fill="#ee1f4f"/>
        <rect id="Rectangle_1546" data-name="Rectangle 1546" width="6.683" height="37.117" transform="translate(1741.98 1215.151)" fill="#ee1f4f"/>
      </g>
      <path id="Path_45080" data-name="Path 45080" d="M1933.94,544.771h-33.985a9.056,9.056,0,0,1-7.844-13.584l16.992-29.44a9.056,9.056,0,0,1,15.689,0l16.992,29.44a9.056,9.056,0,0,1-7.844,13.584ZM1916.948,503.9a2.331,2.331,0,0,0-2.055,1.186l-17,29.44a2.373,2.373,0,0,0,2.064,3.559h33.985a2.372,2.372,0,0,0,2.055-3.559L1919,505.089A2.339,2.339,0,0,0,1916.948,503.9Z" transform="translate(-509.852 -302.751)" fill="#6d007d"/>
      <path id="Path_45081" data-name="Path 45081" d="M839.258,1456.432a8.955,8.955,0,0,1-7.845-4.528l-16.992-29.432a9.064,9.064,0,0,1,7.845-13.592H856.25a9.064,9.064,0,0,1,7.844,13.592L847.1,1451.9A8.955,8.955,0,0,1,839.258,1456.432Zm2.055-7.87,2.9,1.671-2.9-1.671,17-29.432a2.381,2.381,0,0,0-2.063-3.567H822.266a2.381,2.381,0,0,0-2.055,3.567l16.992,29.432a2.373,2.373,0,0,0,4.11,0Z" transform="translate(-422.479 -432.799)" fill="#6d007d"/>
      <path id="Path_45082" data-name="Path 45082" d="M2190.2,2447.632a8.983,8.983,0,0,1-6.366-2.656l-24.035-24.035a9.055,9.055,0,0,1,4.06-15.154l32.832-8.8a9.056,9.056,0,0,1,11.094,11.094l-8.8,32.832a9.114,9.114,0,0,1-8.789,6.684Zm8.22-44.185-32.832,8.8a2.372,2.372,0,0,0-1.061,3.968l24.035,24.035a2.373,2.373,0,0,0,3.968-1.061l8.8-32.832a2.364,2.364,0,0,0-2.907-2.907Z" transform="translate(-553.672 -615.376)" fill="#6d007d"/>
      <path id="Path_45083" data-name="Path 45083" d="M2171.257,895.28h-20.309a12.915,12.915,0,0,1-11.145-6.433l-10.142-17.585a12.908,12.908,0,0,1,0-12.865l10.15-17.544a12.915,12.915,0,0,1,11.144-6.433h20.309a12.892,12.892,0,0,1,11.136,6.433l10.15,17.544a12.866,12.866,0,0,1,0,12.865l-10.15,17.585a12.891,12.891,0,0,1-11.145,6.433Zm-20.309-54.218a6.215,6.215,0,0,0-5.354,3.091l-10.15,17.544a6.191,6.191,0,0,0,0,6.182l10.15,17.585a6.216,6.216,0,0,0,5.355,3.091h20.309a6.19,6.19,0,0,0,5.346-3.091l10.159-17.585a6.191,6.191,0,0,0,0-6.182l-10.15-17.544a6.215,6.215,0,0,0-5.355-3.091Z" transform="translate(-548.866 -358.25)" fill="#ff9e20"/>
      <path id="Path_45084" data-name="Path 45084" d="M464.266,1707.724a12.814,12.814,0,0,1-3.342-.434l-19.607-5.255a12.882,12.882,0,0,1-9.1-9.1l-5.255-19.607a12.9,12.9,0,0,1,3.342-12.431l14.361-14.353a12.882,12.882,0,0,1,12.423-3.342l19.616,5.255a12.9,12.9,0,0,1,9.1,9.1l5.255,19.607a12.907,12.907,0,0,1-3.342,12.431l-14.336,14.352a12.906,12.906,0,0,1-9.114,3.776Zm-10.484-58.262a6.232,6.232,0,0,0-4.386,1.8l-14.352,14.361a6.19,6.19,0,0,0-1.6,5.973l5.255,19.607a6.207,6.207,0,0,0,4.378,4.378l19.607,5.255a6.206,6.206,0,0,0,5.973-1.6l14.361-14.361a6.207,6.207,0,0,0,1.6-5.973l-5.255-19.607a6.191,6.191,0,0,0-4.369-4.369l-19.616-5.28a6.091,6.091,0,0,0-1.587-.184Z" transform="translate(-338.838 -481.294)" fill="#ff9e20"/>
      <path id="Path_45085" data-name="Path 45085" d="M859.758,807.279a3.341,3.341,0,0,1-1.888-.585l-5.531-3.776,3.776-5.522,3.642,2.506,7.895-5.4a3.341,3.341,0,0,1,3.768,0l7.895,5.4,7.895-5.4a3.341,3.341,0,0,1,3.768,0l7.895,5.4,7.895-5.4a3.341,3.341,0,0,1,3.768,0l7.026,4.8-3.768,5.547-5.138-3.517-7.895,5.4a3.342,3.342,0,0,1-3.776,0l-7.895-5.388-7.886,5.388a3.342,3.342,0,0,1-3.776,0l-7.886-5.388-7.895,5.388a3.343,3.343,0,0,1-1.888.551Z" transform="translate(-338.92 -351.585)" fill="#6d007d"/>
      <path id="Path_45086" data-name="Path 45086" d="M1449.888,1956.69a3.34,3.34,0,0,1-1.888-.576l-5.531-3.784,3.768-5.514,3.651,2.506,7.895-5.4a3.341,3.341,0,0,1,3.768,0l7.895,5.4,7.886-5.4a3.342,3.342,0,0,1,3.776,0l7.895,5.4,7.895-5.4a3.341,3.341,0,0,1,3.768,0l7.026,4.8-3.776,5.522-5.138-3.509-7.895,5.4a3.342,3.342,0,0,1-3.768,0l-7.895-5.4-7.895,5.4a3.342,3.342,0,0,1-3.768,0l-7.895-5.4-7.895,5.4A3.342,3.342,0,0,1,1449.888,1956.69Z" transform="translate(-436.047 -540.763)" fill="#6d007d"/>
      <path id="Path_45087" data-name="Path 45087" d="M2125.538,1178.578a3.341,3.341,0,0,1-1.887-.585l-5.531-3.785,3.768-5.514,3.651,2.506,7.886-5.4a3.342,3.342,0,0,1,3.776,0l7.886,5.4,7.895-5.4a3.342,3.342,0,0,1,3.768,0l7.895,5.4,7.9-5.4a3.342,3.342,0,0,1,3.776,0l7.017,4.8-3.768,5.522-5.138-3.509-7.894,5.4a3.342,3.342,0,0,1-3.768,0l-7.895-5.4-7.895,5.4a3.342,3.342,0,0,1-3.776,0l-7.886-5.4-7.894,5.4A3.341,3.341,0,0,1,2125.538,1178.578Z" transform="translate(-547.249 -412.696)" fill="#6d007d"/>
      <path id="Path_45088" data-name="Path 45088" d="M1002.276,2376.81a3.339,3.339,0,0,1-1.888-.576l-7.886-5.4-7.895,5.4a3.343,3.343,0,0,1-3.776,0l-5.53-3.785,3.776-5.514,3.642,2.506,7.895-5.4a3.342,3.342,0,0,1,3.768,0l7.895,5.4,7.886-5.4a3.343,3.343,0,0,1,3.776,0l7.895,5.4,7.895-5.4a3.342,3.342,0,0,1,3.768,0l7.026,4.795-3.768,5.523-5.138-3.509-7.895,5.4a3.342,3.342,0,0,1-3.776,0l-7.895-5.4-7.895,5.4A3.338,3.338,0,0,1,1002.276,2376.81Z" transform="translate(-359.157 -609.909)" fill="#6d007d"/>
      <path id="Path_45089" data-name="Path 45089" d="M1042.549,518.552a12.431,12.431,0,1,1,12.423-12.428l-6.683,0a5.739,5.739,0,1,0-5.739,5.748Z" transform="translate(-298.179 -122.171)" fill="#65afff"/>
      <path id="Path_45090" data-name="Path 45090" d="M1308.422,1531.485a12.423,12.423,0,1,1,12.423-12.422h-6.683a5.739,5.739,0,1,0-5.739,5.739Z" transform="translate(-411.939 -468.889)" fill="#65afff"/>
      <path id="Path_45092" data-name="Path 45092" d="M461.373,742.566a20.593,20.593,0,0,1,0-41.186v6.683a13.91,13.91,0,1,0,13.91,13.885h6.683A20.618,20.618,0,0,1,461.373,742.566Z" transform="translate(-351.183 -286.354)" fill="#65afff"/>
      <path id="Path_45093" data-name="Path 45093" d="M1999.651,2871.6a20.527,20.527,0,0,1-14.561-6.024l4.728-4.728a13.918,13.918,0,1,0,0-19.673l-4.729-4.72a20.593,20.593,0,1,1,14.561,35.146Z" transform="translate(-525.354 -686.762)" fill="#65afff"/>
    </g>
    <rect id="Rectangle_1556" data-name="Rectangle 1556" width="230.193" height="6.478" transform="translate(439.97 7729.011)" fill="#333"/>
    <path id="Path_46067" data-name="Path 46067" d="M449.65,2180.431A196.442,196.442,0,0,1,559.471,1821.12h631.217v6.478H559.5c-104.736,0-189.948,85.212-189.948,189.948a189.889,189.889,0,0,0,83.746,157.516Z" transform="translate(-119.534 5907.845)" fill="#333"/>
    <path id="Path_46310" data-name="Path 46310" d="M1476.979,2302.174h-886.8a195.8,195.8,0,0,1-65.867-11.337l2.178-6.1a189.54,189.54,0,0,0,63.688,10.94h886.8Z" transform="translate(-150.214 5819.627)" fill="#333"/>
    <path id="Path_46111" data-name="Path 46111" d="M490.987,2298.713a27.727,27.727,0,1,1,27.727-27.724,27.727,27.727,0,0,1-27.727,27.724Zm0-48.967a21.248,21.248,0,1,0,21.248,21.249A21.249,21.249,0,0,0,490.987,2249.746Z" transform="translate(-138.601 5827.519)" fill="#ee1f4f"/>
    <text id="Link_Building" data-name="Link Building" transform="translate(365.493 7940)" fill="#2e2e2e" font-size="24" font-family="Poppins-Bold, Poppins" font-weight="700"><tspan x="0" y="0">Link Building</tspan></text>
    <text id="You_get_assistance_with_link-building_by_acquiring_links_pointing_to_your_website_from_other_websites._" data-name="You get assistance with link-building by acquiring links pointing to your website from other websites.
" transform="translate(365.493 7959)" fill="#6b6b6b" font-size="16" font-family="Poppins-Medium, Poppins" font-weight="500"><tspan x="0" y="17">You get assistance with link-building by </tspan><tspan x="0" y="41">acquiring links pointing to your website </tspan><tspan x="0" y="65">from other websites.</tspan><tspan x="0" y="89"></tspan></text>
    <g id="Group_7498" data-name="Group 7498">
      <rect id="Rectangle_1547" data-name="Rectangle 1547" width="90" height="90" rx="32" transform="translate(365.493 7804)" fill="#ee1f4f"/>
      <g id="Group_1426" data-name="Group 1426" transform="translate(386.18 7824.568)">
        <circle id="Ellipse_1570" data-name="Ellipse 1570" cx="12.915" cy="12.915" r="12.915" transform="translate(18.993 19.114)" fill="none" stroke="#fff" stroke-width="1"/>
        <path id="Path_46546" data-name="Path 46546" d="M12.318,14.578H10.8a.761.761,0,0,1-.76-.76V12.3a.761.761,0,0,1,.76-.76h3.8a1.52,1.52,0,1,0,0-3.039H10.8A3.8,3.8,0,0,0,7,12.3v1.519a3.8,3.8,0,0,0,3.8,3.8h1.519a.761.761,0,0,1,.76.76V19.9a.761.761,0,0,1-.76.76h-3.8a1.519,1.519,0,0,0,0,3.039h3.8a3.8,3.8,0,0,0,3.8-3.8V18.377a3.8,3.8,0,0,0-3.8-3.8Z" transform="translate(-1.682 -1.922)" opacity="0.1"/>
        <path id="Path_46547" data-name="Path 46547" d="M45.3,3H4.272a2.251,2.251,0,0,0-2.1,1.421.739.739,0,0,1,.585-.281H43.778a.762.762,0,0,1,.76.76V24.652a.8.8,0,0,1-.965.76,14.616,14.616,0,0,0-3.715-4.437,3.772,3.772,0,0,0,.881-2.4v-7.6a3.8,3.8,0,0,0-3.8-3.8H33.9a3.8,3.8,0,0,0-3.8,3.8v6.86a14.372,14.372,0,0,0-5.675,1.5H21.746a.762.762,0,0,1-.76-.76V16.3h4.558a1.52,1.52,0,1,0,0-3.039H20.986V10.977a.762.762,0,0,1,.76-.76h3.8a1.52,1.52,0,1,0,0-3.039h-3.8a3.8,3.8,0,0,0-3.8,3.8v7.6a3.786,3.786,0,0,0,2.606,3.586,15,15,0,0,0-2.4,3.252H2.753a.762.762,0,0,1-.76-.76,2.337,2.337,0,0,0,2.279,2.659h16.3A11.4,11.4,0,1,1,39.015,40.2c-6.929,7.233-19.4,2.249-19.54-7.7A12.9,12.9,0,0,0,32.382,45.545c9.36.122,15.613-10.013,11.761-18.234H45.3a2.363,2.363,0,0,0,2.279-2.659V5.279A2.276,2.276,0,0,0,45.3,3ZM37.7,18.575c-.16,1.094-.79.547-1.443.281A15.769,15.769,0,0,0,33.142,18v-7.02a.762.762,0,0,1,.76-.76h3.039a.762.762,0,0,1,.76.76Z" transform="translate(-0.473 -0.601)" opacity="0.1"/>
        <path id="Path_46548" data-name="Path 46548" d="M12.8,11.539h3.8a1.52,1.52,0,1,0,0-3.039H12.8A3.8,3.8,0,0,0,9,12.3v1.519a3.8,3.8,0,0,0,3.8,3.8h1.519a.761.761,0,0,1,.76.76V19.9a.761.761,0,0,1-.76.76h-3.8a1.519,1.519,0,1,0,0,3.039h3.8a3.8,3.8,0,0,0,3.8-3.8V18.377a3.8,3.8,0,0,0-3.8-3.8H12.8a.761.761,0,0,1-.76-.76V12.3A.761.761,0,0,1,12.8,11.539Z" transform="translate(-2.162 -1.922)" fill="#fff"/>
        <path id="Path_46549" data-name="Path 46549" d="M48.623,24.052V4.3a3.8,3.8,0,0,0-3.8-3.8H3.8A3.8,3.8,0,0,0,0,4.3V24.052a3.8,3.8,0,0,0,3.8,3.8H18A14.474,14.474,0,0,0,31.909,46.084a14.317,14.317,0,0,0,9.074-3.212l5.047,5.047a1.519,1.519,0,1,0,2.149-2.149l-5.047-5.047A14.365,14.365,0,0,0,45.78,27.714,3.8,3.8,0,0,0,48.623,24.052Zm-45.584,0V4.3a.761.761,0,0,1,.76-.76H44.824a.76.76,0,0,1,.76.76V24.052a.8.8,0,0,1-.963.76,14.745,14.745,0,0,0-3.715-4.437,3.762,3.762,0,0,0,.879-2.4v-7.6a3.8,3.8,0,0,0-3.8-3.8H34.948a3.8,3.8,0,0,0-3.8,3.8v6.861a14.376,14.376,0,0,0-5.674,1.5H22.792a.761.761,0,0,1-.76-.76V15.695h4.558a1.52,1.52,0,1,0,0-3.039H22.032V10.377a.761.761,0,0,1,.76-.76h3.8a1.519,1.519,0,0,0,0-3.039h-3.8a3.8,3.8,0,0,0-3.8,3.8v7.6a3.791,3.791,0,0,0,2.6,3.587,15.168,15.168,0,0,0-2.4,3.25H3.8a.761.761,0,0,1-.76-.76Zm31.149-6.657V10.377a.76.76,0,0,1,.76-.76h3.039a.76.76,0,0,1,.76.76v7.6c-.159,1.093-.787.547-1.443.283a15.51,15.51,0,0,0-3.115-.862ZM40.062,39.6c-6.994,7.3-19.611,2.166-19.549-7.952A11.394,11.394,0,1,1,40.062,39.6Z" fill="#fff"/>
      </g>
    </g>
    <text id="_9" data-name="9" transform="translate(352.493 8107)" fill="#ee1f4f" font-size="24" font-family="Poppins-Bold, Poppins" font-weight="700"><tspan x="-7" y="0">9</tspan></text>
    <path id="Path_46299" data-name="Path 46299" d="M 1724.49 2323.48 a 27.719 27.719 0 1 1 27.719 -27.719 a 27.719 27.719 0 0 1 -27.719 27.719 Z m -20 -27.959 a 21.256 21.256 0 1 0 0 -0.033 Z" transform="translate(-373.253 5822.801)" fill="#6d007d"/>
    <text id="High_ROI" data-name="High ROI" transform="translate(1282.493 7958)" fill="#2e2e2e" font-size="24" font-family="Poppins-Bold, Poppins" font-weight="700"><tspan x="0" y="0">High ROI</tspan></text>
    <text id="Get_the_benefit_of_a_comprehensive_and_effective_communication_strategy_that_ensures_you_get_a_positive_ROI._" data-name="Get the benefit of a comprehensive and effective communication strategy that ensures you get a positive ROI.
" transform="translate(1282.493 7982)" fill="#6b6b6b" font-size="16" font-family="Poppins-Medium, Poppins" font-weight="500"><tspan x="0" y="17">Get the benefit of a comprehensive and </tspan><tspan x="0" y="41">effective communication strategy that </tspan><tspan x="0" y="65">ensures you get a positive ROI.</tspan><tspan x="0" y="89"></tspan></text>
    <g id="Group_7499" data-name="Group 7499">
      <rect id="Rectangle_1547-2" data-name="Rectangle 1547" width="90" height="90" rx="32" transform="translate(1282.493 7827)" fill="#6d007d"/>
      <g id="Group_6562" data-name="Group 6562" transform="translate(1303.547 7848.117)">
        <g id="Group_6561" data-name="Group 6561" clip-path="url(#clip-path)">
          <path id="Path_46587" data-name="Path 46587" d="M5.558,0A25.66,25.66,0,0,1,7.992,2.14c.7.693,1.9,1.556,2.171,2.527a1.635,1.635,0,0,1-.9,1.99c-.951.431-1.71-.141-2.385-.778V29.326a5.125,5.125,0,0,1,3.373,4.693,1.711,1.711,0,0,1-3.2.9c-.411-.764-.149-1.584-.928-2.168a1.7,1.7,0,0,0-2.155.12,1.728,1.728,0,0,0-.344,2.074c.49.867,1.378.795,2.234.948a5.145,5.145,0,0,1,3.675,7.641,5.312,5.312,0,0,1-1.847,1.808c-.828.5-.65.8-1.072,1.568-1.029,1.862-3.135.478-3.216-1.159-1.954-.763-2.731-2.2-3.4-4.059V40.52c.441-.815,1.088-1.469,2.1-1.236.942.218,1.086.959,1.318,1.769.494,1.723,3.121,2.329,3.411.106C7.11,39,4.383,39.341,3.094,38.8A5.572,5.572,0,0,1,0,34.868V33.375c.47-.582.513-1.617,1.008-2.283a5.074,5.074,0,0,1,1.109-1.083A8.638,8.638,0,0,0,3.2,29.4c.584-.682.214-2.5.215-3.4q0-2.066,0-4.131,0-8,0-16.009C2.1,7.084,1.034,7.081,0,5.545V4.692A25.716,25.716,0,0,1,4.7,0Z" fill="#fff"/>
          <path id="Path_46588" data-name="Path 46588" d="M59.34,5.545c-.959,1.581-2.128,1.51-3.41.313a31.455,31.455,0,0,1-6.35,17.085A40.9,40.9,0,0,1,36.424,34.1a32.459,32.459,0,0,1-8.64,3.26c-1.2.245-2.72,0-2.649-1.608.075-1.7,2.142-1.72,3.367-2.055a35.7,35.7,0,0,0,15.391-9.439c4.784-4.8,8.526-11.435,8.563-18.352-.638.579-1.324,1.148-2.24.824A1.712,1.712,0,0,1,49.13,4.755c.209-.924,1.319-1.716,1.965-2.36A17.2,17.2,0,0,1,53.783,0h.855a26.308,26.308,0,0,1,4.7,4.691Z" transform="translate(-11.457)" fill="#fff"/>
          <path id="Path_46589" data-name="Path 46589" d="M79.405,45.934c-.86,1.981-3.857,1.265-5.557,1.269-1.437,0-4.691.59-4.7-1.7s3.26-1.7,4.7-1.694c1.712.005,4.7-.722,5.556,1.269Z" transform="translate(-31.523 -19.916)" fill="#fff"/>
          <path id="Path_46590" data-name="Path 46590" d="M79.405,55.34c-.86,1.981-3.857,1.265-5.557,1.269-1.437,0-4.691.59-4.7-1.7s3.26-1.7,4.7-1.694c1.712.005,4.7-.722,5.556,1.269Z" transform="translate(-31.523 -24.204)" fill="#fff"/>
          <path id="Path_46591" data-name="Path 46591" d="M79.405,64.747c-.86,1.981-3.857,1.265-5.557,1.269-1.437,0-4.691.59-4.7-1.7s3.26-1.7,4.7-1.694c1.712.005,4.7-.722,5.556,1.269Z" transform="translate(-31.523 -28.492)" fill="#fff"/>
          <path id="Path_46592" data-name="Path 46592" d="M79.405,74.153c-.86,1.981-3.857,1.265-5.557,1.269-1.437,0-4.691.59-4.7-1.7s3.26-1.7,4.7-1.694c1.712.005,4.7-.722,5.556,1.269Z" transform="translate(-31.523 -32.78)" fill="#fff"/>
          <path id="Path_46593" data-name="Path 46593" d="M79.405,83.56c-.86,1.981-3.857,1.265-5.557,1.269-1.437,0-4.691.59-4.7-1.7s3.26-1.7,4.7-1.694c1.712.005,4.7-.722,5.556,1.269Z" transform="translate(-31.523 -37.069)" fill="#fff"/>
          <path id="Path_46594" data-name="Path 46594" d="M52.288,66.042c-1.475,0-5.165.678-5.141-1.734.023-2.371,3.653-1.681,5.14-1.681,1.506,0,5.115-.7,5.116,1.707s-3.659,1.707-5.115,1.707" transform="translate(-21.493 -28.508)" fill="#fff"/>
          <path id="Path_46595" data-name="Path 46595" d="M30.262,72.039c1.47,0,5.092-.679,5.14,1.681.05,2.42-3.655,1.734-5.144,1.734-1.509,0-5.115.7-5.113-1.712,0-2.394,3.659-1.7,5.116-1.7" transform="translate(-11.463 -32.799)" fill="#fff"/>
          <path id="Path_46596" data-name="Path 46596" d="M52.3,72.044c1.447,0,5.133-.667,5.1,1.718s-3.667,1.7-5.127,1.7-5.107.67-5.129-1.695c-.022-2.393,3.691-1.719,5.153-1.719" transform="translate(-21.493 -32.803)" fill="#fff"/>
          <path id="Path_46597" data-name="Path 46597" d="M30.337,81.432c1.442,0,4.388-.644,4.986,1.183.734,2.242-2,2.228-3.372,2.231q-1.669,0-3.339,0c-.843,0-1.953.2-2.692-.295a1.714,1.714,0,0,1,1.052-3.117c1.121-.007,2.243,0,3.365,0" transform="translate(-11.472 -37.073)" fill="#fff"/>
          <path id="Path_46598" data-name="Path 46598" d="M52.3,84.854c-1.475,0-5.162.68-5.15-1.724.011-2.379,3.643-1.69,5.131-1.69,1.507,0,5.112-.7,5.125,1.7s-3.649,1.716-5.106,1.716" transform="translate(-21.493 -37.083)" fill="#fff"/>
        </g>
      </g>
    </g>
    <text id="_10" data-name="10" transform="translate(1351.493 8127)" fill="#6d007d" font-size="24" font-family="Poppins-Bold, Poppins" font-weight="700"><tspan x="-12" y="0">10</tspan></text>
    <path id="Path_45062" data-name="Path 45062" d="M605.65,870.82" transform="translate(-165.688 5315.844)" fill="none" stroke="#000" stroke-width="8"/>
    <path id="Path_45063" data-name="Path 45063" d="M1756.873,782.529v-6.478c104.736,0,189.948-85.212,189.948-189.948s-85.212-189.956-189.948-189.956H1281.66V389.67h475.213c108.488,0,196.434,87.942,196.434,196.43s-87.946,196.434-196.434,196.434Z" transform="translate(-294.286 5407.447)" fill="#333"/>
    <path id="Path_46509" data-name="Path 46509" d="M-50,0H917.161V6.478H-50Z" transform="translate(545.426 6183.426)" fill="#333"/>
    <path id="Path_45064" data-name="Path 45064" d="M1360.819,1259.708H559.5c-108.487,0-196.434-87.942-196.434-196.43S451.016,866.845,559.5,866.845l6.5,0v6.478h-6.5c-104.736,0-189.948,85.212-189.948,189.955S454.768,1253.23,559.5,1253.23h801.315Z" transform="translate(-119.542 5316.583)" fill="#333"/>
    <rect id="Rectangle_1535" data-name="Rectangle 1535" width="172.343" height="6.478" transform="translate(1290.245 6569.738)" fill="#333"/>
    <path id="Path_45065" data-name="Path 45065" d="M1693.855,1788.62H950.39v-6.478h743.465c95.5,0,176.53-71.333,188.441-165.922l6.43.81C1876.385,1714.834,1792.606,1788.62,1693.855,1788.62Z" transform="translate(-231.268 5173.922)" fill="#333"/>
    <path id="Path_45066" data-name="Path 45066" d="M2056.952,1516.384c-11.936-94.6-92.946-165.906-188.442-165.906V1344c98.792,0,182.53,73.77,194.871,171.6Z" transform="translate(-405.923 5225.75)" fill="#333"/>
    <path id="Path_45067" data-name="Path 45067" d="M605.65,1348" transform="translate(-165.688 5225.001)" fill="none" stroke="#000" stroke-width="8"/>
    <path id="Path_46510" data-name="Path 46510" d="M-58,0H743.465V6.478H-58Z" transform="translate(719.122 6956.051)" fill="#333"/>
    <path id="Path_45068" data-name="Path 45068" d="M449.65,2180.431A196.442,196.442,0,0,1,559.471,1821.12H730.689v6.478H559.5c-104.736,0-189.948,85.212-189.948,189.948a189.889,189.889,0,0,0,83.746,157.516Z" transform="translate(-119.534 5134.885)" fill="#333"/>
    <path id="Path_45069" data-name="Path 45069" d="M1476.979,2302.174h-886.8a195.8,195.8,0,0,1-65.867-11.337l2.178-6.1a189.54,189.54,0,0,0,63.688,10.94h886.8Z" transform="translate(-150.214 5046.667)" fill="#333"/>
    <rect id="Rectangle_1538" data-name="Rectangle 1538" width="86.856" height="6.478" transform="translate(1375.731 7342.364)" fill="#333"/>
    <path id="Path_45070" data-name="Path 45070" d="M1781.177,2691.129H1440.42v-6.478h340.757c104.735,0,189.948-85.212,189.948-189.956s-85.212-189.947-189.948-189.947v-6.478c108.487,0,196.434,87.942,196.434,196.43s-87.946,196.434-196.434,196.434Z" transform="translate(-318.59 5044.021)" fill="#333"/>
    <path id="Path_45071" data-name="Path 45071" d="M605.65,2302.27" transform="translate(-165.688 5043.333)" fill="none" stroke="#000" stroke-width="8"/>
    <path id="Path_45072" data-name="Path 45072" d="M1244.906,414.883a27.726,27.726,0,1,1,27.727-27.727A27.726,27.726,0,0,1,1244.906,414.883Zm0-48.967a21.248,21.248,0,1,0,21.248,21.24,21.248,21.248,0,0,0-21.248-21.24Z" transform="translate(-282.019 5413.2)" fill="#ee1f4f"/>
    <text id="Understanding_PR_Goal_" data-name="Understanding PR Goal  " transform="translate(976.493 5976)" fill="#2e2e2e" font-size="24" font-family="Poppins-Bold, Poppins" font-weight="700"><tspan x="0" y="0" xml:space="preserve">Understanding PR Goal  </tspan></text>
    <text id="We_conduct_market_research_to_learn_about_your_requirements_schedule_goals_products_and_services." data-name="We conduct market research to learn about your requirements, schedule, goals, products, and services." transform="translate(976.493 6000)" fill="#6b6b6b" font-size="16" font-family="Poppins-Medium, Poppins" font-weight="500"><tspan x="0" y="17">We conduct market research to learn </tspan><tspan x="0" y="41">about your requirements, schedule, goals, </tspan><tspan x="0" y="65">products, and services.</tspan></text>
    <g id="Group_7489" data-name="Group 7489">
      <rect id="Rectangle_1547-3" data-name="Rectangle 1547" width="90" height="90" rx="32" transform="translate(976.493 5845)" fill="#ee1f4f"/>
      <g id="Group_6552" data-name="Group 6552" transform="translate(997.43 5865.794)">
        <g id="Group_6551" data-name="Group 6551" transform="translate(0 0)" clip-path="url(#clip-path-2)">
          <path id="Path_46552" data-name="Path 46552" d="M49.063,26.048c-.123.9-.2,1.806-.376,2.693C46.8,38.119,41.376,44.6,32.366,47.722A24.5,24.5,0,1,1,19.8.469C20.862.266,21.941.155,23.011,0h3.065c1.119.154,2.24.279,3.348.508.92.19,2.452.286,2.982,1.2a1.535,1.535,0,0,1-.609,2.1c-.949.507-2.394-.217-3.376-.4A21.475,21.475,0,0,0,14.336,5.646,21.72,21.72,0,0,0,3.169,26.573a21.643,21.643,0,0,0,15.5,18.592A21.752,21.752,0,0,0,42.2,36.737a21.593,21.593,0,0,0,3.7-14.424c-.144-1.359-2.044-6,.784-5.849,1.389.077,1.464,1.494,1.67,2.561.254,1.316.507,2.636.716,3.96Z" transform="translate(0 -0.001)" fill="#fff"/>
          <path id="Path_46553" data-name="Path 46553" d="M83.665,9.289A52.876,52.876,0,0,1,79.1,14.106a5.839,5.839,0,0,1-2.192,1.772,16.908,16.908,0,0,1-3.281.366q-1.489.146-2.978.3A3.718,3.718,0,0,0,67.9,17.932q-2.4,2.386-4.787,4.778c-.8.8-1.586,1.6-2.389,2.394-.583.575-1.151,1.127-2.032.863a1.55,1.55,0,0,1-1.051-1.783c.193-.877,1.337-1.668,1.935-2.264Q61.988,19.512,64.4,17.1a23.15,23.15,0,0,0,2.228-2.22c.607-.807.5-1.952.6-2.93.216-2.211-.085-4.959,1.562-6.624A57.946,57.946,0,0,1,74.374,0h.766a1.92,1.92,0,0,1,1.179,1.879c.073,1.574.241,3.143.353,4.715.02.281.117.377.4.4,1.572.112,3.141.281,4.715.353a1.921,1.921,0,0,1,1.879,1.179Zm-4.957.9c-.977-.081-1.826-.166-2.677-.22-.869-.055-1.774-.117-2.137-1.015a14.784,14.784,0,0,1-.422-4.006c-1,1.006-2.631,2.085-2.814,3.542-.208,1.661-.341,3.332-.5,5a24.8,24.8,0,0,0,5.095-.483c1.414-.324,2.465-1.839,3.453-2.817" transform="translate(-34.602 0)" fill="#fff"/>
          <path id="Path_46554" data-name="Path 46554" d="M19.057,35.97A16.978,16.978,0,0,1,33.6,19.228a16.382,16.382,0,0,1,6.828.427,1.492,1.492,0,0,1,1.16,1.459,1.423,1.423,0,0,1-1.077,1.46,2.8,2.8,0,0,1-1.169-.049,13.425,13.425,0,0,0-13.311,3.887A13.077,13.077,0,0,0,22.78,39.954a13.222,13.222,0,0,0,10.16,9.481A13.836,13.836,0,0,0,49.383,32.442a1.541,1.541,0,1,1,2.967-.756,16.9,16.9,0,1,1-33.092,6.666c-.113-.788-.136-1.588-.2-2.382" transform="translate(-11.446 -11.443)" fill="#fff"/>
          <path id="Path_46555" data-name="Path 46555" d="M47.876,41.4c-6-.2-8.655,7.759-3.653,11.156a6.148,6.148,0,0,0,9.314-3.319C53.87,48.111,53.476,46.326,55,46c3.2-.685,1.349,4.858.659,6.079a9.625,9.625,0,0,1-7.2,4.621c-6.346.655-11.29-5.655-9.683-11.642a9.234,9.234,0,0,1,5.5-6.116,8.137,8.137,0,0,1,4.349-.585c1.714.354,1.912,2.926-.031,3.037-.238.014-.478,0-.717,0" transform="translate(-23.106 -22.978)" fill="#fff"/>
        </g>
      </g>
    </g>
    <text id="_1" data-name="1" transform="translate(967.493 5809)" fill="#ee1f4f" font-size="24" font-family="Poppins-Bold, Poppins" font-weight="700"><tspan x="-9" y="0">1</tspan></text>
    <path id="Path_45073" data-name="Path 45073" d="M699.145,892.033a27.726,27.726,0,1,1,27.719-27.724,27.727,27.727,0,0,1-27.719,27.724Zm0-48.967a21.248,21.248,0,1,0,21.24,21.243A21.248,21.248,0,0,0,699.145,843.066Z" transform="translate(-228.197 5322.361)" fill="#6d007d"/>
    <text id="Right_Audience_Platforms" data-name="Right Audience &amp; Platforms" transform="translate(487.493 6362)" fill="#2e2e2e" font-size="24" font-family="Poppins-Bold, Poppins" font-weight="700"><tspan x="0" y="0">Right Audience &amp; Platforms</tspan></text>
    <text id="We_identify_the_right_media_houses_and_target_audiences_on_the_platform_before_we_publish._" data-name="We identify the right media houses and target audiences on the platform before we publish. " transform="translate(487.493 6386)" fill="#6b6b6b" font-size="16" font-family="Poppins-Medium, Poppins" font-weight="500"><tspan x="0" y="17">We identify the right media houses and </tspan><tspan x="0" y="41">target audiences on the platform before </tspan><tspan x="0" y="65">we publish. </tspan></text>
    <g id="Group_7490" data-name="Group 7490">
      <rect id="Rectangle_1547-4" data-name="Rectangle 1547" width="90" height="90" rx="32" transform="translate(488.493 6231)" fill="#6d007d"/>
      <g id="Group_6554" data-name="Group 6554" transform="translate(504.493 6250)">
        <g id="Group_6553" data-name="Group 6553" clip-path="url(#clip-path-3)">
          <path id="Path_46556" data-name="Path 46556" d="M0,37.519V3.944C.712,1.049,2.832-.017,5.637,0,17.9.072,30.162.031,42.424.031c3.934,0,7.868-.007,11.8,0A4.583,4.583,0,0,1,58.9,3.744a1.043,1.043,0,0,0,.1.2V37.519c-.446.533-.547,1.49-.987,2.094a4.117,4.117,0,0,1-1.431,1.252c-1.732.9-4,.555-5.872.555H35.85a18.565,18.565,0,0,0,1.121,3.459c.382.648.964.67,1.568,1.085a3.489,3.489,0,0,1,1.341,3.823c-.536,1.805-2.142,2.419-3.859,2.448-2.276.037-4.554.012-6.831.012-2.256,0-4.582.159-6.83-.014a3.51,3.51,0,0,1-3.3-2.7,3.352,3.352,0,0,1,1.821-3.774c1.508-.868,1.837-2.715,2.228-4.337H7.887c-1.79,0-3.939.292-5.579-.613a3.98,3.98,0,0,1-1.384-1.3C.574,38.991.419,37.927,0,37.519M29.522,2.334H4.927A2.349,2.349,0,0,0,2.307,4.964q0,15.749,0,31.5a2.368,2.368,0,0,0,2.66,2.654H54.042a2.37,2.37,0,0,0,2.649-2.666q0-15.719,0-31.439A2.367,2.367,0,0,0,54,2.334H29.522m-.014,45.3H22.716c-.911,0-1.41.406-1.415,1.14s.5,1.159,1.4,1.16q6.792,0,13.584,0c.907,0,1.41-.41,1.415-1.142s-.5-1.155-1.4-1.156q-3.4,0-6.792,0m5.177-2.323c-.4-1.238-.773-2.421-1.176-3.594-.268-.781-5.231-.3-6.094-.3-1.136,0-1.609-.257-2.072.736a27.561,27.561,0,0,0-1.029,3.156Z" transform="translate(0 0)" fill="#fff"/>
          <path id="Path_46557" data-name="Path 46557" d="M37.009,12.754c6.971,0,13.942.038,20.913-.024a3.107,3.107,0,0,1,3.287,3.276c-.055,8.125-.022,16.25-.024,24.375a2.893,2.893,0,0,1-3.231,3.231q-7.72,0-15.44,0A4.319,4.319,0,0,1,42,43.6a1.131,1.131,0,0,1-1-.967,1.1,1.1,0,0,1,.739-1.222,2.606,2.606,0,0,1,.791-.1q7.691-.008,15.382,0c.868,0,.964-.093.964-.953q0-12.188,0-24.375c0-.825-.1-.925-.934-.925H16c-.864,0-.954.092-.954.962q0,12.159,0,24.317c0,.889.088.974,1,.974q7.662,0,15.324,0a2.823,2.823,0,0,1,.74.069,1.111,1.111,0,0,1,.813,1.229,1.128,1.128,0,0,1-1.034.991,5.144,5.144,0,0,1-.518.012q-7.691,0-15.383,0a2.9,2.9,0,0,1-3.251-3.21q0-12.274,0-24.547a2.84,2.84,0,0,1,2.1-2.99,4.472,4.472,0,0,1,1.14-.105q10.514-.009,21.028,0" transform="translate(-7.462 -7.458)" fill="#fff"/>
          <path id="Path_46558" data-name="Path 46558" d="M98.353,50.012c.953.951,2.608,2.082,3.232,3.277.662,1.267-.7,2.1-1.536,2.93-.807.807-1.93,2.586-3.225,1.971-1.193-.566-2.352-2.291-3.278-3.225-2.264,2.132-2.7-.184-3.268-2.284q-.49-1.8-.966-3.607c-.219-.828-.984-2.474-.542-3.29.795-1.466,4.889.4,6.124.729,1.031.275,6,.906,4.132,2.943a6.7,6.7,0,0,1-.672.558M99,53.893c-.878-.871-1.79-1.772-2.7-2.675-.8-.8-.844-1.025-.366-2.041l-4.528-1.2,1.226,4.535c1.834-1.01,3.565,1.865,4.72,3.018L99,53.893" transform="translate(-51.927 -26.497)" fill="#fff"/>
          <path id="Path_46559" data-name="Path 46559" d="M32.126,23.709c1.478,0,3.419-.349,4.723.519s1.242,2.4,1.245,3.79c0,1.466.3,3.286-.847,4.433-1.223,1.228-3.286.856-4.848.857-1.532,0-3.665.393-5.016-.509-1.4-.933-1.276-2.528-1.279-4.018,0-1.515-.278-3.354,1.061-4.417,1.314-1.044,3.4-.637,4.962-.637v-.02M32.1,31c.712,0,2.8.387,3.411-.112.538-.441.272-1.744.272-2.375,0-.6.239-1.915-.252-2.389-.46-.444-2.857-.106-3.443-.106-.681,0-2.849-.389-3.43.1-.53.448-.249,1.75-.249,2.376,0,.711-.265,2,.395,2.437.6.4,2.617.068,3.3.068" transform="translate(-15.278 -13.849)" fill="#fff"/>
          <path id="Path_46560" data-name="Path 46560" d="M33.866,60.79a4.789,4.789,0,1,1,4.809-4.773,4.812,4.812,0,0,1-4.809,4.773m.01-2.3a2.483,2.483,0,0,0,2.489-2.48,2.484,2.484,0,1,0-2.489,2.48" transform="translate(-17.052 -30.037)" fill="#fff"/>
          <path id="Path_46561" data-name="Path 46561" d="M63.7,29.156c-1.087,0-4.728.654-4.687-1.158s3.6-1.148,4.714-1.148c1.093,0,4.709-.663,4.714,1.146,0,1.83-3.632,1.161-4.74,1.161" transform="translate(-34.575 -15.66)" fill="#fff"/>
          <path id="Path_46562" data-name="Path 46562" d="M63.686,40.286c-1.089,0-4.645.653-4.671-1.115-.027-1.851,3.595-1.187,4.7-1.187,1.092,0,4.745-.66,4.726,1.162s-3.65,1.14-4.758,1.14" transform="translate(-34.574 -22.185)" fill="#fff"/>
          <path id="Path_46563" data-name="Path 46563" d="M63.745,65.059c1.11,0,4.215-.611,4.646.835.616,2.069-3.374,1.474-4.368,1.474-1.094,0-5.007.708-5.034-1.134-.025-1.789,3.712-1.176,4.755-1.176" transform="translate(-34.559 -38.04)" fill="#fff"/>
          <path id="Path_46564" data-name="Path 46564" d="M63.763,53.931c1.14,0,4.526-.69,4.595,1.049.076,1.917-3.47,1.257-4.629,1.259-1.1,0-4.717.662-4.712-1.153,0-1.836,3.635-1.159,4.747-1.159v0" transform="translate(-34.575 -31.516)" fill="#fff"/>
          <path id="Path_46565" data-name="Path 46565" d="M69.591,81.752a1.141,1.141,0,1,1-1.135,1.19,1.169,1.169,0,0,1,1.135-1.19" transform="translate(-40.105 -47.894)" fill="#fff"/>
        </g>
      </g>
    </g>
    <text id="_2" data-name="2" transform="translate(477.493 6195)" fill="#6d007d" font-size="24" font-family="Poppins-Bold, Poppins" font-weight="700"><tspan x="-13" y="0">2</tspan></text>
    <path id="Path_45074" data-name="Path 45074" d="M1618.927,1369.183a27.726,27.726,0,1,1,27.726-27.726A27.726,27.726,0,0,1,1618.927,1369.183Zm0-48.967a21.248,21.248,0,1,0,21.248,21.24,21.248,21.248,0,0,0-21.248-21.24Z" transform="translate(-353.169 5231.521)" fill="#65afff"/>
    <text id="Brand_Building" data-name="Brand Building" transform="translate(976.493 6410)" fill="#2e2e2e" font-size="24" font-family="Poppins-Bold, Poppins" font-weight="700"><tspan x="0" y="0">Brand Building</tspan></text>
    <text id="We_explain_to_your_target_audience_why_your_products_or_services_are_unique_and_best_for_them." data-name="We explain to your target audience why your products or services are unique and best for them." transform="translate(976.493 6434)" fill="#6b6b6b" font-size="16" font-family="Poppins-Medium, Poppins" font-weight="500"><tspan x="0" y="17">We explain to your target audience why </tspan><tspan x="0" y="41">your products or services are unique and </tspan><tspan x="0" y="65">best for them.</tspan></text>
    <g id="Group_7491" data-name="Group 7491">
      <rect id="Rectangle_1547-5" data-name="Rectangle 1547" width="90" height="90" rx="32" transform="translate(976.493 6279)" fill="#65afff"/>
      <g id="Group_6556" data-name="Group 6556" transform="translate(995.858 6295.428)">
        <g id="Group_6555" data-name="Group 6555" transform="translate(-0.428 -0.428)" clip-path="url(#clip-path-4)">
          <path id="Path_46566" data-name="Path 46566" d="M0,280.453a1.335,1.335,0,0,1,1.237-.543c3.183.02,6.366.009,9.549.01.905,0,1.171.267,1.171,1.176q0,4.8,0,9.6c0,.909-.267,1.177-1.171,1.178-3.183,0-6.366-.009-9.549.01A1.34,1.34,0,0,1,0,291.343Zm8.541,1.2c0,1.1.005,2.164,0,3.228-.008,1.192-1.156,1.016-2.016,1.017a7.474,7.474,0,0,1-2.444-.052c-1.224-.478-.662-3.155-.662-4.194H1.74v8.477h8.484v-8.476Zm-1.736.007H5.162v2.505H6.8Z" transform="translate(0.109 -249.917)" fill="#fff"/>
          <path id="Path_46567" data-name="Path 46567" d="M192.452,395.956a1.339,1.339,0,0,1-.544-1.237c.02-3.183.009-6.366.01-9.549,0-.906.266-1.171,1.176-1.171q4.8,0,9.6,0c.91,0,1.177.266,1.177,1.17,0,3.183-.009,6.366.01,9.549a1.344,1.344,0,0,1-.543,1.237Zm8.007-10.238c0,1.13.007,2.211,0,3.293-.009.943-.751.948-1.5.968a9.637,9.637,0,0,1-2.868-.027c-1.334-.463-.757-3.073-.757-4.2h-1.678v8.461h8.468v-8.493Zm-3.374,2.523h1.635v-2.515h-1.635Z" transform="translate(-171.311 -342.893)" fill="#fff"/>
          <path id="Path_46568" data-name="Path 46568" d="M395.956,291.342a1.344,1.344,0,0,1-1.237.544c-3.183-.02-6.366-.009-9.549-.01-.9,0-1.17-.268-1.17-1.177q0-4.8,0-9.6c0-.91.265-1.176,1.171-1.176,3.183,0,6.366.009,9.549-.01a1.339,1.339,0,0,1,1.237.544Zm-1.746-1.2v-8.49h-1.671c0,.89.411,3.041-.109,3.792-.536.773-1.89.454-2.691.454-.819,0-1.789.229-2.251-.556s-.073-2.776-.073-3.677h-1.683v8.476Zm-3.414-8.475h-1.648v2.5H390.8Z" transform="translate(-342.893 -249.916)" fill="#fff"/>
          <rect id="Rectangle_1654" data-name="Rectangle 1654" width="1.708" height="2.525" transform="translate(25.732 0.109)" fill="#fff"/>
          <path id="Path_46569" data-name="Path 46569" d="M166.214,66.461c2.1.68,5.2,2.541,3.659,5.161-1.462,2.481-5.126,2.945-7.708,2.9-2.367-.045-5.858-.73-7.014-3.116-1.247-2.572,1.735-4.189,3.684-4.92-2.562-3.861-5.262-7.673-6.178-12.309-.849-4.3.113-8.835,3.694-11.637,6.728-5.267,16.2-.113,16.466,8.116.177,5.474-2.97,10.485-5.935,14.834l-.667.975m-3.651,2.266c.908-1.31,1.769-2.544,2.622-3.785,2.836-4.129,6-8.87,5.923-14.089a8.871,8.871,0,0,0-6.238-8.469,8.571,8.571,0,0,0-9.182,3.286c-5.437,7.53,2.747,17.085,6.875,23.056m.22,4.1c.36-.03.931-.047,1.492-.131,1.79-.267,6.406-2.054,3.008-3.837a5.24,5.24,0,0,0-1.8-.794c-.56.036-.709.478-1.02.945-.586.881-1.373,2.728-2.548,1.718-.895-.769-1.221-2.734-2.531-2.582-.853.1-2.481.895-2.731,1.8-.657,2.379,4.777,2.852,6.132,2.88" transform="translate(-135.992 -35.979)" fill="#fff"/>
          <path id="Path_46570" data-name="Path 46570" d="M327.2,407.218l-.262-1.564c3.747-1.048,7.48-1.887,10.724-4.148l.985,1.39a28.317,28.317,0,0,1-11.447,4.322" transform="translate(-291.921 -358.532)" fill="#fff"/>
          <path id="Path_46571" data-name="Path 46571" d="M71.434,405.655l-.282,1.678a28.345,28.345,0,0,1-11.414-4.284,7.425,7.425,0,0,1,.939-1.406,27.56,27.56,0,0,0,10.757,4.012" transform="translate(-53.252 -358.654)" fill="#fff"/>
          <path id="Path_46572" data-name="Path 46572" d="M66.94,217.309a16.58,16.58,0,0,1-1.006-1.371,26.782,26.782,0,0,1,9.856-4.01A10.449,10.449,0,0,1,76.1,213.6a25.8,25.8,0,0,0-9.157,3.711" transform="translate(-58.786 -189.193)" fill="#fff"/>
          <path id="Path_46573" data-name="Path 46573" d="M342.4,214.466l.336-1.588c2.123.047,7.964,2.419,9.7,3.941l-.955,1.348a25.8,25.8,0,0,0-9.077-3.7" transform="translate(-305.732 -190.042)" fill="#fff"/>
          <path id="Path_46574" data-name="Path 46574" d="M325.04,35.146l1.018,1.03-1.73,1.735-.986-1.074,1.7-1.691" transform="translate(-288.713 -31.285)" fill="#fff"/>
          <path id="Path_46575" data-name="Path 46575" d="M148.21,35.057l1.706,1.678-1.134,1.1-1.691-1.729,1.119-1.053" transform="translate(-131.279 -31.206)" fill="#fff"/>
          <rect id="Rectangle_1655" data-name="Rectangle 1655" width="2.486" height="1.661" transform="translate(38.576 13.784)" fill="#fff"/>
          <rect id="Rectangle_1656" data-name="Rectangle 1656" width="2.514" height="1.634" transform="translate(12.076 13.816)" fill="#fff"/>
          <path id="Path_46576" data-name="Path 46576" d="M190.818,72.006a6.828,6.828,0,1,1-6.811,6.839,6.883,6.883,0,0,1,6.811-6.839m-5.1,6.851a5.121,5.121,0,1,0,8.86-3.515,5.14,5.14,0,0,0-8.86,3.515" transform="translate(-164.253 -64.21)" fill="#fff"/>
          <path id="Path_46577" data-name="Path 46577" d="M220.679,110.589a5.3,5.3,0,0,0-1.262-.644c-.571-.085-.868.423-1.384.551-1.642.406-.926-1.193-1.113-2.073-.162-.767-1.332-1.336-1.07-2.139.247-.759,1.6-.563,2.156-1.143.52-.539.716-1.959,1.765-1.186.632.465.467,1.315,1.334,1.659.839.332,2.012.387,1.229,1.639-.528.845-1.022,1.063-.7,2.21.174.613-.232,1.117-.96,1.126m-2.091-3.386.3.84h.716l.309-.84-.669-.451-.661.45" transform="translate(-192.663 -92.547)" fill="#fff"/>
        </g>
      </g>
    </g>
    <text id="_3" data-name="3" transform="translate(1265.493 6581)" fill="#65afff" font-size="24" font-family="Poppins-Bold, Poppins" font-weight="700"><tspan x="-7" y="0">3</tspan></text>
    <path id="Path_45075" data-name="Path 45075" d="M2100.565,1607.753a27.727,27.727,0,1,1,27.718-27.721A27.727,27.727,0,0,1,2100.565,1607.753Zm0-48.967a21.248,21.248,0,1,0,21.24,21.246A21.249,21.249,0,0,0,2100.565,1558.786Z" transform="translate(-444.791 5186.103)" fill="#ff9e20"/>
    <text id="PR_Content_Creation" data-name="PR Content Creation" transform="translate(1220.493 6772)" fill="#2e2e2e" font-size="24" font-family="Poppins-Bold, Poppins" font-weight="700"><tspan x="0" y="0">PR Content Creation</tspan></text>
    <text id="Our_journalists_and_creative_PR_writers_ensure_that_each_piece_of_PR_content_reflects_the_organization_s_values._" data-name="Our journalists and creative PR writers ensure that each piece of PR content reflects the organization’s values.
" transform="translate(1220.493 6796)" fill="#6b6b6b" font-size="16" font-family="Poppins-Medium, Poppins" font-weight="500"><tspan x="0" y="17">Our journalists and creative PR writers </tspan><tspan x="0" y="41">ensure that each piece of PR content </tspan><tspan x="0" y="65">reflects the organization’s values.</tspan><tspan x="0" y="89"></tspan></text>
    <g id="Group_7492" data-name="Group 7492">
      <rect id="Rectangle_1547-6" data-name="Rectangle 1547" width="90" height="90" rx="32" transform="translate(1220.493 6641)" fill="#ff9e20"/>
      <g id="layer1" transform="translate(1242.493 5641.659)">
        <g id="g8039" transform="translate(0.999 1020.341)">
          <path id="path7949" d="M1.507.01A.771.771,0,0,0,1,.76V32.192a.773.773,0,0,0,.738.749H5.1l.738.047,5.671,5.762a.777.777,0,0,0,1.291-.515V32.988l5.164-.047H28.295a.773.773,0,0,0,.738-.749V8.255a.738.738,0,1,0-1.475,0V31.442h-9.59l-5.9.047a.773.773,0,0,0-.738.749v4.169L6.671,31.676a.739.739,0,0,0-.507-.187L5.1,31.442H2.476V1.509H20.918A.773.773,0,0,0,21.666.76.773.773,0,0,0,20.918.01H1.738A.728.728,0,0,0,1.507.01Zm22.131,0a.771.771,0,0,0-.507.749v4.5a.773.773,0,0,0,.738.749h4.426A.794.794,0,0,0,28.8,4.695L24.376.2A.745.745,0,0,0,23.638.01Zm.968,2.53,1.936,1.967H24.606ZM5.426,4.507v1.5H18.7v-1.5Zm0,4.5v1.5h19.18V9Zm0,4.5V15h19.18V13.5Zm0,4.5v1.5h19.18V18Zm0,4.5v1.5h19.18V22.5Zm0,4.5v1.5H12.8v-1.5ZM39.591,38.8l-9.175.047-9.221.047a.726.726,0,0,0-.092,0,.726.726,0,0,0-.092,0c-.094.059-.277.187-.277.187l-7.331,3.7a.8.8,0,0,0,0,1.358l7.239,3.607.369.234a.728.728,0,0,0,.092,0,.728.728,0,0,0,.092,0l9.267-.047,9.037-.047a.73.73,0,0,0,.184,0,.728.728,0,0,0,.092,0H42.5A3.555,3.555,0,0,0,46,44.277V42.356a3.565,3.565,0,0,0-3.55-3.56H39.591ZM38.9,40.3l.046,2.389-17.013-.047V40.389l8.483-.047Zm1.475,0h2.075a2.064,2.064,0,0,1,2.075,2.061v1.921A2.044,2.044,0,0,1,42.5,46.385H40.421Zm-19.918.562v5.106l-5.026-2.53Zm1.475,3.279,17.013.047v2.2l-8.483.047-8.53.047Z" transform="translate(-0.999 0.021)" fill="#fff" stroke="#fff" stroke-width="1"/>
        </g>
      </g>
    </g>
    <text id="_4" data-name="4" transform="translate(1655.493 6775)" fill="#ff9e20" font-size="24" font-family="Poppins-Bold, Poppins" font-weight="700"><tspan x="-8" y="0">4</tspan></text>
    <path id="Path_45076" data-name="Path 45076" d="M913.648,1846.327a27.718,27.718,0,1,1,27.718-27.719,27.718,27.718,0,0,1-27.718,27.719Zm0-48.959a21.24,21.24,0,1,0,21.24,21.24,21.24,21.24,0,0,0-21.24-21.24Z" transform="translate(-276.005 5140.681)" fill="#ee1f4f"/>
    <text id="Approval" transform="translate(609.493 6802)" fill="#2e2e2e" font-size="24" font-family="Poppins-Bold, Poppins" font-weight="700"><tspan x="0" y="0">Approval</tspan></text>
    <text id="We_do_not_publish_any_content_on_any_platform_unless_we_have_received_approval_from_our_clients._" data-name="We do not publish any content on any platform unless we have received approval from our clients.
" transform="translate(609.493 6823)" fill="#6b6b6b" font-size="16" font-family="Poppins-Medium, Poppins" font-weight="500"><tspan x="0" y="17">We do not publish any content on any platform unless </tspan><tspan x="0" y="41">we have received approval from our clients.</tspan><tspan x="0" y="65"></tspan></text>
    <text id="_5" data-name="5" transform="translate(637.493 6968)" fill="#ee1f4f" font-size="24" font-family="Poppins-Bold, Poppins" font-weight="700"><tspan x="-7" y="0">5</tspan></text>
    <g id="Group_7493" data-name="Group 7493">
      <rect id="Rectangle_1547-7" data-name="Rectangle 1547" width="90" height="90" rx="32" transform="translate(609.493 6668)" fill="#ee1f4f"/>
      <g id="Group_6558" data-name="Group 6558" transform="translate(628.43 6687.772)">
        <g id="Group_6557" data-name="Group 6557" clip-path="url(#clip-path-5)">
          <path id="Path_46578" data-name="Path 46578" d="M0,34.039V32.694c.192-.546.365-1.1.581-1.638.571-1.416,1.171-2.821,1.731-4.241a1.068,1.068,0,0,0-.005-.715C1.553,24.154.773,22.218,0,20.279V18.83c.336-.468.394-1.214.723-1.733A4.824,4.824,0,0,1,1.87,15.861c1.354-1.04,2.99-1.732,4.42-2.666C8.8,11.559,7.984,7.3,10.073,5.16c2.148-2.205,5.737-1.22,8.443-1,.9.073,1.284.156,2-.393.588-.452,1.135-.992,1.688-1.489A7.817,7.817,0,0,1,25.917,0h1.244A7.822,7.822,0,0,1,30.9,2.3a18.2,18.2,0,0,0,1.775,1.575,2.9,2.9,0,0,0,2.14.266c2.547-.21,5.94-1.1,8.031.858,2.3,2.15,1.025,6.406,3.678,8.019,1.5.91,3.112,1.717,4.538,2.732a5.69,5.69,0,0,1,2.02,3.188v1.345c-.158.448-.3.9-.476,1.343-.6,1.479-1.227,2.947-1.81,4.432a1.222,1.222,0,0,0,0,.809c.746,1.951,1.523,3.89,2.29,5.832v1.345c-.595.953-.618,1.919-1.534,2.751a23.372,23.372,0,0,1-3.806,2.394c-1.33.8-2.252,1.072-2.62,2.62a36.606,36.606,0,0,1-1.058,4.182,4.6,4.6,0,0,1-3.892,3.125,20.228,20.228,0,0,1-3.72-.185c-1.03-.078-2.6-.49-3.536.012-2.23,1.191-3.351,3.9-6.17,4.031-2.648.125-4.264-2.2-6.152-3.664-1.154-.892-2.575-.473-3.965-.365a19.15,19.15,0,0,1-3.843.16,4.717,4.717,0,0,1-3.958-3.669,33.958,33.958,0,0,0-1.046-4.368c-.46-1.039-1.766-1.49-2.716-2.054A23.49,23.49,0,0,1,1.6,36.855,6.425,6.425,0,0,1,0,34.039M14.257,6.934c-1.708-.1-2.055.139-2.5,1.559Q11,10.91,10.237,13.328c-.481,1.529-1.335,1.937-2.679,2.73a19.927,19.927,0,0,0-3.894,2.37c-1.014,1.011-.259,2.166.206,3.295a22.76,22.76,0,0,1,1.75,4.29c.24,1.406-.9,3.136-1.424,4.406-.386.938-1.359,2.375-1.007,3.43s2.073,1.668,2.934,2.18a25.4,25.4,0,0,1,3.737,2.24c.892.779.954,2.179,1.216,3.263.272,1.129.37,2.763.987,3.756.559.9,1.646.746,2.57.683,1.531-.1,3.061-.234,4.59-.363a3.539,3.539,0,0,1,3.235,1.2,19.723,19.723,0,0,0,3.29,2.822c1.234.655,2.11-.406,2.985-1.165a17.847,17.847,0,0,1,3.118-2.657c1.07-.537,2.475-.152,3.621-.058,1.8.148,4.99,1.193,5.74-1.031.8-2.371.493-5.52,2.814-6.936,1.306-.8,2.632-1.564,3.945-2.351.817-.49,1.961-.94,1.98-2.038.042-2.511-2.928-4.832-2.494-7.378a21.058,21.058,0,0,1,1.613-3.97c.34-.827,1.123-2.035.821-2.96-.325-1-1.894-1.573-2.71-2.062-1.2-.716-2.5-1.359-3.641-2.161-2.007-1.413-1.466-4.885-2.419-6.957-.55-1.2-1.569-1.027-2.71-.943q-1.914.141-3.827.29c-1.666.132-2.478.25-3.766-.893-1-.89-1.978-1.868-3.042-2.683-2.145-1.643-4.35,1.8-5.922,3.043-1.154.911-2.248.62-3.653.511-1.314-.1-2.628-.2-3.942-.3" transform="translate(0 0.001)" fill="#fff"/>
          <path id="Path_46579" data-name="Path 46579" d="M22.932,39.935A17.1,17.1,0,1,1,39.968,57.029,17.113,17.113,0,0,1,22.932,39.935m3.109,0A13.993,13.993,0,1,0,40.085,26,14,14,0,0,0,26.041,39.933" transform="translate(-13.496 -13.473)" fill="#fff"/>
          <path id="Path_46580" data-name="Path 46580" d="M49.586,58.1c.283-.337.425-.534.6-.7q3.77-3.772,7.547-7.539a1.576,1.576,0,0,1,1.592-.508,1.482,1.482,0,0,1,1.13,1.158,1.567,1.567,0,0,1-.514,1.541l-3.006,3q-3.024,3.017-6.048,6.035a1.593,1.593,0,0,1-2.528.007q-2.99-2.977-5.972-5.964a1.547,1.547,0,0,1,.664-2.683,1.566,1.566,0,0,1,1.547.5q2.29,2.287,4.58,4.573a5.036,5.036,0,0,1,.413.58" transform="translate(-24.632 -29.013)" fill="#fff"/>
        </g>
      </g>
    </g>
    <path id="Path_45077" data-name="Path 45077" d="M490.987,2298.713a27.727,27.727,0,1,1,27.727-27.724,27.727,27.727,0,0,1-27.727,27.724Zm0-48.967a21.248,21.248,0,1,0,21.248,21.249A21.249,21.249,0,0,0,490.987,2249.746Z" transform="translate(-138.601 5054.559)" fill="#6d007d"/>
    <text id="PR_Campaign_Design" data-name="PR Campaign Design" transform="translate(365.493 7168)" fill="#2e2e2e" font-size="24" font-family="Poppins-Bold, Poppins" font-weight="700"><tspan x="0" y="0">PR Campaign Design</tspan></text>
    <text id="We_prepare_an_effective_PR_campaign_by_adding_a_creative_angle_to_every_PR_initiative." data-name="We prepare an effective PR campaign by adding a creative angle to every PR initiative." transform="translate(365.493 7186)" fill="#6b6b6b" font-size="16" font-family="Poppins-Medium, Poppins" font-weight="500"><tspan x="0" y="17">We prepare an effective PR campaign by </tspan><tspan x="0" y="41">adding a creative angle to every PR </tspan><tspan x="0" y="65">initiative.</tspan></text>
    <g id="Group_7494" data-name="Group 7494">
      <rect id="Rectangle_1547-8" data-name="Rectangle 1547" width="90" height="90" rx="32" transform="translate(365.493 7031)" fill="#6d007d"/>
      <g id="Layer_2" data-name="Layer 2" transform="translate(383.337 7049.333)">
        <path id="Path_46519" data-name="Path 46519" d="M6.535,26a3.535,3.535,0,1,0,3.535,3.535A3.535,3.535,0,0,0,6.535,26Zm0,4.713a1.178,1.178,0,1,1,1.178-1.178A1.178,1.178,0,0,1,6.535,30.713Z" transform="translate(0 3.388)" fill="#fff"/>
        <path id="Path_46520" data-name="Path 46520" d="M8.179,29.762a1.178,1.178,0,0,1-.837-2.015l9.285-9.285A1.183,1.183,0,0,1,18.3,20.136L9.016,29.421A1.178,1.178,0,0,1,8.179,29.762Z" transform="translate(0.712 1.982)" fill="#fff"/>
        <path id="Path_46521" data-name="Path 46521" d="M25.32,7a15.318,15.318,0,1,0,7.942,28.409c.271-.165.542-.33.8-.518a15.165,15.165,0,0,0,3.83-3.83,8.471,8.471,0,0,0,.495-.778,15.153,15.153,0,0,0,2.251-7.965A15.318,15.318,0,0,0,25.32,7ZM36.361,29.082a7.187,7.187,0,0,1-.4.636,12.832,12.832,0,0,1-3.24,3.205c-.212.141-.412.283-.66.424a13.032,13.032,0,1,1,4.3-4.3Z" transform="translate(1.246)" fill="#fff"/>
        <path id="Path_46522" data-name="Path 46522" d="M18.713,13a4.713,4.713,0,1,0,4.713,4.713A4.713,4.713,0,0,0,18.713,13Zm0,7.07a2.357,2.357,0,1,1,2.357-2.357A2.357,2.357,0,0,1,18.713,20.07Z" transform="translate(1.961 1.07)" fill="#fff"/>
        <path id="Path_46523" data-name="Path 46523" d="M24.729,24.908a1.178,1.178,0,0,1-.837-.342l-4.43-4.43a1.183,1.183,0,1,1,1.673-1.673l4.43,4.43a1.178,1.178,0,0,1-.837,2.015Z" transform="translate(2.874 1.982)" fill="#fff"/>
        <path id="Path_46524" data-name="Path 46524" d="M26.713,21a4.713,4.713,0,1,0,4.713,4.713A4.713,4.713,0,0,0,26.713,21Zm0,7.07a2.357,2.357,0,1,1,2.357-2.357A2.357,2.357,0,0,1,26.713,28.07Z" transform="translate(3.388 2.496)" fill="#fff"/>
        <path id="Path_46525" data-name="Path 46525" d="M28.3,26.177a1.178,1.178,0,0,1-.837-2.015l12.82-12.82a1.183,1.183,0,0,1,1.673,1.673l-12.82,12.82A1.178,1.178,0,0,1,28.3,26.177Z" transform="translate(4.3 0.713)" fill="#fff"/>
        <path id="Path_46526" data-name="Path 46526" d="M43.286,7a3.535,3.535,0,1,0,3.535,3.535A3.535,3.535,0,0,0,43.286,7Zm0,4.713a1.178,1.178,0,1,1,1.178-1.178A1.178,1.178,0,0,1,43.286,11.713Zm1.426,26.854-9.674-9.733a1.178,1.178,0,0,0-1.862.247,7.189,7.189,0,0,1-.4.636,12.832,12.832,0,0,1-3.3,3.2,7.189,7.189,0,0,1-.636.4,1.178,1.178,0,0,0-.247,1.956l9.733,9.733a4.516,4.516,0,0,0,6.386-6.386ZM43.039,43.28a2.133,2.133,0,0,1-3.04,0l-8.719-8.719a14.87,14.87,0,0,0,3.04-3.04l8.719,8.719a2.133,2.133,0,0,1,0,3.04Z" transform="translate(4.49 0)" fill="#fff"/>
        <circle id="Ellipse_1568" data-name="Ellipse 1568" cx="1.178" cy="1.178" r="1.178" transform="translate(5.357 31.745)" fill="#fff" opacity="0.5"/>
        <path id="Path_46527" data-name="Path 46527" d="M24.553,34.514a12.961,12.961,0,0,0,6.74-1.9c.247-.141.448-.283.66-.424a12.832,12.832,0,0,0,3.205-3.24,7.188,7.188,0,0,0,.4-.636A12.961,12.961,0,0,0,32.424,11.29,12.961,12.961,0,0,1,33.2,25.96a7.187,7.187,0,0,1-.4.636A12.832,12.832,0,0,1,29.6,29.8c-.212.141-.412.283-.66.424a12.961,12.961,0,0,1-14.646-.8,12.961,12.961,0,0,0,10.263,5.09Zm-5.892-14.14a2.357,2.357,0,0,0,.966-4.5,2.227,2.227,0,0,1,.212.966A2.357,2.357,0,0,1,17.483,19.2a2.227,2.227,0,0,1-.966-.212A2.357,2.357,0,0,0,18.662,20.375Z" transform="translate(2.013 0.765)" fill="#fff" opacity="0.5"/>
        <path id="Path_46528" data-name="Path 46528" d="M25.146,26.5a2.227,2.227,0,0,1-.966-.212,2.357,2.357,0,1,0,3.111-3.111,2.227,2.227,0,0,1,.212.966A2.357,2.357,0,0,1,25.146,26.5Z" transform="translate(3.777 2.885)" fill="#fff" opacity="0.5"/>
        <circle id="Ellipse_1569" data-name="Ellipse 1569" cx="1.178" cy="1.178" r="1.178" transform="translate(46.597 9.357)" fill="#fff" opacity="0.5"/>
        <path id="Path_46529" data-name="Path 46529" d="M40.25,34.21a2.15,2.15,0,1,1-3.04,3.04l1.178,1.178a2.15,2.15,0,1,0,3.04-3.04Z" transform="translate(6.1 4.852)" fill="#fff" opacity="0.5"/>
      </g>
    </g>
    <text id="_6" data-name="6" transform="translate(352.493 7334)" fill="#6d007d" font-size="24" font-family="Poppins-Bold, Poppins" font-weight="700"><tspan x="-7" y="0">6</tspan></text>
    <path id="Path_45078" data-name="Path 45078" d="M 1724.49 2323.48 a 27.719 27.719 0 1 1 27.719 -27.719 a 27.719 27.719 0 0 1 -27.719 27.719 Z m -21 -28.959 a 21.256 21.256 0 1 0 0 -0.033 Z" transform="translate(-373.253 5049.841)" fill="#65afff"/>
    <text id="Assured_Coverages" data-name="Assured Coverages" transform="translate(1342.493 7182)" fill="#2e2e2e" font-size="24" font-family="Poppins-Bold, Poppins" font-weight="700"><tspan x="0" y="0">Assured Coverages</tspan></text>
    <text id="On-page_SEO_also_known_as_on-site_SEO_is_the_practice_of_optimizing_web_page_content_for_search_engines_and_users._" data-name="On-page SEO (also known as “on-site SEO”) is the practice of optimizing web page content for search engines and users. " transform="translate(1342.493 7206)" fill="#6b6b6b" font-size="16" font-family="Poppins-Medium, Poppins" font-weight="500"><tspan x="0" y="17">On-page SEO (also known as “on-site </tspan><tspan x="0" y="41">SEO”) is the practice of optimizing web </tspan><tspan x="0" y="65">page content for search engines and </tspan><tspan x="0" y="89">users. </tspan></text>
    <g id="Group_7496" data-name="Group 7496">
      <g id="Group_7495" data-name="Group 7495">
        <rect id="Rectangle_1547-9" data-name="Rectangle 1547" width="90" height="90" rx="32" transform="translate(1342.493 7051)" fill="#65afff"/>
        <g id="Group_6560" data-name="Group 6560" transform="translate(1366.764 7067.316)">
          <g id="Group_6559" data-name="Group 6559" clip-path="url(#clip-path-6)">
            <path id="Path_46581" data-name="Path 46581" d="M4.879,0a1.854,1.854,0,0,1,1.49,1.205,2.339,2.339,0,0,1-.524,1.981A16.776,16.776,0,0,0,3.831,8.179,17.428,17.428,0,0,0,4.981,19.19c.379.824.915,1.566,1.3,2.383a1.692,1.692,0,0,1-.325,1.915,1.72,1.72,0,0,1-1.911.358c-.719-.332-1.117-1.239-1.484-1.892A20.543,20.543,0,0,1,.022,11.047,20.858,20.858,0,0,1,1.275,4.823,18.1,18.1,0,0,1,2.6,2.007,12.455,12.455,0,0,1,3.473.6c.307-.394.7-.421,1.121-.6Z" transform="translate(0)" fill="#fff"/>
            <path id="Path_46582" data-name="Path 46582" d="M228.413,0a2.865,2.865,0,0,1,.893.359,3.542,3.542,0,0,1,.783,1.03,19.249,19.249,0,0,1,1.217,2.33,20.687,20.687,0,0,1-.057,16.7,19.541,19.541,0,0,1-1.385,2.557,1.825,1.825,0,0,1-1.853,1,1.723,1.723,0,0,1-1.364-1.247,2.647,2.647,0,0,1,.636-2.061,17.38,17.38,0,0,0,2.179-11.046,17.125,17.125,0,0,0-1.958-5.9c-.4-.742-1.072-1.449-.879-2.355a1.7,1.7,0,0,1,.5-.882,2.871,2.871,0,0,1,1-.479Z" transform="translate(-191.928)" fill="#fff"/>
            <path id="Path_46583" data-name="Path 46583" d="M268.865,75.293c-.009-.287-.025-.573-.025-.86,0-.245.016-.49.025-.734Z" transform="translate(-227.714 -62.425)" fill="#fff"/>
            <path id="Path_46584" data-name="Path 46584" d="M33.047,60.365v-.147q0-2.612,0-5.224a.185.185,0,0,0-.136-.206A5.051,5.051,0,0,1,29.731,51a5.121,5.121,0,0,1,10-2.225,5.033,5.033,0,0,1-1.148,4.642,4.566,4.566,0,0,1-1.925,1.343.25.25,0,0,0-.2.28c.008,1.718,0,3.435,0,5.153v.161a17.809,17.809,0,0,1,13.525,8.4A17.375,17.375,0,0,1,52.607,80.45a17.978,17.978,0,0,1-35.656.358,17.432,17.432,0,0,1,3.691-13.646,17.743,17.743,0,0,1,12.4-6.8M30.656,74.216c-.047.654-.113,1.291-.135,1.93-.032.957-.061,1.916-.039,2.873.026,1.085.112,2.168.168,3.252.005.1.043.133.135.138.114.005.226.021.34.027.833.044,1.665.093,2.5.127A43.8,43.8,0,0,0,38.75,82.4a.142.142,0,0,0,.1-.1c.063-1.017.138-2.034.173-3.052a41.233,41.233,0,0,0-.119-4.421c-.015-.206-.038-.412-.057-.618a40.354,40.354,0,0,0-8.187,0m11.675.516a47.137,47.137,0,0,1-.009,7.128,4.824,4.824,0,0,0,1.092-.231q.5-.126,1-.273a20.255,20.255,0,0,0,1.949-.685,9.6,9.6,0,0,0,1.844-.979c.439-.307,1.107-.8,1.1-1.4s-.665-1.088-1.1-1.4a9.9,9.9,0,0,0-1.849-.978,23.341,23.341,0,0,0-4.024-1.188M31.18,70.711a50.524,50.524,0,0,1,7.147,0,22.071,22.071,0,0,0-1.185-3.966,10.642,10.642,0,0,0-.971-1.876c-.307-.447-.769-1.088-1.362-1.139-.613-.052-1.143.665-1.451,1.1a9.977,9.977,0,0,0-.964,1.843,23.114,23.114,0,0,0-1.214,4.035m0,15.163c.063.283.119.546.18.807A19.538,19.538,0,0,0,32.646,90.5a6.963,6.963,0,0,0,1,1.619c.35.406.813.916,1.4.7a3.064,3.064,0,0,0,1.26-1.283,10.762,10.762,0,0,0,.88-1.766,23.19,23.19,0,0,0,1.146-3.887,46.633,46.633,0,0,1-7.148,0m-4.005-11.14c-.122.023-.224.041-.325.062A20.242,20.242,0,0,0,22.8,76.075a7.4,7.4,0,0,0-1.694.984c-.4.323-1.065.862-.893,1.441a2.91,2.91,0,0,0,1.272,1.315,10.35,10.35,0,0,0,1.69.862,23.011,23.011,0,0,0,4,1.186,51.06,51.06,0,0,1,0-7.128m21.154-1.674.027-.026a14.444,14.444,0,0,0-3.128-4.875,14.658,14.658,0,0,0-5.251-3.486c.032.083.048.136.072.184a16.636,16.636,0,0,1,.965,2.531,30.411,30.411,0,0,1,.853,3.62.175.175,0,0,0,.165.169c.7.141,1.409.285,2.11.445A21.68,21.68,0,0,1,47.513,72.7c.274.112.543.239.814.36M39.99,91.868l.034.032a14.57,14.57,0,0,0,6.005-4.365,14.335,14.335,0,0,0,2.316-3.993c-.069.027-.1.037-.121.048a22.261,22.261,0,0,1-3.917,1.335c-.741.173-1.489.319-2.235.473-.121.025-.191.055-.219.2-.126.675-.257,1.349-.417,2.017a19.732,19.732,0,0,1-1.347,4.033c-.035.072-.066.145-.1.218M29.472,91.9l.036-.03a.436.436,0,0,0-.02-.062,17.25,17.25,0,0,1-1.018-2.678,32.661,32.661,0,0,1-.834-3.581.14.14,0,0,0-.131-.135c-.484-.09-.968-.181-1.448-.286a23.031,23.031,0,0,1-4.781-1.558.877.877,0,0,0-.132-.035A14.642,14.642,0,0,0,29.472,91.9m.05-27.186a13.821,13.821,0,0,0-4.662,2.872,15,15,0,0,0-3.721,5.482c.081-.029.125-.04.165-.06a17.929,17.929,0,0,1,3.621-1.27c.824-.211,1.662-.367,2.494-.548.1-.021.2-.021.219-.167a24.8,24.8,0,0,1,.92-3.848c.217-.654.483-1.292.732-1.936.069-.178.154-.35.232-.525m6.94-14.727a1.692,1.692,0,0,0-1.67-1.706,1.711,1.711,0,1,0,1.67,1.706" transform="translate(-14.2 -37.997)" fill="#fff"/>
            <path id="Path_46585" data-name="Path 46585" d="M50.161,35.868a12.958,12.958,0,0,1,.594-3.831,11.8,11.8,0,0,1,.726-1.832,6.03,6.03,0,0,1,.927-1.523,1.708,1.708,0,0,1,2.562.161c.838,1.06-.058,2.079-.522,3.067a9.575,9.575,0,0,0-.291,7.225,9.782,9.782,0,0,0,.772,1.61,2,2,0,0,1,.344,1.512,1.714,1.714,0,0,1-2.2,1.225A2.388,2.388,0,0,1,51.86,42.24a12.43,12.43,0,0,1-.885-1.9,17.465,17.465,0,0,1-.85-4.466h.036" transform="translate(-42.457 -23.868)" fill="#fff"/>
            <path id="Path_46586" data-name="Path 46586" d="M189.817,35.8a13.088,13.088,0,0,1-1.98,6.883,1.7,1.7,0,0,1-3.141-.447,2.259,2.259,0,0,1,.414-1.652,9.685,9.685,0,0,0,1.059-6.781,9.239,9.239,0,0,0-.5-1.581c-.228-.541-.544-1.026-.8-1.551a1.7,1.7,0,0,1,.826-2.382,1.733,1.733,0,0,1,1.552.128,3.534,3.534,0,0,1,1.054,1.4,13.411,13.411,0,0,1,1.293,3.731,14.45,14.45,0,0,1,.226,2.251" transform="translate(-156.406 -23.855)" fill="#fff"/>
          </g>
        </g>
      </g>
    </g>
    <text id="_7" data-name="7" transform="translate(1351.493 7354)" fill="#65afff" font-size="24" font-family="Poppins-Bold, Poppins" font-weight="700"><tspan x="-6" y="0">7</tspan></text>
    <path id="Path_45079" data-name="Path 45079" d="M1372.7,2800.623a27.727,27.727,0,1,1,27.727-27.724,27.727,27.727,0,0,1-27.727,27.724Zm0-48.967a21.248,21.248,0,1,0,21.248,21.249A21.249,21.249,0,0,0,1372.7,2751.656Z" transform="translate(-276.33 4959.007)" fill="#ff9e20"/>
    <text id="PR_Distribution_" data-name="PR Distribution " transform="translate(1078.493 7603)" fill="#2e2e2e" font-size="24" font-family="Poppins-Bold, Poppins" font-weight="700"><tspan x="0" y="0">PR Distribution </tspan></text>
    <text id="We_distribute_your_press_release_article_to_150_media_houses_across_its_broad_media_network." data-name="We distribute your press release/article to 150+ media houses across its broad media network." transform="translate(1078.493 7623)" fill="#6b6b6b" font-size="16" font-family="Poppins-Medium, Poppins" font-weight="500"><tspan x="0" y="17">We distribute your press release/article to 150+ </tspan><tspan x="0" y="41">media houses across its broad media network.</tspan></text>
    <g id="Group_7497" data-name="Group 7497">
      <rect id="Rectangle_1547-10" data-name="Rectangle 1547" width="90" height="90" rx="32" transform="translate(1078.493 7468)" fill="#ff9e20"/>
      <g id="Group_1425" data-name="Group 1425" transform="translate(1100.984 7488.406)">
        <path id="Path_46534" data-name="Path 46534" d="M35.8,51.165H2.07A2.061,2.061,0,0,1,0,49.1V36.37A2.061,2.061,0,0,1,2.07,34.3H35.8a2.061,2.061,0,0,1,2.07,2.07V49.1A2.061,2.061,0,0,1,35.8,51.165ZM2.07,35.68a.687.687,0,0,0-.69.69V49.1a.687.687,0,0,0,.69.69H35.8a.687.687,0,0,0,.69-.69V36.37a.687.687,0,0,0-.69-.69Z" transform="translate(0 -7.959)" fill="#fff" stroke="#fff" stroke-width="0.5"/>
        <path id="Path_46535" data-name="Path 46535" d="M7.053,40.68H5.29a.69.69,0,1,1,0-1.38H6.976a.687.687,0,0,1,.69.69A.626.626,0,0,1,7.053,40.68Zm4.83,0H10.2a.69.69,0,1,1,0-1.38h1.687a.69.69,0,1,1,0,1.38Zm4.6,0H14.8a.69.69,0,1,1,0-1.38h1.687a.69.69,0,1,1,0,1.38Zm4.6,0H19.4a.69.69,0,1,1,0-1.38h1.687a.69.69,0,1,1,0,1.38Zm3.91,0H23.305a.69.69,0,1,1,0-1.38h1.687a.69.69,0,1,1,0,1.38Zm5.06,0H28.365a.69.69,0,1,1,0-1.38h1.687a.69.69,0,1,1,0,1.38Zm4.216,0H32.581a.69.69,0,1,1,0-1.38h1.687a.69.69,0,1,1,0,1.38ZM7.053,44.59H5.29a.69.69,0,0,1,0-1.38H6.976a.687.687,0,0,1,.69.69A.587.587,0,0,1,7.053,44.59Zm0,3.833H5.29a.69.69,0,0,1,0-1.38H6.976a.687.687,0,0,1,.69.69A.587.587,0,0,1,7.053,48.423Zm4.83-3.833H10.2a.69.69,0,0,1,0-1.38h1.687a.69.69,0,0,1,0,1.38Zm0,3.833H10.2a.69.69,0,0,1,0-1.38h1.687a.69.69,0,0,1,0,1.38Zm4.6-3.833H14.8a.69.69,0,0,1,0-1.38h1.687a.69.69,0,0,1,0,1.38Zm4.6,0H19.4a.69.69,0,0,1,0-1.38h1.687a.69.69,0,0,1,0,1.38Zm3.91,0H23.305a.69.69,0,0,1,0-1.38h1.687a.69.69,0,0,1,0,1.38Zm5.06,0H28.365a.69.69,0,0,1,0-1.38h1.687a.69.69,0,1,1,0,1.38Zm4.216,0H32.581a.69.69,0,1,1,0-1.38h1.687a.69.69,0,0,1,0,1.38Zm0,3.833H32.581a.69.69,0,1,1,0-1.38h1.687a.69.69,0,1,1,0,1.38Zm-4.37,0H14.643a.69.69,0,0,1,0-1.38H29.9a.69.69,0,0,1,0,1.38Z" transform="translate(-1.074 -9.125)" fill="#fff" stroke="#fff" stroke-width="0.5"/>
        <g id="Group_1420" data-name="Group 1420" transform="translate(18.935 0.2)">
          <path id="Path_46536" data-name="Path 46536" d="M32.9,16.529A8.165,8.165,0,1,1,32.9.2a8.165,8.165,0,1,1,0,16.329Zm0-14.949A6.823,6.823,0,1,0,39.726,8.4,6.838,6.838,0,0,0,32.9,1.58Z" transform="translate(-24.7 -0.2)" fill="#fff" stroke="#fff" stroke-width="0.5"/>
          <path id="Path_46537" data-name="Path 46537" d="M38.389,17.6a.687.687,0,0,1-.69-.69,3.91,3.91,0,1,0-7.819,0,.69.69,0,1,1-1.38,0,5.213,5.213,0,0,1,10.426,0C39.079,17.373,38.773,17.6,38.389,17.6Z" transform="translate(-25.587 -2.884)" fill="#fff" stroke="#fff" stroke-width="0.5"/>
          <path id="Path_46538" data-name="Path 46538" d="M34.22,11.54a3.22,3.22,0,1,1,3.22-3.22A3.19,3.19,0,0,1,34.22,11.54Zm0-5.136a1.84,1.84,0,1,0,1.84,1.84A1.816,1.816,0,0,0,34.22,6.4Z" transform="translate(-26.17 -1.344)" fill="#fff" stroke="#fff" stroke-width="0.5"/>
        </g>
        <g id="Group_1421" data-name="Group 1421" transform="translate(5.52 9.476)">
          <path id="Path_46539" data-name="Path 46539" d="M10.8,21.96a7.087,7.087,0,0,1-3.22-.767A.683.683,0,0,1,7.2,20.58a3.68,3.68,0,0,1,7.359,0,.683.683,0,0,1-.383.613A8.972,8.972,0,0,1,10.8,21.96Zm2.99-1.38ZM8.58,20.12a6.34,6.34,0,0,0,4.446,0A2.29,2.29,0,0,0,10.8,18.28,2.371,2.371,0,0,0,8.58,20.12Z" transform="translate(-7.2 -13.374)" fill="#fff" stroke="#fff" stroke-width="0.5"/>
          <path id="Path_46540" data-name="Path 46540" d="M10.953,17.206a2.453,2.453,0,1,1,2.453-2.453A2.422,2.422,0,0,1,10.953,17.206Zm0-3.526a1.073,1.073,0,1,0,1.073,1.073A1.1,1.1,0,0,0,10.953,13.68Z" transform="translate(-7.503 -12.3)" fill="#fff" stroke="#fff" stroke-width="0.5"/>
        </g>
        <g id="Group_1422" data-name="Group 1422" transform="translate(34.114 17.679)">
          <path id="Path_46541" data-name="Path 46541" d="M48.1,32.56a7.087,7.087,0,0,1-3.22-.767.683.683,0,0,1-.383-.613,3.68,3.68,0,0,1,7.359,0,.683.683,0,0,1-.383.613A8.216,8.216,0,0,1,48.1,32.56Zm2.913-1.3ZM45.88,30.8a6.34,6.34,0,0,0,4.446,0,2.29,2.29,0,0,0-2.223-1.84A2.172,2.172,0,0,0,45.88,30.8Z" transform="translate(-44.5 -24.05)" fill="#fff" stroke="#fff" stroke-width="0.5"/>
          <path id="Path_46542" data-name="Path 46542" d="M48.253,27.906a2.453,2.453,0,1,1,2.453-2.453A2.47,2.47,0,0,1,48.253,27.906Zm0-3.526a1.073,1.073,0,1,0,1.073,1.073A1.154,1.154,0,0,0,48.253,24.38Z" transform="translate(-44.803 -23)" fill="#fff" stroke="#fff" stroke-width="0.5"/>
        </g>
        <g id="Group_1423" data-name="Group 1423" transform="translate(3.526 7.1)">
          <path id="Path_46543" data-name="Path 46543" d="M33.961,24H31.2a.69.69,0,1,1,0-1.38h2.76a.69.69,0,0,1,0,1.38Zm-6.746,0h-2.76a.69.69,0,0,1,0-1.38h2.76a.69.69,0,1,1,0,1.38Zm-6.823,0h-2.76a.69.69,0,0,1,0-1.38h2.76a.69.69,0,0,1,0,1.38Zm-6.823,0H10.81a.69.69,0,0,1,0-1.38h2.76a.69.69,0,0,1,0,1.38Zm-6.516-1.3a.461.461,0,0,1-.307-.077l-.613-.307a2.871,2.871,0,0,1-1-.92l-.383-.537a.626.626,0,0,1,.153-.92.626.626,0,0,1,.92.153l.383.537a1.031,1.031,0,0,0,.537.46l.613.307a.737.737,0,0,1,.307.92A.782.782,0,0,1,7.053,22.692ZM5.29,17.4a.687.687,0,0,1-.69-.69v-2.76a.69.69,0,0,1,1.38,0v2.76A.687.687,0,0,1,5.29,17.4Zm.46-6.056a.7.7,0,0,1-.613-.307.642.642,0,0,1,.23-.92l.613-.383a2.407,2.407,0,0,1,1.227-.46L7.9,9.2a.747.747,0,0,1,.767.613.747.747,0,0,1-.613.767l-.69.077a1.237,1.237,0,0,0-.69.23l-.613.383C5.98,11.27,5.9,11.347,5.75,11.347Zm15.026-.69H18.859a.69.69,0,0,1,0-1.38h1.917a.69.69,0,1,1,0,1.38Zm-6.056,0h-2.76a.69.69,0,1,1,0-1.38h2.76a.69.69,0,1,1,0,1.38Z" transform="translate(-4.6 -9.2)" fill="#fff" stroke="#fff" stroke-width="0.5"/>
        </g>
        <g id="Group_1424" data-name="Group 1424" transform="translate(36.491 24.272)">
          <path id="Path_46544" data-name="Path 46544" d="M54.116,33.057h-.153a1.137,1.137,0,0,0-.537-.077.69.69,0,0,1,0-1.38,3.145,3.145,0,0,1,.843.077.706.706,0,0,1,.537.843A.736.736,0,0,1,54.116,33.057Zm-.69,5.826h-.92a.69.69,0,1,1,0-1.38h1.15a.686.686,0,0,1,.767.613.747.747,0,0,1-.613.767Zm2.836-2.147h-.153a.614.614,0,0,1-.46-.843,1.3,1.3,0,0,0,.077-.537v-.383a.694.694,0,1,1,1.38-.153v.537a2.874,2.874,0,0,1-.077.843C56.8,36.506,56.569,36.736,56.263,36.736ZM48.98,38.883h-.69a.69.69,0,0,1,0-1.38h.69a.69.69,0,0,1,0,1.38Z" transform="translate(-47.6 -31.6)" fill="#fff" stroke="#fff" stroke-width="0.5"/>
        </g>
        <path id="Path_46545" data-name="Path 46545" d="M47.1,53.4a.518.518,0,0,0,.307.46.44.44,0,0,0,.537-.153l1.84-1.84,2.606.077a.518.518,0,0,0,.46-.307A.44.44,0,0,0,52.7,51.1l-1.84-1.84.077-2.606a.518.518,0,0,0-.307-.46.44.44,0,0,0-.537.153l-1.84,1.84-2.606-.077a.518.518,0,0,0-.46.307.44.44,0,0,0,.153.537l1.84,1.84Zm1.38-4.216a.586.586,0,0,0,.383-.153l1.073-1.073v1.533a.586.586,0,0,0,.153.383l1.073,1.073H49.631a.586.586,0,0,0-.383.153L48.175,52.17V50.637a.586.586,0,0,0-.153-.383L46.948,49.1ZM17.74,59.377a.4.4,0,0,0,.153.307c.077.077.23,0,.307-.077l1.073-1.073h1.533a.4.4,0,0,0,.307-.153c.077-.077,0-.23-.077-.307L19.963,57V55.467a.4.4,0,0,0-.153-.307c-.077-.077-.23,0-.307.077L18.43,56.31H16.9a.4.4,0,0,0-.307.153c-.077.077,0,.23.077.307l1.073,1.073Zm.767-2.453a.282.282,0,0,0,.23-.077l.613-.613v.843a.282.282,0,0,0,.077.23l.613.613H19.2a.282.282,0,0,0-.23.077l-.613.613v-.843a.282.282,0,0,0-.077-.23l-.613-.613Zm0,0" transform="translate(-3.865 -10.727)" fill="#fff" stroke="#fff" stroke-width="0.5"/>
      </g>
    </g>
    <text id="_8" data-name="8" transform="translate(1096.493 7740)" fill="#ff9e20" font-size="24" font-family="Poppins-Bold, Poppins" font-weight="700"><tspan x="-7" y="0">8</tspan></text>
  </g>
</svg>
