<svg id="Group_6686" data-name="Group 6686" xmlns="http://www.w3.org/2000/svg" xmlns:xlink="http://www.w3.org/1999/xlink" width="32.89" height="32.894" viewBox="0 0 32.89 32.894">
  <defs>
    <clipPath id="clip-path">
      <rect id="Rectangle_1936" data-name="Rectangle 1936" width="32.89" height="32.894" fill="#e1003e"/>
    </clipPath>
  </defs>
  <g id="Group_6685" data-name="Group 6685" clip-path="url(#clip-path)">
    <path id="Path_56509" data-name="Path 56509" d="M27.055,32.893c-2.008-.576-3.7-1.41-4.455-3.5a5.519,5.519,0,0,1,.853-5.142L20.9,21.7a6.966,6.966,0,0,1-7.055,1.133l-1.118,2.234a3.723,3.723,0,0,1-3.965,6.292,3.763,3.763,0,0,1-1.636-4.58,3.808,3.808,0,0,1,4.653-2.2L12.9,22.359a7.072,7.072,0,0,1-2.949-3.612L5.316,19.992c.013,3.251-4.8,3.847-5.251.532-.4-2.965,3.525-3.951,4.959-1.556l4.636-1.247a6.881,6.881,0,0,1,1.506-5.714L8.612,9.459a5.381,5.381,0,0,1-7.534-.938,5.364,5.364,0,0,1,.506-7.028,5.365,5.365,0,0,1,7.226-.183,5.385,5.385,0,0,1,.642,7.314L12,11.158a6.923,6.923,0,0,1,7.3-1.006l.993-1.8C19.107,7,18.6,5.179,19.9,3.717a3.184,3.184,0,0,1,5.183,3.628,3.417,3.417,0,0,1-3.861,1.513l-1,1.81A7.013,7.013,0,0,1,23.3,15.658l5.383-.2A2.21,2.21,0,0,1,30.947,13.8c1.147.1,1.615.945,1.943,1.917v.332A2.331,2.331,0,0,1,31.4,17.9a2.106,2.106,0,0,1-2.217-.618c-.274-.321-.3-.653-.708-.762a6.752,6.752,0,0,0-1.716.068c-1.141.043-2.283.087-3.424.141A6.977,6.977,0,0,1,21.7,20.9l2.55,2.553a5.548,5.548,0,0,1,5.115-.867,5.192,5.192,0,0,1,2.2,1.508,7.967,7.967,0,0,1,1.326,2.963v1.127a6.907,6.907,0,0,1-1.482,3.083,6.36,6.36,0,0,1-3.292,1.626ZM22.278,16.467a5.832,5.832,0,1,0-9.957,4.1,5.836,5.836,0,0,0,9.957-4.1m-11.67,9A2.65,2.65,0,1,0,12.474,30a2.655,2.655,0,0,0-1.865-4.532M2.112,8.043A3.268,3.268,0,0,1,3.731,5.178C2.859,3.718,3.246,1.6,5.294,1.587a2.149,2.149,0,0,1,1.567,3.58A3.3,3.3,0,0,1,8.5,8.049c2.465-2.6.269-6.979-3.17-7-3.465-.017-5.71,4.36-3.22,6.99M26.027,27.452a2.13,2.13,0,0,1,3.011-3.01,2.289,2.289,0,0,1,.122,3.018,3.278,3.278,0,0,1,1.62,2.862c2.461-2.619.263-7-3.2-6.987-3.282.016-5.885,4.466-3.185,6.961a3.266,3.266,0,0,1,1.634-2.845M24.4,5.841a2.121,2.121,0,1,0-3.623,1.49A2.124,2.124,0,0,0,24.4,5.841M4.242,20.153A1.6,1.6,0,0,0,2.628,18.57a1.6,1.6,0,0,0-1.087,2.718,1.6,1.6,0,0,0,2.7-1.135M7.329,7.41a2.087,2.087,0,0,0-4.047,0ZM29.61,29.695a2.087,2.087,0,0,0-4.047,0Zm-4.726,1.093a4.038,4.038,0,0,0,5.4,0ZM2.565,8.5a4.108,4.108,0,0,0,5.454,0Zm3.8-4.8a1.056,1.056,0,1,0-1.788.768A1.064,1.064,0,0,0,6.364,3.7M27.6,27.056a1.056,1.056,0,1,0-.764-1.8,1.067,1.067,0,0,0,.764,1.8m4.228-11.114A1.056,1.056,0,1,0,30,16.636a1.066,1.066,0,0,0,1.824-.694" transform="translate(0 0)" fill="#e1003e"/>
    <path id="Path_56510" data-name="Path 56510" d="M194.114,180.471c-2.168-1.425-1.545-5.019,1.288-5,2.8.014,3.434,3.584,1.271,5a3.948,3.948,0,0,1,2.357,2.834c.125.671.121,1.077-.592,1.2a16.593,16.593,0,0,1-2.69,0h-2.69c-.683,0-1.334.138-1.375-.694a3.657,3.657,0,0,1,2.046-3.151c.115-.061.236-.112.386-.183m3.839,2.955a2.615,2.615,0,0,0-5.131,0Zm-2.584-3.7a1.589,1.589,0,1,0-1.086-2.731,1.6,1.6,0,0,0,1.086,2.731" transform="translate(-178.944 -163.81)" fill="#e1003e"/>
  </g>
</svg>
