<svg id="Group_6696" data-name="Group 6696" xmlns="http://www.w3.org/2000/svg" xmlns:xlink="http://www.w3.org/1999/xlink" width="28" height="25.284" viewBox="0 0 28 25.284">
  <defs>
    <clipPath id="clip-path">
      <rect id="Rectangle_1944" data-name="Rectangle 1944" width="28" height="25.284" fill="#e1003e"/>
    </clipPath>
  </defs>
  <g id="Group_6695" data-name="Group 6695" clip-path="url(#clip-path)">
    <path id="Path_56531" data-name="Path 56531" d="M0,1.469c.024-.058.053-.115.073-.175A1.807,1.807,0,0,1,1.832,0c1.515,0,3.03,0,4.545,0H24.187a1.824,1.824,0,0,1,2.01,2.01q0,7.223,0,14.445c0,.047,0,.094,0,.141,0,.364-.161.556-.453.555s-.45-.193-.45-.558q0-6.306,0-12.612V3.613H2.509A1.727,1.727,0,0,1,2.2,3.6a.424.424,0,0,1-.387-.447.425.425,0,0,1,.393-.441,1.875,1.875,0,0,1,.31-.007H25.283a10.357,10.357,0,0,0-.007-1.053.881.881,0,0,0-.833-.751c-.084-.006-.169,0-.254,0H2C1.235.9.9,1.235.9,2q0,9.071,0,18.141c0,.75.332,1.08,1.087,1.08H19.632c.495,0,.7.134.69.46s-.2.443-.678.443c-5.787,0-11.573-.015-17.36.013A2.057,2.057,0,0,1,0,20.657V1.469" transform="translate(0 0)" fill="#e1003e"/>
    <path id="Path_56532" data-name="Path 56532" d="M94.2,78.537a25.15,25.15,0,0,1-1.67-2.6c-.381.239-1.38,1.169-1.842.763-.417-.365-.158-1.765-.158-2.263q0-1.46,0-2.92c0-.44-.256-1.814.333-1.994.5-.153,1.652.76,2.072.989l2.518,1.375c.417.228,1.839.692,1.847,1.268s-1.319,1.019-1.722,1.244c.241.431.5.848.761,1.269.2.323.8,1.01.735,1.407s-.738.58-1.049.727c-.5.236-1.014.452-1.487.735Zm-2.753-7.81v4.821c.566-.356,1.194-1.031,1.7-.327s.913,1.539,1.4,2.279l1.427-.678L95.2,75.529a4.787,4.787,0,0,1-.64-1.081c-.18-.706.843-.986,1.364-1.277l-4.473-2.444" transform="translate(-69.305 -53.253)" fill="#e1003e"/>
    <path id="Path_56533" data-name="Path 56533" d="M58.583,66.094h4.4c.4,0,1.452-.2,1.447.455,0,.573-.76.447-1.132.448q-2.25,0-4.5,0c-.588,0-1,.108-1.138-.533a11.706,11.706,0,0,1,0-2.327,6.958,6.958,0,0,1,.022-2.216c.231-.526.967-.34,1.442-.341h6.829c.475,0,1.677-.235,2.009.185a1.828,1.828,0,0,1-.042,1.49c-.592.528-.773-.353-.773-.75H58.583Z" transform="translate(-44.108 -47.131)" fill="#e1003e"/>
    <path id="Path_56534" data-name="Path 56534" d="M56.528,24.738c-.262.373-1.516,2.656-2.007,1.588a7.187,7.187,0,0,1-.21-1.933q-.09-.895-.181-1.79c-.035-.339-.239-.981.057-1.248a.455.455,0,0,1,.727.207,5.579,5.579,0,0,1,.181,1.631c.058.578.094,1.162.2,1.734.244-.348.748-1.425,1.239-1.423s1,1.088,1.246,1.437c.1-.969.192-1.94.3-2.908.036-.319.035-.742.441-.783.386-.038.453.259.487.557a7.651,7.651,0,0,1-.149,1.5q-.09.888-.181,1.776c-.03.29-.212,2.42-.965,1.34-.382-.547-.766-1.092-1.181-1.685" transform="translate(-41.396 -16.272)" fill="#e1003e"/>
    <path id="Path_56535" data-name="Path 56535" d="M18.058,23.323c0,.558.359,3.089-.391,3.214-.862.144-.512-2.555-.512-3.025,0-.438-.316-2.931.735-2.276.386.241.728,1.146.965,1.54.326.543.646,1.09.984,1.625a16.7,16.7,0,0,0,.026-1.794c0-.363-.156-1.14.171-1.392,1-.774.732,2.18.732,2.463,0,.471.363,3.148-.6,2.83-.4-.133-.742-1.025-.946-1.366-.368-.614-.725-1.236-1.114-1.836l-.051.018" transform="translate(-13.09 -16.155)" fill="#e1003e"/>
    <path id="Path_56536" data-name="Path 56536" d="M80.874,26.661c-.612-.065-1.178-.115-1.517-.708-.2-.353-.291-1.323.413-1.1.5.159.238.758.858.882.552.11,1.465-.122,1.232-.874-.219-.7-1.138-.4-1.664-.592a1.564,1.564,0,0,1-.991-1.192c-.24-1.352,1.027-1.932,2.159-1.856a1.428,1.428,0,0,1,1.317.81c.161.362.156,1.178-.477.975-.325-.1-.217-.412-.369-.63-.174-.251-.358-.244-.648-.255-.519-.02-1.264.141-1.08.849.174.672.945.444,1.441.555a1.579,1.579,0,0,1,1.172,1.053c.409,1.281-.716,2.059-1.846,2.059l0,.022" transform="translate(-60.664 -16.255)" fill="#e1003e"/>
    <path id="Path_56537" data-name="Path 56537" d="M37.472,22.02v1.355c.469,0,2.248-.305,2.243.452-.007.828-1.757.346-2.236.473v1.333c.457,0,1.719-.231,2.072.1.524.491-.145.786-.567.8a6.169,6.169,0,0,1-2.114-.024c-.534-.239-.313-1.172-.313-1.645q0-1.188,0-2.376c0-.573-.182-1.208.477-1.369a5.186,5.186,0,0,1,1.114-.005,4.539,4.539,0,0,1,1.114.006c.5.147.66.887-.012.9-.582.008-1.165,0-1.779,0" transform="translate(-27.975 -16.151)" fill="#e1003e"/>
    <path id="Path_56538" data-name="Path 56538" d="M14.9,52.842H11.817c-.47,0-2.016.3-2.095-.4-.091-.812,1.7-.5,2.17-.5h6.166c.452,0,2.041-.306,2.028.456s-1.673.447-2.157.447H14.9" transform="translate(-7.446 -39.748)" fill="#e1003e"/>
    <path id="Path_56539" data-name="Path 56539" d="M63.167,52.848H60.1c-.472,0-1.97.295-2.077-.385-.131-.83,1.7-.517,2.17-.517h6.165c.439,0,2.046-.3,2.026.459s-1.69.444-2.171.444H63.167" transform="translate(-44.452 -39.755)" fill="#e1003e"/>
    <path id="Path_56540" data-name="Path 56540" d="M14.9,62.5H11.816c-.47,0-2.016.3-2.094-.4-.09-.811,1.7-.5,2.171-.5h6.165c.444,0,2.043-.3,2.029.456s-1.68.446-2.158.446H14.9" transform="translate(-7.447 -47.149)" fill="#e1003e"/>
    <path id="Path_56541" data-name="Path 56541" d="M14.855,72.138H11.77c-.444,0-2.07.308-2.093-.438-.023-.765,1.6-.464,2.055-.464h6.109c.481,0,2.2-.315,2.215.442s-1.711.46-2.173.46H14.855" transform="translate(-7.414 -54.529)" fill="#e1003e"/>
    <path id="Path_56542" data-name="Path 56542" d="M14.9,81.806H11.817c-.47,0-2.016.3-2.095-.4-.091-.812,1.7-.5,2.17-.5h6.166c.452,0,2.041-.306,2.028.456s-1.673.447-2.157.447H14.9" transform="translate(-7.446 -61.94)" fill="#e1003e"/>
    <path id="Path_56543" data-name="Path 56543" d="M12.045,5.807c1.276-.015-.43,1.732-.444.454a.452.452,0,0,1,.444-.454" transform="translate(-8.888 -4.449)" fill="#e1003e"/>
    <path id="Path_56544" data-name="Path 56544" d="M19.765,5.805c1.275-.034-.4,1.739-.437.46a.453.453,0,0,1,.437-.46" transform="translate(-14.808 -4.448)" fill="#e1003e"/>
    <path id="Path_56545" data-name="Path 56545" d="M27.427,6.636c-1.277-.009.462-1.723.452-.446a.455.455,0,0,1-.452.446" transform="translate(-20.655 -4.38)" fill="#e1003e"/>
  </g>
</svg>
