<svg id="Group_6694" data-name="Group 6694" xmlns="http://www.w3.org/2000/svg" xmlns:xlink="http://www.w3.org/1999/xlink" width="29.838" height="29.758" viewBox="0 0 29.838 29.758">
  <defs>
    <clipPath id="clip-path">
      <rect id="Rectangle_1943" data-name="Rectangle 1943" width="29.838" height="29.758" transform="translate(0 0)" fill="#e10045"/>
    </clipPath>
  </defs>
  <g id="Group_6693" data-name="Group 6693" transform="translate(0 0)" clip-path="url(#clip-path)">
    <path id="Path_56522" data-name="Path 56522" d="M0,2.139C.045,1.97.084,1.8.138,1.632A2.37,2.37,0,0,1,2.307.005c.049,0,.1,0,.147,0Q12,0,21.54,0a2.325,2.325,0,0,1,2.3,1.676,3,3,0,0,1,.108.812c.012,1.091.005,2.183.005,3.274V6.11c.115-.1.188-.163.253-.229.557-.556,1.111-1.115,1.67-1.667a1.706,1.706,0,0,1,2.563.005c.273.269.543.542.812.815a1.708,1.708,0,0,1-.014,2.582q-5.305,5.312-10.613,10.62c-.4.4-.8.815-1.214,1.2a1.165,1.165,0,0,1-.474.27c-1.071.287-2.147.559-3.222.83-.649.164-.981-.187-.806-.842.28-1.043.551-2.088.849-3.126a1.38,1.38,0,0,1,.336-.568q4.224-4.244,8.467-8.47A.688.688,0,0,0,22.787,7c-.009-1.494,0-2.989-.005-4.484a1.23,1.23,0,0,0-1.347-1.361q-9.454,0-18.908,0A1.23,1.23,0,0,0,1.17,2.5q0,10.265,0,20.531a1.223,1.223,0,0,0,1.374,1.355c2.969,0,5.939-.005,8.908.01a1.366,1.366,0,0,1,.729.233c1.507,1.052,3,2.127,4.493,3.194.087.062.176.121.294.2V25.553c-.125,0-.241.009-.356,0a.579.579,0,0,1-.02-1.156,2.333,2.333,0,0,1,.295-.007q2.271,0,4.543,0a1.22,1.22,0,0,0,1.352-1.347q0-3.083,0-6.165c0-.079,0-.157,0-.236a.6.6,0,0,1,.6-.632.589.589,0,0,1,.566.63c0,2.2.017,4.4-.007,6.607a2.358,2.358,0,0,1-2.366,2.307c-1.022.013-2.045,0-3.068,0h-.35v.786c0,.885,0,1.77,0,2.655a.622.622,0,0,1-1.066.559q-2.682-1.926-5.373-3.839a.893.893,0,0,0-.482-.154q-4.277-.013-8.554-.006A2.406,2.406,0,0,1,.036,23.481c0-.017-.024-.03-.036-.044V2.139M25.81,6.008,15.23,16.578l1.637,1.651L27.451,7.647,25.81,6.008m.843-.9,1.733,1.7c.589-.523.048-.957-.359-1.365s-.849-.947-1.374-.339M14.667,17.748l-.4,1.449,1.453-.4-1.049-1.047" transform="translate(0 0)" fill="#e10045"/>
    <path id="Path_56523" data-name="Path 56523" d="M33.623,31.268c-.648,0-3.867.453-3.7-.673.094-.629.906-.5,1.342-.5q1.27,0,2.54,0c.833,0,1.667-.011,2.5,0,.421.005,1.073-.012,1.081.577.015,1.038-3.094.594-3.764.593" transform="translate(-20.409 -20.523)" fill="#e10045"/>
    <path id="Path_56524" data-name="Path 56524" d="M18.835,61.722c-.6,0-3.413.439-3.368-.6.043-.99,2.668-.563,3.268-.563h2.133c.448,0,1.33-.128,1.342.57.019,1.018-2.745.6-3.376.6" transform="translate(-10.551 -41.246)" fill="#e10045"/>
    <path id="Path_56525" data-name="Path 56525" d="M18.423,15.78c-.589,0-3.123.408-2.933-.673.154-.881,2.6-.486,3.256-.485.579,0,2.616-.374,2.617.58,0,1-2.335.578-2.939.578" transform="translate(-10.559 -9.914)" fill="#e10045"/>
    <path id="Path_56526" data-name="Path 56526" d="M40.783,15.82c-.566,0-2.24.327-2.367-.492-.153-.995,1.681-.666,2.208-.667.557,0,2.318-.325,2.536.428.307,1.058-1.872.73-2.378.73" transform="translate(-26.199 -9.953)" fill="#e10045"/>
    <path id="Path_56527" data-name="Path 56527" d="M17.182,30.052c.495,0,1.54-.213,1.663.484.157.889-1.2.684-1.687.684s-1.724.207-1.693-.6c.03-.786,1.209-.567,1.717-.567" transform="translate(-10.549 -20.48)" fill="#e10045"/>
    <path id="Path_56528" data-name="Path 56528" d="M31.108,46.563c-.486,0-1.456.2-1.571-.481-.145-.857,1.1-.671,1.581-.671s1.609-.188,1.585.59c-.023.761-1.1.561-1.6.561h0" transform="translate(-20.141 -30.964)" fill="#e10045"/>
    <path id="Path_56529" data-name="Path 56529" d="M18.478,46.594c-.445,0-1.2.076-1.2-.574s.765-.577,1.207-.577,1.207-.082,1.2.58-.762.571-1.207.571" transform="translate(-11.784 -30.997)" fill="#e10045"/>
    <path id="Path_56530" data-name="Path 56530" d="M57.8,15.966c-.429,0-1.113.055-1.124-.564s.7-.586,1.138-.587,1.147-.048,1.138.587-.716.564-1.152.564" transform="translate(-38.663 -10.105)" fill="#e10045"/>
  </g>
</svg>
