<svg id="Group_6690" data-name="Group 6690" xmlns="http://www.w3.org/2000/svg" xmlns:xlink="http://www.w3.org/1999/xlink" width="32.99" height="32.928" viewBox="0 0 32.99 32.928">
  <defs>
    <clipPath id="clip-path">
      <rect id="Rectangle_1941" data-name="Rectangle 1941" width="32.99" height="32.928" fill="#d20036"/>
    </clipPath>
  </defs>
  <g id="Group_6689" data-name="Group 6689" clip-path="url(#clip-path)">
    <path id="Path_56514" data-name="Path 56514" d="M15.553,0h1.8c.117.335.218,1.01.591,1.168S18.863.92,19.2.756c.274.28.985.778,1.106,1.178.1.325-.093.518-.187.823-.259.846.616.9,1.163,1.305a10.265,10.265,0,0,0,1.123.73c.368.206.944.719,1.38.713.163,0,.372-.153.543-.18a5.514,5.514,0,0,1,.811-.007l1.759,0q1.847,0,3.695,0c.87,0,2.032-.217,2.292.868a7.384,7.384,0,0,1,.025,1.608,12.621,12.621,0,0,1-.015,1.834c-.169,1.122-1.216.988-2.11.988,0,.7.09,1.479-.578,1.916-.755.494-1.4.042-1.951-.5a13.553,13.553,0,0,1,.317,4.778c.98-.315,2.566-1.248,3.579-.71,1.128.6.76,2.333.761,3.374s.4,2.88-.584,3.6c-1,.742-2.649-.23-3.666-.564,0,1.3.366,2.911-1.342,2.973-1.477.053-1.847-.431-1.847-1.859a13.157,13.157,0,0,1-1.763,1.587c-.585.433-1.219.658-1.522,1.324a.985.985,0,0,0-.154.762c.076.345.283.546.256.939a1.691,1.691,0,0,1-1.142,1.442,1.716,1.716,0,0,1-.616,1.9,4.4,4.4,0,0,1-2.448.277c-.257.849-.664,1.059-1.529,1.067-.9.009-1.459-.119-1.727-1.042-4.929,0-9.9-.191-14.827.012V23.407c2.382-.158,4.786.058,7.171-.055-.382-.509-.576-.993-1.232-1.047-.779-.065-1.594,0-2.376,0C2.5,22.3.489,22.78,0,21.478V16.719c.3-.687.873-.79,1.549-.786.879.006,1.757,0,2.636,0l.289-3.2A5.043,5.043,0,0,1,0,8.488V7.395A7.425,7.425,0,0,1,1.335,4.658,4.676,4.676,0,0,1,3.8,3.284c2.223-.447,3.9.664,5.165,2.369.754-.418,1.512-.83,2.261-1.256.482-.274.514-.528,1.051-.734.8-.306.546-.585.338-1.246-.221-.7.612-1.185,1.082-1.668.309.152.9.584,1.267.429S15.432.341,15.553,0m4.7,22.312a1.739,1.739,0,0,1,1.8.754,1.8,1.8,0,0,1-.13,1.984,10.136,10.136,0,0,0,3.248-2.708c-.8-.191-1.479-.285-1.742-1.183a6.237,6.237,0,0,1-.082-1.728,3.45,3.45,0,0,1,.189-1.576c.511-1,1.669-.867,2.623-.867.469,0,1.088.188,1.35-.213A4.32,4.32,0,0,0,27.585,15a11.1,11.1,0,0,0-.782-3.73c-.285-.717-.481-.653-1.225-.651a3.986,3.986,0,0,1-1.636-.114c-.9-.443-.609-1.907-.6-2.714.007-.582.1-1.043-.382-1.438a15.946,15.946,0,0,0-1.673-1.039c.019.712-.914.4-1.188.881-.294.518.41.926.244,1.444a3.153,3.153,0,0,1-1.107,1.041c-.484.105-1.134-.722-1.5-.09a6.958,6.958,0,0,1,2.093,12.862l.425.862M10.064,24.455H1.09V30.8h8.974Zm-4.72-8.519c.686,0,1.327,0,1.969,0,1.549.008,1.173,1.831,1.171,2.88,0,1.012.461,3.017-.792,3.464.617.761,1.244,1.377,2.326,1.065.551-.159.762-.674,1.163-1.038a4.411,4.411,0,0,1,1.782-.928,6.956,6.956,0,0,1,2.252-12.8c-.621-.532-1.008.136-1.51.187a4.409,4.409,0,0,1-1.157-1.183c-.1-.4.291-.656.324-1.04.071-.818-1.327-.454-1.2-1.206A13.32,13.32,0,0,0,9.918,6.4c-.615.427-.425.6-.384,1.309A4.747,4.747,0,0,1,8.685,10.7a6.017,6.017,0,0,1-2.67,1.862c-.912.468-.745,2.469-.672,3.373m11.1-6.371a5.837,5.837,0,1,0,4.131,9.963,5.844,5.844,0,0,0-4.131-9.963M13.565,25.021a3.074,3.074,0,0,0,1.363-1.4c.266-.568,2.069-.26,2.606-.263.723,0,1.542-.114,1.544-1.031a36.46,36.46,0,0,0-4.274-.023,3.908,3.908,0,0,0-3.057.933c-.9.91-.6,2.272-.6,3.459q0,2.044,0,4.088h3.691V25.463l-.791.507-.478-.95M1.067,7.98A3.727,3.727,0,0,0,4.8,11.687,3.753,3.753,0,0,0,7.456,5.4,3.739,3.739,0,0,0,1.067,7.98M24.428,9.565c.879,0,1.723-.011,2.566.009.936.023,1.757,1.67,2.585,2.071a6.631,6.631,0,0,0,.14-2.086h2.1V6.389H24.428Zm-7.98-.994a1.525,1.525,0,0,0,.211-.258A1.614,1.614,0,0,1,18.068,7.29c.5-.016.938.411,1.02-.173.04-.285-.166-.616-.109-.941a1.485,1.485,0,0,1,.391-.769c.322-.341.961-.37.6-.84-.351-.455-.865-.5-.986-1.186-.091-.518.421-1.162-.2-1.235-.6-.07-.924.269-1.52-.144-.382-.265-.533-1.012-.971-.8-.157.076-.315.52-.466.661a1.5,1.5,0,0,1-.771.388c-.385.066-1.046-.322-1.252.029-.081.139.154.688.148.88a1.473,1.473,0,0,1-.268.822c-.234.329-.98.531-.872.918.044.156.595.37.728.51a1.485,1.485,0,0,1,.34.556c.134.407-.253,1.3.078,1.481.13.073.554-.132.717-.143a1.518,1.518,0,0,1,.7.1c.544.226.728.754,1.078,1.174m12.213,12.82c.9.3,1.775.6,2.659.88a.372.372,0,0,0,.516-.388q.014-2.233,0-4.466a.375.375,0,0,0-.542-.384q-1.236.4-2.462.823a.3.3,0,0,0-.164.215c-.011,1.1-.007,2.2-.007,3.32m-1.093-.161V18.064a10.633,10.633,0,0,0-2.655,0c-.708.212-.5.951-.5,1.585s-.2,1.34.478,1.571a9.821,9.821,0,0,0,2.677.006m-11.615,10.6h1V24.444h-1ZM1.824,17c.639.64,1.222,1.23,1.812,1.813C4.573,19.74,6.089,17.7,6.626,17Zm3.443,2.863a1.792,1.792,0,0,1-1.985.042l-1.3,1.3H6.6L5.267,19.866m12.795,6.69c.856,0,1.686,0,2.515,0,.686,0,.87-.8.229-1.043a8.37,8.37,0,0,0-2.745.009Zm.013,1.059v1.062c.57,0,3.331.4,3.128-.63-.156-.8-2.51-.432-3.128-.432m9.5-5.288H26.561v2.092H27.57ZM18.063,30.8c.551,0,1.074.011,1.6,0a.53.53,0,0,0,.324-.928c-.336-.3-1.481-.108-1.919-.108ZM6.157,19.1,7.41,20.339v-2.5L6.157,19.1m12.316,5.333c.743,0,1.486.009,2.229,0a.536.536,0,0,0,.488-.715c-.144-.362-.669-.418-1.006-.351-.635.126-1.018.844-1.711,1.07M1.084,20.387l1.224-1.255L1.084,17.909Z" transform="translate(0 0.001)" fill="#d20036"/>
    <path id="Path_56515" data-name="Path 56515" d="M181.317,170.052a4.776,4.776,0,1,1,4.764,4.8,4.807,4.807,0,0,1-4.764-4.8m4.763-3.7a3.713,3.713,0,1,0,2.64,6.324,3.722,3.722,0,0,0-2.64-6.324" transform="translate(-169.634 -154.665)" fill="#d20036"/>
    <path id="Path_56516" data-name="Path 56516" d="M54.119,87.151l-4.185,2.513V84.639l4.185,2.512m-2.066,0L50.977,86.5V87.8l1.077-.647" transform="translate(-46.717 -79.185)" fill="#d20036"/>
    <rect id="Rectangle_1938" data-name="Rectangle 1938" width="1.023" height="1.015" transform="translate(27.612 7.46)" fill="#d20036"/>
    <rect id="Rectangle_1939" data-name="Rectangle 1939" width="1.017" height="1.01" transform="translate(29.744 7.457)" fill="#d20036"/>
    <rect id="Rectangle_1940" data-name="Rectangle 1940" width="1.037" height="1.006" transform="translate(25.492 7.465)" fill="#d20036"/>
    <path id="Path_56517" data-name="Path 56517" d="M232.167,49.553a1.589,1.589,0,1,1-1.586,1.6,1.6,1.6,0,0,1,1.586-1.6m0,2.113a.522.522,0,0,0,.526-.532c-.012-1.495-2,.521-.526.532" transform="translate(-215.723 -46.36)" fill="#d20036"/>
  </g>
</svg>
