<svg id="Group_6700" data-name="Group 6700" xmlns="http://www.w3.org/2000/svg" xmlns:xlink="http://www.w3.org/1999/xlink" width="30.383" height="27.445" viewBox="0 0 30.383 27.445">
  <defs>
    <clipPath id="clip-path">
      <rect id="Rectangle_1949" data-name="Rectangle 1949" width="30.383" height="27.445" fill="#e10045"/>
    </clipPath>
  </defs>
  <g id="Group_6699" data-name="Group 6699" clip-path="url(#clip-path)">
    <path id="Path_56555" data-name="Path 56555" d="M6.152,11.741a3.743,3.743,0,0,1,.638,2.353,4.373,4.373,0,0,1-1.063,2.151c-.486.708-.278,1.811-.268,2.646.009.715.114,1.3.9,1.46a15.047,15.047,0,0,0,2.833.016h8.924v1.006H9.028V22.38h9.09v1.03H7.345c-1.148,0-2.33-.092-2.764-1.34a6.742,6.742,0,0,1-.135-2.185V17.562L3.333,18.717l-.742-.771q.858-.855,1.716-1.71a4.945,4.945,0,0,0,1.345-1.674,2.322,2.322,0,0,0-.05-1.706c-.206-.482-.783-.844-.559-1.388.318-.772,3.122-2.212,2.376-3.132-.666-.822-2.692,1.781-3.079,2.246l-.733-.809c.29-.265.709-.522.832-.909A6.3,6.3,0,0,0,4.445,7.2c-.634,0-1.665-.223-2.185.212-.56.468-.352,1.522-.353,2.155,0,.878.008,1.756,0,2.634,0,.929-.521,1.292-1.141,1.929L0,13.339a1.9,1.9,0,0,0,.9-1.974,25.61,25.61,0,0,1,.01-3.314C1.121,6.107,2.92,6.158,4.445,6.158a39.786,39.786,0,0,1,.011-4.191A2.051,2.051,0,0,1,6.344.08,47.457,47.457,0,0,1,11.327.069H26.1c1.2,0,2.7-.225,3.42.99A2.977,2.977,0,0,1,29.8,2.644q0,1.311,0,2.622c0,3.658.174,7.364-.009,11.017H28.791V7.195c0-1.568.039-3.141,0-4.709-.033-1.33-.766-1.4-1.946-1.4H7.932C6.622,1.084,5.5.9,5.459,2.491c-.044,1.8,0,3.6,0,5.4l.086.068c.7-.853,1.935-1.242,2.708-.191.89,1.209-.321,2.228-1.123,3.02-.323.319-.65.634-.98.955m-.666,9.387c-.075.636.2,1.151.747,1.22a14.081,14.081,0,0,0,1.747.016V21.4a6.422,6.422,0,0,1-2.494-.274" transform="translate(0 0)" fill="#e10045"/>
    <path id="Path_56556" data-name="Path 56556" d="M89.413,60.652a1.586,1.586,0,0,1,1.791.616,1.567,1.567,0,0,1,2.275,1.295c.84.153,1.765.2,1.981,1.2a11,11,0,0,1-.006,3.067,12.219,12.219,0,0,1-.768,3.035,8.587,8.587,0,0,0-.2,2.869H93.471a8.945,8.945,0,0,1,.254-3.21,10,10,0,0,0,.744-3.072c.032-.558.308-2.332-.184-2.723-.949-.756-.719,1.215-.854,1.4h-.975c0-.585.38-2.85-.418-3.011-.956-.192-.6,2.018-.6,2.5H90.428c0-.588.349-2.827-.4-3-.97-.226-.6,1.988-.624,2.49h-1c0-1.161,0-2.323,0-3.485,0-.379.074-.943-.414-1.038-.521-.1-.58.406-.6.782-.122,2.249,0,4.539,0,6.793h-1V65.52a1.519,1.519,0,0,0-1.024,1.518c.01.862.606,1.289,1.261,1.73a3.89,3.89,0,0,1,1.587,1.417,6.327,6.327,0,0,1,.189,2.546H87.385c0-.81.235-1.885-.411-2.506-.664-.638-1.6-.89-2.146-1.676a2.7,2.7,0,0,1,.638-3.719c.263-.187.642-.289.815-.582a2.355,2.355,0,0,0,.088-1.175,19.414,19.414,0,0,1,.019-3.152,1.52,1.52,0,0,1,3.026.252c0,.147,0,.294,0,.48" transform="translate(-65.188 -45.287)" fill="#e10045"/>
    <path id="Path_56557" data-name="Path 56557" d="M85.269,12.772c.337,0,.6-.035.843.234a3.2,3.2,0,0,1,.514,1.292c-.076.716-1.229.8-.708,1.589.216.326.663.425.709.865a3.29,3.29,0,0,1-.486,1.253c-.442.583-1.428-.139-1.7.579-.259.683.393,1.013-.493,1.468a2.667,2.667,0,0,1-1.035.375c-.361-.038-.519-.389-.765-.6-.787-.677-.8.319-1.455.572-.38.146-.925-.162-1.247-.336-.561-.3-.453-.487-.47-1.113-.025-.87-.466-.6-1.13-.664-.456-.045-.537-.2-.722-.61-.244-.536-.492-.925-.062-1.393s.83-.685.275-1.272c-.163-.172-.427-.25-.506-.5-.1-.326.192-.863.32-1.147.161-.36.221-.505.594-.584.337-.071.837.175,1.115-.1.355-.354-.091-.99.154-1.39a2.274,2.274,0,0,1,1.221-.617c.771-.176.751.706,1.387.809.587.1.761-.844,1.351-.865a2.108,2.108,0,0,1,1.467.769c.12.289-.077.621-.02.91.1.513.386.461.845.529,0-.017,0-.033.005-.05m-.357,4.454a.591.591,0,0,0,.248.007c.711-.229-.267-.876-.4-1.225a1.506,1.506,0,0,1,.348-1.529c.45-.484.37-.581-.316-.652a1.554,1.554,0,0,1-1.351-.978C83.32,12.52,83.637,11.6,83,11.8c-.2.064-.379.463-.581.576a1.235,1.235,0,0,1-.639.131,1.464,1.464,0,0,1-.82-.2c-.174-.107-.3-.336-.462-.425-.52-.282-.476.122-.485.528a1.509,1.509,0,0,1-.888,1.326c-.276.131-1-.077-1.133.227-.144.327.617.9.684,1.258a1.428,1.428,0,0,1-.427,1.372c-.389.414-.33.574.23.638a1.554,1.554,0,0,1,1.25.564,1.258,1.258,0,0,1,.312.852c0,.093-.121.364-.057.468.279.449.736-.232.966-.381a1.576,1.576,0,0,1,1.48-.074c.268.145.536.806.907.535.231-.169.08-.962.281-1.281a1.475,1.475,0,0,1,1.293-.692" transform="translate(-59.36 -8.202)" fill="#e10045"/>
    <path id="Path_56558" data-name="Path 56558" d="M35.267,63.512v-.986h.988V61.015h1.007V62.5h1.019V60.008H39.3V62.5h1.007V58.482h1.029V62.5h1.007V60h1.007v2.5h1.019V61.023h1.018v1.483h1v1.006Z" transform="translate(-27.255 -45.197)" fill="#e10045"/>
    <rect id="Rectangle_1946" data-name="Rectangle 1946" width="8.075" height="0.978" transform="translate(7.504 5.159)" fill="#e10045"/>
    <rect id="Rectangle_1947" data-name="Rectangle 1947" width="6.046" height="0.977" transform="translate(9.542 7.195)" fill="#e10045"/>
    <rect id="Rectangle_1948" data-name="Rectangle 1948" width="5.031" height="0.975" transform="translate(10.558 3.136)" fill="#e10045"/>
    <path id="Path_56559" data-name="Path 56559" d="M38.531,13.81c0,.325.011.651-.011.975h-.977V13.81Z" transform="translate(-29.015 -10.673)" fill="#e10045"/>
    <path id="Path_56560" data-name="Path 56560" d="M92.02,23.995a1.873,1.873,0,1,1-1.888,1.849,1.857,1.857,0,0,1,1.888-1.849m.847,1.883a.855.855,0,0,0-.828-.867.861.861,0,1,0,.828.867" transform="translate(-69.658 -18.544)" fill="#e10045"/>
  </g>
</svg>
