<svg id="Group_6698" data-name="Group 6698" xmlns="http://www.w3.org/2000/svg" xmlns:xlink="http://www.w3.org/1999/xlink" width="27.276" height="24.822" viewBox="0 0 27.276 24.822">
  <defs>
    <clipPath id="clip-path">
      <rect id="Rectangle_1945" data-name="Rectangle 1945" width="27.276" height="24.822" transform="translate(0 0)" fill="#e1003e"/>
    </clipPath>
  </defs>
  <g id="Group_6697" data-name="Group 6697" transform="translate(0 0)" clip-path="url(#clip-path)">
    <path id="Path_56546" data-name="Path 56546" d="M0,15.332c.348-1.2,1.671-1.281,2.7-1.544.726-.185.655-.368.743-1.1a1.089,1.089,0,0,0-.027-.68c-.109-.209-.34-.275-.4-.54a6.146,6.146,0,0,1,.279-1.994,8.167,8.167,0,0,1,.164-.952c.111-.377.295-.353.506-.608a2.557,2.557,0,0,0,.255-1.4C4.16,6.07,3.757,5.662,3.646,5.2a2.918,2.918,0,0,1,3.2-3.528A2.908,2.908,0,0,1,8.495,6.564a1.919,1.919,0,0,0-.729,1.265,1.469,1.469,0,0,0-.075.69c.1.313.31.3.3.7a15.808,15.808,0,0,1-.387,2.357c-.1.571-.2.906-.823,1l-.071.35,5.273-.49c0-.4.174-1.3-.032-1.645-.088-.15-.308-.162-.428-.29a.877.877,0,0,1-.184-.612c-.043-.605,0-1.23,0-1.836a4.461,4.461,0,0,1,.016-.935c.064-.27.246-.316.367-.541.56-1.038-.48-1.868-.791-2.744a2.885,2.885,0,0,1,.319-2.6,2.914,2.914,0,0,1,4.609-.206,2.9,2.9,0,0,1,.617,2.293c-.159.98-.969,1.534-1.007,2.525a1.337,1.337,0,0,0,.1.78c.132.227.3.277.353.569a11.713,11.713,0,0,1,.014,2.174,2.457,2.457,0,0,1-.059.91c-.1.235-.318.245-.455.41-.312.373-.138,1.244-.138,1.743l5.577.532c-.018-.11-.041-.245-.061-.374-1.054-.249-.913-1.565-1.065-2.453a4.725,4.725,0,0,1-.158-.969c.015-.292.2-.377.266-.61a2.443,2.443,0,0,0-.176-1.392c-.242-.476-.8-.756-1.08-1.241a2.661,2.661,0,0,1-.349-1.341A2.9,2.9,0,0,1,19.558,2.1a2.917,2.917,0,0,1,4.428,2.792,7.075,7.075,0,0,1-.563,1.443,2.327,2.327,0,0,0,.138,1.495c.207.328.685.379.608.905-.089.608-.685.48-.868.008l-2.882.48c.138.829.273,1.639.414,2.493l2.906-.482c-.043-.255-.205-.7-.045-.948a.4.4,0,0,1,.628-.058,1.651,1.651,0,0,1,.253,1.005c0,.364-.136.414-.305.674-.224.344-.177.456-.114.932.045.339.028.677.308.894a4.068,4.068,0,0,0,1.215.324,3.037,3.037,0,0,1,1.022.38c1.257.877.125,2.65-.281,3.693q-.472,1.209-.943,2.419c-.224.578-.4,1.5-1.158,1.554,0,.471.32,2.715-.42,2.711s-.41-2.253-.41-2.694H3.833c-.024.476.306,2.684-.423,2.7s-.421-2.265-.421-2.712c-.995-.081-1.287-1.889-1.575-2.628Q.709,17.672,0,15.865v-.533M25.948,17.02c-.081-.026-.147-.05-.214-.068a45.812,45.812,0,0,0-10.013-1.587,45.005,45.005,0,0,0-8.96.477c-.7.109-1.4.294-2.11.372-.343.038-1-.13-.609-.62.307-.386,1.573-.406,2.037-.484q1.068-.179,2.144-.305A50.277,50.277,0,0,1,26.27,16.226c.5-1.21-.443-1.29-1.449-1.545q-1.774-.449-3.581-.756a46.01,46.01,0,0,0-7.313-.638,44.352,44.352,0,0,0-7.387.558c-1.249.2-2.487.462-3.715.767a6.189,6.189,0,0,0-1.65.44c-.492.305-.317.725-.14,1.189.405-.107,1.543-.64,1.848-.224.51.695-1.175.9-1.526,1A22.821,22.821,0,0,0,2.733,20.6c.206.534.217.684.8.688.694,0,1.388,0,2.082,0H13.5l7.883,0h2.083c.584,0,.794.066,1.03-.5a39.867,39.867,0,0,0,1.453-3.774M8.41,5.171A2.048,2.048,0,1,0,4.416,4.49c.252.1.578.045.693.347.136.36-.2.55-.5.555a2.008,2.008,0,0,0,3.308.553c-.4-.1-1.992-.084-1.733-.795C6.4,4.565,7.958,5.1,8.41,5.171M15.66,3.16a2.026,2.026,0,0,0-1.114-2.136c-1.26-.663-3.5.547-2.911,2.136ZM23.18,4.5A2.04,2.04,0,0,0,21.8,2.594,2.077,2.077,0,0,0,19.17,5.172L23.18,4.5M7.162,9.226,4.254,8.742c-.141.845-.276,1.655-.416,2.493l2.906.484.418-2.494m5.007.655h2.916V7.394H12.169Zm2.25.875h-1.56v1.679h1.56ZM11.919,4a2.043,2.043,0,0,0,1.874.906A1.994,1.994,0,0,0,15.338,4Zm7.7,1.93a2.014,2.014,0,0,0,2,.591A1.959,1.959,0,0,0,23,5.37l-3.372.564m.935,1.437c.074.348.138.647.2.96l1.944-.326c-.042-.328-.081-.63-.126-.973a3.176,3.176,0,0,1-2.022.339m-13.545,0a3.2,3.2,0,0,1-2.023-.332c-.042.35-.079.653-.117.972l1.945.323.2-.962m5.618-.843h1.985c.015-.323.03-.63.047-.971a3.028,3.028,0,0,1-2.032.014ZM23.412,13.5c-.062-.475-.118-.894-.177-1.341l-1.623.272c.073.365.045.621.361.784a5.982,5.982,0,0,0,1.439.285M4.177,13.44c.552-.105,1.054-.2,1.555-.3.2-.042.206-.567.234-.711L4.34,12.159,4.177,13.44" transform="translate(0.001 0)" fill="#e1003e"/>
    <path id="Path_56547" data-name="Path 56547" d="M83.541,37.726c1.152-.031-.356,1.561-.4.414a.408.408,0,0,1,.4-.414" transform="translate(-61.479 -27.896)" fill="#e1003e"/>
    <path id="Path_56548" data-name="Path 56548" d="M40.983,66.6c.113.205.961,1.585.058,1.361-.493-.122-.417-1.454-1.041-1.233,0,.243.118.948-.079,1.138a.392.392,0,0,1-.585-.112c-.161-.267-.016-.954-.016-1.273a4.714,4.714,0,0,1,0-1.452c.193-.436,1.366-.343,1.758-.118a.985.985,0,0,1-.03,1.628.756.756,0,0,0-.069.061m-.964-1.244v.811c.327-.022.883.063.775-.482-.086-.431-.458-.273-.775-.33" transform="translate(-29.028 -47.862)" fill="#e1003e"/>
    <path id="Path_56549" data-name="Path 56549" d="M58.941,64.724c.229.049,1.3.274.695.72-.2.146-1.3-.376-1.091.26.077.236.63.362.816.493a1.02,1.02,0,0,1,.472.625.927.927,0,0,1-.6,1.1c-.387.145-1.3.125-1.451-.382-.256-.849.8-.1,1.068-.157.739-.155-.125-.678-.367-.816-.436-.248-.791-.588-.655-1.133a1.067,1.067,0,0,1,1.112-.707" transform="translate(-42.698 -47.86)" fill="#e1003e"/>
    <path id="Path_56550" data-name="Path 56550" d="M67.836,64.724c.2.046.605.052.744.238a.325.325,0,0,1-.2.516c-.208.055-1.157-.365-.963.224.079.239.621.358.809.491a1.057,1.057,0,0,1,.483.649.921.921,0,0,1-.7,1.1c-.356.1-1.391.052-1.4-.515-.012-.718.915.047,1.182-.066.6-.253-.184-.657-.429-.8-.45-.256-.8-.6-.661-1.156a1.092,1.092,0,0,1,1.13-.687" transform="translate(-49.256 -47.86)" fill="#e1003e"/>
    <path id="Path_56551" data-name="Path 56551" d="M49.719,65.324v.73c.242,0,.849-.125.836.269-.012.371-.6.248-.836.248v.741c.238,0,1.082-.137,1.268.065.262.284-.014.469-.259.529a3.819,3.819,0,0,1-1.41-.009c-.38-.135-.285-.338-.285-.759,0-.5-.269-2.144.2-2.394a4.142,4.142,0,0,1,1.539-.014c.285.106.5.6-.009.595-.344-.005-.688,0-1.046,0" transform="translate(-36.2 -47.816)" fill="#e1003e"/>
    <path id="Path_56552" data-name="Path 56552" d="M30.495,66.849c0,.274.137.915-.139,1.075s-.459-.036-.533-.258a5.985,5.985,0,0,1,0-1.58c0-.291-.152-1.079.133-1.264a2.744,2.744,0,0,1,1.176-.015.875.875,0,0,1,.786.534,1.021,1.021,0,0,1-.681,1.442c-.234.041-.474.043-.743.066m.012-.54c.277-.04.6.105.738-.193.323-.684-.313-.7-.738-.718Z" transform="translate(-22.007 -47.878)" fill="#e1003e"/>
    <path id="Path_56553" data-name="Path 56553" d="M20.32,38.135c-.023,1.148-1.559-.426-.4-.409a.412.412,0,0,1,.4.409" transform="translate(-14.409 -27.896)" fill="#e1003e"/>
    <path id="Path_56554" data-name="Path 56554" d="M51.087,32.357c-1.149-.021.43-1.547.411-.4a.4.4,0,0,1-.411.4" transform="translate(-37.466 -23.315)" fill="#e1003e"/>
  </g>
</svg>
