<svg id="Group_6688" data-name="Group 6688" xmlns="http://www.w3.org/2000/svg" xmlns:xlink="http://www.w3.org/1999/xlink" width="29.466" height="29.474" viewBox="0 0 29.466 29.474">
  <defs>
    <clipPath id="clip-path">
      <rect id="Rectangle_1937" data-name="Rectangle 1937" width="29.466" height="29.474" fill="#e1003e"/>
    </clipPath>
  </defs>
  <g id="Group_6687" data-name="Group 6687" clip-path="url(#clip-path)">
    <path id="Path_56511" data-name="Path 56511" d="M0,156.194c.317-.451.515-.5,1.012-.24l6.3,3.27c.613.318.642.376.516,1.058-.008.045-.01.091-.018.17.915-.228,1.806-.437,2.69-.673a4.88,4.88,0,0,1,3.708.367.306.306,0,0,0,.271-.026,3.2,3.2,0,0,1,2.96-.538c1.313.351,2.64.65,3.961.971.09.022.181.039.312.066-.044-.195-.084-.359-.119-.524a.592.592,0,0,1,.349-.758q3.3-1.719,6.6-3.432a.58.58,0,0,1,.919.552q0,5.093,0,10.186a.585.585,0,0,1-.461.644q-2.326.74-4.656,1.471a.578.578,0,0,1-.8-.433c-.024-.081-.043-.163-.072-.274-.319.156-.62.3-.912.452a.306.306,0,0,0-.132.192,1.9,1.9,0,0,1-1.817,1.781,1.917,1.917,0,0,1-1.828,1.828,1.908,1.908,0,0,1-2.443,1.752,4.546,4.546,0,0,1-1.565,1.832,1.842,1.842,0,0,1-2.935-1.081c-.024-.112-.043-.224-.067-.352a1.936,1.936,0,0,1-1.277-.572,1.665,1.665,0,0,1-.495-.984c-.024-.221-.112-.288-.333-.32a1.821,1.821,0,0,1-1.508-1.564c-.019-.135-.042-.22-.207-.251a1.844,1.844,0,0,1-1.567-2.4c.008-.036.011-.072.018-.12l-.411-.2c-.027.08-.055.148-.073.218a.591.591,0,0,1-.859.481c-1.489-.468-2.975-.944-4.465-1.407A.979.979,0,0,1,0,166.9Zm13.286,4.811a3.207,3.207,0,0,0-1.948-.227c-1.026.238-2.048.489-3.069.745-.433.109-.682.113-.86.526a9.662,9.662,0,0,0-.362,1.5c-.226.942-.517,1.9-.673,2.854a.648.648,0,0,0,.877.761c.625-.246.823-.9,1.6-.971a1.924,1.924,0,0,1,1.745.8c.164.25.154.714.329.919s.525.18.763.29a2.042,2.042,0,0,1,1.074,1.635c.967.027,1.6.887,2.223,1.513.439.441,1.194,1.566,1.879,1.6a.726.726,0,0,0,.754-.639c.029-.423-.389-.754-.649-1.017-.757-.765-1.525-1.52-2.282-2.285-.268-.271-.686-.574-.5-1.014a.577.577,0,0,1,.7-.321c.365.1.793.7,1.048.951l.857.857c.469.469,1.272,1.674,2,1.633.817-.046.716-.882.34-1.328-.591-.7-1.322-1.323-1.971-1.971-.357-.357-1.406-1.042-1.134-1.66.4-.9,1.3.195,1.612.509l1.889,1.888c.4.4,1.455,1.313,1.741.21.175-.674-.853-1.383-1.252-1.8q-1.049-1.1-2.1-2.2c-.268-.283-.419-.563-.8-.578a4.1,4.1,0,0,0-1.161.45c-1.3.512-3.075,1.409-4.124-.043-1.123-1.553.289-2.736,1.454-3.6M1.163,166.3l3.764,1.191,1.739-7.308-5.5-2.859Zm27.147-8.976-5.51,2.86,1.741,7.309,3.769-1.2ZM16.336,160.52a5.075,5.075,0,0,0-.991.417c-.808.548-1.593,1.133-2.36,1.737a1.086,1.086,0,0,0-.368.643.868.868,0,0,0,1.244.89c1.057-.4,2.107-.811,3.161-1.217.513-.2.623-.171,1.007.233q1.93,2.034,3.858,4.07c.125.132.221.169.387.072a6.9,6.9,0,0,1,.721-.355c.167-.073.217-.154.169-.35-.368-1.506-.723-3.015-1.075-4.525a.357.357,0,0,0-.307-.31c-1.267-.3-2.53-.611-3.8-.916-.52-.126-1.041-.246-1.648-.389m-2.872,11.229a.815.815,0,0,0-.442-.674c-.759-.38-2.287,1.186-1.755,1.919.715.986,1.88-.659,2.2-1.246m.269,3.388a1.17,1.17,0,0,0,.371-.17c.385-.351,1.18-.889,1.144-1.469a.711.711,0,0,0-1.06-.569c-.713.375-2.045,2.065-.455,2.209m-6.314-6.259a.822.822,0,0,0,.443.68c.76.376,2.283-1.177,1.762-1.91-.71-1-1.871.657-2.205,1.23m2.685,2.586a1.094,1.094,0,0,0,.356-.165c.386-.352,1.163-.881,1.125-1.462a.708.708,0,0,0-1.07-.556,2.828,2.828,0,0,0-1.222,1.389.747.747,0,0,0,.811.794" transform="translate(0 -146.813)" fill="#e1003e"/>
    <path id="Path_56512" data-name="Path 56512" d="M85.562,0A2.535,2.535,0,0,1,87.4,1.495a3.365,3.365,0,0,1-.292,2.9A4.3,4.3,0,0,1,90,8.664c-.025,1.093-.8.891-1.705.891H84.478c-.185.388-.04.681-.521.834a5.679,5.679,0,0,1-2.127.012c-.426-.089-.81-.506-.451-.928s1.382-.212,1.861-.212a3.289,3.289,0,0,0-3.434-3.451c0,.463.125,1.328-.576,1.327s-.574-.847-.574-1.308a3.257,3.257,0,0,0-3.433,3.431c.464,0,1.439-.2,1.811.156a.571.571,0,0,1-.3.974,5.765,5.765,0,0,1-2.136.011c-.5-.1-.511-.39-.585-.848h-3.79c-.766,0-1.659.24-1.753-.719A4.28,4.28,0,0,1,71.354,4.4a3.361,3.361,0,0,1-.293-2.883C71.385.612,72.08.324,72.9,0h.691a2.5,2.5,0,0,1,1.767,1.408,3.611,3.611,0,0,1-.193,2.945,5.3,5.3,0,0,0,1.209.7,1.267,1.267,0,0,0,.783-.214c-.624-1.99-.7-4.2,1.73-4.838h.691A2.712,2.712,0,0,1,81.6,1.713,3.579,3.579,0,0,1,81.211,4.8c.366.152.6.319.978.2a6.8,6.8,0,0,0,1.123-.655,3.344,3.344,0,0,1-.246-2.86A2.6,2.6,0,0,1,84.871,0ZM72.653,5.383A2.942,2.942,0,0,0,69.645,8.39h4.448a4.589,4.589,0,0,1,1.369-2.539,2.44,2.44,0,0,0-1.636-.461c-.042.428.114,1.029-.567,1.048-.739.021-.558-.618-.606-1.055m11.715,3h4.465A2.927,2.927,0,0,0,85.8,5.4c0,.423.022,1.045-.556,1.056-.615.011-.593-.636-.593-1.076a2.4,2.4,0,0,0-1.637.486,4.57,4.57,0,0,1,1.356,2.52m-6.5-5.5h.025c0,.858.3,1.732,1.322,1.744.948.011,1.351-.78,1.365-1.612.014-.851-.218-1.773-1.232-1.859-1.094-.092-1.412.844-1.479,1.725M74.428,2.7l-.026,0c0-.776-.286-1.571-1.219-1.534-.856.034-1.121.783-1.121,1.519,0,.778.337,1.593,1.262,1.523.87-.066,1.02-.795,1.1-1.5m9.632-.01c0,1.934,2.349,1.922,2.344-.016,0-.764-.327-1.556-1.228-1.517-.87.037-1.115.8-1.116,1.533" transform="translate(-64.498)" fill="#e1003e"/>
    <path id="Path_56513" data-name="Path 56513" d="M246.855,161.226a.568.568,0,1,1-.556-.573.57.57,0,0,1,.556.573" transform="translate(-231.549 -151.389)" fill="#e1003e"/>
  </g>
</svg>
