<svg id="Group_6692" data-name="Group 6692" xmlns="http://www.w3.org/2000/svg" xmlns:xlink="http://www.w3.org/1999/xlink" width="32.74" height="31.019" viewBox="0 0 32.74 31.019">
  <defs>
    <clipPath id="clip-path">
      <rect id="Rectangle_1942" data-name="Rectangle 1942" width="32.74" height="31.019" fill="#e1003e"/>
    </clipPath>
  </defs>
  <g id="Group_6691" data-name="Group 6691" clip-path="url(#clip-path)">
    <path id="Path_56518" data-name="Path 56518" d="M0,41.244a6.057,6.057,0,0,1,1.182-2.57,9.7,9.7,0,0,1,2.4-1.616q1.408-.81,2.814-1.625a8.015,8.015,0,0,0,1.253-.757,11.348,11.348,0,0,0,1.286-1.592q2.147-2.727,4.29-5.457,1.043-1.331,2.085-2.663c.56-.717,1.1-1.644,2.093-1.772a1.991,1.991,0,0,1,1.96,1.029c.638.986,1.187,2.047,1.767,3.068.191.336.325.783.72.909a4.382,4.382,0,0,0,1.333-.076,2.714,2.714,0,0,1,1.206,0c.44.207.663.845.889,1.238.508.882,1.034,1.365.444,2.3a9.783,9.783,0,0,0-.915,1.374c-.206.517.113.822.388,1.289.738,1.253,2.521,3.256,1.451,4.75-.589.822-1.639.852-2.546,1.028-1.212.235-2.424.475-3.635.712-2.5.489-5.044.879-7.516,1.487.271.472,1.079,1.4.85,1.985s-1.423.991-1.922,1.28L13.221,47.9a5.246,5.246,0,0,1,.9,2.037,2.554,2.554,0,0,1-2.3,2.759c-1.583.154-2.321-1.018-3.024-2.231-.876-1.514-1.727-3.044-2.63-4.542a5.388,5.388,0,0,1-4.142-.468A4.368,4.368,0,0,1,.751,44.18,11.314,11.314,0,0,1,0,42.267V41.244M16.04,26.149a.645.645,0,0,0-.082.065Q12.473,30.651,9,35.095a.394.394,0,0,0,0,.352c1.04,1.822,2.093,3.636,3.137,5.455a.29.29,0,0,0,.374.171q4.51-.9,9.025-1.77c.62-.121,1.238-.247,1.887-.377L16.04,26.149M7.863,36.062c-.532.307-1.039.6-1.543.89-1.214.705-2.448,1.379-3.635,2.128a3.122,3.122,0,0,0-1.252,3.592,3.194,3.194,0,0,0,4.675,1.78c1.6-.9,3.19-1.836,4.783-2.757.052-.03.1-.07.16-.113l-3.188-5.52m9.855-11.615a.781.781,0,0,0-.746.494c-.052.1.034.309.108.438q1.491,2.606,3,5.2,2.26,3.914,4.518,7.829c.09.157.157.26.386.223.708-.116.917-.524.553-1.154Q23.182,33.4,20.826,29.32q-1.269-2.2-2.538-4.4c-.151-.263-.33-.473-.57-.474M9.473,43.993l-2.2,1.27c.749,1.346,1.539,2.669,2.306,4,.5.873,1.144,2.617,2.471,2.078,1.616-.656.266-2.456-.261-3.371-.761-1.32-1.457-2.724-2.318-3.982M22.381,29.455,23.9,32.089c.167-.253.693-.8.721-1.1.032-.341-.277-.694-.443-.979-.143-.246-.234-.519-.5-.634a4.048,4.048,0,0,0-1.3.079M12.339,43.815,11.7,42.706l-1.106.643.643,1.1,1.1-.635" transform="translate(0 -21.689)" fill="#e1003e"/>
    <path id="Path_56519" data-name="Path 56519" d="M437.582,46.659c-.84-.794-.321-1.18.525-1.654q.747-.419,1.5-.835a5.145,5.145,0,0,1,1.552-.811.632.632,0,0,1,.712.509c.087.458-.3.657-.63.853-1,.59-2.037,1.14-3.059,1.7a6.02,6.02,0,0,1-.6.241" transform="translate(-409.139 -40.577)" fill="#e1003e"/>
    <path id="Path_56520" data-name="Path 56520" d="M440.042,137.421c.542.124,3.855.629,2.8,1.711-.458.471-1.507-.049-2.029-.189-.5-.133-1.639-.223-1.522-.99a.647.647,0,0,1,.749-.532" transform="translate(-411.132 -128.613)" fill="#e1003e"/>
    <path id="Path_56521" data-name="Path 56521" d="M383.106,3.03c.1-.435.724-4.075,1.776-2.736.357.455-.13,1.5-.261,1.984-.142.526-.232,1.67-1.042,1.491a.641.641,0,0,1-.473-.739" transform="translate(-358.553 0)" fill="#e1003e"/>
  </g>
</svg>
