<svg xmlns="http://www.w3.org/2000/svg" xmlns:xlink="http://www.w3.org/1999/xlink" width="24.105" height="25.755" viewBox="0 0 24.105 25.755">
  <defs>
    <clipPath id="clip-path">
      <rect id="Rectangle_339" data-name="Rectangle 339" width="24.105" height="25.755" fill="#d20030"/>
    </clipPath>
  </defs>
  <g id="Group_1444" data-name="Group 1444" transform="translate(0)">
    <g id="Group_1443" data-name="Group 1443" transform="translate(0)" clip-path="url(#clip-path)">
      <path id="Path_8409" data-name="Path 8409" d="M1.346,39.512a1.672,1.672,0,0,1-.255-.493c-.279-2.2-.54-4.4-.808-6.605C.2,31.733.114,31.051.03,30.369A3.246,3.246,0,0,1,0,30.036a.39.39,0,0,1,.419-.444c1.087-.006,2.173,0,3.26,0a.443.443,0,0,1,.448.379c.109.372.223.742.361,1.2a9.912,9.912,0,0,0,.969-.711A5.131,5.131,0,0,1,8.05,29.084a4.869,4.869,0,0,1,3.168.435,3.709,3.709,0,0,0,1.825.408,8.594,8.594,0,0,0,1.747-.042,7.2,7.2,0,0,0,1.525-.79,2.3,2.3,0,0,1,2.456.076.351.351,0,0,0,.291.026,1.7,1.7,0,0,1,2.013.275.31.31,0,0,0,.388.045,2.049,2.049,0,0,1,2.517.715.418.418,0,0,1-.121.683c-2.356,1.62-4.7,3.256-7.077,4.847a4.1,4.1,0,0,1-2.667.629c-.921-.079-1.834-.267-2.747-.421-.795-.134-1.585-.306-2.383-.423a1.206,1.206,0,0,0-.72.116c-.684.389-1.34.827-2.023,1.257.2.665.4,1.32.607,1.972a.462.462,0,0,1-.207.617ZM17.1,31.949a1.614,1.614,0,0,0-1.562-1.242c-.687-.01-1.376-.027-2.062,0a6.114,6.114,0,0,1-2.827-.576,3.953,3.953,0,0,0-4.245.542,5.5,5.5,0,0,1-1.716,1.169c.441,1.444.872,2.858,1.314,4.3.575-.363,1.121-.694,1.653-1.046A2.119,2.119,0,0,1,9.305,34.8c1.43.275,2.86.558,4.3.778a4.131,4.131,0,0,0,3.1-.687c1.269-.89,2.554-1.756,3.832-2.634q1.3-.89,2.592-1.785a1.234,1.234,0,0,0-1.525-.154q-1.609.859-3.21,1.73c-.21.114-.451.182-.49.5-.01.087-.215.175-.344.217a1.11,1.11,0,0,1-.36,0,22.031,22.031,0,0,0-4.061,0A.372.372,0,0,1,12.7,32.4a.363.363,0,0,1,.356-.414,11.687,11.687,0,0,1,1.248-.1c.927,0,1.854.041,2.8.066M.819,30.37c.342,2.806.68,5.575,1.02,8.361h4.14c-.035-.121-.063-.217-.092-.313q-.486-1.6-.972-3.192-.7-2.3-1.4-4.6c-.033-.11-.02-.261-.222-.259-.806.009-1.613,0-2.47,0m16.684.561c.115.2.209.367.308.542l2.682-1.45a.846.846,0,0,0-.938-.187c-.684.35-1.357.722-2.052,1.095m-1.226-.911c.2.1.367.2.54.283a.2.2,0,0,0,.149.024c.371-.192.739-.392,1.152-.615a1.792,1.792,0,0,0-1.841.308" transform="translate(0 -13.758)" fill="#d20030"/>
      <path id="Path_8410" data-name="Path 8410" d="M11.72,10.2c.08-.128.139-.242.217-.341.176-.227.471-.429.513-.675s-.213-.511-.275-.783c-.091-.409-.307-.54-.724-.561-.864-.043-.862-.073-.862-.934,0-.4,0-.8,0-1.2,0-.332.1-.448.436-.493a6.337,6.337,0,0,1,.748-.071c.185,0,.248-.088.3-.248a6.082,6.082,0,0,1,.348-.817.289.289,0,0,0-.05-.388c-.171-.184-.326-.382-.482-.578a.392.392,0,0,1,.024-.614Q12.5,1.9,13.1,1.314a.4.4,0,0,1,.616-.032c.211.166.421.336.621.517a.245.245,0,0,0,.319.031c.292-.138.6-.245.892-.385a.365.365,0,0,0,.188-.221c.049-.273.063-.553.09-.83A.384.384,0,0,1,16.242,0Q17.12,0,18,0A.372.372,0,0,1,18.4.371c.031.277.049.556.1.829a.361.361,0,0,0,.166.233c.308.149.625.281.945.4a.325.325,0,0,0,.262-.029c.218-.157.417-.34.627-.508a.4.4,0,0,1,.635.021q.583.579,1.156,1.169a.4.4,0,0,1,.023.636c-.191.24-.5.455-.549.717s.232.544.294.834a.558.558,0,0,0,.651.5,3.542,3.542,0,0,1,.554.051.38.38,0,0,1,.363.415c0,.576,0,1.152,0,1.728a.4.4,0,0,1-.408.435c-.258.026-.521.03-.775.08a.436.436,0,0,0-.264.212,8.631,8.631,0,0,0-.383.892.358.358,0,0,0,.029.286c.155.219.341.416.508.627a.4.4,0,0,1-.016.617c-.4.406-.8.8-1.2,1.2a.4.4,0,0,1-.6.023c-.252-.206-.484-.531-.763-.577-.26-.044-.561.242-.86.323a.509.509,0,0,0-.445.574,4.149,4.149,0,0,1-.056.609.379.379,0,0,1-.408.371c-.585.005-1.17.006-1.755,0a.389.389,0,0,1-.412-.4c-.027-.277-.04-.557-.09-.83a.4.4,0,0,0-.2-.241c-.282-.138-.585-.235-.865-.377a.274.274,0,0,0-.364.052c-.192.175-.4.334-.6.5a.4.4,0,0,1-.594-.03c-.4-.4-.8-.8-1.2-1.2a1.729,1.729,0,0,1-.193-.314M22.85,5.969c-.314-.034-.606-.073-.9-.095-.264-.02-.37-.166-.454-.407a11.914,11.914,0,0,0-.561-1.326.5.5,0,0,1,.044-.633c.19-.214.366-.439.523-.63l-.76-.769c-.2.165-.42.337-.628.521a.5.5,0,0,1-.632.047,11.49,11.49,0,0,0-1.327-.556.513.513,0,0,1-.414-.484c-.02-.283-.055-.564-.083-.838H16.571c-.027.285-.061.551-.076.818a.507.507,0,0,1-.4.494,12.406,12.406,0,0,0-1.351.568.5.5,0,0,1-.63-.058c-.212-.189-.438-.362-.615-.507l-.8.739c.182.22.353.439.537.647a.5.5,0,0,1,.057.633,13.647,13.647,0,0,0-.571,1.352c-.083.229-.189.367-.44.388-.3.024-.6.064-.9.1V7.05c.292.029.576.065.861.084a.494.494,0,0,1,.475.385A14.868,14.868,0,0,0,13.3,8.9a.482.482,0,0,1-.04.587c-.191.225-.376.455-.553.67l.771.768c.208-.172.433-.351.649-.539a.494.494,0,0,1,.611-.05,12.234,12.234,0,0,0,1.351.573.51.51,0,0,1,.407.488c.021.284.053.567.081.856H17.66c.031-.306.063-.6.089-.894a.484.484,0,0,1,.383-.446c.468-.168.926-.369,1.376-.582a.482.482,0,0,1,.587.043c.224.193.455.375.663.546l.779-.756c-.173-.211-.341-.433-.528-.638a.506.506,0,0,1-.057-.653,10.982,10.982,0,0,0,.557-1.327.515.515,0,0,1,.516-.41c.267-.011.532-.051.808-.079.007-.081.016-.144.016-.207,0-.287,0-.573,0-.877" transform="translate(-5.062 0)" fill="#d20030"/>
      <path id="Path_8411" data-name="Path 8411" d="M6.194,43.562a1.054,1.054,0,0,1,1.062,1.056,1.057,1.057,0,0,1-2.114.006,1.046,1.046,0,0,1,1.053-1.062M6.128,44.93h.116c.076-.1.2-.19.218-.3a.221.221,0,0,0-.259-.273c-.1.019-.256.15-.262.24-.007.106.119.222.187.334" transform="translate(-2.458 -20.826)" fill="#d20030"/>
      <path id="Path_8412" data-name="Path 8412" d="M19.418,12.8a3.895,3.895,0,1,1,4-3.68,3.9,3.9,0,0,1-4,3.68m3.223-3.886a3.115,3.115,0,1,0-3.128,3.106,3.108,3.108,0,0,0,3.128-3.106" transform="translate(-7.472 -2.397)" fill="#d20030"/>
      <path id="Path_8413" data-name="Path 8413" d="M21.075,11.721c.477-.518.948-1.041,1.437-1.548a.557.557,0,0,1,.384-.164.4.4,0,0,1,.3.232.581.581,0,0,1-.111.443c-.386.413-.8.8-1.207,1.192-.192.187-.381.379-.577.563a.393.393,0,0,1-.632,0q-.484-.46-.953-.934a.389.389,0,1,1,.54-.551c.23.239.437.5.654.753l.167.012" transform="translate(-9.348 -4.785)" fill="#d20030"/>
    </g>
  </g>
</svg>
