<svg xmlns="http://www.w3.org/2000/svg" xmlns:xlink="http://www.w3.org/1999/xlink" width="19.091" height="19.062" viewBox="0 0 19.091 19.062">
  <defs>
    <clipPath id="clip-path">
      <rect id="Rectangle_336" data-name="Rectangle 336" width="19.091" height="19.062" fill="#d20030"/>
    </clipPath>
  </defs>
  <g id="Group_1438" data-name="Group 1438" transform="translate(0 0)">
    <g id="Group_1437" data-name="Group 1437" transform="translate(0 0)" clip-path="url(#clip-path)">
      <path id="Path_8400" data-name="Path 8400" d="M10.179,0c.424.064.854.1,1.271.2a9.25,9.25,0,0,1,7.279,6.866A9.1,9.1,0,0,1,17.451,14.8a.778.778,0,0,1-.378.284.4.4,0,0,1-.461-.195.484.484,0,0,1,0-.541,17.182,17.182,0,0,0,.859-1.605A8.538,8.538,0,0,0,14.857,2.8,8.455,8.455,0,0,0,9.108.963a8.553,8.553,0,0,0-7.943,6.7,8.4,8.4,0,0,0,1.208,6.568.951.951,0,0,1,.154.453.424.424,0,0,1-.356.4.45.45,0,0,1-.512-.219A16.345,16.345,0,0,1,.778,13.25a9.445,9.445,0,0,1,2.363-10.8A9.3,9.3,0,0,1,8.716.034,1.167,1.167,0,0,0,8.869,0Z" transform="translate(0 0)" fill="#d20030"/>
      <path id="Path_8401" data-name="Path 8401" d="M20.344,32.137a3.823,3.823,0,1,1,4.37-.009c.06.028.109.055.161.075a5.251,5.251,0,0,1,3.377,4.9c0,.291,0,.582,0,.873a.493.493,0,0,1-.556.547q-5.172,0-10.344,0a.48.48,0,0,1-.538-.539,7.782,7.782,0,0,1,.181-2.265,5.224,5.224,0,0,1,3.145-3.5c.065-.027.131-.053.205-.082M27.3,37.566c0-.2,0-.386,0-.569a4.3,4.3,0,0,0-3.335-4.081,8.059,8.059,0,0,0-1.937-.106,4.281,4.281,0,0,0-4.112,3.166,4.768,4.768,0,0,0-.135,1.59Zm-7.623-8.574a2.859,2.859,0,1,0,2.867-2.856,2.859,2.859,0,0,0-2.867,2.856" transform="translate(-12.994 -19.463)" fill="#d20030"/>
      <path id="Path_8402" data-name="Path 8402" d="M12.569,19.232A6.676,6.676,0,0,1,25.821,18.1a6.567,6.567,0,0,1-.458,3.8.475.475,0,0,1-.528.326.439.439,0,0,1-.393-.387.956.956,0,0,1,.083-.4,5.606,5.606,0,0,0-.094-4.619,5.714,5.714,0,0,0-10.448,4.625c.015.037.032.073.046.11a.476.476,0,1,1-.876.37,6.393,6.393,0,0,1-.524-1.9c-.029-.263-.04-.527-.059-.791" transform="translate(-9.716 -9.712)" fill="#d20030"/>
    </g>
  </g>
</svg>
