<svg xmlns="http://www.w3.org/2000/svg" xmlns:xlink="http://www.w3.org/1999/xlink" width="22" height="21.818" viewBox="0 0 22 21.818">
  <defs>
    <clipPath id="clip-path">
      <rect id="Rectangle_329" data-name="Rectangle 329" width="22" height="21.818" fill="#e00045"/>
    </clipPath>
  </defs>
  <g id="Group_1430" data-name="Group 1430" transform="translate(0)">
    <g id="Group_1429" data-name="Group 1429" transform="translate(0)" clip-path="url(#clip-path)">
      <path id="Path_8370" data-name="Path 8370" d="M0,1.11A1.74,1.74,0,0,1,.5.3,1.678,1.678,0,0,1,1.923.046C4.34.422,6.759.786,9.177,1.155c.813.124,1.627.244,2.439.376a1.36,1.36,0,0,1,1.219,1.443q0,2.449,0,4.9v.278c.509.1,1.011.206,1.513.306q3.261.648,6.522,1.295A1.345,1.345,0,0,1,22,11.119q0,4.65,0,9.3a1.361,1.361,0,0,1-1.4,1.4q-4.135,0-8.27,0l-5.456,0H1.544A1.382,1.382,0,0,1,.029,20.73c0-.012-.019-.02-.029-.03V1.11M11.913,20.893v-.28q0-8.762,0-17.523c0-.057,0-.115,0-.172a.448.448,0,0,0-.416-.485c-.331-.059-.664-.107-1-.157L1.547.928c-.415-.063-.633.113-.633.53q0,9.438,0,18.876c0,.4.175.568.583.569q.977,0,1.955,0c.063,0,.126-.007.212-.012v-.263c0-1.253,0-2.505,0-3.758a1.372,1.372,0,0,1,1.464-1.465q1.278,0,2.556,0a1.365,1.365,0,0,1,1.479,1.487q0,1.868,0,3.737v.263Zm.936.012h7.611c.474,0,.627-.155.627-.634q0-4.5,0-9c0-.456-.1-.576-.551-.665L14.075,9.331l-1.226-.239Zm-4.6-.013c0-1.354,0-2.685,0-4.015,0-.393-.168-.558-.564-.558H5.174c-.443,0-.586.145-.587.6q0,1.878,0,3.756v.222Z" fill="#e00045"/>
      <path id="Path_8371" data-name="Path 8371" d="M65.291,103.273c-.293,0-.586,0-.879,0a.461.461,0,0,1-.5-.448.452.452,0,0,1,.5-.462q.879-.006,1.758,0a.45.45,0,0,1,.488.455.459.459,0,0,1-.491.455c-.293,0-.586,0-.879,0" transform="translate(-61.163 -97.953)" fill="#e00045"/>
      <path id="Path_8372" data-name="Path 8372" d="M65.3,166.251c.293,0,.586,0,.879,0a.45.45,0,0,1,.492.451.456.456,0,0,1-.487.459q-.89.007-1.779,0a.455.455,0,0,1-.481-.465.447.447,0,0,1,.476-.444c.3-.006.6,0,.9,0" transform="translate(-61.168 -159.093)" fill="#e00045"/>
      <path id="Path_8373" data-name="Path 8373" d="M65.294,230.126c.286,0,.572,0,.857,0,.317,0,.512.179.514.451a.461.461,0,0,1-.508.46q-.868,0-1.736,0a.46.46,0,0,1-.5-.465.452.452,0,0,1,.5-.446c.293,0,.586,0,.879,0" transform="translate(-61.167 -220.219)" fill="#e00045"/>
      <path id="Path_8374" data-name="Path 8374" d="M65.3,294c.293,0,.586,0,.879,0a.451.451,0,0,1,.483.459.458.458,0,0,1-.5.451q-.879.006-1.758,0a.458.458,0,0,1-.494-.452A.453.453,0,0,1,64.4,294h.9" transform="translate(-61.162 -281.346)" fill="#e00045"/>
      <path id="Path_8375" data-name="Path 8375" d="M171.862,103.271c-.286,0-.572,0-.857,0a.451.451,0,0,1-.5-.446.441.441,0,0,1,.495-.464q.879-.007,1.757,0a.456.456,0,1,1,0,.91c-.3,0-.6,0-.9,0" transform="translate(-163.17 -97.95)" fill="#e00045"/>
      <path id="Path_8376" data-name="Path 8376" d="M171.887,166.246c.286,0,.572,0,.857,0a.457.457,0,1,1,.007.91q-.879.006-1.757,0a.449.449,0,0,1-.488-.454.439.439,0,0,1,.482-.456c.3-.006.6,0,.9,0" transform="translate(-163.165 -159.088)" fill="#e00045"/>
      <path id="Path_8377" data-name="Path 8377" d="M171.887,230.122c.286,0,.572,0,.857,0a.457.457,0,1,1,.007.91q-.879.006-1.757,0a.449.449,0,0,1-.488-.454.439.439,0,0,1,.482-.456c.3-.006.6,0,.9,0" transform="translate(-163.165 -220.215)" fill="#e00045"/>
      <path id="Path_8378" data-name="Path 8378" d="M171.881,294c.3,0,.6,0,.9,0a.455.455,0,1,1-.011.909q-.889.007-1.779,0a.445.445,0,0,1-.479-.462.436.436,0,0,1,.469-.447c.3-.007.6,0,.9,0" transform="translate(-163.172 -281.341)" fill="#e00045"/>
      <path id="Path_8379" data-name="Path 8379" d="M363.54,293.995c.293,0,.586,0,.879,0a.456.456,0,1,1,0,.91q-.889.006-1.779,0a.444.444,0,0,1-.474-.446.438.438,0,0,1,.474-.463c.3-.006.6,0,.9,0" transform="translate(-346.576 -281.338)" fill="#e00045"/>
      <path id="Path_8380" data-name="Path 8380" d="M363.525,358.777c-.286,0-.572,0-.857,0a.451.451,0,0,1-.5-.466.44.44,0,0,1,.493-.445q.868-.007,1.736,0a.459.459,0,1,1,0,.911c-.293,0-.586,0-.879,0" transform="translate(-346.581 -342.458)" fill="#e00045"/>
      <path id="Path_8381" data-name="Path 8381" d="M363.525,422.652c-.286,0-.572,0-.857,0a.451.451,0,0,1-.5-.466.44.44,0,0,1,.493-.445q.868-.007,1.736,0a.459.459,0,1,1,0,.911c-.293,0-.586,0-.879,0" transform="translate(-346.581 -403.584)" fill="#e00045"/>
    </g>
  </g>
</svg>
