<svg id="Group_1440" data-name="Group 1440" xmlns="http://www.w3.org/2000/svg" xmlns:xlink="http://www.w3.org/1999/xlink" width="22.336" height="22.012" viewBox="0 0 22.336 22.012">
  <defs>
    <clipPath id="clip-path">
      <rect id="Rectangle_337" data-name="Rectangle 337" width="22.336" height="22.012" fill="#e1003e"/>
    </clipPath>
  </defs>
  <g id="Group_1439" data-name="Group 1439" clip-path="url(#clip-path)">
    <path id="Path_8403" data-name="Path 8403" d="M9.36,8.1c.556.08.676-.295.7-.823.066-1.466.193-2.929.227-4.4A1.318,1.318,0,0,0,9.8,2.039c-.094-.084-.479.085-.685.214A1.07,1.07,0,0,1,7.61,2.031.955.955,0,0,1,7.982.545c.529-.331.805-.274,1.245.18a4.77,4.77,0,0,0,.827.676,2.25,2.25,0,0,1,.912,2.269c-.079,1.239-.206,2.475-.281,3.714-.018.3-.048.665.457.709.106.009.282.37.256.543A5.393,5.393,0,0,1,8.651,12.9a4.724,4.724,0,0,1-1.171.525c-.686.148-.781.65-.782,1.175A1.255,1.255,0,0,1,5.9,15.889a.961.961,0,0,0-.429.688,4.193,4.193,0,0,0,2.717,4.551A3.585,3.585,0,0,0,11.2,20.9a4.7,4.7,0,0,0,2.363-4.113c.2-2.511.32-5.031.612-7.531a2.868,2.868,0,0,1,1.9-2.3,3.071,3.071,0,0,1,4.2,2.98c-.01.419.049.778.51.935a2.282,2.282,0,0,1,1.546,2.285,30.183,30.183,0,0,1-.263,3.9,2.489,2.489,0,0,1-4.328,1.417,2.953,2.953,0,0,1-.721-2.354c.042-.956.2-1.907.249-2.863a3.018,3.018,0,0,1,.978-2.033,2.719,2.719,0,0,1,1.044-.535.527.527,0,0,0,.407-.591,2.518,2.518,0,0,0-5.02-.39c-.065.819-.1,1.64-.149,2.46-.112,1.781-.119,3.577-.369,5.338a5.153,5.153,0,0,1-2.8,4.008,3.929,3.929,0,0,1-3.3.257,4.7,4.7,0,0,1-2.886-2.829,4.574,4.574,0,0,1-.354-2.263,1.312,1.312,0,0,0-.438-.9,1.419,1.419,0,0,1-.493-1.422.938.938,0,0,0-.574-1.228A5.4,5.4,0,0,1,.011,8.474a2.655,2.655,0,0,1,.051-.76c.016-.094.13-.246.2-.245.722.017.6-.509.634-.945.1-1.3.164-2.6.31-3.891A2.086,2.086,0,0,1,2.477.828,4.027,4.027,0,0,0,3.318.261.97.97,0,0,1,4.473.135a1.085,1.085,0,0,1,.54,1.16.906.906,0,0,1-.836.8,1.151,1.151,0,0,1-.985-.24c-.176-.15-.478-.421-.554-.372a1.556,1.556,0,0,0-.651.7,5.915,5.915,0,0,0-.227,1.441C1.675,4.73,1.64,5.842,1.538,6.949c-.037.4.093.529.453.519.5-.014.672.166.644.718a3,3,0,0,0,2.919,3.3A3.057,3.057,0,0,0,8.851,9.8,8.471,8.471,0,0,0,9.36,8.1m12.663,4.978a7.076,7.076,0,0,0-.668-1.321,1.842,1.842,0,0,0-2.155-.575,1.672,1.672,0,0,0-1.294,1.331c-.155,1.339-.212,2.691-.384,4.028a2.083,2.083,0,0,0,1.647,2.3,1.98,1.98,0,0,0,2.366-1.454c.262-1.358.323-2.754.489-4.311m-11.3-3.792c-.187-.209-.353-.526-.488-.513-.19.017-.361.275-.531.44-.032.031-.014.11-.026.165A3.39,3.39,0,0,1,7.711,11.8,4,4,0,0,1,3.154,11.1,3.825,3.825,0,0,1,2.02,8.724a.714.714,0,0,0-.954-.6c-.149.03-.326.426-.317.647a4.3,4.3,0,0,0,1.8,3.179,5.9,5.9,0,0,0,3.776,1.079,3.51,3.51,0,0,0,2.163-.769A6.929,6.929,0,0,0,9.9,10.976a9.4,9.4,0,0,0,.822-1.691M4.4,14.4c.088.86.358.9.989.946a.613.613,0,0,0,.724-.668c-.016-.806-.25-1.06-1.214-.986-.183.014-.333.461-.5.708M4.589,1.063c-.336-.175-.522-.351-.68-.33-.14.019-.249.26-.371.4.161.126.31.321.489.353.115.021.273-.2.562-.427m4.422.316c-.239-.165-.409-.366-.519-.338a.644.644,0,0,0-.382.394c-.026.089.232.375.3.356a2.519,2.519,0,0,0,.6-.412" transform="translate(0 0)" fill="#e1003e"/>
    <path id="Path_8404" data-name="Path 8404" d="M194.788,124.424c-.026.39-.043.782-.094,1.168,0,.028-.316.086-.373.025-.242-.26-.065-.987.467-1.194" transform="translate(-174.68 -111.909)" fill="#e1003e"/>
  </g>
</svg>
