<svg xmlns="http://www.w3.org/2000/svg" xmlns:xlink="http://www.w3.org/1999/xlink" width="82.089" height="82.828" viewBox="0 0 82.089 82.828">
  <defs>
    <clipPath id="clip-path">
      <rect id="Rectangle_2883" data-name="Rectangle 2883" width="82.089" height="82.828" fill="none"/>
    </clipPath>
    <clipPath id="clip-path-3">
      <rect id="Rectangle_2866" data-name="Rectangle 2866" width="9.016" height="19.53" fill="none"/>
    </clipPath>
    <clipPath id="clip-path-4">
      <rect id="Rectangle_2870" data-name="Rectangle 2870" width="11.337" height="10.588" fill="none"/>
    </clipPath>
    <clipPath id="clip-path-5">
      <rect id="Rectangle_2871" data-name="Rectangle 2871" width="42.315" height="56.671" fill="none"/>
    </clipPath>
    <clipPath id="clip-path-6">
      <rect id="Rectangle_2872" data-name="Rectangle 2872" width="42.314" height="56.594" fill="none"/>
    </clipPath>
    <clipPath id="clip-path-8">
      <rect id="Rectangle_2876" data-name="Rectangle 2876" width="5.533" height="3.001" fill="none"/>
    </clipPath>
    <clipPath id="clip-path-9">
      <rect id="Rectangle_2877" data-name="Rectangle 2877" width="5.05" height="2.175" fill="none"/>
    </clipPath>
    <clipPath id="clip-path-10">
      <rect id="Rectangle_2878" data-name="Rectangle 2878" width="1.446" height="5.269" fill="none"/>
    </clipPath>
    <clipPath id="clip-path-11">
      <rect id="Rectangle_2879" data-name="Rectangle 2879" width="8.285" height="1.317" fill="none"/>
    </clipPath>
    <clipPath id="clip-path-12">
      <rect id="Rectangle_2880" data-name="Rectangle 2880" width="0.959" height="0.976" fill="none"/>
    </clipPath>
    <clipPath id="clip-path-13">
      <rect id="Rectangle_2881" data-name="Rectangle 2881" width="0.704" height="3.044" fill="none"/>
    </clipPath>
  </defs>
  <g id="Group_7664" data-name="Group 7664" transform="translate(-1)">
    <g id="Group_7663" data-name="Group 7663" transform="translate(1)" clip-path="url(#clip-path)">
      <g id="Group_7662" data-name="Group 7662">
        <g id="Group_7661" data-name="Group 7661" clip-path="url(#clip-path)">
          <path id="Path_74328" data-name="Path 74328" d="M122.037,175.9a1.209,1.209,0,0,1-.1-.239c-.058-.156-.134-.384-.224-.668-.181-.567-.4-1.358-.646-2.232s-.476-1.66-.665-2.223c-.094-.281-.172-.509-.228-.665a1.183,1.183,0,0,1-.076-.248,1.187,1.187,0,0,1,.115.232c.068.152.157.376.261.655.208.558.454,1.344.7,2.219l.615,2.239.191.677a1.171,1.171,0,0,1,.059.252" transform="translate(-74.25 -104.868)" fill="#e0e0e0"/>
          <path id="Path_74329" data-name="Path 74329" d="M132.44,179.06a1.65,1.65,0,0,1-.293.086c-.19.05-.464.12-.8.218-.674.19-1.6.486-2.6.857s-1.9.748-2.535,1.039c-.321.143-.576.266-.754.35a1.589,1.589,0,0,1-.281.121,1.679,1.679,0,0,1,.261-.16c.172-.1.424-.229.741-.382.632-.31,1.524-.7,2.53-1.072a26.839,26.839,0,0,1,2.618-.828c.34-.089.618-.148.812-.185a1.6,1.6,0,0,1,.3-.045" transform="translate(-77.389 -110.702)" fill="#e0e0e0"/>
          <path id="Path_74330" data-name="Path 74330" d="M111.569,194.862a.385.385,0,0,1-.067-.083l-.174-.25c-.15-.217-.36-.538-.613-.937-.507-.8-1.174-1.923-1.892-3.173s-1.373-2.381-1.863-3.188l-.583-.955-.157-.261a.387.387,0,0,1-.049-.1.4.4,0,0,1,.067.083l.174.249c.15.218.36.538.613.937.507.8,1.174,1.923,1.892,3.174s1.373,2.38,1.863,3.188l.583.955.157.261a.408.408,0,0,1,.048.1" transform="translate(-65.64 -114.944)" fill="#e0e0e0"/>
          <path id="Path_74331" data-name="Path 74331" d="M129.736,196.509a.407.407,0,0,1-.092.058l-.273.146-1.009.526c-.852.445-2.021,1.073-3.312,1.768s-2.468,1.314-3.329,1.741c-.431.214-.781.383-1.025.5l-.282.128a.4.4,0,0,1-.1.038.419.419,0,0,1,.092-.058l.273-.146,1.009-.526c.852-.445,2.021-1.073,3.313-1.768s2.467-1.313,3.329-1.74c.431-.214.781-.383,1.025-.5l.282-.128a.4.4,0,0,1,.1-.037" transform="translate(-74.382 -121.491)" fill="#e0e0e0"/>
          <path id="Path_74333" data-name="Path 74333" d="M67.292,154.578c-1.012-3.724-2.7-10.375-4.176-16.076S60.3,127.643,59.3,123.914l-1.18-4.415-.32-1.2-.081-.313c-.018-.071-.024-.108-.024-.108s.013.035.034.1l.091.31.34,1.2c.294,1.039.709,2.544,1.214,4.407,1.011,3.725,2.365,8.881,3.843,14.581s3.152,12.354,4.145,16.084" transform="translate(-35.673 -72.877)" fill="#e0e0e0"/>
          <path id="Path_74334" data-name="Path 74334" d="M54.08,146.846a1.139,1.139,0,0,1,.223.119c.14.082.339.207.583.364.488.315,1.15.766,1.873,1.277l1.844,1.315.561.4a1.131,1.131,0,0,1,.2.153,1.111,1.111,0,0,1-.224-.118c-.14-.083-.339-.208-.581-.367-.484-.319-1.141-.779-1.863-1.29l-1.853-1.3L54.279,147a1.116,1.116,0,0,1-.2-.155" transform="translate(-33.434 -90.787)" fill="#e0e0e0"/>
          <path id="Path_74335" data-name="Path 74335" d="M68.657,145.823c-.025-.016.845-1.423,1.944-3.142s2.01-3.1,2.035-3.084-.845,1.423-1.944,3.142-2.01,3.1-2.035,3.084" transform="translate(-42.447 -86.305)" fill="#e0e0e0"/>
          <path id="Path_74336" data-name="Path 74336" d="M73.567,171.815a1.172,1.172,0,0,1,.186-.179l.527-.462c.445-.39,1.056-.931,1.71-1.554s1.228-1.2,1.639-1.628l.488-.5a1.16,1.16,0,0,1,.188-.176,1.187,1.187,0,0,1-.157.2c-.107.127-.264.308-.463.527-.4.439-.964,1.031-1.62,1.654s-1.277,1.158-1.735,1.534c-.23.187-.417.336-.55.436a1.179,1.179,0,0,1-.212.147" transform="translate(-45.482 -103.441)" fill="#e0e0e0"/>
          <path id="Path_74337" data-name="Path 74337" d="M58.578,173.812a1.008,1.008,0,0,1,.232.056l.619.192c.521.166,1.239.4,2.029.67s1.5.516,2.019.7l.608.224a1.017,1.017,0,0,1,.218.1.981.981,0,0,1-.232-.056l-.619-.191c-.521-.166-1.239-.4-2.029-.671s-1.5-.516-2.019-.7l-.608-.224a1.04,1.04,0,0,1-.218-.1" transform="translate(-36.215 -107.457)" fill="#e0e0e0"/>
          <path id="Path_74338" data-name="Path 74338" d="M60.31,194.845a1.626,1.626,0,0,1,.3.075l.794.242c.669.209,1.591.505,2.607.839s1.935.641,2.6.869l.783.275a1.712,1.712,0,0,1,.283.115,1.622,1.622,0,0,1-.3-.075l-.794-.242c-.669-.209-1.591-.505-2.608-.839s-1.934-.641-2.6-.869l-.783-.275a1.629,1.629,0,0,1-.282-.115" transform="translate(-37.286 -120.461)" fill="#e0e0e0"/>
          <path id="Path_74339" data-name="Path 74339" d="M79.173,191.378a1.865,1.865,0,0,1,.229-.233l.647-.609c.546-.515,1.3-1.229,2.1-2.04s1.522-1.563,2.034-2.112l.607-.649a1.937,1.937,0,0,1,.232-.23,1.884,1.884,0,0,1-.2.258c-.134.161-.333.392-.582.673-.5.562-1.2,1.325-2.014,2.137s-1.57,1.519-2.13,2.02c-.281.25-.51.45-.671.584a1.88,1.88,0,0,1-.257.2" transform="translate(-48.948 -114.687)" fill="#e0e0e0"/>
          <path id="Path_74340" data-name="Path 74340" d="M16.264,14.431l-1.909-.6a1.7,1.7,0,0,1-2.174,1.112,1.618,1.618,0,0,1-1.188-1.453,1.791,1.791,0,0,1,.618-1.5,2.169,2.169,0,0,1,2.567-.069l1.343-4.3-1.888-.589L12.846,9.55a3.862,3.862,0,0,0-3.771,2.776,3.593,3.593,0,0,0,2.5,4.555,3.431,3.431,0,0,0,4.688-2.45" transform="translate(-5.491 -4.346)" fill="#f5f5f5"/>
          <rect id="Rectangle_2861" data-name="Rectangle 2861" width="1.874" height="2.007" transform="translate(8.395 1.789) rotate(-72.668)" fill="#f5f5f5"/>
          <path id="Path_74341" data-name="Path 74341" d="M41.9,10.685l.765-.2a.672.672,0,0,1,.494-.83.64.64,0,0,1,.7.237.708.708,0,0,1,.109.633.858.858,0,0,1-.846.562l.455,1.724.756-.2-.266-1.01a1.527,1.527,0,0,0,.68-1.722,1.421,1.421,0,0,0-1.8-1A1.356,1.356,0,0,0,41.9,10.685" transform="translate(-25.857 -5.459)" fill="#ebebeb"/>
          <rect id="Rectangle_2862" data-name="Rectangle 2862" width="0.794" height="0.741" transform="translate(17.814 7.706) rotate(-14.772)" fill="#ebebeb"/>
          <path id="Path_74342" data-name="Path 74342" d="M207.432,63.926l.743.269a.672.672,0,0,1,.879-.4.64.64,0,0,1,.444.595.709.709,0,0,1-.271.583.857.857,0,0,1-1.015-.019L207.6,66.63l.735.266.356-.982a1.527,1.527,0,0,0,1.539-1.029,1.42,1.42,0,0,0-.907-1.843,1.356,1.356,0,0,0-1.9.884" transform="translate(-128.244 -38.902)" fill="#ebebeb"/>
          <rect id="Rectangle_2863" data-name="Rectangle 2863" width="0.741" height="0.793" transform="translate(78.981 28.769) rotate(-70.083)" fill="#ebebeb"/>
          <path id="Path_74343" data-name="Path 74343" d="M.3,80.895l1.573-.606a1.433,1.433,0,0,1,.855-1.873,1.364,1.364,0,0,1,1.546.337,1.51,1.51,0,0,1,.379,1.317,1.829,1.829,0,0,1-1.66,1.39l1.367,3.547,1.556-.6-.8-2.078a3.255,3.255,0,0,0,1.038-3.809,3.03,3.03,0,0,0-4.038-1.7A2.892,2.892,0,0,0,.3,80.895" transform="translate(2 -39.357)" fill="#f5f5f5"/>
          <rect id="Rectangle_2864" data-name="Rectangle 2864" width="1.692" height="1.58" transform="matrix(0.933, -0.359, 0.359, 0.933, 6.635, 46.382)" fill="#f5f5f5"/>
          <path id="Path_74344" data-name="Path 74344" d="M202.034,98.766l-1.115.429a1.016,1.016,0,0,1-.606,1.328.967.967,0,0,1-1.1-.239,1.069,1.069,0,0,1-.268-.933c.068-.385.374-.828,1.176-.985l-.968-2.513-1.1.425.567,1.472a2.307,2.307,0,0,0-.736,2.7,2.147,2.147,0,0,0,2.862,1.2,2.05,2.05,0,0,0,1.286-2.887" transform="translate(-122.234 -59.26)" fill="#f5f5f5"/>
          <rect id="Rectangle_2865" data-name="Rectangle 2865" width="1.199" height="1.12" transform="translate(75.206 35.459) rotate(-21.066)" fill="#f5f5f5"/>
          <path id="Path_74345" data-name="Path 74345" d="M11.342,180.07a2.184,2.184,0,0,0-.815-1.963,5.45,5.45,0,0,1-1.436-1.68c-.446-1.118.153-2.566-.607-3.5-.447-.549-1.25-.732-1.647-1.319a3,3,0,0,1-.357-1.048,10.641,10.641,0,0,0-2.647-4.952,9.24,9.24,0,0,0,1.038,4.773A6.065,6.065,0,0,1,5.66,172.2c.166,1.063-.428,2.158-.166,3.2.3,1.193,1.639,1.992,1.7,3.221.054,1.039-.852,1.95-.784,2.988a2.8,2.8,0,0,0,.462,1.232,4.125,4.125,0,0,0,3.771,2.225l2.19.077Z" transform="translate(5.639 -102.388)" fill="#e8505b"/>
          <g id="Group_7665" data-name="Group 7665" transform="translate(-12)">
            <g id="Group_7630" data-name="Group 7630" transform="translate(21.458 63.222)" opacity="0.3">
              <g id="Group_7629" data-name="Group 7629">
                <g id="Group_7628" data-name="Group 7628" clip-path="url(#clip-path-3)">
                  <path id="Path_74346" data-name="Path 74346" d="M11.342,180.07a2.184,2.184,0,0,0-.815-1.963,5.45,5.45,0,0,1-1.436-1.68c-.446-1.118.153-2.566-.607-3.5-.447-.549-1.25-.732-1.647-1.319a3,3,0,0,1-.357-1.048,10.641,10.641,0,0,0-2.647-4.952,9.24,9.24,0,0,0,1.038,4.773A6.065,6.065,0,0,1,5.66,172.2c.166,1.063-.428,2.158-.166,3.2.3,1.193,1.639,1.992,1.7,3.221.054,1.039-.852,1.95-.784,2.988a2.8,2.8,0,0,0,.462,1.232,4.125,4.125,0,0,0,3.771,2.225l2.19.077Z" transform="translate(-3.819 -165.61)"/>
                </g>
              </g>
            </g>
            <path id="Path_74347" data-name="Path 74347" d="M26.8,173.012a1.753,1.753,0,0,0,.6-.013,3.679,3.679,0,0,0,.712-.179,3.018,3.018,0,0,0,.879-.482,1.221,1.221,0,0,0,.362-.482,2.257,2.257,0,0,0,.1-.654,6.435,6.435,0,0,1,.051-.709,1.951,1.951,0,0,1,.268-.7,5.36,5.36,0,0,0,.826-1.5,4.961,4.961,0,0,0-.06-1.92,4.078,4.078,0,0,1,.051-2.058c.235-.685.715-1.3.956-2.076a10.529,10.529,0,0,0,.178-2.447,3.24,3.24,0,0,1,.285-1.216c.178-.388.423-.754.615-1.162a8.506,8.506,0,0,0,.564-2.677l.157-1.4a6.829,6.829,0,0,1,.243-1.4,12.373,12.373,0,0,1,.524-1.356,4.508,4.508,0,0,0,.254-.708,7.187,7.187,0,0,0,.071-.753,8.891,8.891,0,0,0-.058-1.516c-.06-.505-.151-1.007-.205-1.513l-.01-.087-.011-.1-.09.045a3.383,3.383,0,0,0-1.179,1,5.361,5.361,0,0,0-.725,1.335,16.458,16.458,0,0,0-.682,2.868,7.787,7.787,0,0,1-.9,2.649c-.24.39-.531.746-.785,1.127a3.093,3.093,0,0,0-.544,1.248c-.13.927.381,1.74.274,2.561a2.839,2.839,0,0,1-.4,1.137c-.2.35-.433.674-.654,1a6.438,6.438,0,0,0-.588,1.01,3.207,3.207,0,0,0-.269,1.1c-.053.739.052,1.439,0,2.1a4.839,4.839,0,0,1-.541,1.8c-.265.539-.56,1.026-.807,1.5-.124.236-.239.466-.332.7a3.434,3.434,0,0,0-.192.693,4.371,4.371,0,0,0-.016,1.25,3.151,3.151,0,0,0,.627,1.594,1.488,1.488,0,0,0,.177.192.882.882,0,0,0,.144.122c.082.06.125.088.125.088a2.753,2.753,0,0,1-.424-.42,3.17,3.17,0,0,1-.595-1.584,4.34,4.34,0,0,1,.028-1.232A3.353,3.353,0,0,1,26,169.1a7.651,7.651,0,0,1,.334-.689c.249-.468.547-.954.817-1.5a4.917,4.917,0,0,0,.56-1.832c.057-.676-.044-1.379.011-2.1a3.093,3.093,0,0,1,.264-1.061,6.331,6.331,0,0,1,.581-.99c.222-.324.458-.65.663-1.007a2.961,2.961,0,0,0,.418-1.183c.106-.874-.4-1.693-.27-2.555a2.975,2.975,0,0,1,.525-1.194c.25-.373.542-.73.789-1.13a7.909,7.909,0,0,0,.921-2.693,16.374,16.374,0,0,1,.677-2.845,5.241,5.241,0,0,1,.705-1.3,3.244,3.244,0,0,1,1.13-.954l-.1-.056c0,.028.007.058.01.089.055.512.147,1.015.205,1.514a8.7,8.7,0,0,1,.058,1.493,7.134,7.134,0,0,1-.067.731,4.4,4.4,0,0,1-.246.683,12.4,12.4,0,0,0-.528,1.37,6.962,6.962,0,0,0-.247,1.424q-.078.707-.155,1.4a8.418,8.418,0,0,1-.547,2.637c-.185.4-.431.764-.613,1.164a3.373,3.373,0,0,0-.294,1.261,10.511,10.511,0,0,1-.166,2.42c-.227.745-.7,1.367-.946,2.074a4.166,4.166,0,0,0-.047,2.109,4.9,4.9,0,0,1,.071,1.884,5.327,5.327,0,0,1-.807,1.48,2.031,2.031,0,0,0-.272.733,6.335,6.335,0,0,0-.046.717,2.227,2.227,0,0,1-.094.637,1.172,1.172,0,0,1-.34.461,3,3,0,0,1-.858.484,3.782,3.782,0,0,1-.7.19,2.746,2.746,0,0,1-.446.043c-.1,0-.153,0-.153,0" transform="translate(4.116 -90.202)" fill="#263238"/>
            <path id="Path_74348" data-name="Path 74348" d="M35.519,149.324a.262.262,0,0,0-.021.066c-.013.053-.029.118-.048.2-.043.173-.095.433-.177.759s-.285.691-.455,1.144-.356.969-.521,1.554-.315,1.233-.47,1.928a8.111,8.111,0,0,1-.7,2.139c-.179.356-.382.716-.542,1.11a5.159,5.159,0,0,0-.315,1.257,25.485,25.485,0,0,1-.472,2.65l-1.238,5.061-1.038,4.128c-.289,1.168-.523,2.117-.688,2.786q-.115.482-.18.759l-.044.2a.228.228,0,0,0-.01.069.254.254,0,0,0,.024-.065l.057-.195.206-.753.731-2.775,1.067-4.12,1.25-5.063a25.109,25.109,0,0,0,.471-2.661,5.086,5.086,0,0,1,.3-1.227c.155-.384.354-.742.534-1.1a8.17,8.17,0,0,0,.7-2.172c.15-.7.292-1.343.452-1.926s.329-1.1.5-1.552.354-.822.434-1.158.118-.591.152-.767l.034-.2a.255.255,0,0,0,.007-.069" transform="translate(2.319 -92.319)" fill="#263238"/>
            <path id="Path_74349" data-name="Path 74349" d="M16.8,161.781c1.431-.851,1.841-3.432,1.245-4.985s-1.642-2.973-1.8-4.63c-.124-1.274.293-2.58,0-3.825-.4-1.68-2.04-2.981-2.021-4.707.011-.969.562-1.881.518-2.848-.054-1.187-.965-2.129-1.529-3.175-.864-1.6-.92-3.493-1.216-5.288s-.979-3.717-2.57-4.6a17.275,17.275,0,0,0-.51,4.631c.045.741.906,2.161,1.023,3.785.07.971.119,1.944.178,2.915a9.345,9.345,0,0,0,.458,2.793c.26.678.677,1.294.87,1.994.363,1.317-.114,2.743.179,4.078.248,1.13,1.031,2.1,1.19,3.249.225,1.611-.818,3.284-.284,4.82a21.881,21.881,0,0,1,1.07,2.161c.138.61-.013,1.257.113,1.871.2.988,2.087,1.756,3.093,1.695" transform="translate(14.509 -78.965)" fill="#e8505b"/>
            <path id="Path_74350" data-name="Path 74350" d="M11.311,131.686a.393.393,0,0,0,.006.086l.032.25c.033.22.069.543.144.961s.3.893.47,1.464.364,1.225.525,1.959.3,1.546.444,2.421a10.145,10.145,0,0,0,.733,2.738c.2.457.426.915.595,1.4a6.3,6.3,0,0,1,.3,1.546,31.248,31.248,0,0,0,.42,3.333l1.236,6.365,1.065,5.185.73,3.493c.088.4.157.722.205.948l.057.246a.426.426,0,0,0,.024.083.379.379,0,0,0-.01-.086l-.043-.249c-.043-.227-.1-.547-.179-.954-.164-.836-.4-2.03-.686-3.5s-.646-3.239-1.035-5.191l-1.224-6.364A31.557,31.557,0,0,1,14.7,144.5a6.4,6.4,0,0,0-.312-1.577c-.174-.5-.4-.957-.6-1.411a10.108,10.108,0,0,1-.737-2.7c-.148-.873-.291-1.688-.461-2.423s-.357-1.393-.547-1.962-.405-1.041-.491-1.451-.128-.736-.169-.954l-.046-.248a.4.4,0,0,0-.02-.084" transform="translate(13.007 -81.414)" fill="#263238"/>
          </g>
          <path id="Path_74351" data-name="Path 74351" d="M187.3,20.68h-.779a.662.662,0,0,1-.68.665.63.63,0,0,1-.61-.4.7.7,0,0,1,.055-.631.845.845,0,0,1,.946-.323V18.234h-.77v1.028a1.5,1.5,0,0,0-1.08,1.469,1.4,1.4,0,0,0,1.458,1.4A1.336,1.336,0,0,0,187.3,20.68" transform="translate(-113.995 -11.273)" fill="#e8505b"/>
          <rect id="Rectangle_2867" data-name="Rectangle 2867" width="0.781" height="0.73" transform="translate(71.46 5.869)" fill="#e8505b"/>
          <path id="Path_74352" data-name="Path 74352" d="M184.656,12.61a.548.548,0,0,0,0-.1c0-.071,0-.168-.008-.29,0-.063,0-.135-.01-.213l-.036-.255-.043-.3-.083-.333a5.389,5.389,0,0,0-.7-1.614,5.7,5.7,0,0,0-4.282-2.617,5.952,5.952,0,0,0-.78-.016c-.132.01-.266.007-.4.026l-.4.061a5.723,5.723,0,0,0-1.589.542,6.107,6.107,0,0,0-1.427,1.038,5.987,5.987,0,0,0-1.074,1.495,5.431,5.431,0,0,0-.559,1.822,3.613,3.613,0,0,0-.042.486,4.391,4.391,0,0,0-.009.491,5.824,5.824,0,0,0,.124.984,5.742,5.742,0,0,0,.824,1.959l-.006-.059-.8,2-.047.118.123-.034,2.134-.586-.053-.01a5.722,5.722,0,0,0,2.438,1.065,5.175,5.175,0,0,0,1.249.078,4.035,4.035,0,0,0,.6-.057l.292-.045c.1-.018.189-.047.283-.07a5.708,5.708,0,0,0,3.246-2.226,5.452,5.452,0,0,0,.7-1.325l.107-.3.072-.283.064-.259c.016-.083.025-.163.036-.239.019-.151.045-.284.051-.4s.007-.212.01-.293,0-.133,0-.179a.272.272,0,0,0,0-.061.266.266,0,0,0-.008.061c0,.045-.008.1-.014.178l-.019.291c-.009.115-.038.246-.06.4a5.675,5.675,0,0,1-4.209,4.537c-.092.022-.183.05-.278.067l-.287.043a3.938,3.938,0,0,1-.589.053,5.072,5.072,0,0,1-1.224-.081,5.621,5.621,0,0,1-2.385-1.05l-.024-.018-.029.008-2.134.582.075.084.8-1.994.013-.031-.019-.028a5.643,5.643,0,0,1-.805-1.915,5.758,5.758,0,0,1-.122-.962,4.283,4.283,0,0,1,.009-.48,3.516,3.516,0,0,1,.04-.475,5.312,5.312,0,0,1,.545-1.782,5.879,5.879,0,0,1,1.048-1.464,6.017,6.017,0,0,1,1.395-1.019,5.624,5.624,0,0,1,1.555-.536l.394-.061c.13-.019.262-.017.391-.027a5.627,5.627,0,0,1,5,2.561,5.44,5.44,0,0,1,.716,1.588l.088.329.048.295c.015.091.029.176.042.253s.01.149.016.212c.009.121.016.217.021.288a.552.552,0,0,0,.011.1" transform="translate(-107.085 -4.245)" fill="#263238"/>
          <path id="Path_74353" data-name="Path 74353" d="M50.386,48.045h11.3s0-9.485,9.857-9.655a9.141,9.141,0,0,1,8.853,5.834,10.123,10.123,0,0,1-.8,9.15c-1.916,3.159-6.043,6.334-13.657,4.993L65.86,83.536H77.031V68.615S92.7,64.565,92.7,47.3c0-16.52-13.359-20.089-20.539-20.318a45.383,45.383,0,0,0-10.384.4c-6.3.894-11.522,8.205-11.389,20.662" transform="translate(-31.149 -16.609)" fill="#e8505b"/>
          <rect id="Rectangle_2868" data-name="Rectangle 2868" width="11.337" height="10.588" transform="translate(34.68 72.175)" fill="#e8505b"/>
          <g id="Group_7633" data-name="Group 7633" transform="translate(34.679 72.175)" opacity="0.1">
            <g id="Group_7632" data-name="Group 7632">
              <g id="Group_7631" data-name="Group 7631" clip-path="url(#clip-path-4)">
                <rect id="Rectangle_2869" data-name="Rectangle 2869" width="11.337" height="10.588" transform="translate(0)"/>
              </g>
            </g>
          </g>
          <g id="Group_7636" data-name="Group 7636" transform="translate(19.234 10.255)" opacity="0.1">
            <g id="Group_7635" data-name="Group 7635">
              <g id="Group_7634" data-name="Group 7634" clip-path="url(#clip-path-5)">
                <path id="Path_74354" data-name="Path 74354" d="M50.386,48.045h11.3s0-9.485,9.857-9.655a9.141,9.141,0,0,1,8.853,5.834,10.123,10.123,0,0,1-.8,9.15c-1.916,3.159-6.043,6.334-13.657,4.993L65.86,83.536H77.031V68.615S92.7,64.565,92.7,47.3c0-16.52-13.359-20.089-20.539-20.318a45.383,45.383,0,0,0-10.384.4c-6.3.894-11.522,8.205-11.389,20.662" transform="translate(-50.383 -26.864)"/>
              </g>
            </g>
          </g>
          <path id="Path_74355" data-name="Path 74355" d="M38.129,48.17h11.3s0-9.485,9.857-9.655a9.141,9.141,0,0,1,8.853,5.834,10.123,10.123,0,0,1-.8,9.15c-1.916,3.159-6.115,6.031-13.729,4.689V83.661H64.774V68.74s15.667-4.05,15.667-21.316c0-16.52-14.814-20.357-21.156-20.357-4.849,0-21.369,1.172-21.156,21.1" transform="translate(-23.572 -16.734)" fill="#e8505b"/>
          <g id="Group_7639" data-name="Group 7639" transform="translate(14.555 10.333)" opacity="0.3">
            <g id="Group_7638" data-name="Group 7638">
              <g id="Group_7637" data-name="Group 7637" clip-path="url(#clip-path-6)">
                <path id="Path_74356" data-name="Path 74356" d="M38.129,48.17h11.3s0-9.485,9.857-9.655a9.141,9.141,0,0,1,8.853,5.834,10.123,10.123,0,0,1-.8,9.15c-1.916,3.159-6.115,6.031-13.729,4.689V83.661H64.774V68.74s15.667-4.05,15.667-21.316c0-16.52-14.814-20.357-21.156-20.357-4.849,0-21.369,1.172-21.156,21.1" transform="translate(-38.126 -27.067)"/>
              </g>
            </g>
          </g>
          <rect id="Rectangle_2873" data-name="Rectangle 2873" width="11.337" height="10.588" transform="translate(30 72.175)" fill="#e8505b"/>
          <g id="Group_7642" data-name="Group 7642" transform="translate(30 72.175)" opacity="0.3">
            <g id="Group_7641" data-name="Group 7641">
              <g id="Group_7640" data-name="Group 7640" clip-path="url(#clip-path-4)">
                <rect id="Rectangle_2874" data-name="Rectangle 2874" width="11.337" height="10.588" transform="translate(0)"/>
              </g>
            </g>
          </g>
          <path id="Path_74357" data-name="Path 74357" d="M78.749,57a1.1,1.1,0,0,1-.169-.01c-.11-.006-.271-.037-.481-.039a9.823,9.823,0,0,0-1.771.073,12.682,12.682,0,0,0-2.557.6,10.9,10.9,0,0,0-1.425.613,7.581,7.581,0,0,0-1.393.9,6.918,6.918,0,0,0-1.141,1.2,11.649,11.649,0,0,0-.854,1.295,11.473,11.473,0,0,0-1.012,2.423,9.783,9.783,0,0,0-.34,1.74c-.024.209-.03.371-.036.482a1.053,1.053,0,0,1-.015.169,1.045,1.045,0,0,1-.005-.169c0-.111,0-.274.017-.484a9.035,9.035,0,0,1,.31-1.756,11.214,11.214,0,0,1,1-2.449,11.383,11.383,0,0,1,.857-1.31,6.956,6.956,0,0,1,1.155-1.223,7.579,7.579,0,0,1,1.412-.912,10.789,10.789,0,0,1,1.44-.613,12.357,12.357,0,0,1,2.58-.584,9.1,9.1,0,0,1,1.782-.042,4.818,4.818,0,0,1,.482.058,1.072,1.072,0,0,1,.166.031" transform="translate(-41.761 -35.171)" fill="#263238"/>
          <path id="Path_74358" data-name="Path 74358" d="M110.589,36.556a.255.255,0,0,1-.037-.045l-.1-.136-.372-.528c-.082-.114-.166-.245-.269-.38l-.353-.428-.4-.492c-.147-.171-.318-.337-.49-.52s-.349-.375-.548-.562l-.632-.571c-.11-.1-.218-.2-.335-.3l-.364-.287c-.248-.191-.495-.4-.764-.592a24.434,24.434,0,0,0-3.7-2.186l-1.031-.466-1.024-.4c-.333-.138-.673-.236-1-.345s-.649-.221-.972-.3l-.936-.246c-.3-.08-.6-.128-.892-.19s-.565-.126-.837-.16l-.778-.113c-.494-.085-.948-.1-1.344-.142-.2-.016-.383-.037-.553-.045l-.466-.013-.645-.021-.168-.008a.259.259,0,0,1-.057-.006.237.237,0,0,1,.057,0l.168,0,.646,0,.467,0c.171,0,.356.024.555.037.4.034.853.046,1.349.127l.781.106c.273.032.55.1.841.155s.592.107.9.186l.94.242c.324.075.644.193.977.3s.673.206,1.007.344l1.029.4,1.035.468a24.013,24.013,0,0,1,3.713,2.2c.27.194.517.405.765.6l.364.29c.117.1.224.2.335.3l.63.578c.2.19.371.389.546.57s.341.353.486.526l.4.5.347.434c.1.138.184.271.263.387l.357.539.09.142a.241.241,0,0,1,.028.05" transform="translate(-56.579 -16.74)" fill="#263238"/>
          <path id="Path_74359" data-name="Path 74359" d="M119.633,115.444a.775.775,0,0,1-.086.117l-.26.324c-.113.141-.254.311-.427.5s-.361.414-.588.643-.468.489-.745.749-.575.536-.893.821a24.464,24.464,0,0,1-4.569,3.15c-.38.2-.738.387-1.085.543s-.667.305-.965.43-.571.228-.81.321-.448.165-.62.221l-.4.128a.739.739,0,0,1-.14.038.818.818,0,0,1,.134-.057l.389-.146c.169-.061.376-.138.613-.236s.51-.2.8-.334.618-.271.957-.44.7-.352,1.077-.549c.747-.41,1.55-.891,2.362-1.447s1.543-1.14,2.191-1.692c.318-.282.625-.546.9-.811s.526-.508.752-.738.423-.445.6-.631.321-.352.439-.489l.275-.312a.77.77,0,0,1,.1-.1" transform="translate(-66.8 -71.373)" fill="#263238"/>
          <path id="Path_74360" data-name="Path 74360" d="M107.328,150.261c-.028,0-.051-3.142-.051-7.017s.023-7.018.051-7.018.051,3.141.051,7.018-.023,7.017-.051,7.017" transform="translate(-66.324 -84.221)" fill="#263238"/>
          <path id="Path_74361" data-name="Path 74361" d="M108.457,198.965c-.028,0-.051-2.205-.051-4.924s.023-4.925.051-4.925.051,2.2.051,4.925-.023,4.924-.051,4.924" transform="translate(-67.022 -116.92)" fill="#263238"/>
          <path id="Path_74362" data-name="Path 74362" d="M137.616,75.082c-.2.394.534.712.955.839a5.332,5.332,0,0,0,3.006-.285,2.694,2.694,0,0,0,1.021-1.145,8.034,8.034,0,0,0,.518-1.465s-4.622.3-5.5,2.056" transform="translate(-85.06 -45.148)" fill="#e8505b"/>
          <g id="Group_7645" data-name="Group 7645" transform="translate(52.523 27.878)" opacity="0.4">
            <g id="Group_7644" data-name="Group 7644">
              <g id="Group_7643" data-name="Group 7643" clip-path="url(#clip-path-8)">
                <path id="Path_74363" data-name="Path 74363" d="M137.616,75.082c-.2.394.534.712.955.839a5.332,5.332,0,0,0,3.006-.285,2.694,2.694,0,0,0,1.021-1.145,8.034,8.034,0,0,0,.518-1.465s-4.622.3-5.5,2.056" transform="translate(-137.584 -73.026)"/>
              </g>
            </g>
          </g>
          <path id="Path_74364" data-name="Path 74364" d="M171.383,72.931a4.433,4.433,0,0,0,2.609.819,1.848,1.848,0,0,0,1.242-.391c.151-.137.263-.314.418-.447.105-.09.229-.158.328-.255a.418.418,0,0,0,.144-.371.773.773,0,0,0-.27-.432,3.381,3.381,0,0,0-1.774-.276,6.084,6.084,0,0,0-1.79.351,2.037,2.037,0,0,0-1.209.821" transform="translate(-105.77 -44.249)" fill="#e8505b"/>
          <g id="Group_7648" data-name="Group 7648" transform="translate(65.311 27.326)" opacity="0.4">
            <g id="Group_7647" data-name="Group 7647">
              <g id="Group_7646" data-name="Group 7646" clip-path="url(#clip-path-9)">
                <path id="Path_74365" data-name="Path 74365" d="M176.123,72.29a.818.818,0,0,0-.347-.393,3.121,3.121,0,0,0-1.7-.315,6.071,6.071,0,0,0-1.79.351,2.038,2.038,0,0,0-1.209.822l.3.181a4.43,4.43,0,0,0,2.609.819,1.85,1.85,0,0,0,1.242-.391c.151-.138.263-.314.419-.447.105-.09.229-.158.328-.255a.418.418,0,0,0,.144-.371" transform="translate(-171.08 -71.58)"/>
              </g>
            </g>
          </g>
          <path id="Path_74366" data-name="Path 74366" d="M140.235,65.9l9.752.128a.125.125,0,0,0,.121-.163l-1.144-3.568s.168-1.783.4-3.928c.354-3.256.824-7.35.83-7.339-.666-1.869-4.6-2.188-4.6-2.188l-4.486.267-.158-.263-1.291.6a5.989,5.989,0,0,0-.81.457c-.852.571-2.907,1.878-3.282,3.337a13.433,13.433,0,0,0,.6,7.138l.942-.736a6.611,6.611,0,0,1,.747-.5l1.89,5.064a.892.892,0,0,0-.41.65,1.006,1.006,0,0,0,.9,1.045" transform="translate(-83.645 -30.195)" fill="#e8505b"/>
          <g id="Group_7651" data-name="Group 7651" transform="translate(59.498 24.679)" opacity="0.3">
            <g id="Group_7650" data-name="Group 7650">
              <g id="Group_7649" data-name="Group 7649" clip-path="url(#clip-path-10)">
                <path id="Path_74367" data-name="Path 74367" d="M157.127,69.7a18.067,18.067,0,0,0-.019-5.054c-.541,1.377-.522,2.928-1.094,4.292a1.835,1.835,0,0,0-.153.452.5.5,0,0,0,.13.441c.156.142.388.066.6.04a2.266,2.266,0,0,0,.538-.171" transform="translate(-155.855 -64.646)"/>
              </g>
            </g>
          </g>
          <g id="Group_7654" data-name="Group 7654" transform="translate(57.047 32.345)" opacity="0.4">
            <g id="Group_7653" data-name="Group 7653">
              <g id="Group_7652" data-name="Group 7652" clip-path="url(#clip-path-11)">
                <path id="Path_74368" data-name="Path 74368" d="M149.565,85.963c.787.273,1.615-.234,2.444-.323a6.149,6.149,0,0,1,1.638.154,12.256,12.256,0,0,0,3.326.082,1.277,1.277,0,0,0,.489-.126.59.59,0,0,0,.256-.486c-1.842-.189-3.684-.3-5.525-.491a3.471,3.471,0,0,0-1.381.044,3.314,3.314,0,0,0-1.378,1.041" transform="translate(-149.434 -84.726)"/>
              </g>
            </g>
          </g>
          <path id="Path_74369" data-name="Path 74369" d="M174.2,60.817c-.8-1.792-3.6-6.754-3.6-6.754l-2.174,2.726.507,5.35s1.148-1.282,4.358-1.307a1.573,1.573,0,0,1,1.195.629Z" transform="translate(-104.124 -33.424)" fill="#e8505b"/>
          <path id="Path_74370" data-name="Path 74370" d="M148.335,65.441a7.418,7.418,0,0,1-.366-1.17,7.34,7.34,0,0,1-.268-1.2,14.8,14.8,0,0,1,.634,2.366" transform="translate(-91.313 -38.996)" fill="#263238"/>
          <path id="Path_74371" data-name="Path 74371" d="M167.987,60.253a1.305,1.305,0,0,1,.2.171,5.468,5.468,0,0,1,.484.532,5.142,5.142,0,0,1,1.038,2.124,3.981,3.981,0,0,1,.062,1.311c-.05.4-.127.752-.176,1.05s-.082.539-.1.707a1.78,1.78,0,0,1-.027.261,1.034,1.034,0,0,1-.012-.264,6.133,6.133,0,0,1,.066-.716c.04-.3.11-.656.154-1.05a4.04,4.04,0,0,0-.069-1.278,5.374,5.374,0,0,0-1-2.1c-.362-.482-.643-.733-.628-.747" transform="translate(-103.857 -37.251)" fill="#263238"/>
          <path id="Path_74372" data-name="Path 74372" d="M154.5,89.839a.928.928,0,0,1-.212.062,2.132,2.132,0,0,1-.255.049,3.372,3.372,0,0,1-.341.042,5.067,5.067,0,0,1-.9,0,5.327,5.327,0,0,1-2.086-.647,5.041,5.041,0,0,1-.741-.5c-.1-.077-.183-.16-.258-.228a2.011,2.011,0,0,1-.182-.185.893.893,0,0,1-.14-.171c.015-.014.224.221.624.527a5.637,5.637,0,0,0,.741.477,5.627,5.627,0,0,0,2.05.636,5.656,5.656,0,0,0,.881.027c.5-.026.809-.1.813-.081" transform="translate(-92.358 -54.561)" fill="#263238"/>
          <path id="Path_74373" data-name="Path 74373" d="M169.659,89.486a.683.683,0,0,1,.076.286,1.765,1.765,0,0,1-.053.713,1.243,1.243,0,0,1-.383.606c-.143.119-.253.157-.258.147s.086-.074.209-.2a1.389,1.389,0,0,0,.334-.583,3.768,3.768,0,0,0,.075-.969" transform="translate(-104.509 -55.324)" fill="#263238"/>
          <path id="Path_74374" data-name="Path 74374" d="M168.591,91.292a1.064,1.064,0,0,1-.419,1.08c-.022-.021.161-.216.274-.515s.114-.564.145-.565" transform="translate(-103.971 -56.441)" fill="#263238"/>
          <path id="Path_74375" data-name="Path 74375" d="M163.574,74.429a4,4,0,0,1-.348.5,4.113,4.113,0,0,1-.342.5,1.818,1.818,0,0,1,.69-1.006" transform="translate(-100.7 -46.014)" fill="#263238"/>
          <path id="Path_74376" data-name="Path 74376" d="M141.892,60.024a4.931,4.931,0,0,1-.433-.287,5.578,5.578,0,0,0-2.31-.862,5,5,0,0,1-.515-.067,1.8,1.8,0,0,1,.522,0,4.677,4.677,0,0,1,2.343.875,1.811,1.811,0,0,1,.392.346" transform="translate(-85.71 -36.347)" fill="#263238"/>
          <path id="Path_74377" data-name="Path 74377" d="M171.309,53.891a5.7,5.7,0,0,0-1.731,2.057,1.2,1.2,0,0,1,.136-.379,3.884,3.884,0,0,1,1.244-1.478,1.2,1.2,0,0,1,.351-.2" transform="translate(-104.84 -33.317)" fill="#263238"/>
          <path id="Path_74378" data-name="Path 74378" d="M154.408,49.671a.356.356,0,0,1,.044.09,1.665,1.665,0,0,1,.091.274,2.327,2.327,0,0,1,0,1.059,2.606,2.606,0,0,1-.8,1.348,2.7,2.7,0,0,1-1.8.641,3.043,3.043,0,0,1-1.817-.607,3.478,3.478,0,0,1-1-1.212,3.7,3.7,0,0,1-.333-1.006,2.612,2.612,0,0,1-.035-.286.378.378,0,0,1,0-.1c.01,0,.022.137.076.379a3.994,3.994,0,0,0,.358.981,3.486,3.486,0,0,0,.992,1.17,2.987,2.987,0,0,0,1.762.581,2.636,2.636,0,0,0,1.737-.61,2.567,2.567,0,0,0,.79-1.295,2.4,2.4,0,0,0,.035-1.034c-.048-.243-.108-.369-.1-.373" transform="translate(-91.965 -30.709)" fill="#263238"/>
          <g id="Group_7657" data-name="Group 7657" transform="translate(62.184 28.479)" opacity="0.3">
            <g id="Group_7656" data-name="Group 7656">
              <g id="Group_7655" data-name="Group 7655" clip-path="url(#clip-path-12)">
                <path id="Path_74379" data-name="Path 74379" d="M163.834,74.882c0-.1-.016-.213-.1-.262a.193.193,0,0,0-.178,0,.507.507,0,0,0-.142.117,2.4,2.4,0,0,0-.523.835l.959-.082c-.006-.2-.011-.408-.017-.611" transform="translate(-162.892 -74.6)"/>
              </g>
            </g>
          </g>
          <g id="Group_7660" data-name="Group 7660" transform="translate(65.615 25.258)" opacity="0.3">
            <g id="Group_7659" data-name="Group 7659">
              <g id="Group_7658" data-name="Group 7658" clip-path="url(#clip-path-13)">
                <path id="Path_74380" data-name="Path 74380" d="M172.572,67.649a3.141,3.141,0,0,0-.7-1.486,4.9,4.9,0,0,1,.042,3.044l.05-.129c.266-.542.676-.881.6-1.429" transform="translate(-171.877 -66.163)"/>
              </g>
            </g>
          </g>
          <path id="Path_74381" data-name="Path 74381" d="M160.582,188.535,160,197.31l-3.814-.045-.6-9.122Z" transform="translate(-96.188 -116.318)" fill="#ffbe9d"/>
          <path id="Path_74382" data-name="Path 74382" d="M160.64,208.982v.254s4.3,1.73,4.345,2.547l-8.541-.05.133-2.841a4.886,4.886,0,0,0,4.062.091" transform="translate(-96.721 -129.146)" fill="#e8505b"/>
          <path id="Path_74383" data-name="Path 74383" d="M158.639,211.261a.349.349,0,0,0-.244.4.335.335,0,0,0,.391.245.368.368,0,0,0,.256-.421.347.347,0,0,0-.435-.21" transform="translate(-97.923 -130.603)" fill="#fff"/>
          <path id="Path_74384" data-name="Path 74384" d="M156.445,215.227l.032-.683,8.174.3s.379.168.335.435Z" transform="translate(-96.721 -132.641)" fill="#263238"/>
          <path id="Path_74385" data-name="Path 74385" d="M166.248,209.793c0,.042-.21.06-.416.192s-.316.307-.355.291.025-.257.278-.414.5-.107.493-.069" transform="translate(-102.299 -129.679)" fill="#263238"/>
          <path id="Path_74386" data-name="Path 74386" d="M168.932,210.813c.009.04-.172.11-.315.286s-.184.362-.226.36-.067-.238.115-.453.425-.232.426-.193" transform="translate(-104.089 -130.324)" fill="#263238"/>
          <path id="Path_74387" data-name="Path 74387" d="M171.09,212.495c-.038.009-.095-.2.014-.428s.3-.318.321-.283-.1.156-.19.345-.1.362-.145.366" transform="translate(-105.746 -130.93)" fill="#263238"/>
          <path id="Path_74388" data-name="Path 74388" d="M152.961,17.969a1.386,1.386,0,0,0-.523-1.562,2.27,2.27,0,0,0-1.695-.333,6.747,6.747,0,0,0-1.671.577,1.886,1.886,0,0,0-3.2,1.046,1.2,1.2,0,0,0-1.421,1.574l2.644.929,2.888,5.08a2.31,2.31,0,0,0,3.4-3.072,1.979,1.979,0,0,0,.406-.5,2.025,2.025,0,0,0,.935-1.251,2.137,2.137,0,0,0-1.761-2.486" transform="translate(-89.263 -9.915)" fill="#263238"/>
          <path id="Path_74389" data-name="Path 74389" d="M151.7,31.6c-.164-.827-.279-1.393-.277-1.387a2.682,2.682,0,0,0,1.452-2.785,23,23,0,0,0-.85-4.176c-.345-1.248-1.508-2.623-2.74-2.226l-3.725,1.819c-.374.121-.44.472-.352.856l.006.187,1.45,6,.612,2.68A2.264,2.264,0,0,0,151.7,31.6" transform="translate(-89.755 -12.957)" fill="#ffbe9d"/>
          <path id="Path_74390" data-name="Path 74390" d="M162.184,30.449a.276.276,0,0,1-.2.328.264.264,0,0,1-.33-.186.276.276,0,0,1,.2-.327.264.264,0,0,1,.33.185" transform="translate(-99.935 -18.705)" fill="#263238"/>
          <path id="Path_74391" data-name="Path 74391" d="M160.9,29.367c-.026.042-.263-.066-.554,0s-.473.252-.512.223c-.019-.013,0-.083.081-.17a.754.754,0,0,1,.4-.222.727.727,0,0,1,.45.048c.1.05.148.107.134.126" transform="translate(-98.814 -18.039)" fill="#263238"/>
          <path id="Path_74392" data-name="Path 74392" d="M154.77,32.149a.276.276,0,0,1-.2.328.264.264,0,0,1-.329-.186.276.276,0,0,1,.2-.328.265.265,0,0,1,.33.186" transform="translate(-95.352 -19.755)" fill="#263238"/>
          <path id="Path_74393" data-name="Path 74393" d="M153.535,31.174c-.026.042-.263-.066-.554,0s-.473.252-.512.223c-.019-.013,0-.083.081-.17a.757.757,0,0,1,.4-.222.727.727,0,0,1,.45.048c.1.05.147.107.134.126" transform="translate(-94.26 -19.156)" fill="#263238"/>
          <path id="Path_74394" data-name="Path 74394" d="M158.088,32.42a1.952,1.952,0,0,1,.455-.184c.073-.023.14-.053.142-.106a.387.387,0,0,0-.1-.21l-.338-.52a9.9,9.9,0,0,1-.8-1.376,9.952,9.952,0,0,1,.912,1.308l.33.525a.44.44,0,0,1,.1.283.191.191,0,0,1-.1.134.521.521,0,0,1-.123.044,1.921,1.921,0,0,1-.479.1" transform="translate(-97.34 -18.562)" fill="#263238"/>
          <path id="Path_74395" data-name="Path 74395" d="M156.721,44.945a5.477,5.477,0,0,1-2.98-.161,2.783,2.783,0,0,0,3.092.7Z" transform="translate(-95.05 -27.688)" fill="#eb996e"/>
          <path id="Path_74396" data-name="Path 74396" d="M153.261,30.134c-.019.083-.318.082-.66.166s-.609.212-.664.145c-.025-.032.014-.113.118-.2a1.138,1.138,0,0,1,.477-.235,1.121,1.121,0,0,1,.532,0c.133.036.205.09.2.131" transform="translate(-93.93 -18.53)" fill="#263238"/>
          <path id="Path_74397" data-name="Path 74397" d="M160.433,26.93c-.047.079-.3.06-.584.116s-.517.155-.587.1c-.032-.028-.007-.1.085-.187a.995.995,0,0,1,.943-.173c.115.047.162.108.142.146" transform="translate(-98.455 -16.527)" fill="#263238"/>
          <path id="Path_74398" data-name="Path 74398" d="M148.405,20.633a1.473,1.473,0,0,0,2,1.071c.31-.126.629-.362.944-.248.331.119.435.559.742.731.439.245.967-.18,1.467-.138a2,2,0,0,1,.99.576,1.025,1.025,0,0,0,1.065.263,4.361,4.361,0,0,0-.346-.942,1.469,1.469,0,0,0-.717-.678c-.171-.067-.359-.09-.522-.174-.353-.182-.512-.592-.769-.894a1.615,1.615,0,0,0-1.37-.549,8.865,8.865,0,0,1-1.251.239c-.315-.013-.616-.153-.931-.148a1.946,1.946,0,0,0-1.413,1.057" transform="translate(-91.681 -12.144)" fill="#263238"/>
          <path id="Path_74399" data-name="Path 74399" d="M145.728,22.049a2.024,2.024,0,0,1-1.046-.279,1.649,1.649,0,0,0-1.573-.516,1.362,1.362,0,0,0-.982,1.3,1.959,1.959,0,0,0-1.428,1.4,2.27,2.27,0,0,0,.489,2.055,4.067,4.067,0,0,1,.321.465,3.3,3.3,0,0,0-.348.528c-.447.99.766,1.369.766,1.369,0,.665.617.662,1.01.66.378,0,.611,1.047.917,1.006l-.311-3.24a.4.4,0,0,0,.143.026c.742.013.548-1.39.308-1.753a4.208,4.208,0,0,0,.556-.895,3.035,3.035,0,0,0,.029-1.5,3.5,3.5,0,0,0,1.149-.632" transform="translate(-86.942 -13.113)" fill="#263238"/>
          <path id="Path_74400" data-name="Path 74400" d="M146.551,35.525a.628.628,0,0,0-1.009-.337.862.862,0,0,0-.181.922.976.976,0,0,0,1.508.646c0-.023-.183-.711-.318-1.231" transform="translate(-89.839 -21.664)" fill="#ffbe9d"/>
          <path id="Path_74401" data-name="Path 74401" d="M146.929,37.011c-.006,0-.018.021-.051.047a.228.228,0,0,1-.163.044c-.145-.015-.31-.2-.373-.424a.745.745,0,0,1-.018-.329.261.261,0,0,1,.123-.21.115.115,0,0,1,.144.027c.026.031.024.058.031.059s.022-.028,0-.077a.144.144,0,0,0-.069-.066.172.172,0,0,0-.129,0,.318.318,0,0,0-.18.253.765.765,0,0,0,.012.37c.072.252.261.457.457.463a.241.241,0,0,0,.192-.084c.031-.041.031-.071.026-.072" transform="translate(-90.403 -22.299)" fill="#eb996e"/>
          <path id="Path_74402" data-name="Path 74402" d="M156.453,25.575c-.008-.01.114-.088.274-.284a1.847,1.847,0,0,0,.393-.978,1.8,1.8,0,0,0-.07-.725,1.555,1.555,0,0,0-.447-.695,1.838,1.838,0,0,0-1.8-.35c-.059.019-.113.048-.169.071s-.1.06-.154.087l-.077.044v-.086a.634.634,0,0,0-.158-.411,1.01,1.01,0,0,0-.361-.258,1.338,1.338,0,0,0-.84-.061c-.54.123-1,.37-1.43.419a1.381,1.381,0,0,1-.975-.2.8.8,0,0,1-.192-.2.343.343,0,0,1-.043-.084,1.125,1.125,0,0,0,.256.249,1.379,1.379,0,0,0,.945.158,3.373,3.373,0,0,0,.657-.19,5.98,5.98,0,0,1,.764-.25,1.692,1.692,0,0,1,.442-.044,1.358,1.358,0,0,1,.456.1,1.106,1.106,0,0,1,.4.283.735.735,0,0,1,.184.476l-.079-.042c.053-.031.107-.064.164-.094s.118-.056.18-.076a1.922,1.922,0,0,1,1.9.376,1.633,1.633,0,0,1,.465.74,1.9,1.9,0,0,1-.373,1.754,1.279,1.279,0,0,1-.218.2.379.379,0,0,1-.087.057" transform="translate(-92.986 -13.473)" fill="#455a64"/>
          <path id="Path_74403" data-name="Path 74403" d="M156.447,18.921a1.4,1.4,0,0,0-.405-.139,1.072,1.072,0,0,0-.481.044.951.951,0,0,0-.5.36l-.048.069-.03-.078a1.471,1.471,0,0,0-1.193-.886,1.9,1.9,0,0,0-1.147.331,5.088,5.088,0,0,1-.91.471,1.431,1.431,0,0,1-.688.081.86.86,0,0,1-.182-.05c-.039-.017-.059-.028-.058-.031s.087.026.246.042a1.5,1.5,0,0,0,.659-.109,5.481,5.481,0,0,0,.886-.484,3.09,3.09,0,0,1,.549-.268,1.487,1.487,0,0,1,.657-.084,1.544,1.544,0,0,1,1.265.956l-.077-.009a1.012,1.012,0,0,1,.547-.38,1.082,1.082,0,0,1,.511-.025.93.93,0,0,1,.307.117.329.329,0,0,1,.09.073" transform="translate(-93.237 -11.241)" fill="#455a64"/>
          <path id="Path_74404" data-name="Path 74404" d="M157.665,37.648a.425.425,0,0,0-.344-.1.5.5,0,0,0-.33.241l0,.007c0,.006-.008.011-.011.016l0,0a.239.239,0,0,0-.037.148.356.356,0,0,0,.2.265.449.449,0,0,0,.512-.074.367.367,0,0,0,0-.5" transform="translate(-97.029 -23.212)" fill="#e8505b"/>
          <path id="Path_74405" data-name="Path 74405" d="M157.659,38.554c-.015,0-.034-.058-.086-.14a.613.613,0,0,0-.635-.289c-.1.015-.154.04-.162.027s.041-.061.145-.1a.578.578,0,0,1,.717.326c.041.1.034.171.022.173" transform="translate(-96.925 -23.51)" fill="#263238"/>
          <path id="Path_74406" data-name="Path 74406" d="M147.4,39.564c.01-.006.056.1-.018.247a.4.4,0,0,1-.208.189.405.405,0,0,1-.531-.335.4.4,0,0,1,.08-.269c.1-.131.216-.134.215-.123s-.086.044-.155.162a.352.352,0,0,0-.046.219.326.326,0,0,0,.406.256.353.353,0,0,0,.178-.137c.076-.113.063-.209.079-.21" transform="translate(-90.663 -24.277)" fill="#e8505b"/>
          <path id="Path_74407" data-name="Path 74407" d="M146.18,39.254c.011,0-.006.067-.091.108a.248.248,0,0,1-.163.016.252.252,0,0,1-.16-.127.254.254,0,0,1-.019-.2.249.249,0,0,1,.1-.128c.081-.048.142-.029.14-.017s-.048.025-.1.074a.186.186,0,0,0,.171.317c.068-.014.1-.05.115-.04" transform="translate(-90.1 -24.043)" fill="#e8505b"/>
          <path id="Path_74408" data-name="Path 74408" d="M152.515,76.97s4.843.281,7.706.307c2.218.02,3.206-.569,3.649-1.994.372-1.2-.428-3.49-.428-3.49a7.411,7.411,0,0,0-3.39.667l.257,1.049-7.809.673Z" transform="translate(-94.283 -44.386)" fill="#ffbe9d"/>
          <path id="Path_74409" data-name="Path 74409" d="M174.51,77.359a2.825,2.825,0,0,0-1.674-1.141.694.694,0,0,1,.31.027,2.075,2.075,0,0,1,1.225.835.694.694,0,0,1,.139.279" transform="translate(-106.856 -47.116)" fill="#eb996e"/>
          <path id="Path_74410" data-name="Path 74410" d="M143.684,62.662h0a9.363,9.363,0,0,0-2.6,1.095l1.17,3.182a1.8,1.8,0,0,0,2.536,1.015c1.473-.842,1.992-3.3,1.992-3.3l1.619-7.018-2.682-1.68Z" transform="translate(-87.226 -34.595)" fill="#ffbe9d"/>
          <path id="Path_74411" data-name="Path 74411" d="M152.394,47.737l.108-2.308-.6-2.338c-.033-.13-.05-.291.055-.37a.285.285,0,0,1,.362.011,22.762,22.762,0,0,1,.946,2.221,12.032,12.032,0,0,1,1.4-.748c.212-.035.476.6.492.654a3.687,3.687,0,0,1,0,.429s.734.022.8.123a2.521,2.521,0,0,1,.084.623s.31.1.361.335.15.622,0,.707-.455.255-.455.255-.124,1.2-.157,1.307a7.44,7.44,0,0,1-.72.78Z" transform="translate(-93.898 -26.376)" fill="#ffbe9d"/>
          <path id="Path_74412" data-name="Path 74412" d="M146.695,59.717c0-.006.073.042.225.091a1.531,1.531,0,0,0,.691.055,1.929,1.929,0,0,0,1-.462,4.638,4.638,0,0,0,.931-1.178,5.284,5.284,0,0,0,.362-.808,8.244,8.244,0,0,0,.251-.938c.153-.659.319-1.369.495-2.123.353-1.509.747-3.2,1.173-5.013l0-.013.01-.01c.134-.132.27-.268.4-.408.067-.07.134-.141.2-.214a1.243,1.243,0,0,0,.089-.11c.023-.024.024-.071.033-.121.053-.391.094-.8.138-1.2l0-.026.023-.013.373-.209c.028-.017.07-.037.088-.051a.11.11,0,0,0,.035-.066.619.619,0,0,0,0-.2,3.03,3.03,0,0,0-.087-.425.523.523,0,0,0-.312-.251L152.79,46l0-.034c0-.113-.013-.23-.025-.346-.007-.058-.014-.116-.026-.172a.365.365,0,0,0-.023-.073c-.006-.013,0,0-.012-.011a.23.23,0,0,0-.033-.014,3.429,3.429,0,0,0-.717-.081l-.051,0,0-.05c0-.121.009-.255,0-.382a.392.392,0,0,0-.045-.131c-.021-.047-.044-.094-.067-.14a1.644,1.644,0,0,0-.16-.258.421.421,0,0,0-.1-.1.1.1,0,0,0-.1-.012,2.455,2.455,0,0,0-.276.126c-.365.19-.72.4-1.068.6l-.051.03-.022-.055-.548-1.372-.268-.671a.278.278,0,0,0-.215-.2.217.217,0,0,0-.254.093.228.228,0,0,0-.03.139c.006.044.027.11.04.163l.089.337.175.665.339,1.291,0,.007v.007c-.039.8-.076,1.574-.112,2.308v.006l0,0-1.782,5.8-.5,1.614-.136.423c-.031.1-.05.144-.05.144s.011-.051.038-.148l.123-.427.481-1.621,1.748-5.81,0,.01q.05-1.1.1-2.308l0,.014-.342-1.291-.176-.665-.089-.337c-.014-.06-.032-.1-.043-.177a.328.328,0,0,1,.042-.2.3.3,0,0,1,.158-.133.381.381,0,0,1,.2-.006.407.407,0,0,1,.179.091.4.4,0,0,1,.105.169l.269.671.549,1.371-.073-.025c.349-.208.7-.415,1.073-.608a2.532,2.532,0,0,1,.291-.132.226.226,0,0,1,.1-.014.218.218,0,0,1,.093.037.529.529,0,0,1,.124.12,1.739,1.739,0,0,1,.171.275c.024.048.048.1.069.145a.472.472,0,0,1,.055.166c.006.139,0,.269,0,.393l-.049-.052a3.439,3.439,0,0,1,.747.086.292.292,0,0,1,.05.022.125.125,0,0,1,.05.051.416.416,0,0,1,.032.1c.013.062.021.122.027.182.013.12.021.237.026.354l-.035-.047a.617.617,0,0,1,.374.309,2.979,2.979,0,0,1,.094.453.712.712,0,0,1,0,.237.206.206,0,0,1-.071.121.95.95,0,0,1-.1.059l-.375.21.026-.039c-.044.409-.086.811-.14,1.208l-.012.076a.2.2,0,0,1-.036.085,1.37,1.37,0,0,1-.1.12c-.066.075-.133.146-.2.217-.135.141-.271.277-.407.41l.013-.024-1.187,5.01-.5,2.121a8.3,8.3,0,0,1-.259.943,5.3,5.3,0,0,1-.372.815,4.65,4.65,0,0,1-.952,1.184,1.949,1.949,0,0,1-1.028.458,1.5,1.5,0,0,1-.7-.071,1,1,0,0,1-.166-.075.33.33,0,0,1-.053-.031" transform="translate(-90.693 -26.31)" fill="#eb996e"/>
          <path id="Path_74413" data-name="Path 74413" d="M158.832,49.442c0,.015-.066.022-.169.027a1.954,1.954,0,0,0-.39.046.77.77,0,0,0-.332.178c-.071.067-.1.123-.117.117s0-.075.064-.165a.655.655,0,0,1,.36-.228,1.132,1.132,0,0,1,.418-.019c.1.014.168.032.167.045" transform="translate(-97.571 -30.533)" fill="#eb996e"/>
          <path id="Path_74414" data-name="Path 74414" d="M158.935,49.208c-.026-.01-.028-.07,0-.135s.065-.109.092-.1.028.07,0,.135-.065.109-.092.1" transform="translate(-98.248 -30.277)" fill="#eb996e"/>
          <path id="Path_74415" data-name="Path 74415" d="M161.274,51.4a1.838,1.838,0,0,1-.581.08.4.4,0,0,0-.323.156c-.052.08-.034.146-.049.15s-.063-.066-.015-.183a.32.32,0,0,1,.14-.155.621.621,0,0,1,.235-.069,1.643,1.643,0,0,1,.593.021" transform="translate(-99.096 -31.759)" fill="#eb996e"/>
          <path id="Path_74416" data-name="Path 74416" d="M162.422,53.293c.028,0,.044.146.036.323s-.037.32-.065.318-.044-.146-.036-.323.037-.32.065-.318" transform="translate(-100.375 -32.948)" fill="#eb996e"/>
          <path id="Path_74417" data-name="Path 74417" d="M164.662,65.272l.174-.6a.164.164,0,0,1,.274-.069l.227.232.142-.564a.164.164,0,0,1,.307-.031l.32.668Z" transform="translate(-101.802 -39.658)" fill="#fff"/>
          <path id="Path_74418" data-name="Path 74418" d="M166.173,66.8a5.159,5.159,0,0,1-1.406.348,5.2,5.2,0,0,1,1.406-.348" transform="translate(-101.866 -41.296)" fill="#fff"/>
          <path id="Path_74419" data-name="Path 74419" d="M137.13,58.053s-.073.075-.174.232a1.985,1.985,0,0,0-.265.739,5.308,5.308,0,0,0-.035,1.172c.021.442.057.929.111,1.437a25.307,25.307,0,0,0,.413,2.586c.069.328.132.592.176.775l.05.21c.011.048.015.074.015.074s-.009-.024-.023-.072L137.34,65c-.048-.181-.115-.445-.188-.772a23.011,23.011,0,0,1-.425-2.588c-.054-.509-.089-1-.108-1.44a5.256,5.256,0,0,1,.044-1.178,1.947,1.947,0,0,1,.281-.743,1.165,1.165,0,0,1,.187-.224" transform="translate(-84.456 -35.891)" fill="#fff"/>
          <path id="Path_74420" data-name="Path 74420" d="M142.1,51.087a.247.247,0,0,1-.044.024l-.129.061c-.112.053-.274.132-.468.239a17,17,0,0,0-1.47.918c-.559.384-1.054.747-1.415,1.006l-.429.3-.118.081a.221.221,0,0,1-.043.026.236.236,0,0,1,.038-.032l.114-.087.421-.315c.357-.264.85-.631,1.409-1.016a14.724,14.724,0,0,1,1.48-.91c.2-.1.36-.179.475-.229l.132-.055a.267.267,0,0,1,.047-.016" transform="translate(-85.305 -31.584)" fill="#fff"/>
          <path id="Path_74421" data-name="Path 74421" d="M167.324,51.846a.151.151,0,0,1-.033-.025l-.088-.076a3.581,3.581,0,0,0-.343-.255,6.965,6.965,0,0,0-1.257-.636,12.8,12.8,0,0,0-1.341-.446c-.174-.048-.316-.084-.415-.108l-.113-.029a.021.021,0,1,1,0-.008l.115.021c.1.019.243.051.419.1a10.831,10.831,0,0,1,1.349.436,6.4,6.4,0,0,1,1.259.651,2.479,2.479,0,0,1,.447.38" transform="translate(-101.204 -31.071)" fill="#fff"/>
          <path id="Path_74422" data-name="Path 74422" d="M147.736,90.828a.277.277,0,0,1-.076-.026,1.267,1.267,0,0,1-.194-.1.944.944,0,0,1-.426-.576,1.128,1.128,0,0,1,.076-.716.975.975,0,0,1,.113-.189.253.253,0,0,1,.055-.06,2.283,2.283,0,0,0-.141.26,1.158,1.158,0,0,0-.063.7.953.953,0,0,0,.4.562c.15.1.258.147.254.154" transform="translate(-90.89 -55.121)" fill="#fff"/>
          <path id="Path_74423" data-name="Path 74423" d="M147.273,87.986a.888.888,0,0,1,.093.245.858.858,0,0,1,.053.257.879.879,0,0,1-.093-.246.864.864,0,0,1-.054-.257" transform="translate(-91.049 -54.397)" fill="#fff"/>
          <path id="Path_74424" data-name="Path 74424" d="M146.336,135.269l5.967-.03-.108-20.63-.056-20.984-8.081-.1L142.6,96.265a9.829,9.829,0,0,0-1.118,3.55,21.566,21.566,0,0,0,.857,4.826l2.224,7.054Z" transform="translate(-87.468 -57.822)" fill="#263238"/>
          <path id="Path_74425" data-name="Path 74425" d="M164.041,93.825,170.6,111.7a8.244,8.244,0,0,1-.808,6.983l-7.612,14.858-4.28-5.354,6.369-13.311-5.615-9.1.945-11.934,2.645-.043Z" transform="translate(-97.619 -57.992)" fill="#263238"/>
          <path id="Path_74426" data-name="Path 74426" d="M167.976,109.548s0,.031.009.092.01.155.017.27c.013.242.031.59.055,1.036.044.9.107,2.206.184,3.812s.162,3.527.26,5.654c.048,1.064.1,2.181.15,3.339.037.579.02,1.169.027,1.768s0,1.206.006,1.82c.008,4.916.016,9.366.021,12.593,0,1.608,0,2.91-.005,3.816,0,.447,0,.8-.006,1.037,0,.115,0,.2,0,.27s0,.092,0,.092,0-.031-.006-.092,0-.155-.006-.27c0-.242-.007-.591-.013-1.037-.006-.906-.016-2.208-.027-3.816-.013-3.226-.031-7.675-.051-12.591q0-.922,0-1.82c-.006-.6.011-1.189-.026-1.767-.05-1.158-.1-2.274-.144-3.339-.09-2.127-.17-4.043-.238-5.654s-.116-2.908-.152-3.813c-.016-.447-.028-.795-.036-1.037,0-.115-.005-.2-.007-.27s0-.092,0-.092" transform="translate(-103.849 -67.728)" fill="#455a64"/>
          <path id="Path_74427" data-name="Path 74427" d="M167.579,94.787a.75.75,0,0,1,.041.194c.02.126.045.308.071.535.052.452.107,1.08.139,1.774s.033,1.324.021,1.78c-.005.228-.013.412-.022.539a.721.721,0,0,1-.024.2,6.036,6.036,0,0,1-.026-.736c-.007-.454-.021-1.082-.052-1.775s-.075-1.319-.109-1.772a6.08,6.08,0,0,1-.04-.736" transform="translate(-103.602 -58.602)" fill="#455a64"/>
          <path id="Path_74428" data-name="Path 74428" d="M163.793,95.757a.479.479,0,0,0-.132.223.254.254,0,0,0,.076.239.261.261,0,0,0,.445-.2.253.253,0,0,0-.131-.213.473.473,0,0,0-.255-.045c0-.005.019-.026.069-.041a.334.334,0,0,1,.41.294.35.35,0,0,1-.6.276.334.334,0,0,1,.045-.5c.044-.029.074-.031.076-.026" transform="translate(-101.131 -59.17)" fill="#455a64"/>
          <path id="Path_74429" data-name="Path 74429" d="M150.87,94.913a.586.586,0,0,1,.053.187,1.877,1.877,0,0,1,.018.532,2.138,2.138,0,0,1-.226.758,2,2,0,0,1-1.528,1.1,2.139,2.139,0,0,1-.79-.029,1.848,1.848,0,0,1-.5-.186.6.6,0,0,1-.16-.111,3.392,3.392,0,0,0,.673.226,2.053,2.053,0,0,0,2.459-1.765,3.4,3.4,0,0,0,0-.71" transform="translate(-91.338 -58.679)" fill="#455a64"/>
          <path id="Path_74430" data-name="Path 74430" d="M173.479,96.6a.791.791,0,0,1-.376-.044,1.746,1.746,0,0,1-1.186-1.307.8.8,0,0,1-.008-.378c.018,0,.019.144.078.362a1.892,1.892,0,0,0,1.139,1.255c.211.08.355.095.353.113" transform="translate(-106.272 -58.652)" fill="#455a64"/>
          <path id="Path_74431" data-name="Path 74431" d="M178.173,148.922a1.236,1.236,0,0,1-.346.275,1.607,1.607,0,0,1-.445.194,1.07,1.07,0,0,1-.6-.016,1.746,1.746,0,0,1-.836-.665,1.566,1.566,0,0,1-.229-.376,2.429,2.429,0,0,1,.286.332,1.854,1.854,0,0,0,.81.612,1.256,1.256,0,0,0,.979-.144,4.153,4.153,0,0,1,.381-.213" transform="translate(-108.636 -91.707)" fill="#455a64"/>
          <path id="Path_74432" data-name="Path 74432" d="M176.372,150.242a9.7,9.7,0,0,1-1.152-1.62,4.84,4.84,0,0,1,.618.78,4.9,4.9,0,0,1,.534.839" transform="translate(-108.328 -91.885)" fill="#455a64"/>
          <path id="Path_74433" data-name="Path 74433" d="M151.614,110.488c-.026.01-.1-.1-.155-.252s-.087-.279-.061-.289.1.1.155.252.087.279.061.289" transform="translate(-93.594 -67.974)" fill="#fafafa"/>
          <path id="Path_74434" data-name="Path 74434" d="M161.82,112.082c-.028,0-.051-.1-.051-.216s.023-.216.051-.216.051.1.051.216-.023.216-.051.216" transform="translate(-100.013 -69.026)" fill="#fafafa"/>
          <path id="Path_74435" data-name="Path 74435" d="M157.707,117.294c-.028,0-.059-.118-.069-.267s0-.272.033-.274.058.118.069.267,0,.272-.033.274" transform="translate(-97.457 -72.182)" fill="#fafafa"/>
          <path id="Path_74436" data-name="Path 74436" d="M149.731,121.651c-.023.017-.1-.055-.209-.13s-.2-.131-.188-.158.129-.011.248.076.171.2.149.213" transform="translate(-92.325 -75.025)" fill="#fafafa"/>
          <path id="Path_74437" data-name="Path 74437" d="M163.5,126.616c-.023-.016.006-.1.066-.19s.128-.15.151-.134-.006.1-.066.19-.127.15-.15.134" transform="translate(-101.075 -78.078)" fill="#fafafa"/>
          <path id="Path_74438" data-name="Path 74438" d="M155.3,127.395c-.028,0-.051-.161-.051-.361s.023-.361.051-.361.051.161.051.361-.023.361-.051.361" transform="translate(-95.982 -78.315)" fill="#fafafa"/>
          <path id="Path_74439" data-name="Path 74439" d="M152.1,133.835c-.016.023-.119-.023-.228-.1s-.185-.163-.169-.185.119.023.229.1.185.163.168.186" transform="translate(-93.789 -82.561)" fill="#fafafa"/>
          <path id="Path_74440" data-name="Path 74440" d="M160.429,136.289c.011.026-.052.079-.142.119s-.171.051-.183.026.052-.079.142-.119.171-.051.183-.026" transform="translate(-98.983 -84.252)" fill="#fafafa"/>
          <path id="Path_74441" data-name="Path 74441" d="M154.788,144.5c-.025.013-.126-.139-.226-.338s-.16-.371-.135-.384.126.139.226.338.16.371.135.384" transform="translate(-95.471 -88.888)" fill="#fafafa"/>
          <path id="Path_74442" data-name="Path 74442" d="M164.442,143.938c-.025-.013.019-.145.1-.294s.165-.26.189-.247-.02.145-.1.294-.165.26-.189.247" transform="translate(-101.661 -88.654)" fill="#fafafa"/>
          <path id="Path_74443" data-name="Path 74443" d="M160.3,151.642c-.029,0-.027-.159-.056-.342s-.078-.33-.052-.343.121.125.152.327-.018.363-.044.358" transform="translate(-99.031 -93.328)" fill="#fafafa"/>
          <path id="Path_74444" data-name="Path 74444" d="M155.641,156.642c-.021.019-.118-.055-.218-.164s-.163-.214-.143-.232.118.054.218.164.163.213.143.232" transform="translate(-95.999 -96.596)" fill="#fafafa"/>
          <path id="Path_74445" data-name="Path 74445" d="M166.546,158.357c-.02-.02.052-.125.161-.236s.213-.184.233-.164-.052.125-.16.236-.213.184-.233.164" transform="translate(-102.965 -97.655)" fill="#fafafa"/>
          <path id="Path_74446" data-name="Path 74446" d="M160.583,164.745c-.028,0-.028-.153,0-.333s.072-.322.1-.318.028.153,0,.333-.072.322-.1.318" transform="translate(-99.266 -101.45)" fill="#fafafa"/>
          <path id="Path_74447" data-name="Path 74447" d="M156.136,168.278c-.024.014-.11-.087-.191-.225s-.127-.263-.1-.277.11.087.191.225.128.263.1.277" transform="translate(-96.344 -103.726)" fill="#fafafa"/>
          <path id="Path_74448" data-name="Path 74448" d="M165.424,173.244c.016.023-.083.122-.223.222s-.266.162-.282.139.083-.122.223-.222.266-.162.282-.139" transform="translate(-101.959 -107.105)" fill="#fafafa"/>
          <path id="Path_74449" data-name="Path 74449" d="M158.214,177.477c-.027-.01.008-.168.024-.362s.011-.355.04-.36.081.16.061.37-.1.363-.126.353" transform="translate(-97.809 -109.278)" fill="#fafafa"/>
          <path id="Path_74450" data-name="Path 74450" d="M160.953,185.8c-.022.018-.1-.049-.184-.148s-.127-.195-.1-.212.1.049.184.148.126.195.1.212" transform="translate(-99.326 -114.647)" fill="#fafafa"/>
          <path id="Path_74451" data-name="Path 74451" d="M157.283,190.652c-.023.016-.131-.1-.241-.26s-.179-.3-.156-.318.131.1.24.26.18.3.157.317" transform="translate(-96.992 -117.512)" fill="#fafafa"/>
          <path id="Path_74452" data-name="Path 74452" d="M167.542,184.6c-.026-.01-.023-.082.007-.162s.075-.136.1-.126.024.082-.006.162-.076.136-.1.126" transform="translate(-103.571 -113.949)" fill="#fafafa"/>
          <path id="Path_74453" data-name="Path 74453" d="M163.307,196.4c-.026-.013.023-.153.061-.327s.054-.321.083-.322.059.155.016.344-.137.319-.161.305" transform="translate(-100.96 -121.02)" fill="#fafafa"/>
          <path id="Path_74454" data-name="Path 74454" d="M165.765,117.612c-.026.012-.087-.067-.139-.176s-.072-.207-.046-.219.087.067.139.176.072.207.046.219" transform="translate(-102.363 -72.468)" fill="#fafafa"/>
          <path id="Path_74455" data-name="Path 74455" d="M158.088,102.287c.016.025-.122.135-.268.291s-.248.3-.273.286.042-.189.2-.355.329-.245.342-.222" transform="translate(-97.4 -63.236)" fill="#fafafa"/>
          <path id="Path_74456" data-name="Path 74456" d="M164.887,101.283c-.028.006-.074-.11-.142-.245s-.132-.241-.11-.26.128.066.2.215.078.286.051.29" transform="translate(-101.782 -62.304)" fill="#fafafa"/>
          <path id="Path_74457" data-name="Path 74457" d="M145.563,106.433c-.026-.01,0-.14.06-.29s.128-.263.154-.252,0,.14-.06.29-.128.263-.155.252" transform="translate(-89.987 -65.466)" fill="#fafafa"/>
          <path id="Path_74458" data-name="Path 74458" d="M145.511,114.46c-.018.022-.129-.042-.249-.141s-.2-.2-.184-.22.129.042.249.141.2.2.184.22" transform="translate(-89.692 -70.539)" fill="#fafafa"/>
          <path id="Path_74459" data-name="Path 74459" d="M158.9,95.566c-.026.01-.079-.062-.119-.161s-.051-.189-.025-.2.08.062.119.161.051.189.025.2" transform="translate(-98.144 -58.86)" fill="#fafafa"/>
          <path id="Path_74460" data-name="Path 74460" d="M171.525,99.117c-.027-.006-.025-.124.005-.263s.078-.247.105-.242.025.124-.006.263-.077.247-.1.241" transform="translate(-106.033 -60.967)" fill="#fafafa"/>
          <path id="Path_74461" data-name="Path 74461" d="M174.455,104.8c-.026-.011.01-.157.079-.326s.147-.3.173-.287-.009.157-.079.326-.147.3-.173.287" transform="translate(-107.851 -64.41)" fill="#fafafa"/>
          <path id="Path_74462" data-name="Path 74462" d="M171.854,109.462c-.025.013-.118-.123-.208-.3s-.142-.335-.116-.347.118.123.208.3.142.335.117.347" transform="translate(-106.044 -67.272)" fill="#fafafa"/>
          <path id="Path_74463" data-name="Path 74463" d="M176.812,114.48c-.026-.01-.007-.123.043-.253s.111-.226.137-.216.007.123-.042.253-.111.226-.138.216" transform="translate(-109.306 -70.486)" fill="#fafafa"/>
          <path id="Path_74464" data-name="Path 74464" d="M172.555,119.4c-.024.015-.084-.037-.133-.117s-.071-.157-.047-.171.083.038.133.117.071.157.047.171" transform="translate(-106.564 -73.638)" fill="#fafafa"/>
          <path id="Path_74465" data-name="Path 74465" d="M172.946,128.6c-.021.019-.142-.078-.272-.218s-.218-.268-.2-.287.142.078.272.218.218.268.2.287" transform="translate(-106.631 -79.19)" fill="#fafafa"/>
          <path id="Path_74466" data-name="Path 74466" d="M178.261,123.112c-.022.018-.129-.082-.239-.221s-.18-.266-.158-.284.129.082.238.221.181.266.158.284" transform="translate(-109.961 -75.8)" fill="#fafafa"/>
          <path id="Path_74467" data-name="Path 74467" d="M181.751,130.508c-.026-.012.019-.159.1-.328s.166-.3.191-.284-.019.159-.1.328-.166.3-.191.284" transform="translate(-112.362 -80.307)" fill="#fafafa"/>
          <path id="Path_74468" data-name="Path 74468" d="M174.936,137.018c-.025.015-.116-.094-.242-.209s-.241-.2-.227-.224.159.022.3.149.2.271.173.284" transform="translate(-107.863 -84.439)" fill="#fafafa"/>
          <path id="Path_74469" data-name="Path 74469" d="M175.374,144.072c0,.028-.1.051-.216.051s-.216-.023-.216-.051.1-.051.216-.051.216.023.216.051" transform="translate(-108.156 -89.04)" fill="#fafafa"/>
          <path id="Path_74470" data-name="Path 74470" d="M182.3,141.424c-.025-.015.026-.137.063-.291s.052-.284.081-.286.061.14.018.311-.139.281-.162.266" transform="translate(-112.703 -87.078)" fill="#fafafa"/>
          <path id="Path_74471" data-name="Path 74471" d="M188.125,143.466c-.027.009-.1-.128-.161-.306s-.092-.33-.065-.34.1.128.161.306.092.331.065.34" transform="translate(-116.162 -88.298)" fill="#fafafa"/>
          <path id="Path_74472" data-name="Path 74472" d="M187.512,152.214c-.025-.013.036-.177.135-.366s.2-.333.225-.32-.036.177-.135.367-.2.332-.225.319" transform="translate(-115.925 -93.681)" fill="#fafafa"/>
          <path id="Path_74473" data-name="Path 74473" d="M181.424,157.461c-.026.011-.107-.125-.179-.3s-.111-.331-.085-.342.106.125.179.3.111.331.085.342" transform="translate(-111.996 -96.951)" fill="#fafafa"/>
          <path id="Path_74474" data-name="Path 74474" d="M175.019,160.419c0,.028-.081.051-.18.051s-.181-.023-.181-.051.081-.051.181-.051.18.023.18.051" transform="translate(-107.982 -99.147)" fill="#fafafa"/>
          <path id="Path_74475" data-name="Path 74475" d="M178.936,167.845c-.027.007-.082-.108-.121-.257s-.05-.276-.023-.284.082.108.121.257.05.276.023.284" transform="translate(-110.528 -103.435)" fill="#fafafa"/>
          <path id="Path_74476" data-name="Path 74476" d="M174.644,165.395c-.024-.015,0-.107.064-.207s.128-.169.152-.154,0,.107-.065.207-.128.169-.152.154" transform="translate(-107.968 -102.03)" fill="#fafafa"/>
          <path id="Path_74477" data-name="Path 74477" d="M174.405,174.06c-.028,0-.067-.131-.087-.3s-.013-.309.015-.312.066.131.087.3.013.309-.014.313" transform="translate(-107.764 -107.233)" fill="#fafafa"/>
        </g>
      </g>
    </g>
  </g>
</svg>
