<svg xmlns="http://www.w3.org/2000/svg" xmlns:xlink="http://www.w3.org/1999/xlink" width="22.548" height="22.83" viewBox="0 0 22.548 22.83">
  <defs>
    <clipPath id="clip-path">
      <rect id="Rectangle_338" data-name="Rectangle 338" width="22.548" height="22.83" fill="#d20030"/>
    </clipPath>
  </defs>
  <g id="Group_1442" data-name="Group 1442" transform="translate(0 0)">
    <g id="Group_1441" data-name="Group 1441" transform="translate(0 0)" clip-path="url(#clip-path)">
      <path id="Path_8405" data-name="Path 8405" d="M22.548,16.8c-.039.166-.071.334-.116.5a3.024,3.024,0,0,1-2.9,2.23c-.089,0-.178,0-.3,0v.256c0,.524-.006,1.048,0,1.571a1.361,1.361,0,0,1-2.386,1q-1.337-1.329-2.671-2.662a.5.5,0,0,0-.391-.164q-2.054.01-4.108,0a3.009,3.009,0,0,1-3-2.43,3.483,3.483,0,0,1-.062-.691c-.005-1.571,0-3.143,0-4.714v-.283c-.078.068-.128.106-.172.15q-.765.76-1.529,1.52a1.225,1.225,0,0,1-2.135-.888c0-.477,0-.955,0-1.369a7.9,7.9,0,0,1-1.293-.37A2.431,2.431,0,0,1,.02,8.184C-.01,6.306,0,4.427.016,2.549A2.592,2.592,0,0,1,2.621,0Q6.718,0,10.814,0a2.6,2.6,0,0,1,2.695,2.686c.008,1.3,0,2.6,0,3.906v.294c.108,0,.2.013.294.013h5.5a3,3,0,0,1,3.212,2.657.2.2,0,0,0,.032.057ZM14.581,7.979q-2.424,0-4.849,0A1.937,1.937,0,0,0,7.69,10.024q0,3.188,0,6.376a2.444,2.444,0,0,0,.063.577,1.937,1.937,0,0,0,1.977,1.472q2.189.005,4.378,0a.782.782,0,0,1,.6.247c.733.739,1.473,1.469,2.211,2.2.249.248.49.506.753.738a.377.377,0,0,0,.316.07c.077-.026.123-.163.165-.258a.484.484,0,0,0,.005-.178c0-.726,0-1.452,0-2.178,0-.444.2-.639.648-.641.209,0,.419,0,.629,0a1.95,1.95,0,0,0,2.028-2.042q0-3.2,0-6.4a2.382,2.382,0,0,0-.061-.555A1.919,1.919,0,0,0,19.452,7.98c-1.624,0-3.247,0-4.872,0M12.407,6.9a.511.511,0,0,0,.022-.08c0-1.422.021-2.844-.007-4.265A1.482,1.482,0,0,0,10.894,1.08q-4.141-.01-8.284,0a1.5,1.5,0,0,0-1.516,1.49q-.023,2.8,0,5.59A1.483,1.483,0,0,0,2.369,9.622a5.7,5.7,0,0,0,.828.033c.457.006.654.2.656.657,0,.606,0,1.212,0,1.818a.988.988,0,0,0,.078.263.943.943,0,0,0,.26-.13c.747-.734,1.486-1.477,2.234-2.211a.659.659,0,0,0,.207-.423A2.988,2.988,0,0,1,9.711,6.9c.815,0,1.631,0,2.447,0h.249" transform="translate(0 0)" fill="#d20030"/>
      <path id="Path_8406" data-name="Path 8406" d="M25.05,21.941a.79.79,0,1,1-1.581,0,.79.79,0,0,1,1.581,0" transform="translate(-9.682 -8.729)" fill="#d20030"/>
      <path id="Path_8407" data-name="Path 8407" d="M18.608,21.16a.793.793,0,0,1,.767.823.794.794,0,0,1-1.587-.056.782.782,0,0,1,.819-.767" transform="translate(-7.339 -8.73)" fill="#d20030"/>
      <path id="Path_8408" data-name="Path 8408" d="M30.727,21.95a.794.794,0,1,1-.8-.791.784.784,0,0,1,.8.791" transform="translate(-12.021 -8.729)" fill="#d20030"/>
    </g>
  </g>
</svg>
