<svg xmlns="http://www.w3.org/2000/svg" width="692" height="538.999" viewBox="0 0 692 538.999">
  <g id="Consultation_SVG" data-name="Consultation SVG" transform="translate(-0.005 -0.002)">
    <g id="Illustration" transform="translate(0.005 0.002)">
      <g id="Background">
        <path id="Path_6604" data-name="Path 6604" d="M2308.215,386.738c-10.873,12.108-23.735,25.4-40.739,30.89q-34.531,11.152-70.058,18.817c-41.447,8.94-87.322,16.22-115.028,48.267-5.9,6.824-10.82,14.828-12.284,23.724-2.383,14.479,4.6,29.181,2.758,43.737-4.356,34.48-52.544,47.649-62.108,81.065-5.1,17.831,2.282,36.587,9.535,53.656,12.11,28.5,24.542,57.522,44.93,80.841s50.446,40.4,81.3,37.423c7.9-.762,15.776-2.8,23.673-2,10.761,1.1,20.318,7.37,28.358,14.593,23.5,21.113,39.615,52.668,69.531,62.858,24.116,8.211,50.948-.22,72.836-13.235,11.642-6.928,22.652-15.216,35.412-19.775,17.275-6.175,36.233-4.993,54.476-3.027,23.589,2.543,47.275,6.267,70.928,4.376s47.827-10.126,63.636-27.8c8.033-8.977,13.545-19.94,21.307-29.15,19.478-23.114,50.874-32.849,72.377-54.088,28-27.643,34.4-74.532,14.874-108.66-17.229-30.106-52.794-53.843-50.192-88.418.95-12.623,7.247-24.4,8.045-37.031,1.06-16.759-7.7-32.655-18.4-45.61-40.825-49.427-115.574-67.349-174.437-41.852-13.071-9.043-22.608-23.154-35.648-32.615-27.026-19.608-66.467-14.186-95.089,3.011Z" transform="translate(-1993.207 -371.252)" fill="#ee1f4f"/>
        <path id="Path_6605" data-name="Path 6605" d="M2601.923,659.158c-17.229-30.1-52.794-53.841-50.192-88.418.95-12.62,7.247-24.4,8.047-37.031,1.058-16.759-7.7-32.655-18.4-45.61-40.818-49.427-115.57-67.349-174.432-41.855-13.071-9.045-22.608-23.152-35.649-32.613-27.024-19.61-66.2-14.263-94.82,2.937l57.415,13.129-57.415-13.129c-5,17.133-24,25.47-41.006,30.962q-34.535,11.155-70.058,18.82c-41.447,8.94-87.32,16.217-115.027,48.267-5.9,6.824-10.82,14.826-12.284,23.724-2.381,14.476,4.6,29.179,2.758,43.735-4.356,34.482-52.545,47.651-62.108,81.068-5.1,17.831,2.284,36.587,9.535,53.656,12.11,28.5,24.542,57.52,44.93,80.839s50.446,40.4,81.3,37.423c7.9-.762,15.776-2.8,23.673-2,10.76,1.1,20.318,7.368,28.358,14.593,23.5,21.113,39.615,52.668,69.531,62.856,24.116,8.213,50.948-.22,72.836-13.235,11.642-6.926,22.652-15.214,35.412-19.775,17.275-6.164,36.233-4.993,54.476-3.027,23.59,2.543,47.276,6.267,70.928,4.378s47.827-10.126,63.636-27.8c8.033-8.977,13.545-19.938,21.307-29.148,19.478-23.114,50.873-32.851,72.377-54.09C2615.036,740.175,2621.456,693.286,2601.923,659.158Z" transform="translate(-1937.055 -394.545)" fill="#ffb2c4"/>
        <path id="Path_6606" data-name="Path 6606" d="M2792.635,485.992c-10.429-2.66-21.1-5.342-32.166-4.437-17.643,1.44-33.8,11.7-48.978,21.613a15.29,15.29,0,0,0-4.8,4.206c-2.513,3.964-.126,9.183,3.963,10.951a31.138,31.138,0,0,0,15.1,1.806c9.372-1.414,17.616-2.5,22.021-4.252,13.891-5.505,18.376-6.573,32.883-9.44,5.234-1.035,10.759-3.217,13.785-7.615s1.967-11.277-3.008-12.528Z" transform="translate(-2536.189 -457.126)" fill="#ee1f4f"/>
        <path id="Path_6607" data-name="Path 6607" d="M2772.5,478.172c-10.429-2.66-21.1-5.342-32.168-4.437-17.641,1.44-33.8,11.7-48.976,21.613a15.284,15.284,0,0,0-4.8,4.2c-2.513,3.964-.128,9.185,3.964,10.953a31.137,31.137,0,0,0,15.1,1.806c9.372-1.414,17.616-2.5,22.021-4.252,13.891-5.505,18.376-6.575,32.883-9.44,5.232-1.035,10.759-3.219,13.785-7.617s1.964-11.275-3.008-12.525Z" transform="translate(-2520.496 -451.028)" fill="#ffb2c4"/>
      </g>
      <g id="Leaves_2" data-name="Leaves 2" transform="translate(208.474 110.325)">
        <path id="Path_6608" data-name="Path 6608" d="M3003.138,872.49c.075,3.05,1.949,11.3,12.51,33.326,12.31,25.669,44.464,73.606,48.324,104.525v.029c.786,6.307.392,11.9-1.592,16.462a18.392,18.392,0,0,1-1.321,2.491l-23.366,16.467c-3.356-.951-6.763-3.986-11.011-9.15-4.087-4.979-8.949-11.935-15.284-20.92-6.56-9.306-10.641-21.019-13.1-33.183-6.721-33.264-1.3-69.891-1.3-69.891.568-10.709,3.336-26.09,5.065-34.927C3002.519,875.5,3002.878,873.7,3003.138,872.49Z" transform="translate(-2970.182 -872.49)" fill="#99c5cc"/>
        <g id="Group_997" data-name="Group 997" transform="translate(33.471 40.053)" opacity="0.61">
          <path id="Path_6609" data-name="Path 6609" d="M3034.877,1054.38a259.714,259.714,0,0,0,5.228,28.9c2.187,9.511,4.858,18.874,7.943,28.065s6.912,18.057,10.57,26.995q2.757,6.694,5.752,13.294c1.955,4.426,4.081,8.766,6.087,13.212l-.317.2a120.118,120.118,0,0,1-8.077-12.153c-1.277-2.077-2.381-4.248-3.559-6.386-.579-1.072-1.1-2.178-1.647-3.266s-1.1-2.182-1.6-3.29a145.465,145.465,0,0,1-5.525-13.58c-.775-2.323-1.576-4.624-2.3-6.979-.764-2.325-1.456-4.677-2.163-7.022-2.763-9.4-5.1-18.938-6.938-28.6-.9-4.844-1.689-9.689-2.341-14.586s-1.194-9.795-1.465-14.754Z" transform="translate(-3034.52 -1054.38)" fill="#77a5ba"/>
        </g>
        <path id="Path_6610" data-name="Path 6610" d="M3027.4,877.711c.44-2.2.8-4,1.053-5.221.075,3.05,1.949,11.3,12.51,33.326,12.309,25.669,44.464,73.606,48.324,104.525l-9.5,6.54s-8.049-45.49-23.3-67.683C3042.506,928.885,3029.494,884.976,3027.4,877.711Z" transform="translate(-2995.497 -872.49)" fill="#175c62" opacity="0.32"/>
        <path id="Path_6611" data-name="Path 6611" d="M2987.246,1211.427l-11.715,19.625-35.823-3.79-3.946-2.356a45.709,45.709,0,0,1-3.838-2.565c-7.487-5.551-13.813-13.54-19.116-22.49-16.92-28.55-23.375-66.863-23.375-66.863-2.852-10.66-5.1-27.013-6.251-36.484-.287-2.367-.5-4.3-.661-5.613,1.037,2.907,5.428,9.876,22.443,25.507q1.117,1.026,2.339,2.1c4.75,4.164,10.638,8.828,17.055,13.873l3.651,2.863c3.706,2.909,7.544,5.928,11.4,9.028,7.465,6.009,15.009,12.332,21.851,18.843a147.717,147.717,0,0,1,14.829,16.046,70.618,70.618,0,0,1,7.89,12.369v.029c2.746,5.672,4.142,11.3,3.7,16.766A23.515,23.515,0,0,1,2987.246,1211.427Z" transform="translate(-2882.52 -1042.797)" fill="#add5db"/>
        <g id="Group_998" data-name="Group 998" transform="translate(13.188 86.345)" opacity="0.61">
          <path id="Path_6612" data-name="Path 6612" d="M2942.747,1264.6a223.225,223.225,0,0,0,14.122,25.134A246.333,246.333,0,0,0,2973.3,1312.6c5.851,7.232,12.29,13.756,18.588,20.431q4.739,4.99,9.676,9.766c3.259,3.228,6.653,6.285,9.967,9.5l-.24.361a91.707,91.707,0,0,1-11.521-7.414c-1.872-1.321-3.609-2.83-5.4-4.263-.881-.727-1.731-1.517-2.6-2.275s-1.731-1.522-2.565-2.321a115.171,115.171,0,0,1-9.552-10.16c-1.471-1.832-2.966-3.638-4.4-5.505-1.462-1.839-2.863-3.744-4.279-5.626a254.254,254.254,0,0,1-15.654-23.932c-2.385-4.184-4.677-8.467-6.844-12.842s-4.237-8.828-6.062-13.472Z" transform="translate(-2942.409 -1264.6)" fill="#77a5ba"/>
        </g>
        <path id="Path_6613" data-name="Path 6613" d="M2883.181,1096.5c-.286-2.367-.5-4.3-.661-5.613,1.035,2.909,5.428,9.876,22.441,25.506,19.818,18.209,65.558,47.3,79.021,75.119l-6.952,11.42s-22.058-39.659-43.583-52.929C2913.75,1137.866,2887.47,1102.4,2883.181,1096.5Z" transform="translate(-2882.52 -1042.797)" fill="#175c62" opacity="0.32"/>
      </g>
      <g id="screen" transform="translate(266.168 19.763)">
        <path id="Path_6614" data-name="Path 6614" d="M3453.563,468.335v264.2a7.328,7.328,0,0,1-7.328,7.328h-295.6a7.322,7.322,0,0,1-7.329-7.328v-264.2a7.328,7.328,0,0,1,7.329-7.335h295.606A7.328,7.328,0,0,1,3453.563,468.335Z" transform="translate(-3143.31 -461)" fill="#e3e3e3"/>
        <path id="Path_6615" data-name="Path 6615" d="M3164.76,494.338v245.4c0,3.12,1.645,5.644,3.669,5.644h291.9a2.443,2.443,0,0,0,.918-.2,1.377,1.377,0,0,0,.22-.1,3.13,3.13,0,0,0,.531-.344,4.1,4.1,0,0,0,.647-.661l.048-.066a7.175,7.175,0,0,0,1.277-4.281v-245.4c0-3.12-1.641-5.648-3.668-5.648H3168.429C3166.405,488.69,3164.76,491.218,3164.76,494.338Z" transform="translate(-3160.037 -482.593)" fill="#fff"/>
        <g id="Icon_5" data-name="Icon 5" transform="translate(124.729 174.562)">
          <circle id="Ellipse_533" data-name="Ellipse 533" cx="3.746" cy="3.746" r="3.746" fill="#ee1f4f" opacity="0.8"/>
          <circle id="Ellipse_534" data-name="Ellipse 534" cx="3.746" cy="3.746" r="3.746" transform="translate(0 13.463)" fill="#b6ccd1"/>
          <circle id="Ellipse_535" data-name="Ellipse 535" cx="3.746" cy="3.746" r="3.746" transform="translate(0 13.463)" fill="#6d007d" opacity="0.8"/>
          <circle id="Ellipse_536" data-name="Ellipse 536" cx="3.746" cy="3.746" r="3.746" transform="translate(0 26.927)" fill="#b6ccd1"/>
          <circle id="Ellipse_537" data-name="Ellipse 537" cx="3.746" cy="3.746" r="3.746" transform="translate(0 26.927)" fill="#65afff" opacity="0.8"/>
          <circle id="Ellipse_538" data-name="Ellipse 538" cx="3.746" cy="3.746" r="3.746" transform="translate(0 40.39)" fill="#fff1d1"/>
          <rect id="Rectangle_230" data-name="Rectangle 230" width="42.867" height="6.829" rx="3.414" transform="translate(16)" fill="#f2f2f2"/>
          <rect id="Rectangle_231" data-name="Rectangle 231" width="42.867" height="6.829" rx="3.414" transform="translate(16 13.796)" fill="#f2f2f2"/>
          <rect id="Rectangle_232" data-name="Rectangle 232" width="42.867" height="6.829" rx="3.414" transform="translate(16 13.796)" fill="#f2f2f2"/>
          <rect id="Rectangle_233" data-name="Rectangle 233" width="42.867" height="6.829" rx="3.414" transform="translate(16 27.59)" fill="#f2f2f2"/>
          <rect id="Rectangle_234" data-name="Rectangle 234" width="42.867" height="6.829" rx="3.414" transform="translate(16 27.59)" fill="#f2f2f2"/>
          <rect id="Rectangle_235" data-name="Rectangle 235" width="42.867" height="6.829" rx="3.414" transform="translate(16 41.386)" fill="#f2f2f2"/>
        </g>
        <g id="Icon_4" data-name="Icon 4" transform="translate(22.965 161.633)">
          <rect id="Rectangle_236" data-name="Rectangle 236" width="9.277" height="51.612" transform="translate(10.783 17.037)" fill="#f2f2f2"/>
          <rect id="Rectangle_237" data-name="Rectangle 237" width="9.277" height="48.034" transform="translate(23.925 20.616)" fill="#f2f2f2"/>
          <rect id="Rectangle_238" data-name="Rectangle 238" width="9.277" height="53.618" transform="translate(37.065 15.031)" fill="#f2f2f2"/>
          <rect id="Rectangle_239" data-name="Rectangle 239" width="9.277" height="56.91" transform="translate(50.207 11.739)" fill="#f2f2f2"/>
          <rect id="Rectangle_240" data-name="Rectangle 240" width="9.277" height="51.612" transform="translate(63.347 17.037)" fill="#f2f2f2"/>
          <path id="Path_6616" data-name="Path 6616" d="M1404.974,895.468H1310.55V823.76h3.3v68.4h91.121Z" transform="translate(-1310.55 -823.76)" fill="#f2f2f2"/>
        </g>
        <g id="Icon_3" data-name="Icon 3" transform="translate(161.979 137.054)">
          <rect id="Rectangle_241" data-name="Rectangle 241" width="18.907" height="18.715" rx="9.33" fill="#f2f2f2"/>
          <rect id="Rectangle_242" data-name="Rectangle 242" width="24.117" height="5.595" rx="1.33" transform="translate(27.396 0.965)" fill="#f2f2f2"/>
          <rect id="Rectangle_243" data-name="Rectangle 243" width="27.396" height="4.052" rx="1.33" transform="translate(31.835 11.576)" fill="#f2f2f2"/>
          <rect id="Rectangle_244" data-name="Rectangle 244" width="23.729" height="4.823" rx="1.33" transform="translate(59.231 3.473)" fill="#f2f2f2"/>
          <rect id="Rectangle_245" data-name="Rectangle 245" width="24.309" height="3.087" rx="1.3" transform="translate(70.034 12.155)" fill="#f2f2f2"/>
        </g>
        <g id="Icon_2" data-name="Icon 2" transform="translate(161.97 22.956)">
          <rect id="Icon_1" data-name="Icon 1" width="117.854" height="109.707" rx="20.74" transform="translate(0.009 0)" fill="#f2f2f2"/>
          <path id="Icon_1-2" data-name="Icon 1" d="M1946.2,194h109.073a4.391,4.391,0,0,1,4.382,4.391v16.137H1941.8V198.391a4.391,4.391,0,0,1,4.4-4.391Z" transform="translate(-1941.8 -194)" fill="#606217" opacity="0.08"/>
          <rect id="Rectangle_246" data-name="Rectangle 246" width="54.444" height="2.979" rx="1.49" transform="translate(18.66 30.115)" fill="#174f62" opacity="0.09"/>
          <rect id="Rectangle_247" data-name="Rectangle 247" width="54.444" height="2.979" rx="1.49" transform="translate(18.66 45.704)" fill="#174f62" opacity="0.09"/>
          <rect id="Rectangle_248" data-name="Rectangle 248" width="54.444" height="2.979" rx="1.49" transform="translate(18.66 61.292)" fill="#174f62" opacity="0.09"/>
        </g>
        <g id="Icon_1-3" data-name="Icon 1" transform="translate(23.476 36.55)">
          <rect id="Rectangle_249" data-name="Rectangle 249" width="25.445" height="13.411" rx="4.75" fill="#ee1f4f" opacity="0.8"/>
          <rect id="Rectangle_250" data-name="Rectangle 250" width="79.087" height="13.411" rx="4.75" transform="translate(31.978)" fill="#f5f5f5"/>
          <rect id="Rectangle_251" data-name="Rectangle 251" width="25.445" height="13.411" rx="4.75" transform="translate(0 34.385)" fill="#6d007d" opacity="0.8"/>
          <rect id="Rectangle_252" data-name="Rectangle 252" width="79.087" height="13.411" rx="4.75" transform="translate(31.978 34.385)" fill="#f5f5f5"/>
          <rect id="Rectangle_253" data-name="Rectangle 253" width="25.445" height="13.411" rx="4.75" transform="translate(0 68.77)" fill="#65afff" opacity="0.8"/>
          <rect id="Rectangle_254" data-name="Rectangle 254" width="79.087" height="13.411" rx="6.705" transform="translate(31.978 68.77)" fill="#f5f5f5"/>
          <rect id="Rectangle_255" data-name="Rectangle 255" width="25.445" height="13.411" rx="4.75" transform="translate(0 103.155)" fill="#d8e8eb"/>
          <rect id="Rectangle_256" data-name="Rectangle 256" width="79.087" height="13.411" rx="4.75" transform="translate(31.978 103.155)" fill="#f5f5f5"/>
        </g>
      </g>
      <g id="Leaves_1" data-name="Leaves 1" transform="translate(531.75 222.099)">
        <path id="Path_6617" data-name="Path 6617" d="M4443.763,1380.3c-.606,3.411-4.184,11.845-20.1,31.743-18.559,23.183-63.768,62.142-73.5,95.257v.031c-1.982,6.756-2.488,13.267-.986,19.358a27.854,27.854,0,0,0,1.085,3.437l24.062,29.666c4.025.513,8.465-1.3,14.229-5.135,5.554-3.693,12.332-9.249,21.17-16.414,9.141-7.417,15.842-18.717,20.75-31.3,13.433-34.411,13.468-78.369,13.468-78.369,1.18-12.373.632-31.064.154-41.87C4443.96,1384,4443.844,1381.8,4443.763,1380.3Z" transform="translate(-4348.298 -1380.3)" fill="#a5c4c9"/>
        <g id="Group_999" data-name="Group 999" transform="translate(27.755 44.856)" opacity="0.61">
          <path id="Path_6618" data-name="Path 6618" d="M4534.185,1584a245.085,245.085,0,0,1-10.964,30.186,264.98,264.98,0,0,1-13.943,27.949c-5.133,8.929-11.047,17.145-16.777,25.509q-4.316,6.263-8.894,12.3c-3.008,4.074-6.2,7.974-9.267,12.047l.333.372a96.415,96.415,0,0,0,11.372-9.909c1.828-1.744,3.468-3.675,5.19-5.532.85-.938,1.634-1.942,2.454-2.911s1.634-1.949,2.409-2.962a122.825,122.825,0,0,0,8.685-12.728c1.288-2.261,2.607-4.494,3.84-6.8,1.277-2.266,2.475-4.6,3.692-6.912a275.587,275.587,0,0,0,12.882-29.043c1.861-5.041,3.6-10.16,5.193-15.375s3.052-10.5,4.21-15.976Z" transform="translate(-4474.34 -1584)" fill="#77a5ba"/>
        </g>
        <path id="Path_6619" data-name="Path 6619" d="M4450.665,1386.7c-.121-2.7-.238-4.9-.319-6.4-.605,3.411-4.184,11.845-20.1,31.743-18.559,23.183-63.768,62.142-73.5,95.257l9.811,11.891s17.052-47.6,38.406-65.461C4424.511,1437.382,4447.009,1393.92,4450.665,1386.7Z" transform="translate(-4354.881 -1380.3)" fill="#175c62" opacity="0.32"/>
      </g>
      <g id="Men" transform="translate(328.948 143.144)">
        <path id="Path_6620" data-name="Path 6620" d="M4010.416,1744l-12.594,54.867c-2.189,9.539-9.786,17.918-19.356,18.913,0,0-40.738,3.378-42.471,5.536-1.123,1.4-.98.852,1.161,2,10.193,5.448,34.649,14.672,84.05,15.285,1.037.352,22.681-1.28,40.7-5.809a19.425,19.425,0,0,0,14.234-15.3c3.7-19.453,11.23-58.355,14.408-74.822a6.369,6.369,0,0,0-6.15-7.637c-11.973-.029-36.47-.317-62.184-1.964A11.413,11.413,0,0,0,4010.416,1744Z" transform="translate(-3823.444 -1578.035)" fill="#0f2c4a"/>
        <path id="Path_6621" data-name="Path 6621" d="M3824.385,2274.19a4.371,4.371,0,0,1-4.226-5.505L3851,2153a4.371,4.371,0,0,1,8.448,2.25l-30.844,115.692a4.374,4.374,0,0,1-4.222,3.246Z" transform="translate(-3733.54 -1901.423)" fill="#ffc948"/>
        <path id="Path_6622" data-name="Path 6622" d="M4300.425,2365.23h-.205a4.373,4.373,0,0,1-4.166-4.567l5.521-119.6a4.37,4.37,0,1,1,8.731.4l-5.519,119.6A4.372,4.372,0,0,1,4300.425,2365.23Z" transform="translate(-4104.752 -1969.374)" fill="#6d007d"/>
        <path id="Path_6623" data-name="Path 6623" d="M4470.4,2280.593a4.371,4.371,0,0,1-4.28-3.523l-23.426-117.4a4.371,4.371,0,0,1,8.573-1.711l23.437,117.407a4.372,4.372,0,0,1-3.431,5.142A4.431,4.431,0,0,1,4470.4,2280.593Z" transform="translate(-4219.041 -1905.077)" fill="#6d007d"/>
        <path id="Path_6624" data-name="Path 6624" d="M4164.072,2198.643h-.22a4.371,4.371,0,0,1-4.16-4.573l4.587-97.111a4.372,4.372,0,0,1,8.734.412l-4.589,97.111A4.371,4.371,0,0,1,4164.072,2198.643Z" transform="translate(-3998.418 -1857.004)" fill="#6d007d"/>
        <path id="Path_6625" data-name="Path 6625" d="M4164.072,2198.643h-.22a4.371,4.371,0,0,1-4.16-4.573l4.587-97.111a4.372,4.372,0,0,1,8.734.412l-4.589,97.111A4.371,4.371,0,0,1,4164.072,2198.643Z" transform="translate(-3998.418 -1857.004)" fill="#6d007d" opacity="0.32"/>
        <path id="Path_6626" data-name="Path 6626" d="M3953.634,2149.944a4.374,4.374,0,0,0-5.351,3.1l-3.523,13.213,6.695,8.823,5.274-19.781a4.369,4.369,0,0,0-3.094-5.353Z" transform="translate(-3830.819 -1901.455)" fill="#bf9736" opacity="0.32"/>
        <path id="Path_6627" data-name="Path 6627" d="M4323.345,2268.013l1.224-26.566a4.371,4.371,0,1,0-8.732-.4l-1.5,32.434Z" transform="translate(-4119.016 -1969.359)" fill="#630072" opacity="0.32"/>
        <path id="Path_6628" data-name="Path 6628" d="M4451.219,2157.958a4.371,4.371,0,0,0-8.573,1.711l5.759,28.847,7.95-4.827Z" transform="translate(-4219.001 -1905.077)" fill="#630072" opacity="0.32"/>
        <path id="Path_6629" data-name="Path 6629" d="M4048.24,2161.2s22.3,10.491,58.24,10.3c.583.581,38.479-1.874,49.932-15.507-.079.082-51.681-8.388-51.681-8.388l-47.593,11.266Z" transform="translate(-3911.512 -1899.742)" fill="#6d007d"/>
        <path id="Path_6630" data-name="Path 6630" d="M4001.471,1766.419l-12.64,54.866a22.743,22.743,0,0,1-19.726,17.605l-40.276,4.168c-2.422.249-.333-1.7.509.586,3.642,9.909,33.377,18.757,82.965,19.378,1.042.352,22.761-1.279,40.853-5.809a19.454,19.454,0,0,0,14.287-15.3c3.719-19.453,11.263-58.354,14.463-74.822a6.37,6.37,0,0,0-6.166-7.637c-12.017-.029-36.607-.317-62.42-1.964A11.44,11.44,0,0,0,4001.471,1766.419Z" transform="translate(-3817.514 -1595.521)" fill="#9413a7"/>
        <path id="Path_6631" data-name="Path 6631" d="M3998.771,1746.872l-12.823,54.867a22.946,22.946,0,0,1-20.012,17.606l-40.853,4.168a2.485,2.485,0,0,0-.907,4.67c10.378,5.448,35.281,14.672,85.587,15.285,1.055.352,23.089-1.279,41.443-5.809a19.57,19.57,0,0,0,14.492-15.3c3.772-19.453,11.427-58.355,14.672-74.822a6.4,6.4,0,0,0-6.263-7.637c-12.193-.029-37.138-.317-63.323-1.964A11.59,11.59,0,0,0,3998.771,1746.872Z" transform="translate(-3813.733 -1580.272)" fill="#630072"/>
        <path id="Path_6632" data-name="Path 6632" d="M3859.56,2744.614l.328,4.138a1.364,1.364,0,0,0,1.467,1.253l16.98-1.346a1.363,1.363,0,0,0,1.255-1.4l-.145-4.646Z" transform="translate(-3764.381 -2363.727)" fill="#07203b"/>
        <path id="Path_6633" data-name="Path 6633" d="M3833.714,2586.37l-11.834,13.584,10.834,15.346,16.6-8.3s-2.4-3.631.337-10.7Z" transform="translate(-3734.998 -2241.893)" fill="#fff"/>
        <path id="Path_6634" data-name="Path 6634" d="M3679.581,2635.3a26.517,26.517,0,0,1,8.727,10.374c2.4,3.1,8.178,7.124,17.724-1.405.053.139,4.089,7.707,1.163,14.661-.029.22-3.488,2.092-13.432,2.484a34.862,34.862,0,0,0-10.231,1.936c-3.979,1.407-9.436,3.065-12.441,2.92-.262.02-27.669,3.246-32.311-8.769-.513-1.277.5-5.309,8.68-5.166,0,0,14.263.441,21.023-7.331C3668.6,2644.731,3675.344,2636.69,3679.581,2635.3Z" transform="translate(-3592.131 -2280.048)" fill="#0b223b"/>
        <path id="Path_6635" data-name="Path 6635" d="M3805.9,2663.943a.863.863,0,1,1-.927-.793A.864.864,0,0,1,3805.9,2663.943Z" transform="translate(-3721.189 -2301.763)" fill="#103052"/>
        <path id="Path_6636" data-name="Path 6636" d="M3788.791,2675.811a.861.861,0,1,1-.927-.791A.86.86,0,0,1,3788.791,2675.811Z" transform="translate(-3707.855 -2311.02)" fill="#103052"/>
        <path id="Path_6637" data-name="Path 6637" d="M3841.129,2633.553c-.11-.106-6.91-.493-6.91-.493l-9.689,2.332s8.991,10.636,27.629,10.109a22.006,22.006,0,0,0-.786-2.09h0c-.233-.535-.4-.85-.41-.881a12.531,12.531,0,0,1-.026-7.4C3846.381,2634.423,3841.191,2633.611,3841.129,2633.553Z" transform="translate(-3737.065 -2278.301)" fill="#666" opacity="0.31"/>
        <path id="Path_6638" data-name="Path 6638" d="M3649.5,2711.55a1.64,1.64,0,0,0-.6.714,1.223,1.223,0,0,0,.751,1.4,3.2,3.2,0,0,0,1.713.119c2.129-.273,4.217-.881,6.364-.958,1.484-.057,2.973.141,4.457.044a11.282,11.282,0,0,0,6.547-2.686c.989-.85,1.982-1.6.564-2.05-1.279-.4-3.671.581-4.968.786a59.983,59.983,0,0,1-6.919.341C3654.649,2709.379,3651.736,2709.808,3649.5,2711.55Z" transform="translate(-3600.073 -2336.766)" fill="#0f2d4b" opacity="0.24"/>
        <path id="Path_6639" data-name="Path 6639" d="M3649,2510.222l.68,4.1a1.366,1.366,0,0,0,1.57,1.123l16.8-2.792a1.36,1.36,0,0,0,1.13-1.5l-.542-4.624Z" transform="translate(-3600.187 -2179.626)" fill="#07203b"/>
        <path id="Path_6640" data-name="Path 6640" d="M4303.54,1376.409l23-8.619s-6.014,6.763-6.122,6.826-6.811,2.726-7.211,2.911-4.184,1.762-4.263,1.867a38.306,38.306,0,0,1-4.552,1.341A39.1,39.1,0,0,1,4303.54,1376.409Z" transform="translate(-4110.594 -1291.651)" fill="#bfbfbf"/>
        <path id="Path_6641" data-name="Path 6641" d="M4148.774,1459.1l-11.9-1.5c1.541-2.975,2.759-14.4,3.462-17.751a65,65,0,0,1,4.5-13.01,4.115,4.115,0,0,1,2.153-2.068c3.2-1.321,10.843-4.4,14.657-4.981,2.488-.385,4.975-.773,7.463-1.193l3.728-.632c1.244-.22,2.486-.44,3.728-.678l.247,5.358c6.7,8.861,10.129,38.584,10.129,38.584l-10.648,105.479-36.471-9.376,5.714-99.276C4145.927,1454.648,4152.423,1459.2,4148.774,1459.1Z" transform="translate(-3980.625 -1330.251)" fill="#ee1f4f"/>
        <path id="Path_6642" data-name="Path 6642" d="M3613.229,2357.23l-10.629,14.545,12.111,14.364,15.831-9.689s-2.7-3.413-.577-10.687Z" transform="translate(-3564.005 -2063.21)" fill="#fff"/>
        <path id="Path_6643" data-name="Path 6643" d="M3466.25,2410.34a26.53,26.53,0,0,1,9.581,9.592c2.658,2.885,8.758,6.4,17.542-2.913.064.132,4.732,7.333,2.409,14.509,0,.22-3.3,2.38-13.159,3.62a34.822,34.822,0,0,0-10.028,2.8c-3.845,1.74-9.141,3.858-12.146,3.964-.26.042-27.292,5.6-32.943-5.979-.619-1.226.046-5.331,8.207-5.888,0,0,14.249-.769,20.321-9.1C3456.12,2420.674,3462.147,2412.086,3466.25,2410.34Z" transform="translate(-3427.331 -2104.625)" fill="#0b223b"/>
        <path id="Path_6644" data-name="Path 6644" d="M3607.432,2425.118a.861.861,0,1,1-.991-.709A.861.861,0,0,1,3607.432,2425.118Z" transform="translate(-3566.439 -2115.588)" fill="#103052"/>
        <path id="Path_6645" data-name="Path 6645" d="M3588.282,2440.2a.859.859,0,1,1-.348-.561A.86.86,0,0,1,3588.282,2440.2Z" transform="translate(-3551.506 -2127.345)" fill="#103052"/>
        <path id="Path_6646" data-name="Path 6646" d="M3572.242,2453.448a.861.861,0,1,1-.991-.709A.86.86,0,0,1,3572.242,2453.448Z" transform="translate(-3538.998 -2137.679)" fill="#103052"/>
        <path id="Path_6647" data-name="Path 6647" d="M3642.529,2367.786l-.066-.035c-.762-.311-8-2.656-9.277-2.931-.3-.064-.83-.207-1.5-.39l-3.931,5.38s10.392,14.533,24.493,17.771a22.727,22.727,0,0,0-2.1-5.505h0c-.278-.513-.469-.815-.485-.845-.66-1.42-1.605-4.644-.09-9.839l-7.046-3.6h0Z" transform="translate(-3583.624 -2068.825)" fill="#666" opacity="0.31"/>
        <path id="Path_6648" data-name="Path 6648" d="M3826.271,2650.551a.861.861,0,1,1-.3-.587A.861.861,0,0,1,3826.271,2650.551Z" transform="translate(-3737.082 -2291.322)" fill="#103052"/>
        <path id="Path_6649" data-name="Path 6649" d="M3753.108,1890.1l-58.46-10.543a45.471,45.471,0,0,0-20.906,1.125l-1.015.3a15.247,15.247,0,0,0-8.733,6.712l-5.122,8.421a48.876,48.876,0,0,0-4.017,8.266c-6.241,16.654-28.547,76.112-31.434,82.674,2.922,4.862,16.3,13.756,25.823,15.375-.5-.352,40.227-86.068,40.227-86.068s7.487-13.455,37.875,17.6c14.183,7.381,40.822,28.448,76.46-3.131-.493-.353,11.506-11.913,5.8-25.324C3808.256,1905.3,3753.108,1890.1,3753.108,1890.1Z" transform="translate(-3580.24 -1690.163)" fill="#12365c"/>
        <path id="Path_6650" data-name="Path 6650" d="M3659.972,1910.838a49.08,49.08,0,0,1,4.017-8.266l5.122-8.423a15.254,15.254,0,0,1,8.733-6.71l1.015-.3a45.471,45.471,0,0,1,20.906-1.123l58.46,10.543s40.251,11.092,52.812,14.454a19.023,19.023,0,0,0-1.44-5.536c-1.341-.22-56.489-15.414-56.489-15.414l-58.46-10.543a45.5,45.5,0,0,0-20.906,1.123l-1.015.3a15.247,15.247,0,0,0-8.733,6.712l-5.122,8.421a49.079,49.079,0,0,0-4.019,8.267c-6.238,16.654-28.545,76.112-31.432,82.674a23.555,23.555,0,0,0,5.53,5.521C3633.1,1982.5,3653.97,1926.86,3659.972,1910.838Z" transform="translate(-3580.24 -1690.132)" fill="#3c1865" opacity="0.17"/>
        <path id="Path_6651" data-name="Path 6651" d="M3749.064,2016.553c-3.6.6-7.379,3.981-9.689,6.606-3.792,4.309-6.192,9.647-8.32,14.974-8.923,22.368-14.078,46.259-25.011,67.718-.22.44-.44.905-.634,1.381a34.721,34.721,0,0,0,7.764,2.455c-.381-.271,23.562-50.918,34.685-74.381q1.53-6.327,3.433-12.552C3752.581,2018.546,3754.523,2015.639,3749.064,2016.553Z" transform="translate(-3644.175 -1797.421)" fill="#3e1762" opacity="0.26"/>
        <path id="Path_6652" data-name="Path 6652" d="M3870.816,2025.27s-18.222-17.317-28.805-12.95c-2.729.161-10.656,10.074-10.656,10.074s-6.564,6.743-9.4,36.79c-.916-.284-3.29,82.471-4.142,90.441,3.206,2.1,7.443,9.273,29.226,7.185.352-.493.612-13.606.612-13.606l1.777-6.06a21.3,21.3,0,0,0,.293-8.3l-.073-7.707,3.536-31.04s4.034-22.184,5.818-36.208a10.328,10.328,0,0,1,12.393-8.808c13.695,2.916,34.634,7.793,43.381,6.1C3915.071,2051.212,3893.105,2049.574,3870.816,2025.27Z" transform="translate(-3731.824 -1793.701)" fill="#103052"/>
        <path id="Path_6653" data-name="Path 6653" d="M3982.815,2123.708c.231.026-14.168-1.044-31.507-14.41q-9.42-2.264-18.913-4.2a11.8,11.8,0,0,0-5.567-.22,9.574,9.574,0,0,0-3.838,2.5c-6.849,6.707-8.916,16.927-9.051,26.513s1.321,19.224.033,28.724c-.828,6.141-2.786,12.125-3.109,18.314-.462,8.848,2.345,18.277-1.442,26.277-.771,1.63-1.777,3.645-.66,5.065.581.747,1.605,1.053,2.169,1.815,1.2,1.636-.465,3.856-2.16,4.972s-3.818,2.422-3.713,4.45a9.361,9.361,0,0,0,.954,2.682,12,12,0,0,1,.568,3.49c.5.013,1.009.018,1.541.018,2.1-.013,4.4-.13,6.963-.374.353-.493.612-13.607.612-13.607l1.777-6.06a21.3,21.3,0,0,0,.293-8.3l-.073-7.707,3.521-31.031s4.034-22.183,5.818-36.208a10.727,10.727,0,0,1,12.772-8.808c.7.148,1.42.333,2.163.546C3955.6,2121.085,3974.586,2125.3,3982.815,2123.708Z" transform="translate(-3799.855 -1866.229)" fill="#3e1762" opacity="0.26"/>
        <path id="Path_6654" data-name="Path 6654" d="M3818.2,2149.878l.029.022c.115.083.22.174.348.269l.024.02c.123.1.247.2.374.308l.059.051.319.269c.595.506,1.271,1.081,2.09,1.676.956-15.027,3.118-88.664,3.981-88.4,2.841-30.047,9.4-36.79,9.4-36.79s7.927-9.909,10.658-10.074c3.807-1.57,5.8-3.213,6.3-4.466-3.462-1.215-6.875-1.619-9.733-.44h0a6.749,6.749,0,0,0-3.045,1.841q-.315.271-.634.568c-.881.813-1.8,1.762-2.671,2.689-.42.441-.828.9-1.218,1.339l-.088.1-.674.769-.4.467c-.22.247-.41.478-.594.7l-.37.44-.39.469-.568.7a8.766,8.766,0,0,0-1,1.4c-.086.143-.178.3-.275.467l-.117.22-.154.28q-.284.528-.606,1.2c-.044.09-.086.181-.13.275-.075.161-.152.328-.22.5-.042.095-.083.192-.127.289-.088.207-.181.416-.271.639a57.09,57.09,0,0,0-2.076,6c-.066.22-.132.453-.2.687-.394,1.4-.786,2.942-1.174,4.653q-.192.857-.383,1.762c-.125.608-.253,1.233-.377,1.878s-.247,1.31-.368,1.993q-.273,1.542-.533,3.213c-.057.372-.114.751-.169,1.134-.441,3.059-.865,6.45-1.22,10.207-.544-.167-1.6,28.937-2.55,54.283-.062,1.667-.123,3.319-.185,4.944-.577,15.28-1.1,28.288-1.407,31.214C3817.966,2149.707,3818.083,2149.79,3818.2,2149.878Z" transform="translate(-3731.863 -1793.706)" fill="#3c1865" opacity="0.17"/>
        <path id="Path_6655" data-name="Path 6655" d="M4137.34,2064.545c14.349,7.8,35.629,16.346,62.285-4.2a35.771,35.771,0,0,0-.982-5.968c-1.143-4.807-3.057-11.054-7.538-13.855-4.688-2.929-5.813,2.627-7.412,6.106a34.527,34.527,0,0,1-19.979,17.991A41.772,41.772,0,0,1,4137.34,2064.545Z" transform="translate(-3980.992 -1815.601)" fill="#3e1762" opacity="0.26"/>
        <path id="Path_6656" data-name="Path 6656" d="M4190,1968.964s15.8,16.516,39.842,13.016c0,.293-6.742-14.569-6.742-14.569l-26.425-4.371Z" transform="translate(-4022.056 -1755.823)" fill="#3e1762" opacity="0.26"/>
        <path id="Path_6657" data-name="Path 6657" d="M3846.693,1801.814l-3.3-3.054Z" transform="translate(-3751.771 -1627.719)" fill="#f4908c"/>
        <path id="Path_6658" data-name="Path 6658" d="M4157.811,1437.441c2.422-12.69,12.694-25.905,22.881-33.647l21.7-5.664c10.79,4.961,19.378,11.64,21.19,23.536a82.376,82.376,0,0,1-5.551,44.275c-2.656,6.26-6.1,12.2-8.024,18.737a43.267,43.267,0,0,0,1.724,28.807c.753,1.762,1.982,8.322.353,9.306-14.974,9.044-32.549,10.748-46.752,9.136-8.218-.932-19.145-12.021-19.806-15.815C4142.328,1497.751,4155.382,1450.132,4157.811,1437.441Z" transform="translate(-3986.984 -1315.31)" fill="#fff"/>
        <path id="Path_6659" data-name="Path 6659" d="M4347.392,1453.125c1.568-.8,2.583-1.343,2.583-1.343l6.773-21.6c1.676-5.34,3.6-10.8-.722-14.364l-10.519-6.031-18.379-8.588a63.985,63.985,0,0,0-13.19,20.772c-1.982,5.3-8.5,49.493-10.242,71.347-3.083,38.664,9.075,78.567,9.075,78.567l18.444-5.424a27.4,27.4,0,0,0,19.528-29.1c-1.176-11.394-2.268-26.13-2.327-41.839C4348.37,1483.293,4347.922,1467.676,4347.392,1453.125Z" transform="translate(-4110.325 -1317.704)" fill="#ee1f4f"/>
        <path id="Path_6660" data-name="Path 6660" d="M2388.424,919.017l-22.214,13.17,1.233-34.947,19.9-4.911Z" transform="translate(-2173.325 -839.139)" fill="#ad4e44"/>
        <path id="Path_6661" data-name="Path 6661" d="M4305.969,1287.661l-.729,20.635a22.891,22.891,0,0,0,9.218-7.665,17.272,17.272,0,0,0,3.3-8.786l.544-6.115H4306.16l-.048.013Z" transform="translate(-4111.919 -1227.661)" fill="#f4908c" opacity="0.54"/>
        <path id="Path_6662" data-name="Path 6662" d="M4254.385,1091.116c0,17.559-12.332,36.948-24.349,35.88-20.1-1.788-18.266-38.633-17.55-43.449,2.688-18.057,9.707-20.638,21.782-20.638S4254.385,1073.546,4254.385,1091.116Z" transform="translate(-4039.285 -1053.907)" fill="#c6594e"/>
        <path id="Path_6663" data-name="Path 6663" d="M4237.3,1066.458a18.255,18.255,0,0,1,5.976.976,17.146,17.146,0,0,0-10.916-4.464c-10.914.3-17.333,3.523-19.876,20.614-.594,3.995-1.956,30.025,9.068,39.807-7.718-11.416-6.571-32.712-6.038-36.294C4218.2,1069.035,4225.222,1066.458,4237.3,1066.458Z" transform="translate(-4039.285 -1053.954)" fill="#f4908c" opacity="0.36"/>
        <path id="Path_6664" data-name="Path 6664" d="M4308.89,1468.886v-.046C4308.9,1468.875,4308.9,1468.886,4308.89,1468.886Z" transform="translate(-4114.766 -1370.449)" fill="#021f42"/>
        <path id="Path_6665" data-name="Path 6665" d="M4298.8,1424.314c.5.1,1.936-3.984,1.936-3.984l.881.084,3.893,4.8s-4.3,5.272-4.538,5.794C4300.924,1430.449,4298.33,1424.221,4298.8,1424.314Z" transform="translate(-4106.853 -1332.621)" fill="#6d007d"/>
        <path id="Path_6666" data-name="Path 6666" d="M4305.47,1421.871c.742,1.16,1.982,3.118,3.552,5.668.938-1.167,1.749-2.165,1.749-2.165l-3.893-4.8-.412-.04c-.174.024-.348.046-.516.062C4305.875,1420.8,4305.695,1421.294,4305.47,1421.871Z" transform="translate(-4112.099 -1332.777)" fill="#bf9736" opacity="0.32"/>
        <path id="Path_6667" data-name="Path 6667" d="M2359.571,1038.657l-2.693,6.137-.848-4.547,2.3-4.567Z" transform="translate(-2165.387 -950.922)" fill="#fff"/>
        <path id="Path_6668" data-name="Path 6668" d="M4236.126,1455.481c-14.809,39.271-10.81,86.217-10.81,86.217l-7.991,4.893s-2.358-3.964-3.235-5.725c2.5-61.933,15.6-76.788,20.3-86.393C4235.05,1453.123,4236.126,1455.481,4236.126,1455.481Z" transform="translate(-4040.841 -1358.921)" fill="#6d007d"/>
        <path id="Path_6669" data-name="Path 6669" d="M4331.589,1371.784c.106.905.22,3.327.22,3.327s-8.627,9.414-18.143,12.151c-3.017-4.941-4.477-7.9-4.477-7.9s10.44-5.065,21.765-11.6C4330.948,1367.774,4331.479,1370.857,4331.589,1371.784Z" transform="translate(-4115 -1291.635)" fill="#fff"/>
        <path id="Path_6670" data-name="Path 6670" d="M4387.469,1253.72a6.35,6.35,0,0,0-.37,2.171C4387.234,1255.151,4387.357,1254.429,4387.469,1253.72Z" transform="translate(-4175.753 -1202.7)" fill="#310137"/>
        <path id="Path_6671" data-name="Path 6671" d="M4397.6,1081.507a29.49,29.49,0,0,0-3.021-11.671,21.162,21.162,0,0,0-3.667-5.725c-.334-.954.41,1.321-.568,1.176a3.008,3.008,0,0,0-1.982.484c-1.03.28-1.72,1.2-2.642,2.154a26.689,26.689,0,0,0-6.538,11.211s5.18,7.318,2.129,26.548c.861-2.4,3.094-4.138,5.3-5.913.553-.44,1.117-.894,1.672-1.359l.022,2.259c1.136-2.376,3.523-3.862,5.267-5.831C4396.71,1091.282,4397.67,1086.259,4397.6,1081.507Z" transform="translate(-4169.577 -1054.661)" fill="#06203b"/>
        <path id="Path_6672" data-name="Path 6672" d="M4385.679,1148.178a25.033,25.033,0,0,0-1.883-10.057,17.861,17.861,0,0,0-2.772-5.049c-.22-.826.271,1.152-.548.964a2.584,2.584,0,0,0-1.713.293A5.7,5.7,0,0,0,4376.4,1136a22.618,22.618,0,0,0-6.177,9.108s6.487.22,2.8,16.3c.868-1.982.331,2.96,2.3,1.583.491-.344,1-.691,1.491-1.053l-.11,1.914c1.1-1.944,3.2-3.065,4.792-4.624C4384.366,1156.4,4385.468,1152.2,4385.679,1148.178Z" transform="translate(-4162.59 -1108.462)" fill="#06203b"/>
        <path id="Path_6673" data-name="Path 6673" d="M4386.349,1200.85a6.691,6.691,0,0,1,5.152,7.927c-.775,3.607-4.51,12.215-12.771,10.44-4.466-.958-2.863-7.978-2.085-11.585S4382.727,1200.073,4386.349,1200.85Z" transform="translate(-4166.877 -1161.395)" fill="#c6594e"/>
        <path id="Path_6674" data-name="Path 6674" d="M4393.6,1222.163c.295-1.376,2.927-3.666,4.812-3.823a.953.953,0,0,1,.291,0,2.824,2.824,0,0,1,1.788,1.226,2.782,2.782,0,0,1,.39,2.107c-.4,1.865-2.436,7.267-6.4,7.6h0a5.975,5.975,0,0,1-1.592-.1c-.334-.918-.112-3.2.661-6.8Z" transform="translate(-4180.155 -1175.102)" fill="#f4908c" opacity="0.54"/>
        <path id="Path_6675" data-name="Path 6675" d="M4349.082,1796.182c-.011-2.929-.044-6.058-.1-9.321a3.808,3.808,0,0,0-.953-.048,7.129,7.129,0,0,0-2.916,1.072c-6.705,3.788-11.981,9.594-17.6,14.862s-12.02,10.226-19.6,11.616a16.141,16.141,0,0,0-3.869,1.242c.235,5.322.674,10.515,1.235,15.463,6.4,2,25.779-2.808,30.243-6.912,6.943-6.386,7.577-6.12,9.665-16.883.351-1.8,2.733-2.6,3.979-4.043Q4349.1,1799.747,4349.082,1796.182Z" transform="translate(-4110.991 -1618.394)" fill="#ee1f4f" opacity="0.26"/>
        <path id="Path_6676" data-name="Path 6676" d="M4332.44,1554.845a4.13,4.13,0,0,0-2.422,1.8c-2.662,3.391-4.624,7.3-7.44,10.57-1.051,1.227-2.227,2.38-3.352,3.565,2.147-9.658,4.589-19.261,8.538-28.316,4.71-10.805,11.594-18.026,19.6-26.3-8.845,2.422-15.247,11.7-19.327,19.347a106.866,106.866,0,0,0-11.3,33.883,18.01,18.01,0,0,0-.24,4.673,12.037,12.037,0,0,0-1.542,3.059c-.607,1.87-.7,3.979-1.9,5.536-1.1,1.418-2.909,2.1-4.14,3.4-1.332,1.409-2.378,4.966-.751,6.577.856.848,1.87.44,2.942.548a11.451,11.451,0,0,1,3.787,1.418,9.034,9.034,0,0,0,8.588-.277c2.067-1.339,3.316-3.607,4.43-5.8a85.45,85.45,0,0,0,8.022-21.6,18.565,18.565,0,0,0,.088-8.888C4335.51,1556.371,4334.167,1554.585,4332.44,1554.845Z" transform="translate(-4113.552 -1407.357)" fill="#3e1762" opacity="0.26"/>
        <path id="Path_6677" data-name="Path 6677" d="M3440.519,2491.7a4.941,4.941,0,0,0-2.863,1.218,1.87,1.87,0,0,0,.1,2.766,2.74,2.74,0,0,0,1.843.15l8.588-1.3a14.327,14.327,0,0,0,3.744-.918,12.1,12.1,0,0,0,4.732-4.283c1.944-2.885-1.6-.718-2.852-.121C3449.785,2491.141,3444.851,2490.936,3440.519,2491.7Z" transform="translate(-3434.946 -2165.086)" fill="#0f2d4b" opacity="0.24"/>
        <path id="Path_6678" data-name="Path 6678" d="M4164.94,1054.966q-1.282-.416-2.572-.9a25.135,25.135,0,0,1-8.238-5.382c-5.384-5.012-11.964-13.893-7.9-21.622a4.707,4.707,0,0,1,4.234-2.662c1.418.09,2.643.98,3.9,1.623,5.437,2.753,10.271,2.887,16.122.9,4.794-1.63,9.378-4.047,14.4-4.741s10.838.881,13.212,5.347a2.15,2.15,0,0,0,.66.881,2.187,2.187,0,0,0,1.694-.064c2.49-.678,6.5.57,8.588,4.281,4.611,8.225-5.505,15.934-11.16,19.46C4187.034,1058.831,4176.343,1058.7,4164.94,1054.966Z" transform="translate(-3986.939 -1022.027)" fill="#06203b"/>
        <path id="Path_6679" data-name="Path 6679" d="M4190.709,1022.187c-5.016.694-9.6,3.111-14.395,4.741-5.851,1.982-10.685,1.854-16.121-.9-1.269-.643-2.484-1.541-3.9-1.623a4.542,4.542,0,0,0-3.852,2.046,20.48,20.48,0,0,0,9.724,12.217c6.869,3.744,15.6,3.336,22.517-.308,6.547-3.448,11.766-9.586,18.885-11.451C4201,1022.922,4195.487,1021.528,4190.709,1022.187Z" transform="translate(-3992.766 -1022.03)" fill="#3e1762" opacity="0.12"/>
      </g>
      <g id="Women" transform="translate(76.363 147.548)">
        <path id="Path_6680" data-name="Path 6680" d="M2396.912,1094.139c1.711-10.519,1.077-30.624,1.13-30.642l.112-3.781c.273-5.192,2.717-9.119,6.538-12.635,1.147-.953,7.047-3.642,7.047-3.642a22.255,22.255,0,0,1,7.791-1.409h0a39.219,39.219,0,0,1,19.757,5.341l11.548,6.735c12.219,6.729,29.869,21.166,23.892,46.657-3.008,10.88-21.924,30.23-62.626,17.863A21.9,21.9,0,0,1,2396.912,1094.139Z" transform="translate(-2371.787 -1042.03)" fill="#0f2c4a"/>
        <path id="Path_6681" data-name="Path 6681" d="M2487.465,1134.311c1.557,6.52,1.13,13.855-1.907,19.6a21.7,21.7,0,0,1-16.676,11.231c-6.6.784-13.243-1.165-19.424-4-4.127-1.894-8.412-4.523-10.319-9.218-1.29-3.175-1.292-6.826-1.358-10.35-.159-8.511-.815-17.2,1.165-25.392s7.372-15.947,14.571-16.918c5.6-.755,10.947,2.643,15.813,5.985a29.53,29.53,0,0,1,10.79,12.576C2482.636,1123.327,2486,1128.189,2487.465,1134.311Z" transform="translate(-2403.7 -1086.577)" fill="#0a1d30"/>
        <path id="Path_6682" data-name="Path 6682" d="M2479.48,1387.17l16.407,1.955-.387,7.857s-5.545,1.2-5.93,1.418-6.219-1.379-6.507-2.121-.482-3.743-1.207-4.323S2479.48,1387.17,2479.48,1387.17Z" transform="translate(-2436.398 -1311.168)" fill="#a79fb7"/>
        <path id="Path_6683" data-name="Path 6683" d="M2363.511,1736.629l12.5,54.468c2.173,9.469,9.716,17.788,19.215,18.775,0,0,40.441,3.354,42.163,5.505,1.116,1.387.973.846-1.152,1.982-10.119,5.406-34.4,14.564-83.438,15.172-1.031.35-22.51-1.271-40.4-5.767a19.282,19.282,0,0,1-14.128-15.194c-3.677-19.312-11.14-57.914-14.313-74.278a6.319,6.319,0,0,1,6.1-7.582c11.891-.029,36.206-.315,61.732-1.951A11.328,11.328,0,0,1,2363.511,1736.629Z" transform="translate(-2283.835 -1576.739)" fill="#0f2c4a"/>
        <path id="Path_6685" data-name="Path 6685" d="M2571.68,2353.342h.2a4.34,4.34,0,0,0,4.136-4.534l-5.479-118.729a4.34,4.34,0,1,0-8.67.4l5.479,118.726A4.34,4.34,0,0,0,2571.68,2353.342Z" transform="translate(-2500.641 -1965.236)" fill="#6d007d"/>
        <path id="Path_6686" data-name="Path 6686" d="M2339.966,2269.316a4.338,4.338,0,0,0,4.25-3.49l23.267-116.555a4.34,4.34,0,1,0-8.512-1.7l-23.27,116.555a4.336,4.336,0,0,0,4.259,5.188Z" transform="translate(-2324.213 -1901.403)" fill="#6d007d"/>
        <path id="Path_6687" data-name="Path 6687" d="M2710.275,2187.978h.209a4.34,4.34,0,0,0,4.129-4.541l-4.553-96.4a4.34,4.34,0,1,0-8.67.41l4.557,96.4A4.338,4.338,0,0,0,2710.275,2187.978Z" transform="translate(-2609.438 -1853.694)" fill="#630072"/>
        <path id="Path_6688" data-name="Path 6688" d="M2710.275,2187.978h.209a4.34,4.34,0,0,0,4.129-4.541l-4.553-96.4a4.34,4.34,0,1,0-8.67.41l4.557,96.4A4.338,4.338,0,0,0,2710.275,2187.978Z" transform="translate(-2609.438 -1853.694)" fill="#630072" opacity="0.32"/>
        <path id="Path_6689" data-name="Path 6689" d="M2923.478,2139.632a4.338,4.338,0,0,1,5.311,3.083l3.5,13.111-6.646,8.76-5.236-19.636a4.338,4.338,0,0,1,3.074-5.318Z" transform="translate(-2780.112 -1897.819)" fill="#bf9736" opacity="0.32"/>
        <path id="Path_6690" data-name="Path 6690" d="M2563.088,2256.832l-1.216-26.372a4.34,4.34,0,1,1,8.67-.4l1.483,32.2Z" transform="translate(-2500.643 -1965.22)" fill="#4e005a" opacity="0.32"/>
        <path id="Path_6691" data-name="Path 6691" d="M2423.6,2147.573a4.34,4.34,0,1,1,8.512,1.7l-5.726,28.626-7.892-4.792Z" transform="translate(-2388.838 -1901.403)" fill="#4e005a" opacity="0.32"/>
        <path id="Path_6692" data-name="Path 6692" d="M2491.9,2150.791s-22.139,10.414-57.817,10.22c-.577.579-38.2-1.859-49.568-15.392.079.081,51.308-8.328,51.308-8.328l47.248,11.187Z" transform="translate(-2362.341 -1896.107)" fill="#6d007d"/>
        <path id="Path_6693" data-name="Path 6693" d="M2376.088,1758.838l12.552,54.468a22.56,22.56,0,0,0,19.585,17.476l39.981,4.138c2.4.249.33-1.684-.5.584-3.616,9.834-33.134,18.618-82.357,19.228-1.035.35-22.6-1.271-40.557-5.767a19.3,19.3,0,0,1-14.183-15.194c-3.691-19.312-11.18-57.914-14.358-74.278a6.328,6.328,0,0,1,6.131-7.58c11.931-.029,36.334-.315,61.966-1.951A11.373,11.373,0,0,1,2376.088,1758.838Z" transform="translate(-2293.419 -1594.054)" fill="#9413a7"/>
        <path id="Path_6694" data-name="Path 6694" d="M2367.105,1739.487l12.73,54.468a22.776,22.776,0,0,0,19.867,17.476l40.56,4.14a2.468,2.468,0,0,1,.9,4.638c-10.3,5.406-35.026,14.562-84.964,15.172-1.048.35-22.921-1.271-41.141-5.767a19.431,19.431,0,0,1-14.388-15.194c-3.744-19.312-11.343-57.914-14.564-74.278a6.35,6.35,0,0,1,6.219-7.579c12.111-.029,36.867-.315,62.86-1.951a11.505,11.505,0,0,1,11.922,8.876Z" transform="translate(-2285.511 -1578.963)" fill="#630072"/>
        <path id="Path_6695" data-name="Path 6695" d="M2564.973,1418.1a6.931,6.931,0,0,1,5.065-1.149c5.835.956,19.1,7.621,28.528,46.492.634,2.149,4.4,5.2,5.9,6.826a1.6,1.6,0,0,1,.416,1.1l-.018,3.14a1.608,1.608,0,0,0,.793,1.4l.083.051a1.617,1.617,0,0,1,.742.986h0a1.614,1.614,0,0,0,2.546.881l.2-.154a1.607,1.607,0,0,1,1.336-.293c2.6.6,10.407,4.012,4.765,23.238a1.638,1.638,0,0,1-1.4,1.158,24.661,24.661,0,0,0-5.285,1.852l-2.026,1.022a11.187,11.187,0,0,1-9.975.048l-1.321-.661a3.6,3.6,0,0,1-1.94-2.519l-.458-2.268a1.6,1.6,0,0,0-.414-.8l-14.533-15.214a2.828,2.828,0,0,1-.762-1.638,36.554,36.554,0,0,0-4.816-13.609,1.538,1.538,0,0,0-.22-.3c-1.172-1.2-9.689-19.645-10.2-20.726-.015-.035-.029-.066-.042-.1C2561.482,1445.675,2554.189,1425.557,2564.973,1418.1Z" transform="translate(-2498.489 -1334.323)" fill="#65afff"/>
        <path id="Path_6696" data-name="Path 6696" d="M2410.1,1410.751l-33.251-1.841L2354,1415.655l14.754,30.816s.738,85.6,0,105.567c43.017,9.817,68.092-18.8,68.092-18.8s-7.192-43.6-9.271-68.783a115.061,115.061,0,0,0-10.717-39.948C2413.15,1416.688,2410.1,1410.751,2410.1,1410.751Z" transform="translate(-2338.549 -1328.121)" fill="#65afff"/>
        <path id="Path_6697" data-name="Path 6697" d="M3456.753,2482l-4.023,1.042,1.72,3.16,1.722-.328a17.387,17.387,0,0,0,.863-1.761C3457.035,2483.944,3456.753,2482,3456.753,2482Z" transform="translate(-3195.332 -2164.91)" fill="#1b0b38"/>
        <path id="Path_6698" data-name="Path 6698" d="M3308.2,2431.86l1.266.093s-.441,1.456-.465,1.542-.463.44-.522.344a10.72,10.72,0,0,1-.478-1C3308,2432.772,3308.2,2431.86,3308.2,2431.86Z" transform="translate(-3082.472 -2125.811)" fill="#1b0b38"/>
        <path id="Path_6699" data-name="Path 6699" d="M3321.8,2340.616l6.985,7.558c-.19-.22-2.781-3.039-6.961-7.584Z" transform="translate(-3093.234 -2054.639)" fill="#ffaca4"/>
        <path id="Path_6700" data-name="Path 6700" d="M3299.251,2361.474c-2.986-3.349-7.238-7.952-12.146-13.3-.189-.22-2.781-3.039-6.961-7.584-3.816,4.149-7.767,8.176-11.794,12.125a48.483,48.483,0,0,0,7.126,3.909,3.907,3.907,0,0,1,2.312,4.693,1.766,1.766,0,0,1-.28.619l.465,3.572,4.955,4.162,2.422,2.5s10.215,4.246,10.623,4.862,2.656,2.352,3.037,3.1,8.641,1.183,8.641,1.183,3.283-3.6,3.415-4.241,1.147-3.3.942-3.279C3309.337,2374.447,3299.278,2361.347,3299.251,2361.474Z" transform="translate(-3051.554 -2054.639)" fill="#ffaca4"/>
        <path id="Path_6701" data-name="Path 6701" d="M3335.293,2361.474c-2.986-3.349-7.238-7.952-12.146-13.3-.19-.22-2.781-3.039-6.961-7.584q-.8.881-1.616,1.74c2.341,2.16,4.527,4.14,6.522,5.9,5.439,4.807,11.587,11.9,14.571,15.251.026-.128,7.146,12.411,9.819,11.759.207-.024-.81,2.642-.942,3.281a14.95,14.95,0,0,1-2.063,2.718c.736.048,1.218.075,1.218.075s3.283-3.6,3.416-4.241,1.147-3.3.942-3.279C3345.379,2374.447,3335.32,2361.347,3335.293,2361.474Z" transform="translate(-3087.596 -2054.639)" fill="#fff" opacity="0.22"/>
        <path id="Path_6702" data-name="Path 6702" d="M3282.711,2394.768c-3.277-3.365-7.989-5.776-12.332-8.168l-2.019,1.993a48.507,48.507,0,0,0,7.126,3.909,3.909,3.909,0,0,1,2.312,4.693,1.768,1.768,0,0,1-.28.619l.465,3.572,4.955,4.162,2.422,2.5s10.215,4.246,10.623,4.862,2.656,2.352,3.036,3.1a.188.188,0,0,0,.051.062l.018.016a.531.531,0,0,0,.086.057h0c.035.018.077.037.121.055l.044.018.132.046.04.013.163.046.077.022.143.033.123.029.154.033.128.024.115.022.262.046.092.015.183.029.075.011.407.059h.011c-3.757-3.682-8.167-9.387-8.185-9.3C3289.676,2403.322,3286.4,2398.557,3282.711,2394.768Z" transform="translate(-3051.562 -2090.518)" fill="#e87d6e" opacity="0.25"/>
        <path id="Path_6703" data-name="Path 6703" d="M3332.632,2504.78s.146,1.568,7.329,13.072c.051-.09-.22,1.026-.22,1.026l-2.9-2.642-4.006-7.443-2.389-3.634Z" transform="translate(-3099.979 -2182.674)" fill="#493c60"/>
        <path id="Path_6704" data-name="Path 6704" d="M3332.839,2508.769l-2.389-3.633,2.182-.385s.117,1.251,5.259,9.716l-.605.161-1.387-.8-1.37-1.925Z" transform="translate(-3099.979 -2182.65)" fill="#4a2556" opacity="0.14"/>
        <path id="Path_6705" data-name="Path 6705" d="M3301.216,2432.52s.245,1.063,7.071,5.21c.053.077,12.252,7.337,17.652,9.989-.308-.13,6.659,2.376,10.5-4.917-.266.073,11.592-2.116,14.234-.242a.672.672,0,0,1,.242.773c-.769,2.1-12.1,11.253-17.445,12.889-1.028.456-3.867,1.438-9.264-2.378-.127-.026-10.732-7.892-17.191-5.082.178.1,7.773,13.164,7.773,13.164l-1.528.852s-5.228-9.48-9.594-14.582c.04.084-5.659-4.032-5.186-10.213-.128-.026.548-5.9,2.22-6.225C3300.734,2431.628,3301.216,2432.52,3301.216,2432.52Z" transform="translate(-3075.028 -2125.72)" fill="#240f4b"/>
        <path id="Path_6706" data-name="Path 6706" d="M3323.146,2507.659l-.388-.487-.121-.148c-.161-.2-.319-.39-.478-.575a3.376,3.376,0,0,0,3.349.566h0a.17.17,0,0,1,.026.033h0l.053.077v.018c.024.038.051.077.082.128h0c.172.273.456.74.813,1.339h0c1.086,1.812,2.863,4.844,4.316,7.333l-2.165-.2a91.288,91.288,0,0,0-5.413-7.972A.523.523,0,0,0,3323.146,2507.659Z" transform="translate(-3093.515 -2183.976)" fill="#1b0b38"/>
        <path id="Path_6707" data-name="Path 6707" d="M3432.143,2553.51Z" transform="translate(-3179.277 -2220.673)" fill="#633172"/>
        <path id="Path_6708" data-name="Path 6708" d="M3471,2482Z" transform="translate(-3209.579 -2164.91)" fill="#633172"/>
        <path id="Path_6710" data-name="Path 6710" d="M3362.767,2561.627l1.508-.85.311-.8h0c.185.3.374.6.57.916.05-.09-.22,1.026-.22,1.026l-1.528.852s-.235-.44-.647-1.147Z" transform="translate(-3125.174 -2225.718)" fill="#14082a"/>
        <path id="Path_6712" data-name="Path 6712" d="M546.3,937.327l14.71,1.05-1.134-32.1H547.963Z" transform="translate(-502.366 -854.422)" fill="#ffaca4"/>
        <path id="Path_6713" data-name="Path 6713" d="M2501.974,1299.912c-6.606-2.339-11.2-9.953-13.164-13.813l.46-8.588h11.913Z" transform="translate(-2443.673 -1225.656)" fill="#e87d6e"/>
        <path id="Path_6714" data-name="Path 6714" d="M2512.667,1059.6a16.438,16.438,0,0,0-8.148,2.074,17.028,17.028,0,0,1,5.263-.808c11.8,0,19.656,10.2,19.656,28.42,0,14.472-3.327,25.707-9.643,29.728,8.187-2.129,12.537-14.443,12.537-30.985C2532.323,1069.8,2524.47,1059.6,2512.667,1059.6Z" transform="translate(-2455.924 -1055.728)" fill="#c6594e" opacity="0.24"/>
        <path id="Path_6715" data-name="Path 6715" d="M2447.2,1106.3s.74,15.144-12.648,17.641c-.22-.22-5.126-5.2-5.126-5.2s6.4-11.043,6.875-12.442,6.2-5.483,6.2-5.483Z" transform="translate(-2397.369 -1087.874)" fill="#240f4b"/>
        <path id="Path_6716" data-name="Path 6716" d="M2496.18,1080.356s11.288,11.451,27.4,7.016c-.071-.661,8.451-2.365,8.451-2.365l-13.188-11.231-21.539-7.637s-3.393,3.325-3.62,4.459S2496.18,1080.356,2496.18,1080.356Z" transform="translate(-2447.462 -1060.831)" fill="#0a1d30"/>
        <path id="Path_6717" data-name="Path 6717" d="M2463.214,1061.4l-14.093-8.2a38.36,38.36,0,0,0-19.277-5.2h0a21.754,21.754,0,0,0-7.6,1.371l-7.025,2.621h0a19.319,19.319,0,0,0-6.234,13.226l-.2,3.71s8.738,2.722,8.94,2.394,16.628-6.985,17.757-7.157,18.779,3.744,18.779,3.744,9.546,1.542,10.592.68S2463.214,1061.4,2463.214,1061.4Z" transform="translate(-2381.274 -1046.685)" fill="#0f2c4a"/>
        <path id="Path_6718" data-name="Path 6718" d="M2509.649,1886.3c27.061-7.154,59.3-16.145,68.33-16.011a21.686,21.686,0,0,1,12.743,9.029c16.161,24.1,49.381,78.38,66.811,98.333-3.358-.918-15.485,13.137-15.485,13.137s-18.213-18.8-36.032-33.852c-.542-.458-1.438-1.191-2.008-1.616-4.371-3.25-20.774-23.437-29.173-44.3a5.558,5.558,0,0,0-7.212-3.1,452.3,452.3,0,0,0-59.1,29.539c-7.685,4.008-18.185,3.523-27.136,1.878a24.525,24.525,0,0,1-20.156-23.983C2461.192,1899.949,2495.188,1890.876,2509.649,1886.3Z" transform="translate(-2422.166 -1687.897)" fill="#24285b"/>
        <path id="Path_6719" data-name="Path 6719" d="M2591.206,1879.353a21.674,21.674,0,0,0-12.743-9.028c-9.028-.134-41.269,8.857-68.33,16.011-13.928,4.4-45.97,12.992-48.282,27.378,7.9-11.325,33.912-18.37,46.1-22.217,27.061-7.155,59.306-16.148,68.33-16.011a21.688,21.688,0,0,1,12.743,9.028c15.436,23.02,46.435,73.571,64.373,95.446,1.938-1.541,3.651-2.539,4.624-2.272C2640.587,1957.733,2607.366,1903.453,2591.206,1879.353Z" transform="translate(-2422.65 -1687.928)" fill="#24285b" opacity="0.31"/>
        <path id="Path_6720" data-name="Path 6720" d="M2459.907,1386.6c2.054,2.169,7.427,6.386,12.345,7.725-.145.476-1.5,10.451-1.5,10.451l-16.375-13.166S2458.744,1385.374,2459.907,1386.6Z" transform="translate(-2416.825 -1310.601)" fill="#fff"/>
        <path id="Path_6721" data-name="Path 6721" d="M2535.54,1401.707l4.144,8.57,4.917-10.059s-5.065-5.644-5.111-4.019C2539.442,1397.886,2535.54,1401.707,2535.54,1401.707Z" transform="translate(-2480.113 -1317.98)" fill="#fff"/>
        <path id="Path_6722" data-name="Path 6722" d="M2994.563,2113.318a3.71,3.71,0,0,0-1.271-1.957c-9.288-9.15-19.36-17.491-28.378-26.905s-17.066-20.1-21.3-32.427c-1.449-4.213-2.541-8.762-5.591-12.006-3.869-4.114-10.165-5.157-15.7-4.058-2.2.44-7.174,1.634-10.129,3.779,2.387-1.024,4.759-2.01,7.088-2.94a5.558,5.558,0,0,1,7.212,3.1c8.4,20.86,24.8,41.046,29.173,44.3.57.425,1.467,1.158,2.008,1.616,14.62,12.354,29.508,27.22,34.376,32.161.555-.722,1.1-1.453,1.619-2.2A3.62,3.62,0,0,0,2994.563,2113.318Z" transform="translate(-2773.823 -1816.776)" fill="#24285b" opacity="0.5"/>
        <path id="Path_6724" data-name="Path 6724" d="M2420.386,1572.359c1.348,6.047,1.475,12.287,1.621,18.482a16.187,16.187,0,0,0,.736,5.371c1.081,2.863,3.649,4.844,6.1,6.683,1.92,1.44,3.964,2.927,6.331,3.25s5.162-.98,5.6-3.338a5.451,5.451,0,0,0-1.944-4.673c-1.264-1.22-2.816-2.121-4.065-3.36-4-3.964-4.078-10.233-5.043-15.776a41.751,41.751,0,0,0-9.669-20.219c-2.345-2.673-7-6.63-10.61-4.4C2414.027,1560.608,2418.528,1564.008,2420.386,1572.359Z" transform="translate(-2381.781 -1441.043)" fill="#3e1762" opacity="0.23"/>
        <path id="Path_6725" data-name="Path 6725" d="M2508.547,2005.942c7.98-4.816,18.979-10.872,30.776-16.736l-23.122,8.355c-7.267,2.625-14.661,5.285-22.377,5.7s-15.934-1.713-21.188-7.377a7.827,7.827,0,0,1-2.374-4.6c-.236-3.684,3.51-6.2,6.7-8.053a125.456,125.456,0,0,0,17.478-12.248c2.261-1.889,12.992-11.193,6.331-12.552-.582-.119-1.163-.22-1.746-.324-16.1,5.16-37.8,13.433-37.768,25.738a24.525,24.525,0,0,0,20.156,23.983C2490.36,2009.461,2500.859,2009.95,2508.547,2005.942Z" transform="translate(-2422.19 -1756.376)" fill="#24285b" opacity="0.5"/>
        <path id="Path_6726" data-name="Path 6726" d="M3159.089,2758.923l-4.129-.473.471,3.57,1.724.31a17.657,17.657,0,0,0,1.438-1.332C3158.653,2760.844,3159.089,2758.923,3159.089,2758.923Z" transform="translate(-2963.133 -2380.484)" fill="#1b0b38"/>
        <path id="Path_6727" data-name="Path 6727" d="M3038.51,2655.62l1.147.542s-.938,1.2-.991,1.282-.592.253-.61.132-.11-1.033-.088-1.1S3038.51,2655.62,3038.51,2655.62Z" transform="translate(-2871.9 -2300.298)" fill="#1b0b38"/>
        <path id="Path_6728" data-name="Path 6728" d="M3051.064,2543.52c-5.917.342-8.368,2.916-14.3,2.88.18,3.924,3.459,12.16,3.4,14.622-.082,3.167-3.8,8.429-3.8,8.429l-.848,3.5,3.129,5.664,1.363,3.208s8.009,7.63,8.165,8.354,1.634,3.149,1.722,3.981,7.641,4.206,7.641,4.206,4.356-2.18,4.708-2.73,2.259-2.671,2.059-2.722C3057.472,2582.787,3057.84,2562.8,3051.064,2543.52Z" transform="translate(-2869.994 -2212.883)" fill="#ffaca4"/>
        <path id="Path_6729" data-name="Path 6729" d="M3054.384,2544.982c6.776,19.277,6.408,39.267,13.243,49.394.024,0,.015.044-.018.106.615-.742,1.271-1.542,1.149-1.57-6.826-10.13-6.468-30.116-13.243-49.392-5.917.342-8.368,2.916-14.3,2.88a12.381,12.381,0,0,0,.163,1.427C3046.4,2547.517,3048.91,2545.3,3054.384,2544.982Z" transform="translate(-2874.439 -2212.883)" fill="#fff" opacity="0.22"/>
        <path id="Path_6731" data-name="Path 6731" d="M3042.885,2609.3l-3.134.553a10.608,10.608,0,0,1,.4,2.464c-.082,3.167-3.8,8.429-3.8,8.429l-.848,3.5,3.129,5.664.319.751c2.407,2,4.763,3.9,4.715,3.807C3040.3,2626.657,3042.885,2609.3,3042.885,2609.3Z" transform="translate(-2869.987 -2264.178)" fill="#e87d6e" opacity="0.25"/>
        <path id="Path_6733" data-name="Path 6733" d="M3035.875,2733.5s-.44,1.515,2.143,14.831c.079-.066-.568.881-.568.881l-1.762-3.5-1.07-8.385-.927-4.25Z" transform="translate(-2868.567 -2360.693)" fill="#493c60"/>
        <path id="Path_6734" data-name="Path 6734" d="M3034.647,2737.3l-.927-4.25,2.178.425s-.341,1.209,1.416,10.955l-.623-.068-1.007-1.246-.588-2.288Z" transform="translate(-2868.591 -2360.677)" fill="#4a2556" opacity="0.14"/>
        <path id="Path_6735" data-name="Path 6735" d="M3021.881,2656.345s-.154,1.079,4.728,7.4c.02.09,8.8,11.248,12.884,15.661-.24-.22,5.362,4.609,11.567-.817-.264-.029,10.684,2.021,13.12,4.578a.949.949,0,0,1-.121,1.414c-2.178,1.554-15.009,5.86-20.589,5.466-1.121.055-4.125-.046-7.791-5.547-.11-.071-7.181-11.23-14.219-10.918.13.161,2.525,15.077,2.525,15.077l-1.733.247s-1.471-10.724-3.717-17.055c0,.093-3.832-5.8-1.169-11.4-.11-.07,2.642-5.309,4.307-5.012C3021.745,2655.339,3021.881,2656.345,3021.881,2656.345Z" transform="translate(-2855.105 -2300.154)" fill="#240f4b"/>
        <path id="Path_6736" data-name="Path 6736" d="M3042,2798.4l1.713-.251.577-.632h0c.066.346.132.7.2,1.057.079-.064-.568.881-.568.881l-1.733.247s-.066-.484-.191-1.3Z" transform="translate(-2875.048 -2410.951)" fill="#14082a"/>
        <path id="Path_6737" data-name="Path 6737" d="M3026.5,2731.482c-.062-.2-.126-.4-.19-.594-.018-.06-.037-.121-.057-.181-.079-.24-.161-.478-.242-.707a3.382,3.382,0,0,0,2.924,1.731h0a.08.08,0,0,0,.013.04v.011a.569.569,0,0,0,.022.09c.009.038,0,.016,0,.022a.968.968,0,0,0,.031.148h0c.063.319.161.856.279,1.542h0c.359,2.083.927,5.538,1.392,8.394l-1.946-.967a91.38,91.38,0,0,0-2.187-9.385Z" transform="translate(-2862.578 -2358.299)" fill="#1b0b38"/>
        <path id="Path_6738" data-name="Path 6738" d="M2765.7,2158.683c-9.526-24.723-17.55-83.8-24.588-111.951-.868-3.47-3.917-6.826-5.642-8.242-3.594-2.959-9.353-2.242-13.778-.8-15.293,4.99-59.35,30.637-59.35,30.637,18.16-1.211,34.253-4.926,50.066-5.023-.683,23.782,8.982,52.189,12.219,57.11.39.594.98,1.592,1.321,2.2,11.57,20.259,21.756,41.262,21.756,41.262S2762.857,2156.666,2765.7,2158.683Z" transform="translate(-2578.991 -1817.465)" fill="#171a46"/>
        <g id="Group_1000" data-name="Group 1000" transform="translate(93.73 218.977)" opacity="0.15">
          <path id="Path_6739" data-name="Path 6739" d="M2709.48,2168.688c6.309-.709,12.393-1.588,18.336-2.347C2721.851,2166.994,2715.76,2167.877,2709.48,2168.688Z" transform="translate(-2709.48 -2137.737)" fill="#171a46"/>
          <path id="Path_6740" data-name="Path 6740" d="M2957.807,2046.738c-.868-3.47-3.918-6.826-5.642-8.244-3.112-2.561-7.848-2.365-11.935-1.321a9.908,9.908,0,0,1,6.056,2.037c1.724,1.42,4.772,4.774,5.642,8.245,7.014,28.061,15.011,86.847,24.5,111.708,2.682-.78,5.016-1.143,5.97-.467C2972.869,2133.966,2964.843,2074.885,2957.807,2046.738Z" transform="translate(-2889.417 -2036.447)" fill="#171a46"/>
          <path id="Path_6741" data-name="Path 6741" d="M3046.61,2596.467c.491,1,.755,1.542.755,1.542a98.749,98.749,0,0,1,11.777-4.67C3057.024,2592.517,3051.028,2594.648,3046.61,2596.467Z" transform="translate(-2972.372 -2470.566)" fill="#171a46"/>
        </g>
        <path id="Path_6742" data-name="Path 6742" d="M2747.194,2231.894c-10.244-21.941-24.021-43.279-25.612-67.445-.286-4.34-.185-8.808-1.654-12.893-1.392-3.874-4.195-7.707-3.151-11.688.533-2.031,1.982-4.371.612-5.963-1.053-1.229-3-.925-4.565-.531a222.89,222.89,0,0,1-35.292,5.9c-2.063.176-4.758-.022-7.41-.086-4.748,2.693-7.782,4.459-7.782,4.459,18.16-1.211,34.253-4.926,50.066-5.023-.683,23.782,8.982,52.188,12.219,57.11.39.595.98,1.592,1.321,2.2,9.486,16.61,18.042,33.72,20.816,39.344a2.908,2.908,0,0,0,.836-.78C2748.528,2235.175,2747.879,2233.365,2747.194,2231.894Z" transform="translate(-2578.991 -1892.783)" fill="#171a46" opacity="0.2"/>
        <path id="Path_6744" data-name="Path 6744" d="M2435.79,1890.806s42.566-2.733,52.138-25.035c.6-.029-21.111-12.426-21.111-12.426l-31.027-10.165Z" transform="translate(-2402.329 -1666.762)" fill="#65afff"/>
        <path id="Path_6745" data-name="Path 6745" d="M2482.725,1737.74c-6.465-.026-12.237,5.285-17.6,9.432a63.861,63.861,0,0,1-39.516,13.181c-1.046-.013-2.105-.051-3.16-.04.011,4.829.015,9.63.013,14.256a61.19,61.19,0,0,0,12.5,2.946,27.146,27.146,0,0,0,9.429.169c6.117-1.226,10.907-5.838,15.326-10.242l13.078-13.036c3.856-3.845,7.8-7.831,10.438-12.53Q2482.976,1739.794,2482.725,1737.74Z" transform="translate(-2391.926 -1584.54)" fill="#3e1762" opacity="0.23"/>
        <path id="Path_6746" data-name="Path 6746" d="M2555.072,1698.753c-.068-.22-.112-.35-.13-.412-.092-.245-.189-.491-.293-.733-.244-.57-.515-1.13-.812-1.673a8.707,8.707,0,0,0-1.517-2.154A6.652,6.652,0,0,0,2551,1692.5l-.029-.022-.128-.086-.042-.029-.143-.095-.042-.026-.207-.137c-.258-.165-.52-.322-.789-.467l-.244-.1a14.094,14.094,0,0,0-1.812-.529,3.479,3.479,0,0,1-2.1-1.484c-4.569,1.938-8.148,3.147-8.148,3.147s-15.582,12.041-27.732,15.635l-6.736,14.534,4.014,8.178s22.3-11.852,34.352-25.628c.311-.485,1.542-2.9,8.066-4.131a26.687,26.687,0,0,0,6.214-1.524A5.461,5.461,0,0,1,2555.072,1698.753Z" transform="translate(-2454.622 -1546.939)" fill="#ffaca4"/>
        <path id="Path_6747" data-name="Path 6747" d="M2565.856,1718.716c-.068-.22-.112-.35-.13-.412-.092-.244-.189-.491-.292-.733-.245-.57-.516-1.13-.812-1.674-.181-.328-.317-.57-.44-.777.081.178.165.354.242.533.1.242.2.487.293.733.02.062.062.2.132.41a5.445,5.445,0,0,0,.4.96,26.686,26.686,0,0,1-6.214,1.524c-6.521,1.231-7.756,3.647-8.066,4.131-11.7,13.382-33.077,24.947-34.29,25.6l.956,1.949s22.3-11.851,34.352-25.627c.311-.485,1.542-2.9,8.066-4.131a26.673,26.673,0,0,0,6.214-1.524A5.455,5.455,0,0,1,2565.856,1718.716Z" transform="translate(-2465.406 -1566.902)" fill="#e87d6e"/>
        <path id="Path_6748" data-name="Path 6748" d="M2510.047,1709.995c12.151-3.585,27.733-15.635,27.733-15.635s3.587-1.207,8.147-3.147a3.472,3.472,0,0,0,2.1,1.487,14.082,14.082,0,0,1,1.812.528l.244.1c.269.145.531.3.788.467l.207.134.042.027.143.1.042.029.128.086.029.022a6.2,6.2,0,0,1,1.321,1.286,8.629,8.629,0,0,1,1.517,2.154q.446.816.813,1.674c.062.143.114.289.172.44l.095-.033a5.435,5.435,0,0,1-.405-.958c-.068-.22-.112-.35-.13-.412-.093-.245-.189-.491-.293-.733-.244-.57-.515-1.13-.812-1.674a8.7,8.7,0,0,0-1.517-2.154,6.652,6.652,0,0,0-1.321-1.286l-.029-.022-.127-.086-.042-.029-.143-.095-.042-.026-.207-.136c-.258-.165-.52-.322-.788-.467l-.245-.1a14.072,14.072,0,0,0-1.812-.529,3.48,3.48,0,0,1-2.1-1.484c-4.569,1.938-8.148,3.147-8.148,3.147s-15.582,12.041-27.733,15.635l-6.736,14.534.7,1.416Z" transform="translate(-2454.543 -1546.939)" fill="#fff" opacity="0.22"/>
        <path id="Path_6749" data-name="Path 6749" d="M2308.163,1438.458a11.3,11.3,0,0,1,6.826.606c6.89,2.495,21.14,12.726,20.438,54.662.1,2.347,3.79,6.432,5.109,8.463a1.417,1.417,0,0,1,.167,1.218l-1.017,3.184a1.5,1.5,0,0,0,.535,1.627l.088.07a1.566,1.566,0,0,1,.6,1.2h0c0,1.213,1.5,2.032,2.863,1.555l.293-.1a2.447,2.447,0,0,1,1.742.051c3.015,1.286,11.556,6.791-1.486,24.844a2.274,2.274,0,0,1-2.1.81,37.731,37.731,0,0,0-7.1.5l-2.821.506a16.528,16.528,0,0,1-12.31-2.552l-1.434-1.013a3.505,3.505,0,0,1-1.594-3.065l.156-2.422a1.471,1.471,0,0,0-.26-.918l-13.1-19.244a2.536,2.536,0,0,1-.42-1.863,31.807,31.807,0,0,0-1.625-15.077,1.433,1.433,0,0,0-.172-.361c-1.062-1.528-5.725-22.481-6-23.707a.944.944,0,0,1-.02-.117C2295.355,1466,2292.528,1443.212,2308.163,1438.458Z" transform="translate(-2292.712 -1350.924)" fill="#65afff"/>
        <path id="Path_6750" data-name="Path 6750" d="M2682.845,1585.873l-24.269-1.44a4.4,4.4,0,0,0-3.728,1.685l-29.695,38.071a1.367,1.367,0,0,0,1.077,2.2h24.37a4.9,4.9,0,0,0,3.811-1.823l29.416-36.475a1.368,1.368,0,0,0-.982-2.22Z" transform="translate(-2549.771 -1464.987)" fill="#d4d4d4"/>
        <path id="Path_6751" data-name="Path 6751" d="M2753.573,1681.754s1.808-2.53-1.592-5.858c.073.073-4.34-4.268-6.221-2.677,0,0-1.083,2.532,2.171,4.4-.22-.073,1.854,2.933,1.127,4.541-.775,1.72-6.263-.634-6.263-.634l-2.966-.073-1.592-.507s-3.4-1.229-4.2.795c.073.073-.936,2.449,3.979,3.184a30.627,30.627,0,0,0,3.182.868s4.34,1.953,5.93,2.532c.073,0-4.99-.507-4.99-.507a42.806,42.806,0,0,0-4.625-.724c-.145.073-6.727-1.735-7.234.661,0,.22-.44,1.808,2.459,2.1,0,.073-.44,1.519,3.255,2.821a32.046,32.046,0,0,0,3.473,1.881,4.4,4.4,0,0,0-.082.526,3.5,3.5,0,0,0,3.175,3.856,12.051,12.051,0,0,0,3.776-.33c-.22.22,2.748-.44,2.748-.44l1.3-1.953.143-1.229,1.519-1.665.361-2.6,1.638-2.75-.552-2.052.552-2.288Z" transform="translate(-2631.956 -1533.954)" fill="#ffaca4"/>
        <g id="Group_1001" data-name="Group 1001" transform="translate(102.87 138.935)" opacity="0.31">
          <path id="Path_6752" data-name="Path 6752" d="M2757.1,1724.47c-1.141-.5-2.05-.91-2.05-.91s-2.821-.661-3.182-.868c-.319-.048-.61-.1-.881-.163a6.789,6.789,0,0,0,3.2,1.134A25.284,25.284,0,0,0,2757.1,1724.47Z" transform="translate(-2750.99 -1711.615)" fill="#e87d6e"/>
          <path id="Path_6753" data-name="Path 6753" d="M2794.167,1737.826h.09c-.172-.064-.379-.143-.608-.236Z" transform="translate(-2784.256 -1723.358)" fill="#e87d6e"/>
          <path id="Path_6754" data-name="Path 6754" d="M2790.156,1683.706l-.48-1.881s1.808-2.53-1.592-5.857c.059.057-2.8-2.748-4.891-3.008a17.934,17.934,0,0,1,2.577,2.037c3.4,3.327,1.592,5.857,1.592,5.857l.48,1.88-.553,2.288.553,2.052-1.639,2.75-.361,2.6-1.52,1.665-.143,1.229-1.3,1.953s-2.964.661-2.748.44a12.41,12.41,0,0,1-3.567.346,3.523,3.523,0,0,0,2.105.956,12.053,12.053,0,0,0,3.776-.33c-.22.22,2.748-.44,2.748-.44l1.3-1.953.143-1.229,1.52-1.665.361-2.6,1.638-2.75-.553-2.052Z" transform="translate(-2770.93 -1672.96)" fill="#e87d6e"/>
        </g>
        <path id="Path_6755" data-name="Path 6755" d="M2447.21,1083.9c0,18.673,12.668,31.214,24.762,31.214,10.114,0,15.52-13.413,15.52-32.086s-8.047-29.122-20.14-29.122S2447.21,1065.233,2447.21,1083.9Z" transform="translate(-2411.234 -1051.294)" fill="#ffaca4"/>
        <path id="Path_6756" data-name="Path 6756" d="M2523.412,1084.328c0-18.673-8.048-29.122-20.142-29.122a17.084,17.084,0,0,0-6.93,1.411,16.735,16.735,0,0,1,9.324-2.711c12.094,0,20.14,10.451,20.14,29.122,0,16.2-4.069,28.439-11.752,31.4C2520.184,1110.039,2523.412,1098.753,2523.412,1084.328Z" transform="translate(-2449.545 -1051.29)" fill="#fff" opacity="0.22"/>
        <path id="Path_6757" data-name="Path 6757" d="M2413.269,1199.013a5.364,5.364,0,0,0-3.244,6.857c1,2.783,4.893,9.222,11.27,6.926,3.444-1.24,1.416-6.646.414-9.427S2416.063,1198.007,2413.269,1199.013Z" transform="translate(-2381.992 -1164.271)" fill="#ffb47f"/>
        <path id="Path_6758" data-name="Path 6758" d="M2413.269,1199.013a5.364,5.364,0,0,0-3.244,6.857c1,2.783,4.893,9.222,11.27,6.926,3.444-1.24,1.416-6.646.414-9.427S2416.063,1198.007,2413.269,1199.013Z" transform="translate(-2381.992 -1164.271)" fill="#ffaca4"/>
        <path id="Path_6759" data-name="Path 6759" d="M2429.822,1215.422c-.381-1.061-2.717-2.6-4.232-2.521a.86.86,0,0,0-.22.035,2.266,2.266,0,0,0-1.288,1.169,2.216,2.216,0,0,0-.083,1.713c.517,1.44,2.713,5.505,5.9,5.353h0a4.794,4.794,0,0,0,1.255-.249c.167-.766-.253-2.557-1.253-5.329Z" transform="translate(-2393.029 -1175.271)" fill="#e87d6e"/>
        <path id="Path_6760" data-name="Path 6760" d="M2442.033,1101.767s.848,15.414-12.869,17.964c-.233-.233-5.344-5.214-5.344-5.214s6.556-11.314,7.047-12.75,6.355-5.617,6.355-5.617Z" transform="translate(-2392.994 -1084.232)" fill="#0f2c4a"/>
        <path id="Path_6761" data-name="Path 6761" d="M2492.22,1075.179s13.833,6.937,28.074,7.188c-.073-.661,8.661-2.422,8.661-2.422l-13.514-11.508-22.069-7.826s-3.477,3.409-3.711,4.571S2492.22,1075.179,2492.22,1075.179Z" transform="translate(-2444.326 -1056.519)" fill="#0f2c4a"/>
        <path id="Path_6762" data-name="Path 6762" d="M2474.574,1065.464l-20.7-1.9-10.083,2.863s-8.368,2.565-8.74,2.565-2.852-3.706-1.805-5.417,6.271-7.031,6.84-7.791,9.513-5.505,9.513-5.505l6.67-.379,4.151.9,4.219,1.475,4.9,3.325,8.551,8.368Z" transform="translate(-2400.145 -1048.167)" fill="#0f2c4a"/>
      </g>
      <g id="Table_with_hand" data-name="Table with hand" transform="translate(191.156 236.298)">
        <path id="Path_6763" data-name="Path 6763" d="M3083.183,1847.655c0,20.8-62.655,37.655-139.941,37.655s-139.941-16.859-139.941-37.655c0-2.4-1.16-12.475.441-14.754,12.243-17.434,71.148-22.9,139.5-22.9,69.292,0,128.561,5.552,139.721,23.342C3084.249,1835.4,3083.183,1845.513,3083.183,1847.655Z" transform="translate(-2802.895 -1729.638)" fill="#630071"/>
        <ellipse id="Ellipse_539" data-name="Ellipse 539" cx="139.941" cy="37.655" rx="139.941" ry="37.655" transform="translate(0.406 67.156)" fill="#9413a7"/>
        <path id="Path_6764" data-name="Path 6764" d="M1457.21,1742.78h20.259v150.181a4.845,4.845,0,0,1-4.844,4.844h-10.57a4.845,4.845,0,0,1-4.845-4.844Z" transform="translate(-1326.988 -1595.469)" fill="#630071"/>
        <g id="laptop_with_hand" data-name="laptop with hand" transform="translate(167.145)">
          <path id="Path_6765" data-name="Path 6765" d="M3590.693,1813.894l-.027.055,56.686-3.563a6.111,6.111,0,0,1,2.45.346l30.316,10.847,1.832-.308v1.493h0a.777.777,0,0,1-.7.817l-44.482,4.66-51.334-13.961v-1.44Z" transform="translate(-3580.256 -1729.929)" fill="#fff"/>
          <path id="Path_6766" data-name="Path 6766" d="M3636.711,1821.707l44.482-4.657a.8.8,0,0,0,.183-1.542l-31.626-11.316a6.114,6.114,0,0,0-2.451-.346l-61.928,3.893Z" transform="translate(-3580.209 -1724.829)" fill="#919191"/>
          <path id="Path_6767" data-name="Path 6767" d="M3786.015,1768.195s-2.453-.731-8.791,5.862c-1.616.255-8.863,2.783-8.863,2.783-1.322,1.008-5.446,1.812-5.446,1.812a3.272,3.272,0,0,1,.749-3.352,5.75,5.75,0,0,1,1.964-1.581c2.121-1.066,6.708-3.021,7.452-3.909a23.275,23.275,0,0,1-2.105-2.669s-5.307-1.61-7.3-2.508c.291.066-8.691-1.224-8.691-1.224l-2.169.582a3.881,3.881,0,0,1,1.709-3.981,12.234,12.234,0,0,1,3.508-.854l1.169-.286a9.116,9.116,0,0,1,2.7-1.966c-.16-.1,1.147-2.77,4.041-3.614.134-.308,14.342-2.944,21.12-.308.06.262-1.015,11.73-1.015,11.73Z" transform="translate(-3710.736 -1684.27)" fill="#c6594e"/>
          <path id="Path_6768" data-name="Path 6768" d="M3820.666,1752.981c.024.115-.163,2.336-.383,4.818a38.264,38.264,0,0,0-24.443-1.685,6.72,6.72,0,0,1,3.71-2.825C3799.68,1752.981,3813.888,1750.345,3820.666,1752.981Z" transform="translate(-3744.332 -1684.27)" fill="#f4908c" opacity="0.54"/>
          <path id="Path_6769" data-name="Path 6769" d="M3866.473,1743.421c-.94.427-3.922,1.634-4.8,2.173,1.279-.784,7.885,9.128,8.861,15.985.291.037,4.316.6,5.963-.68C3875.836,1757.027,3869.346,1743.2,3866.473,1743.421Z" transform="translate(-3795.666 -1677.718)" fill="#fff"/>
          <path id="Path_6770" data-name="Path 6770" d="M3942.925,1446.87a3.49,3.49,0,0,0-2.574,1.651l-19.548,32.036a81.066,81.066,0,0,1-15.445,19.041h0a3.332,3.332,0,0,0-3.713,1.482l-.973.685-3.18-.192-22.571,10.116s9.469,5.034,5.946,17.231c3.424.17,16.943-2.264,24.355-2.552a30.043,30.043,0,0,0,5.481-.709l2.77-.63c1.29,4.428-2.775,18.367,1.165,20.768l19.724,3.711,5.567-26.559,10.541-38.88,7.8-39.01Z" transform="translate(-3805.999 -1445.06)" fill="#ee1f4f"/>
          <path id="Path_6771" data-name="Path 6771" d="M3619.062,1612.5l-45.162-12.884a4.91,4.91,0,0,1-3.574-4.373l-4-57.588a3.49,3.49,0,0,1,4.2-3.627l44.737,9.075a4.682,4.682,0,0,1,3.761,4.265l4.067,61.931a3.153,3.153,0,0,1-4.034,3.2Z" transform="translate(-3565.355 -1514.375)" fill="#fff"/>
          <path id="Path_6772" data-name="Path 6772" d="M3613.985,1616.375l-44.574-12.886a4.9,4.9,0,0,1-3.523-4.374l-3.946-57.588a3.462,3.462,0,0,1,4.149-3.627l44.158,9.074a4.658,4.658,0,0,1,3.713,4.263l4.008,61.94a3.122,3.122,0,0,1-3.983,3.2Z" transform="translate(-3561.933 -1517.401)" fill="#a8a8a8"/>
          <path id="Path_6773" data-name="Path 6773" d="M4034.817,1789.432a9.568,9.568,0,0,1,5.545,3.111c1.61,1.843,3.226,3.671,4.866,5.538,1.557.725,3.64,2.006,5.065,2.61s2.2.535,3.495,1.015c-.784,2.363-1.8,4.655-2.372,7.1a54.5,54.5,0,0,0-.833,6.1c-1.339-.881-3.3-2.306-4.51-3.083-2.125-1.381-3.567-2.281-5.659-3.57a57.31,57.31,0,0,1-7.062-.015,30.537,30.537,0,0,1-4.884-.125c2.766-4.345,5.324-8.148,3.657-13.4-1.526-.806-3.611-1.969-5.019-2.693a3.309,3.309,0,0,1-1.733-3.165c.038-1.165.533-1.275,1.264-1.541,1.132.4,1.726.793,2.995,1.13S4033.6,1789.148,4034.817,1789.432Z" transform="translate(-3923.321 -1711.953)" fill="#c6594e"/>
          <path id="Path_6774" data-name="Path 6774" d="M4049.421,1810.268c.568-2.447,1.572-4.732,2.347-7.11q-1.7-.474-3.4-.929-2.543-1.321-5.089-2.662c-1.59-1.786-3.153-3.684-4.728-5.452a8.979,8.979,0,0,0-5.459-3.041c-1.2-.269-3.946-.661-5.179-.984s-1.711-.689-2.779-1.039c.024-.068.02-.24.033-.291.165-.727.484-1.411,1.295-1.438,1.121.363,1.722.784,2.988,1.116s3.964.711,5.182,1a9.556,9.556,0,0,1,5.544,3.111c1.61,1.843,3.226,3.671,4.867,5.538,1.557.724,3.64,2.006,5.065,2.609s2.2.535,3.495,1.015c-.78,2.365-1.8,4.653-2.369,7.1a49.106,49.106,0,0,0-.822,6.115l-1.557-1.064A35.719,35.719,0,0,1,4049.421,1810.268Z" transform="translate(-3923.132 -1711.952)" fill="#f4908c" opacity="0.25"/>
          <path id="Path_6775" data-name="Path 6775" d="M3975.641,1795.963c2.143.753,6.025,1.592,8.513,2.3a1.22,1.22,0,0,1,.253.2c-.238.427-.256,1.279-.54,1.641-.892,1.138-1.761,1.982-3.523,1.559a59.348,59.348,0,0,1-6.386-2.57c-1.814-.731-3.2-1.563-4.933-2.272-.346-.22-6.13-3.4-4.239-4.523,2.015-.815,4.569,1.055,6.342,1.828S3973.5,1795.21,3975.641,1795.963Z" transform="translate(-3875.781 -1715.676)" fill="#c6594e"/>
          <path id="Path_6776" data-name="Path 6776" d="M3967.326,1827.193c2.1.727,5.807,1.484,8.242,2.116a.949.949,0,0,1,.22.187c-.235.418-.315,1.249-.605,1.594-.912,1.083-1.727,1.953-3.448,1.577a58.52,58.52,0,0,1-6.166-2.422c-1.762-.661-3.149-1.5-4.845-2.18-.346-.22-6.133-3.4-4.239-4.523,2.006-.819,4.583,1.057,6.337,1.826A45.841,45.841,0,0,0,3967.326,1827.193Z" transform="translate(-3869.306 -1740.04)" fill="#c6594e"/>
          <path id="Path_6777" data-name="Path 6777" d="M3973.672,1847.96c2.145.44,5.807.559,8.24.962a.749.749,0,0,1,.238.161c-.143.44-.339,1.266-.5,1.638a5.212,5.212,0,0,1-2.173,2.513c-2.233-.581-5.144-1.345-7.2-1.938s-3.239-1.061-5.135-1.616c-.357-.165-6.606-2.746-4.789-4.1,1.927-1.075,4.765.573,6.619,1.1S3971.526,1847.511,3973.672,1847.96Z" transform="translate(-3873.918 -1757.103)" fill="#c6594e"/>
          <path id="Path_6778" data-name="Path 6778" d="M4025.5,1813.76a2.814,2.814,0,0,0,2.572-.57c.108-.075.084-.159.236-.22a.4.4,0,0,1,.44.163,2.419,2.419,0,0,1,.26,1.526c0,3.374,1,6.386,1.947,9.577-1.229.661-2.433,1.383-3.62,2.123a32.14,32.14,0,0,0-5.153,1.1c-.681-.385-2.145-.579-2.669-1-.771-.621.773-7,.661-8.546-.086-1.262-4.362-6.373-2.332-5.71A71.938,71.938,0,0,0,4025.5,1813.76Z" transform="translate(-3917.025 -1731.308)" fill="#c6594e"/>
          <path id="Path_6779" data-name="Path 6779" d="M3970.981,1827.045c1.81.643,4.367,1.174,6.353,1.685-5.928.821-11.189-3.325-16.434-5.549,1.982.143,3.95,1.295,5.644,2.052S3969.171,1826.4,3970.981,1827.045Z" transform="translate(-3873.045 -1739.916)" fill="#c6594e"/>
          <path id="Path_6780" data-name="Path 6780" d="M3968.632,1812.308c2.134.751,5.946,1.63,8.449,2.257a1.1,1.1,0,0,1,.24.194c-.236.423-.275,1.266-.561,1.618-.9,1.114-1.742,1.967-3.495,1.581a52.93,52.93,0,0,1-6.318-2.524c-1.8-.718-3.2-1.566-4.928-2.27-.345-.22-6.133-3.4-4.241-4.521,2.015-.817,4.574,1.053,6.342,1.825S3966.5,1811.548,3968.632,1812.308Z" transform="translate(-3870.315 -1728.422)" fill="#c6594e"/>
          <g id="Group_1002" data-name="Group 1002" transform="translate(88.131 88.164)" opacity="0.54">
            <path id="Path_6781" data-name="Path 6781" d="M3962.194,1845.928c1.04-.848.1-.086.729-.5,1.286,1.68,2.792,2.187,5.179,3.131.057.022,3.79,1.227,4.833,1.542s4.318,1.161,5.228,1.418,1.171.412,1.542.524c.319.1.046.022.046.022a23.623,23.623,0,0,0,4.994.187,59.339,59.339,0,0,0,7.062,0c2.061,1.279,3.543,2.2,5.628,3.556,1.062.687,2.825,1.964,4.012,2.741-.035.577-.083,1.136-.15,1.678-1.345-.881-3.3-2.306-4.512-3.083-2.129-1.381-3.552-2.279-5.67-3.57-1.443.293-6.166-.033-7.036-.013a37.043,37.043,0,0,1-4.637-.093c-.751-.112-.152-.022-.152-.022-1-.288-.511-.22-1.713-.577s-3.721-.958-5.285-1.433-3.462-1.061-4.966-1.619C3966.149,1850.2,3961.679,1846.357,3962.194,1845.928Z" transform="translate(-3962.153 -1845.43)" fill="#f4908c"/>
          </g>
          <path id="Path_6782" data-name="Path 6782" d="M4173.99,1474.118a9.917,9.917,0,0,1,.014,1.826c-.78,25.951-19.513,83.982-44.119,92.231-23.661,7.927-45.523,3.554-65.945-6.181a4.31,4.31,0,0,1-.8-7.267c2.971-2.383,4.818-4.926,7.309-9.645,3.792-7.19,36-.544,45.721-.594s13.983-14.161,15.43-23c1.581-9.663,9.281-20.785,12.226-27.658,3.3-7.72,18.5-28.8,24.238-25.692C4170.494,1469.451,4173.64,1471.9,4173.99,1474.118Z" transform="translate(-3951.495 -1462.814)" fill="#ee1f4f"/>
        </g>
      </g>
      <g id="Papers" transform="translate(224.397 323.772)">
        <path id="Path_6783" data-name="Path 6783" d="M1053.118,1506.853l-35.378-10.306,29.435-7.357,35.38,10.306Z" transform="translate(-1017.74 -1485.136)" fill="#c9d0d1"/>
        <path id="Path_6784" data-name="Path 6784" d="M1104.95,1488.443l-35.38-10.306L1099,1470.78l35.381,10.306Z" transform="translate(-1058.157 -1470.78)" fill="#e6e6e6"/>
        <path id="Path_6785" data-name="Path 6785" d="M1118.448,1528.553l-35.378-10.306,29.435-7.357,35.378,10.306Z" transform="translate(-1068.684 -1502.058)" fill="#f7f7f7"/>
      </g>
    </g>
  </g>
</svg>
