<svg xmlns="http://www.w3.org/2000/svg" xmlns:xlink="http://www.w3.org/1999/xlink" width="83" height="82" viewBox="0 0 83 82">
  <defs>
    <clipPath id="clip-path">
      <rect id="Rectangle_657" data-name="Rectangle 657" width="53.807" height="52.609" fill="#56006c"/>
    </clipPath>
  </defs>
  <g id="Group_7617" data-name="Group 7617" transform="translate(-762 -10121)">
    <rect id="Rectangle_183" data-name="Rectangle 183" width="83" height="82" rx="16" transform="translate(762 10121)" fill="#6d007d" opacity="0.2"/>
    <g id="Group_2136" data-name="Group 2136" transform="translate(776.889 10136)">
      <g id="Group_2135" data-name="Group 2135" clip-path="url(#clip-path)">
        <path id="Path_8677" data-name="Path 8677" d="M53.807,59.074a1.371,1.371,0,0,1-1.439.792c-3.379-.011-6.758,0-10.137-.005-.088,0-.176,0-.263,0-.726-.045-1.194-.462-1.181-1.052s.469-1,1.22-1c3.011-.008,6.023,0,9.034,0h.607a4.672,4.672,0,0,0-3.435-5.433,4.192,4.192,0,0,0-1.084-.164c-1.662-.017-3.325-.007-5.009-.007-1.689,5.867-5.4,9.881-11.5,11.351s-11.271-.388-15.552-4.836c-.113.1-.23.2-.34.311Q9.117,64.511,3.507,70a1.871,1.871,0,0,0-.671,1.885,1.826,1.826,0,0,0,2.87,1,5.14,5.14,0,0,0,.5-.453q2.974-2.9,5.945-5.81a5.152,5.152,0,0,1,.38-.354A1.038,1.038,0,0,1,14,66.286a.987.987,0,0,1,.023,1.4,2.894,2.894,0,0,1-.248.264q-3.1,3.034-6.2,6.065a4.012,4.012,0,0,1-4.938.762,3.8,3.8,0,0,1-1.158-5.607,8.53,8.53,0,0,1,.7-.764q5.6-5.489,11.218-10.97a1.739,1.739,0,0,1,.344-.239l-2.146-5c-.626,0-1.411-.007-2.195,0-1.032.011-2.073-.043-3.094.069A4.517,4.517,0,0,0,2.122,56.71c-.015.341,0,.682,0,1.1h1.69c.858,0,1.716-.011,2.574,0,.72.013,1.159.389,1.186.977a1.055,1.055,0,0,1-1.159,1.064q-2.626.032-5.252,0c-.666-.008-1.1-.354-1.116-.933a12.065,12.065,0,0,1,.242-3.926,6.593,6.593,0,0,1,4.525-4.538c.165-.053.332-.1.556-.169A5.309,5.309,0,0,1,4.7,46.411a4.086,4.086,0,0,1,2.689-3.346,4.308,4.308,0,0,1,4.4.623l.322.242C14.916,37.4,19.8,33.724,27.13,33.644A15.407,15.407,0,0,1,41.61,43.792a12.827,12.827,0,0,1,2.423-.955,4.288,4.288,0,0,1,5.136,4.049,4.862,4.862,0,0,1-.622,3.3,23.739,23.739,0,0,1,2.429,1.245,6.328,6.328,0,0,1,2.732,4.221c.023.115.066.226.1.339ZM26.9,35.668A13.153,13.153,0,1,0,40.358,48.806,13.355,13.355,0,0,0,26.9,35.668M11.36,47.479c0-.171.007-.343,0-.513A2.293,2.293,0,0,0,9.235,44.8a2.265,2.265,0,0,0-2.442,1.809,5.194,5.194,0,0,0-.007,1.686,2.293,2.293,0,0,0,2.983,1.732,2.348,2.348,0,0,0,1.592-2.545m31.1-.019c0,.171-.008.343,0,.513a2.312,2.312,0,0,0,4.568.337,5.183,5.183,0,0,0,0-1.685,2.285,2.285,0,0,0-2.94-1.731,2.338,2.338,0,0,0-1.631,2.566" transform="translate(0 -22.697)" fill="#56006c"/>
        <path id="Path_8678" data-name="Path 8678" d="M79.13,0a1.352,1.352,0,0,1,.757,1.39c-.038.975,0,1.952-.012,2.927,0,.759-.407,1.226-1.039,1.226s-1.049-.474-1.057-1.223c-.012-.993.009-1.986-.008-2.979A1.269,1.269,0,0,1,78.6,0Z" transform="translate(-51.903)" fill="#56006c"/>
        <path id="Path_8679" data-name="Path 8679" d="M57.086,14.234c-.019.841-.948,1.4-1.543.918a20.781,20.781,0,0,1-2.254-2.2.891.891,0,0,1,.166-1.209.947.947,0,0,1,1.242-.123c.774.684,1.5,1.426,2.219,2.164a1.1,1.1,0,0,1,.171.446" transform="translate(-35.448 -7.718)" fill="#56006c"/>
        <path id="Path_8680" data-name="Path 8680" d="M97.879,15.391c-.241-.19-.624-.354-.752-.631a1.109,1.109,0,0,1,.041-.986A23.279,23.279,0,0,1,99.3,11.667a.97.97,0,0,1,1.287.111.885.885,0,0,1,.148,1.211c-.7.76-1.455,1.465-2.209,2.172-.124.116-.35.13-.644.23" transform="translate(-64.758 -7.737)" fill="#56006c"/>
        <path id="Path_8681" data-name="Path 8681" d="M79.906,22.227a1.046,1.046,0,0,1-1.057.995,1.02,1.02,0,1,1,.049-2.039,1.043,1.043,0,0,1,1.008,1.045" transform="translate(-51.942 -14.29)" fill="#56006c"/>
        <path id="Path_8682" data-name="Path 8682" d="M46.213,126.589a1.019,1.019,0,0,1-1.008-1.034,1.036,1.036,0,0,1,1.059-.99,1.067,1.067,0,0,1,1.02,1.04,1.055,1.055,0,0,1-1.072.984" transform="translate(-30.169 -84.034)" fill="#56006c"/>
        <path id="Path_8683" data-name="Path 8683" d="M58.121,46.183A11.1,11.1,0,1,1,46.8,57.334a11.271,11.271,0,0,1,11.322-11.15m-3.207,13.4A4.957,4.957,0,0,1,53.9,55.35a4.305,4.305,0,0,1,8.477-.015,4.939,4.939,0,0,1-1.006,4.244,9.01,9.01,0,0,1,4.02,3.25,8.858,8.858,0,0,0-1.166-12.341,9.424,9.424,0,0,0-12.87.672,8.757,8.757,0,0,0-.442,11.646,8.924,8.924,0,0,1,4-3.226m8.9,4.8a6.46,6.46,0,0,0-11.33.005,9.3,9.3,0,0,0,11.33-.005M60.347,56.39c0-.171.009-.342,0-.512a2.215,2.215,0,0,0-4.42.267,2.382,2.382,0,0,0,1.132,2.506,2.584,2.584,0,0,0,1.248.269c1.309-.058,2.049-1.009,2.042-2.53" transform="translate(-31.233 -31.156)" fill="#56006c"/>
      </g>
    </g>
  </g>
</svg>
