<svg id="Group_7618" data-name="Group 7618" xmlns="http://www.w3.org/2000/svg" xmlns:xlink="http://www.w3.org/1999/xlink" width="623.365" height="391.963" viewBox="0 0 623.365 391.963">
  <defs>
    <clipPath id="clip-path">
      <rect id="Rectangle_2841" data-name="Rectangle 2841" width="623.365" height="391.963" fill="none"/>
    </clipPath>
    <clipPath id="clip-path-2">
      <rect id="Rectangle_2828" data-name="Rectangle 2828" width="623.365" height="294.877" fill="none"/>
    </clipPath>
    <clipPath id="clip-path-4">
      <rect id="Rectangle_2827" data-name="Rectangle 2827" width="623.365" height="241.851" fill="none"/>
    </clipPath>
    <clipPath id="clip-path-5">
      <rect id="Rectangle_2829" data-name="Rectangle 2829" width="185.135" height="213.887" fill="#570077"/>
    </clipPath>
    <clipPath id="clip-path-7">
      <rect id="Rectangle_2831" data-name="Rectangle 2831" width="534.277" height="84.516" fill="none"/>
    </clipPath>
    <clipPath id="clip-path-8">
      <rect id="Rectangle_2832" data-name="Rectangle 2832" width="41.814" height="43.707" fill="none"/>
    </clipPath>
    <clipPath id="clip-path-9">
      <rect id="Rectangle_2833" data-name="Rectangle 2833" width="92.098" height="280.506" fill="none"/>
    </clipPath>
    <clipPath id="clip-path-10">
      <rect id="Rectangle_2834" data-name="Rectangle 2834" width="43.993" height="43.992" fill="none"/>
    </clipPath>
    <clipPath id="clip-path-11">
      <rect id="Rectangle_2835" data-name="Rectangle 2835" width="43.915" height="43.992" fill="none"/>
    </clipPath>
    <clipPath id="clip-path-12">
      <rect id="Rectangle_2836" data-name="Rectangle 2836" width="37.235" height="32.257" fill="none"/>
    </clipPath>
    <clipPath id="clip-path-13">
      <rect id="Rectangle_2837" data-name="Rectangle 2837" width="29.118" height="35.276" fill="none"/>
    </clipPath>
    <clipPath id="clip-path-14">
      <rect id="Rectangle_2838" data-name="Rectangle 2838" width="7.236" height="14.473" fill="none"/>
    </clipPath>
    <clipPath id="clip-path-15">
      <rect id="Rectangle_2839" data-name="Rectangle 2839" width="2.026" height="7.237" fill="none"/>
    </clipPath>
    <clipPath id="clip-path-16">
      <rect id="Rectangle_2840" data-name="Rectangle 2840" width="10.719" height="14.569" fill="none"/>
    </clipPath>
  </defs>
  <g id="Group_7612" data-name="Group 7612" clip-path="url(#clip-path)">
    <g id="Group_7575" data-name="Group 7575" transform="translate(0 97.086)" style="mix-blend-mode: multiply;isolation: isolate">
      <g id="Group_7574" data-name="Group 7574">
        <g id="Group_7573" data-name="Group 7573" clip-path="url(#clip-path-2)">
          <g id="Group_7569" data-name="Group 7569" opacity="0.68">
            <g id="Group_7568" data-name="Group 7568">
              <g id="Group_7567" data-name="Group 7567" clip-path="url(#clip-path-2)">
                <path id="Path_72983" data-name="Path 72983" d="M5,401.955c-6.491-7.358-6.41-28.648-1.248-36.992A23.709,23.709,0,0,1,29.29,354.817c-4.46-17.357-.8-35.763,4.611-52.846,4.02-12.679,9.2-25.364,18.239-35.118,13.917-15.01,35.636-21.114,56.043-19.515s39.7,10.091,57.288,20.56c11.675-45.371,24.763-93.231,58.594-125.64C267.2,100.936,339.02,96.123,390,127.255s79.316,93.583,74.329,153.108c18.7-1.864,38.706.964,53.614,12.4s22.941,32.91,15.033,49.954c38.882-8.911,82.318,18.983,90.39,58.049" transform="translate(0 -107.078)" fill="#d20030"/>
              </g>
            </g>
          </g>
          <g id="Group_7572" data-name="Group 7572" transform="translate(0 53.026)" opacity="0.24" style="mix-blend-mode: screen;isolation: isolate">
            <g id="Group_7571" data-name="Group 7571">
              <g id="Group_7570" data-name="Group 7570" clip-path="url(#clip-path-4)">
                <path id="Path_72984" data-name="Path 72984" d="M5,407.412c-6.491-6.035-6.41-23.5-1.248-30.34S19.808,366.68,29.29,368.75c-4.46-14.236-.8-29.332,4.611-43.343,4.02-10.4,9.2-20.8,18.239-28.8,13.917-12.311,35.636-17.317,56.043-16.006s39.7,8.276,57.288,16.863C177.147,260.25,190.235,221,224.065,194.415,267.2,160.523,339.02,156.577,390,182.11s79.316,76.755,74.329,125.574c18.7-1.528,38.706.792,53.614,10.172s22.941,26.992,15.033,40.971c38.882-7.309,82.318,15.569,90.39,47.609" transform="translate(0 -165.561)" fill="#a5cdf2"/>
              </g>
            </g>
          </g>
        </g>
      </g>
    </g>
    <g id="Group_7578" data-name="Group 7578" transform="translate(93.084 177.891)" opacity="0.402">
      <g id="Group_7577" data-name="Group 7577">
        <g id="Group_7576" data-name="Group 7576" clip-path="url(#clip-path-5)">
          <path id="Path_72985" data-name="Path 72985" d="M267.085,323.834q-5.349,10.736-10.98,21.327-6.395,12-13.182,23.808A361.8,361.8,0,0,1,258.134,421.2l42.754-.1a940.264,940.264,0,0,0-33.8-97.265" transform="translate(-115.752 -208.109)" fill="#570077"/>
          <path id="Path_72986" data-name="Path 72986" d="M237.287,354.906q1.994,4.77,3.856,9.593,12.552-21.892,23.717-44.538a1.31,1.31,0,0,1,.373-.469q-1.718-4.083-3.5-8.174-12.9,21.272-24.324,43.391a1.481,1.481,0,0,1-.122.2" transform="translate(-115.226 -206.941)" fill="#570077"/>
          <path id="Path_72987" data-name="Path 72987" d="M177.562,367.056a257.612,257.612,0,0,1,12.073,23.72c3.03,7.166,5.678,14.962,5.59,22.839q7.035-9.773,13.627-19.856,10.018-15.306,19.169-31.156a366.724,366.724,0,0,0-33.86-67.426,362.044,362.044,0,0,0-26.836-36.718,1.325,1.325,0,0,1-.141.029q-9.8,1.021-19.529,2.6-7.654,1.246-15.243,2.842a44.925,44.925,0,0,0,5.795,12.4c17.5,25.58-6.57,16.076-20.194,22.887a16.818,16.818,0,0,0-2.578,1.62c10.209,4.037,18.787,11.006,26.56,18.627a203.531,203.531,0,0,1,35.568,47.591" transform="translate(-103.856 -202.009)" fill="#570077"/>
          <path id="Path_72988" data-name="Path 72988" d="M242.614,391.263q-2.308-7.195-4.917-14.287c-9.849,16.908-20.381,33.42-31.818,49.29l46.017-.1a357.989,357.989,0,0,0-9.282-34.9" transform="translate(-112.295 -213.068)" fill="#570077"/>
          <path id="Path_72989" data-name="Path 72989" d="M166.724,252.393a356.737,356.737,0,0,0-30.986-32.238,62.42,62.42,0,0,0-2.558,37.566q16.628-3.472,33.544-5.328" transform="translate(-105.348 -198.434)" fill="#570077"/>
          <path id="Path_72990" data-name="Path 72990" d="M159.313,197.706c-.442,3.907,3.01,8.012,7.136,7.4,3.742-.554,6.181-4.8,5.144-8.326a1.468,1.468,0,0,1-.06-.35,31.235,31.235,0,0,0-12.232.887,1.389,1.389,0,0,1,.013.387" transform="translate(-107.947 -196.199)" fill="#570077"/>
          <path id="Path_72991" data-name="Path 72991" d="M184.3,392.646c-3.532-7.65-7.7-14.991-11.76-22.366a192.312,192.312,0,0,0-16.1-24.578A189.019,189.019,0,0,0,137,324.113c-6.965-6.621-14.692-12.692-23.721-16.212a1.386,1.386,0,0,1-.872-.986c-9.584,8.961-17.752,30.66,4.417,49.329,25.579,21.54,20.194,24.233,16.155,40.388s2.346,23.234,2.346,23.234l55.919-.128c.558-9.382-3.077-18.726-6.942-27.094" transform="translate(-102.664 -206.53)" fill="#570077"/>
          <path id="Path_72992" data-name="Path 72992" d="M137.531,215.4a357.6,357.6,0,0,1,36.487,38.646,368.531,368.531,0,0,1,49.764,80.54q1.442,3.191,2.821,6.409,11.09-21.347,23.574-41.926a1.268,1.268,0,0,1,1.272-.641c-21.277-48.3-49.233-95.4-79.056-101.467.9,4.882-2.575,10.191-7.612,10.916-5.414.778-10.508-4.183-10.279-9.536-7.574,3.061-13.258,9.275-17.019,17.02.016.014.033.025.048.04" transform="translate(-105.913 -196.27)" fill="#570077"/>
          <path id="Path_72993" data-name="Path 72993" d="M221.932,426.454s-19.178-29.019-39.852-54.845q-8.738,10.486-16.881,21.448a.942.942,0,0,1-.076.091q12.987,15.2,24.489,31.6a.714.714,0,0,1-.064.965Z" transform="translate(-108.492 -212.567)" fill="#570077"/>
          <path id="Path_72994" data-name="Path 72994" d="M163.431,390.521q8.2-11.024,17-21.579c-3.095-3.838-6.215-7.593-9.3-11.156-4.845,8.941-9.278,18.118-11.836,28q2.089,2.351,4.14,4.737" transform="translate(-107.948 -211.277)" fill="#570077"/>
          <path id="Path_72995" data-name="Path 72995" d="M182.31,425.07q-4.786-6.822-9.838-13.453-1.48-1.939-2.984-3.859a.964.964,0,0,1-.2.02c-13.279-.021-26.674-.249-39.772,2.279-1.094.211-1.559-1.464-.462-1.676,12.878-2.486,26.018-2.371,39.08-2.344a416.232,416.232,0,0,0-30.484-34.447,3.809,3.809,0,0,1-1.919,2.995c-10.263,5.987-11.118-15.395-29.078-6.842s35.065,56.447,35.065,56.447l40.631.934a.688.688,0,0,1-.044-.055" transform="translate(-102.69 -212.015)" fill="#570077"/>
          <path id="Path_72996" data-name="Path 72996" d="M148.885,374.863q3.066,3.271,6.056,6.61c2.684-9.8,7.157-18.938,12.006-27.845-13.488-15.382-26.2-26.823-33.193-25.3-16.072,3.493,3.824,25.828,6.045,37.149q4.615,4.625,9.086,9.391" transform="translate(-104.985 -208.515)" fill="#570077"/>
        </g>
      </g>
    </g>
    <g id="Group_7581" data-name="Group 7581" transform="translate(331.88 177.891)" opacity="0.402">
      <g id="Group_7580" data-name="Group 7580">
        <g id="Group_7579" data-name="Group 7579" clip-path="url(#clip-path-5)">
          <path id="Path_72997" data-name="Path 72997" d="M399.838,323.834q5.348,10.736,10.98,21.327,6.395,12,13.182,23.808A361.807,361.807,0,0,0,408.79,421.2l-42.754-.1a940.272,940.272,0,0,1,33.8-97.265" transform="translate(-366.036 -208.109)" fill="#570077"/>
          <path id="Path_72998" data-name="Path 72998" d="M432.725,354.906q-1.994,4.77-3.856,9.593-12.552-21.892-23.717-44.538a1.31,1.31,0,0,0-.373-.469q1.718-4.083,3.5-8.174,12.9,21.272,24.324,43.391a1.478,1.478,0,0,0,.122.2" transform="translate(-369.651 -206.941)" fill="#570077"/>
          <path id="Path_72999" data-name="Path 72999" d="M483.739,367.056a257.615,257.615,0,0,0-12.072,23.72c-3.029,7.166-5.678,14.962-5.59,22.839q-7.035-9.773-13.627-19.856-10.017-15.306-19.168-31.156a366.667,366.667,0,0,1,33.859-67.426,362.186,362.186,0,0,1,26.836-36.718,1.372,1.372,0,0,0,.141.029q9.8,1.021,19.529,2.6,7.654,1.246,15.244,2.842a44.9,44.9,0,0,1-5.8,12.4c-17.5,25.58,6.57,16.076,20.194,22.887a16.819,16.819,0,0,1,2.578,1.62c-10.209,4.037-18.786,11.006-26.56,18.627a203.531,203.531,0,0,0-35.568,47.591" transform="translate(-372.311 -202.009)" fill="#570077"/>
          <path id="Path_73000" data-name="Path 73000" d="M425.539,391.263q2.308-7.195,4.917-14.287c9.849,16.908,20.381,33.42,31.818,49.29l-46.017-.1a358,358,0,0,1,9.282-34.9" transform="translate(-370.722 -213.068)" fill="#570077"/>
          <path id="Path_73001" data-name="Path 73001" d="M502.531,252.393a356.994,356.994,0,0,1,30.987-32.238,62.42,62.42,0,0,1,2.557,37.566q-16.628-3.472-33.544-5.328" transform="translate(-378.773 -198.434)" fill="#570077"/>
          <path id="Path_73002" data-name="Path 73002" d="M512.283,197.706c.442,3.907-3.01,8.012-7.136,7.4-3.742-.554-6.181-4.8-5.144-8.326a1.465,1.465,0,0,0,.06-.35,31.242,31.242,0,0,1,12.233.887,1.352,1.352,0,0,0-.014.387" transform="translate(-378.514 -196.199)" fill="#570077"/>
          <path id="Path_73003" data-name="Path 73003" d="M479.468,392.646c3.532-7.65,7.7-14.991,11.76-22.366a192.315,192.315,0,0,1,16.1-24.578,189.022,189.022,0,0,1,19.442-21.589c6.965-6.621,14.692-12.692,23.721-16.212a1.386,1.386,0,0,0,.872-.986c9.584,8.961,17.752,30.66-4.417,49.329-25.58,21.54-20.194,24.233-16.155,40.388s-2.346,23.234-2.346,23.234l-55.919-.128c-.558-9.382,3.077-18.726,6.942-27.094" transform="translate(-375.968 -206.53)" fill="#570077"/>
          <path id="Path_73004" data-name="Path 73004" d="M523.629,215.4a357.6,357.6,0,0,0-36.487,38.646,368.531,368.531,0,0,0-49.764,80.54q-1.442,3.191-2.821,6.409-11.09-21.347-23.574-41.926a1.268,1.268,0,0,0-1.272-.641c21.277-48.3,49.233-95.4,79.056-101.467-.9,4.882,2.575,10.191,7.611,10.916,5.415.778,10.509-4.183,10.28-9.536,7.574,3.061,13.258,9.275,17.019,17.02-.016.014-.033.025-.048.04" transform="translate(-370.111 -196.27)" fill="#570077"/>
          <path id="Path_73005" data-name="Path 73005" d="M445.11,426.454s19.177-29.019,39.852-54.845q8.738,10.486,16.881,21.448a.947.947,0,0,0,.076.091q-12.987,15.2-24.489,31.6a.714.714,0,0,0,.064.965Z" transform="translate(-373.415 -212.567)" fill="#570077"/>
          <path id="Path_73006" data-name="Path 73006" d="M507.281,390.521q-8.2-11.024-17-21.579c3.095-3.838,6.215-7.593,9.3-11.156,4.845,8.941,9.278,18.118,11.836,28q-2.089,2.351-4.14,4.737" transform="translate(-377.63 -211.277)" fill="#570077"/>
          <path id="Path_73007" data-name="Path 73007" d="M482.406,425.07q4.786-6.822,9.838-13.453,1.48-1.939,2.984-3.859a.963.963,0,0,0,.2.02c13.279-.021,26.674-.249,39.772,2.279,1.094.211,1.559-1.464.461-1.676-12.878-2.486-26.018-2.371-39.08-2.344a416.229,416.229,0,0,1,30.484-34.447,3.809,3.809,0,0,0,1.919,2.995c10.263,5.987,11.118-15.395,29.078-6.842s-35.065,56.447-35.065,56.447l-40.631.934a.7.7,0,0,0,.044-.055" transform="translate(-376.891 -212.015)" fill="#570077"/>
          <path id="Path_73008" data-name="Path 73008" d="M529.034,365.473c2.221-11.321,22.117-33.655,6.045-37.149-6.991-1.52-19.705,9.922-33.193,25.3,4.849,8.907,9.323,18.046,12.006,27.845q2.993-3.336,6.056-6.61,4.468-4.767,9.086-9.391" transform="translate(-378.713 -208.515)" fill="#570077"/>
        </g>
      </g>
    </g>
    <g id="Group_7584" data-name="Group 7584" transform="translate(44.544 307.447)" opacity="0.61">
      <g id="Group_7583" data-name="Group 7583">
        <g id="Group_7582" data-name="Group 7582" clip-path="url(#clip-path-7)">
          <path id="Path_73009" data-name="Path 73009" d="M49.129,423.6c2.567-13.078,21.818-26.1,34.788-23.039,3.748-14.883,24.014-22.6,36.715-13.987,4.141-15.827,9.287-33.1,23.006-42.011,15.627-10.15,37.4-5.184,51.817,6.621s23.16,28.987,31.5,45.652c1.315-4.2,7.253-5.282,11.086-3.118s5.99,6.35,7.86,10.334a70.288,70.288,0,0,0,38-55.264l38.881-8.229c3.732,16.03,7.992,33.019,19.891,44.391s34.121,13.433,43.355-.191c2.046-3.018,3.538-6.774,6.835-8.334,6.476-3.066,12.688,4.529,15.876,10.947,5.746-11.239,23.848-13.078,31.736-3.224C447,361.785,470.967,345.945,494.1,348.7s42.709,23.782,43.8,47.056c15.307-5.884,40.955,10.885,45.5,26.641" transform="translate(-49.129 -339.089)" fill="#fff"/>
        </g>
      </g>
    </g>
    <g id="Group_7587" data-name="Group 7587" transform="translate(279.36 325.641)" opacity="0.79">
      <g id="Group_7586" data-name="Group 7586">
        <g id="Group_7585" data-name="Group 7585" clip-path="url(#clip-path-8)">
          <path id="Path_73010" data-name="Path 73010" d="M310.7,360.269a30.946,30.946,0,0,0-2.562,10.164,3.5,3.5,0,0,0,.133,1.574,2.559,2.559,0,0,0,3.193,1.14,7.448,7.448,0,0,0,2.909-2.289,44.823,44.823,0,0,0,15.367,31.271,1.69,1.69,0,0,0,2.807-.025,41.642,41.642,0,0,0,12.124-32.646c2.11,1.374,5.039-.935,5.235-3.445s-1.317-4.8-2.764-6.858" transform="translate(-308.111 -359.154)" fill="#fff"/>
        </g>
      </g>
    </g>
    <path id="Path_73011" data-name="Path 73011" d="M356.2,335.646V316.562H300.836v18.944c-7.253,4.708-10.769,12.932-10.769,22.223h76.9c0-9.291-3.516-17.376-10.769-22.083" transform="translate(-27.067 -29.539)" fill="#18004c"/>
    <path id="Path_73012" data-name="Path 73012" d="M320.7,321.124c12.122,4.954,37.313,14.451,37.313,14.451V316.562H309.5c3.7,1.6,7.478,3.041,11.2,4.562" transform="translate(-28.88 -29.539)" fill="#0a0a0a"/>
    <path id="Path_73013" data-name="Path 73013" d="M387.254,238.127l20.933,24.5a27.74,27.74,0,0,1,6.424,21.561l-5.695,44.245a5.5,5.5,0,0,1-10.939-.994l1.064-19.967a24.831,24.831,0,0,0-19.788-25.643Z" transform="translate(-35.389 -22.22)" fill="#ff3040"/>
    <path id="Path_73014" data-name="Path 73014" d="M275.463,238.127l-20.933,24.5a27.74,27.74,0,0,0-6.424,21.561l5.695,44.245a5.5,5.5,0,0,0,10.939-.994l-1.064-19.967a24.831,24.831,0,0,1,19.788-25.643Z" transform="translate(-23.13 -22.22)" fill="#ff3040"/>
    <path id="Path_73015" data-name="Path 73015" d="M400.635,253.784l-13.381-15.658-8,43.7a24.793,24.793,0,0,1,6.633,2.4c4.724-10.238,9.59-20.409,14.749-30.438" transform="translate(-35.389 -22.22)" fill="#cf0019"/>
    <path id="Path_73016" data-name="Path 73016" d="M265.356,266.145c4.55,5.872,9.206,11.661,13.839,17.466a24.793,24.793,0,0,1,5.369-1.785l-8-43.7-16.9,19.782c2.1,2.908,3.971,6.008,5.7,8.235" transform="translate(-24.23 -22.22)" fill="#cf0019"/>
    <path id="Path_73017" data-name="Path 73017" d="M288.283,280.532s-12.925-33.236-12.309-68.318-8-112.633,16.618-163.1C307.278,19,316.489,6.639,321.53,1.561a5.293,5.293,0,0,1,8,.574c7.737,10.366,27.678,37.606,32.609,49.439,6.155,14.771,20.311,43.084,15.386,164.332,0,0-2.463,44.93-11.079,64.625Z" transform="translate(-25.661 0)" fill="#fff"/>
    <g id="Group_7590" data-name="Group 7590" transform="translate(249.337 0.025)" opacity="0.37">
      <g id="Group_7589" data-name="Group 7589">
        <g id="Group_7588" data-name="Group 7588" clip-path="url(#clip-path-9)">
          <path id="Path_73018" data-name="Path 73018" d="M289.036,89.023c3.585-24.1,9.44-49.08,23.962-69.135a6.679,6.679,0,0,1,2.091-1.907c3.675-5.973,7.479-11.87,11.112-17.868a5.238,5.238,0,0,0-4.671,1.451c-5.041,5.077-14.252,17.443-28.94,47.551-24.618,50.469-16,128.019-16.618,163.1s12.309,68.318,12.309,68.318l78.814-.359c-76.754-.839-82.96-69.676-83.971-107.773-.739-27.835,1.818-55.861,5.912-83.379" transform="translate(-274.998 -0.028)" fill="#95a1e6"/>
        </g>
      </g>
    </g>
    <path id="Path_73019" data-name="Path 73019" d="M353.889,49.754q5,.789,9.977,1.841l-.009-.021C358.927,39.74,338.985,12.5,331.248,2.134a5.293,5.293,0,0,0-8-.573C318.206,6.638,309,19,294.309,49.112c-.316.645-.6,1.313-.906,1.967,19.679-4.907,40.533-4.471,60.486-1.325" transform="translate(-27.378 0)" fill="#ff3040"/>
    <path id="Path_73020" data-name="Path 73020" d="M315.223,26.928c5.825-7.7,11.258-15.671,17.09-23.363-.374-.5-.734-.987-1.065-1.431a5.293,5.293,0,0,0-8-.573C318.206,6.638,309,19,294.309,49.112c-.316.645-.6,1.313-.9,1.967,2.777-.693,5.58-1.268,8.4-1.754,3.1-8.151,8.147-15.425,13.422-22.4" transform="translate(-27.379 0)" fill="#cf0019"/>
    <path id="Path_73021" data-name="Path 73021" d="M364.844,319.362H292.7a5.872,5.872,0,0,1,0-11.743h72.14a5.872,5.872,0,1,1,0,11.743" transform="translate(-26.765 -28.705)" fill="#18004c"/>
    <path id="Path_73022" data-name="Path 73022" d="M328.047,84.652a31.037,31.037,0,1,0,31.037,31.038,31.037,31.037,0,0,0-31.037-31.038m0,53.034a22,22,0,1,1,22-22,22,22,0,0,1-22,22" transform="translate(-27.715 -7.899)" fill="#18004c"/>
    <g id="Group_7593" data-name="Group 7593" transform="translate(278.335 85.794)" opacity="0.37">
      <g id="Group_7592" data-name="Group 7592">
        <g id="Group_7591" data-name="Group 7591" clip-path="url(#clip-path-10)">
          <path id="Path_73023" data-name="Path 73023" d="M350.973,116.62a22,22,0,1,0-22,22,22,22,0,0,0,22-22" transform="translate(-306.98 -94.624)" fill="#95a1e6"/>
        </g>
      </g>
    </g>
    <g id="Group_7596" data-name="Group 7596" transform="translate(278.413 85.794)" opacity="0.6">
      <g id="Group_7595" data-name="Group 7595">
        <g id="Group_7594" data-name="Group 7594" clip-path="url(#clip-path-11)">
          <path id="Path_73024" data-name="Path 73024" d="M307.066,120.575a21.891,21.891,0,0,0,27.18,19.8q-13.723-9.713-27.18-19.8" transform="translate(-307.066 -97.046)" fill="#fcfaf5"/>
          <path id="Path_73025" data-name="Path 73025" d="M346.141,130.784a21.983,21.983,0,1,0-35.454-25.809q17.5,13.222,35.454,25.809" transform="translate(-307.404 -94.624)" fill="#fcfaf5"/>
        </g>
      </g>
    </g>
    <circle id="Ellipse_1869" data-name="Ellipse 1869" cx="2.097" cy="2.097" r="2.097" transform="translate(298.234 79.27)" fill="none" stroke="#4f6aff" stroke-width="0.348"/>
    <circle id="Ellipse_1870" data-name="Ellipse 1870" cx="2.097" cy="2.097" r="2.097" transform="translate(298.234 132.117)" fill="none" stroke="#4f6aff" stroke-width="0.348"/>
    <path id="Path_73026" data-name="Path 73026" d="M353.115,99.544a2.1,2.1,0,1,0-2.966,0A2.1,2.1,0,0,0,353.115,99.544Z" transform="translate(-32.616 -8.955)" fill="none" stroke="#4f6aff" stroke-width="0.348"/>
    <path id="Path_73027" data-name="Path 73027" d="M311.9,140.759a2.1,2.1,0,1,0-2.966,0A2.1,2.1,0,0,0,311.9,140.759Z" transform="translate(-28.77 -12.801)" fill="none" stroke="#4f6aff" stroke-width="0.348"/>
    <circle id="Ellipse_1871" data-name="Ellipse 1871" cx="2.097" cy="2.097" r="2.097" transform="translate(324.658 105.693)" fill="none" stroke="#4f6aff" stroke-width="0.348"/>
    <circle id="Ellipse_1872" data-name="Ellipse 1872" cx="2.097" cy="2.097" r="2.097" transform="translate(271.811 105.693)" fill="none" stroke="#4f6aff" stroke-width="0.348"/>
    <path id="Path_73028" data-name="Path 73028" d="M350.149,140.759a2.1,2.1,0,1,0,0-2.966A2.1,2.1,0,0,0,350.149,140.759Z" transform="translate(-32.616 -12.801)" fill="none" stroke="#4f6aff" stroke-width="0.348"/>
    <path id="Path_73029" data-name="Path 73029" d="M308.935,99.544a2.1,2.1,0,1,0,0-2.966A2.1,2.1,0,0,0,308.935,99.544Z" transform="translate(-28.77 -8.955)" fill="none" stroke="#4f6aff" stroke-width="0.348"/>
    <path id="Path_73030" data-name="Path 73030" d="M275.73,167.086s52.008-17.616,100.661-.839" transform="translate(-25.729 -14.837)" fill="none" stroke="#4f6aff" stroke-width="0.696" stroke-dasharray="5.564 5.564"/>
    <path id="Path_73031" data-name="Path 73031" d="M282.742,83.825c14.548-3.829,51.837-11.432,88.48-.837" transform="translate(-26.384 -7.24)" fill="none" stroke="#4f6aff" stroke-width="0.696" stroke-dasharray="5.564 5.564"/>
    <path id="Path_73032" data-name="Path 73032" d="M275.73,180.964s52.008-17.616,100.661-.839" transform="translate(-25.729 -16.132)" fill="none" stroke="#4f6aff" stroke-width="0.696" stroke-dasharray="5.564 5.564"/>
    <g id="Group_7599" data-name="Group 7599" transform="translate(320.898 341.879)" opacity="0.79">
      <g id="Group_7598" data-name="Group 7598">
        <g id="Group_7597" data-name="Group 7597" clip-path="url(#clip-path-12)">
          <path id="Path_73033" data-name="Path 73033" d="M353.924,377.065a47.359,47.359,0,0,0,5.261,12.005,42.587,42.587,0,0,0,19.34,16.739,47.45,47.45,0,0,0,12.634,3.491A34.68,34.68,0,0,1,378,407.123a37.146,37.146,0,0,1-20.033-17.347,34.742,34.742,0,0,1-4.042-12.712" transform="translate(-353.924 -377.065)" fill="#fff"/>
        </g>
      </g>
    </g>
    <g id="Group_7602" data-name="Group 7602" transform="translate(253.669 346.144)" opacity="0.79">
      <g id="Group_7601" data-name="Group 7601">
        <g id="Group_7600" data-name="Group 7600" clip-path="url(#clip-path-13)">
          <path id="Path_73034" data-name="Path 73034" d="M308.894,381.768a38.978,38.978,0,0,1-3.258,11.5,45.514,45.514,0,0,1-15.187,18.4,38.894,38.894,0,0,1-10.674,5.376,63.6,63.6,0,0,0,9.82-6.5,58.959,58.959,0,0,0,14.774-17.9,63.278,63.278,0,0,0,4.523-10.876" transform="translate(-279.776 -381.768)" fill="#fff"/>
        </g>
      </g>
    </g>
    <g id="Group_7605" data-name="Group 7605" transform="translate(279.127 367.243)" opacity="0.79">
      <g id="Group_7604" data-name="Group 7604">
        <g id="Group_7603" data-name="Group 7603" clip-path="url(#clip-path-14)">
          <path id="Path_73035" data-name="Path 73035" d="M315.09,405.039a23.6,23.6,0,0,1-1.179,3.933q-.726,1.9-1.628,3.708a40.209,40.209,0,0,1-1.987,3.529,23.31,23.31,0,0,1-2.442,3.3,23.423,23.423,0,0,1,1.176-3.935c.486-1.265,1.025-2.5,1.631-3.707s1.268-2.381,1.989-3.528a23.633,23.633,0,0,1,2.44-3.3" transform="translate(-307.854 -405.039)" fill="#fff"/>
        </g>
      </g>
    </g>
    <g id="Group_7608" data-name="Group 7608" transform="translate(302.222 376.285)" opacity="0.79">
      <g id="Group_7607" data-name="Group 7607">
        <g id="Group_7606" data-name="Group 7606" clip-path="url(#clip-path-15)">
          <path id="Path_73036" data-name="Path 73036" d="M333.738,415.012a5.958,5.958,0,0,1,1,1.693,8.7,8.7,0,0,1,.493,1.777,8.524,8.524,0,0,1,.11,1.841,5.851,5.851,0,0,1-.4,1.926,5.882,5.882,0,0,1-1-1.693,8.746,8.746,0,0,1-.6-3.619,5.988,5.988,0,0,1,.4-1.926" transform="translate(-333.326 -415.012)" fill="#fff"/>
        </g>
      </g>
    </g>
    <g id="Group_7611" data-name="Group 7611" transform="translate(314.784 366.608)" opacity="0.79">
      <g id="Group_7610" data-name="Group 7610">
        <g id="Group_7609" data-name="Group 7609" clip-path="url(#clip-path-16)">
          <path id="Path_73037" data-name="Path 73037" d="M347.181,404.338l2.421,3.9c.808,1.265,1.655,2.487,2.533,3.684s1.8,2.366,2.765,3.513l3,3.474a14.987,14.987,0,0,1-4-2.47,19.842,19.842,0,0,1-5.551-7.549,15.046,15.046,0,0,1-1.171-4.551" transform="translate(-347.181 -404.338)" fill="#fff"/>
        </g>
      </g>
    </g>
  </g>
</svg>
