<svg id="Group_1539" data-name="Group 1539" xmlns="http://www.w3.org/2000/svg" xmlns:xlink="http://www.w3.org/1999/xlink" width="31" height="27.241" viewBox="0 0 31 27.241">
  <defs>
    <clipPath id="clip-path">
      <rect id="Rectangle_386" data-name="Rectangle 386" width="31" height="27.242" fill="none"/>
    </clipPath>
  </defs>
  <g id="Group_1538" data-name="Group 1538" clip-path="url(#clip-path)">
    <path id="Path_8491" data-name="Path 8491" d="M18.71,27.242a6.519,6.519,0,0,1-1.135-.466,2.689,2.689,0,0,1-.708-3.851L17,22.738c-.039-.075-.078-.155-.121-.231-1.165-2.039-2.335-4.075-3.49-6.119-.125-.222-.238-.25-.473-.189a4.437,4.437,0,0,1-2.928-.237l-.256-.111-1.7,2.122A4.533,4.533,0,0,1,9,21.723a4.441,4.441,0,0,1-1.612,2.693A4.54,4.54,0,0,1,.634,18.573,4.578,4.578,0,0,1,6.622,16.83l1.694-2.115a4.556,4.556,0,0,1-.009-5.8c-.035-.053-.063-.105-.1-.151C7.34,7.673,6.468,6.589,5.6,5.5A.338.338,0,0,0,5.2,5.36a2.6,2.6,0,0,1-2.781-.952,2.55,2.55,0,0,1-.29-2.921A2.6,2.6,0,0,1,4.67.007,2.709,2.709,0,0,1,7,3.883a.434.434,0,0,0,.072.55C7.951,5.521,8.824,6.618,9.7,7.712a.351.351,0,0,0,.054.035,4.571,4.571,0,0,1,4.125.012l1.687-2.106c.34-.425.674-.856,1.025-1.273a.347.347,0,0,0,.052-.448,2.682,2.682,0,0,1,.478-3.1,2.721,2.721,0,1,1,1.321,4.537.375.375,0,0,0-.452.16c-.888,1.122-1.784,2.238-2.632,3.3l1,2.057h5.605a14.111,14.111,0,0,1,.556-1.3A4.522,4.522,0,0,1,27.28,7.336a4.568,4.568,0,0,1,3.661,3.728,1.457,1.457,0,0,0,.06.2v1.09a.994.994,0,0,0-.057.165A4.548,4.548,0,0,1,27.37,16.25a4.488,4.488,0,0,1-4.694-1.964,14.025,14.025,0,0,1-.749-1.56h-5.67a4.457,4.457,0,0,1-1.267,2.3.288.288,0,0,0-.055.431q1.765,3.063,3.51,6.138a.347.347,0,0,0,.394.215,2.719,2.719,0,0,1,1.144,5.273c-.179.064-.364.107-.547.16ZM4.558,18.162a2.723,2.723,0,1,0,2.708,2.754,2.732,2.732,0,0,0-2.708-2.754M11.8,14.527a2.723,2.723,0,1,0-2.715-2.747A2.732,2.732,0,0,0,11.8,14.527m14.647,0a2.723,2.723,0,1,0-2.711-2.751,2.732,2.732,0,0,0,2.711,2.751M4.54,1.816a.907.907,0,1,0,.91.9.918.918,0,0,0-.91-.9m15.44.9a.907.907,0,1,0-.892.915.918.918,0,0,0,.892-.915m-.9,22.709a.907.907,0,1,0-.918-.888.919.919,0,0,0,.918.888" transform="translate(-0.001 0)"/>
    <path id="Path_8492" data-name="Path 8492" d="M152.473,155.153a2.723,2.723,0,1,1,2.731-2.7,2.732,2.732,0,0,1-2.731,2.7" transform="translate(-140.673 -140.625)" fill="#eb2157"/>
  </g>
</svg>
