<svg xmlns="http://www.w3.org/2000/svg" xmlns:xlink="http://www.w3.org/1999/xlink" width="81" height="77" viewBox="0 0 81 77">
  <defs>
    <clipPath id="clip-path">
      <rect id="Rectangle_656" data-name="Rectangle 656" width="39.857" height="36.845" fill="#e60c35"/>
    </clipPath>
  </defs>
  <g id="Group_2170" data-name="Group 2170" transform="translate(-0.289)">
    <rect id="Rectangle_182" data-name="Rectangle 182" width="81" height="77" rx="16" transform="translate(0.289)" fill="#ee1f4f" opacity="0.2"/>
    <g id="Group_2134" data-name="Group 2134" transform="translate(20.444 22)">
      <g id="Group_2133" data-name="Group 2133" clip-path="url(#clip-path)">
        <path id="Path_8676" data-name="Path 8676" d="M39.856,4.605a6.3,6.3,0,0,1-1.9,3.07Q31.7,14.37,25.464,21.088a1.275,1.275,0,0,0-.387.954c.018,2.467,0,4.934.014,7.4a1.658,1.658,0,0,1-.682,1.405q-3.572,2.783-7.135,5.577a1.5,1.5,0,0,1-1.75.233,1.47,1.47,0,0,1-.782-1.427c.007-4.393,0-8.786.012-13.179a1.283,1.283,0,0,0-.377-.957c-4.384-4.7-8.726-9.441-13.149-14.107A4.059,4.059,0,0,1,3.371.07c.04-.007.075-.046.112-.07H36.348c.1.034.192.074.292.1a4.091,4.091,0,0,1,3.02,2.737c.078.224.132.456.2.685ZM17.7,32.39c1.428-1.124,2.763-2.184,4.111-3.228a.765.765,0,0,0,.327-.683c-.012-2.408,0-4.816-.014-7.223a2.056,2.056,0,0,1,.593-1.5q6.85-7.36,13.684-14.734a1.223,1.223,0,0,0,.365-1.43,1.278,1.278,0,0,0-1.325-.7q-15.53.009-31.061,0a1.294,1.294,0,0,0-1.334.687,1.234,1.234,0,0,0,.377,1.466Q10.284,12.418,17.14,19.8a1.966,1.966,0,0,1,.567,1.424c-.013,3.521-.006,7.042-.006,10.563Z" transform="translate(0)" fill="#e60c35"/>
      </g>
    </g>
  </g>
</svg>
