<svg id="Group_1537" data-name="Group 1537" xmlns="http://www.w3.org/2000/svg" xmlns:xlink="http://www.w3.org/1999/xlink" width="27.276" height="27.267" viewBox="0 0 27.276 27.267">
  <defs>
    <clipPath id="clip-path">
      <rect id="Rectangle_385" data-name="Rectangle 385" width="27.276" height="27.267" fill="none"/>
    </clipPath>
  </defs>
  <g id="Group_1537-2" data-name="Group 1537" clip-path="url(#clip-path)">
    <path id="Path_8489" data-name="Path 8489" d="M27.276,3.569a3.719,3.719,0,0,1-.382.557c-1.154,1.168-2.323,2.322-3.476,3.491a1.077,1.077,0,0,1-.806.332c-.7,0-1.4,0-2.1,0-.416,0-.416,0-.705.34a11.21,11.21,0,0,1,2.66,10.017,11.086,11.086,0,0,1-4.612,6.917A11.351,11.351,0,1,1,18.983,7.469a.679.679,0,0,0,.351-.649c-.025-.683,0-1.367-.01-2.05a1.245,1.245,0,0,1,.391-.97C20.87,2.67,22,1.517,23.152.382A3.724,3.724,0,0,1,23.708,0h.426a.844.844,0,0,1,.309.725c-.011.47,0,.94,0,1.411v.7c.721,0,1.4.007,2.085,0a.866.866,0,0,1,.752.31Zm-9.123,4.7A10.225,10.225,0,1,0,19,9.114l-1.981,2a7.424,7.424,0,1,1-.86-.854l1.989-1.994M15.316,11.1a6.223,6.223,0,1,0,.632,9.023,6.106,6.106,0,0,0,.219-8.148L14.2,13.951a3.437,3.437,0,0,1-5.122,4.513A3.492,3.492,0,0,1,8.52,14a3.179,3.179,0,0,1,1.848-1.355,3.526,3.526,0,0,1,2.968.445L15.316,11.1m-2.806,2.87a2.236,2.236,0,0,0-2.9.5,2.268,2.268,0,0,0,3.282,3.114,2.2,2.2,0,0,0,.416-2.806q-.783.776-1.564,1.551a.759.759,0,0,1-.764.067.484.484,0,0,1-.2-.584.929.929,0,0,1,.237-.344c.49-.5.989-.992,1.5-1.5M25.31,4c-.126-.007-.21-.015-.294-.016-.355,0-.709,0-1.064,0-.454-.007-.649-.2-.657-.649-.006-.381,0-.762,0-1.143a2.033,2.033,0,0,0-.029-.224c-.928.929-1.824,1.825-2.718,2.723a.261.261,0,0,0-.083.155c-.006.652,0,1.305,0,1.976.633,0,1.234.009,1.835-.007a.587.587,0,0,0,.362-.155c.829-.813,1.647-1.637,2.468-2.458.054-.054.1-.112.186-.2" transform="translate(0)"/>
    <path id="Path_8490" data-name="Path 8490" d="M141.034,200.628a1.18,1.18,0,1,1-1.18-1.18,1.18,1.18,0,0,1,1.18,1.18" transform="translate(-128.487 -184.796)" fill="#eb2157"/>
  </g>
</svg>
