<svg xmlns="http://www.w3.org/2000/svg" xmlns:xlink="http://www.w3.org/1999/xlink" width="49" height="49" viewBox="0 0 49 49">
  <defs>
    <clipPath id="clip-path">
      <rect id="Rectangle_384" data-name="Rectangle 384" width="29.499" height="29.514" fill="#fff"/>
    </clipPath>
  </defs>
  <g id="Icon" transform="translate(-0.117 -0.239)">
    <rect id="Rectangle_16" data-name="Rectangle 16" width="49" height="49" rx="16" transform="translate(0.117 0.239)" fill="#ee1f4f"/>
    <g id="Group_1528" data-name="Group 1528" transform="translate(9.93 9.388)">
      <g id="Group_1527" data-name="Group 1527" clip-path="url(#clip-path)">
        <path id="Path_8486" data-name="Path 8486" d="M21.547,0a6.181,6.181,0,0,1,.947.453,1.928,1.928,0,0,1,.845,1.563c.022.537.015,1.075.01,1.613,0,.307-.162.473-.424.474a.422.422,0,0,1-.434-.469c-.011-.461,0-.922,0-1.383A1.294,1.294,0,0,0,21.1.865c-.508,0-1.016,0-1.564,0,0,.4,0,.779,0,1.159a1.022,1.022,0,0,1-1.157,1.146H11.064A1.031,1.031,0,0,1,9.911,2.013c0-.372,0-.745,0-1.136-.626,0-1.23-.035-1.828.01A1.232,1.232,0,0,0,7.005,1.936a1.742,1.742,0,0,0-.027.314c0,.41,0,.821,0,1.249a2.546,2.546,0,0,1,1.578.521,2.362,2.362,0,0,1,.951,1.886c.013.826.009,1.652,0,2.478a2.445,2.445,0,0,1-2.35,2.5c-.047,0-.095.009-.182.017v.336q0,4.379,0,8.758a2.733,2.733,0,0,1,0,.288.427.427,0,0,1-.845.049,1.417,1.417,0,0,1-.015-.315q0-4.379,0-8.758V10.9H5.128c0,.424-.007.835,0,1.245.007.285-.058.519-.359.613s-.466-.087-.621-.3c-.324-.441-.664-.871-.973-1.322a.529.529,0,0,0-.52-.258A2.356,2.356,0,0,1,.522,9.918,6.435,6.435,0,0,1,0,8.816V5.589a.282.282,0,0,0,.043-.071,2.436,2.436,0,0,1,2.54-2.007c.959,0,1.918,0,2.877,0h.653c0-.47-.007-.909,0-1.348A2.171,2.171,0,0,1,7.543.13C7.677.081,7.815.043,7.95,0ZM4.206,11.082l.057-.021c0-.152,0-.3,0-.457,0-.445.137-.581.585-.582.739,0,1.477.007,2.216,0A1.571,1.571,0,0,0,8.643,8.447q.015-1.252,0-2.5a1.554,1.554,0,0,0-1.55-1.564q-2.331-.016-4.662,0A1.56,1.56,0,0,0,.868,5.933Q.85,7.2.868,8.466A1.537,1.537,0,0,0,2.127,9.974a4.8,4.8,0,0,0,.945.043.611.611,0,0,1,.557.285c.185.265.384.521.578.781M18.672.886h-7.9c0,.366.018.712-.005,1.055-.021.3.1.37.381.369,2.388-.01,4.776-.006,7.164-.006.048,0,.109.019.141,0,.079-.057.2-.129.206-.2.02-.4.009-.8.009-1.214" fill="#fff"/>
        <path id="Path_8487" data-name="Path 8487" d="M36.924,39.124c0-.217.008-.436-.006-.654A.228.228,0,0,0,36.8,38.3a4.355,4.355,0,0,1-2.681-2.748,1.307,1.307,0,0,1-1.348-.8,1.786,1.786,0,0,1,.436-2.431.352.352,0,0,0,.047-.277,5.255,5.255,0,0,1,.045-2.256,3.632,3.632,0,0,1,2.987-2.841,9.511,9.511,0,0,1,3.606-.056c.316.051.482.243.451.493-.033.268-.244.411-.58.358a8.96,8.96,0,0,0-3.291.055,2.888,2.888,0,0,0-2.44,2.894c-.008.2-.007.4,0,.6a1.645,1.645,0,0,0,.565,1.342c.044-.45.087-.861.125-1.273a2.321,2.321,0,0,1,.745-1.574.925.925,0,0,1,1.385.05A4.425,4.425,0,0,0,38.6,30.971c.33.129.662.255.992.384a4.139,4.139,0,0,1,2.136,1.493c.163-.2.313-.373.461-.554a.41.41,0,0,0,.084-.144,3.911,3.911,0,0,0-.425-3.21,3.217,3.217,0,0,0-.488-.524.439.439,0,0,1-.082-.636.428.428,0,0,1,.639-.023,3.653,3.653,0,0,1,1.323,2.6c.057.633,0,1.276-.012,1.961a1.882,1.882,0,0,1,.135,2.875,1.21,1.21,0,0,1-.872.382.289.289,0,0,0-.219.14A4.367,4.367,0,0,1,39.689,38.3a.314.314,0,0,0-.161.219,5.44,5.44,0,0,0-.008.621c.437.023.856.023,1.271.071A3.681,3.681,0,0,1,44,42.6c.036.63.006,1.265.006,1.921h1.944V41.7a2.561,2.561,0,0,1-1.521-.523,2.359,2.359,0,0,1-.952-1.886c-.013-.826-.008-1.652,0-2.477a2.44,2.44,0,0,1,2.348-2.5c.037,0,.074-.009.152-.018v-.336q0-4.278,0-8.556c0-.133-.025-.3.043-.392a.726.726,0,0,1,.41-.285.354.354,0,0,1,.4.335,2.2,2.2,0,0,1,.014.345q0,4.263,0,8.527v.377h.331c1.085,0,2.17,0,3.255,0a2.451,2.451,0,0,1,2.558,2.554q0,1.138,0,2.276a2.433,2.433,0,0,1-2.538,2.536.73.73,0,0,0-.705.353c-.292.439-.626.85-.938,1.275a.5.5,0,0,1-.612.25.515.515,0,0,1-.336-.572c.009-.421,0-.842,0-1.28H46.842v.346c0,1.575-.03,3.15.009,4.724a2.259,2.259,0,0,1-2.363,2.356c-4.176-.031-8.353-.011-12.529-.012A2.18,2.18,0,0,1,29.6,46.773q0-2.391,0-4.782c0-.067,0-.135,0-.2a.43.43,0,0,1,.452-.452.415.415,0,0,1,.409.46c.005.8,0,1.594,0,2.391v.336h1.956c0-.54,0-1.067,0-1.593a3.7,3.7,0,0,1,3-3.683,12.808,12.808,0,0,1,1.506-.123m-6.457,6.3c0,.477,0,.918,0,1.358a1.324,1.324,0,0,0,1.474,1.477h8.954c1.248,0,2.5,0,3.743,0a1.185,1.185,0,0,0,1.264-.921,13.808,13.808,0,0,0,.02-1.912Zm18.256-3.554.058.016.225-.3c.69-.909.4-.748,1.492-.763a1.586,1.586,0,0,0,1.623-1.619q.01-1.195,0-2.389a1.58,1.58,0,0,0-1.632-1.638q-2.259-.007-4.519,0a1.573,1.573,0,0,0-1.629,1.636c0,.777,0,1.554,0,2.332a1.581,1.581,0,0,0,1.675,1.678c.719,0,1.439,0,2.158,0,.391,0,.542.151.547.535,0,.17,0,.339,0,.509M38.215,37.678a3.433,3.433,0,0,0,3.436-3.265c.008-.2,0-.342-.222-.428a.5.5,0,0,1-.235-.275,2.289,2.289,0,0,0-1.3-1.279c-.533-.238-1.082-.44-1.624-.658a4.815,4.815,0,0,1-1.965-1.26c-.146-.171-.282-.137-.361.024a3.449,3.449,0,0,0-.351.892c-.114.65-.142,1.315-.255,1.966a1.037,1.037,0,0,1-.357.583.41.41,0,0,0-.2.387,3.448,3.448,0,0,0,3.427,3.313m-4.964,6.831H43.2a15.954,15.954,0,0,0-.149-2.33,2.912,2.912,0,0,0-3.53-2.1c0,.358,0,.722,0,1.086s.008.73,0,1.095a1.286,1.286,0,0,1-2.555.169,7.469,7.469,0,0,1-.034-1.005c0-.458,0-.916,0-1.393-.331,0-.627-.017-.921,0a2.764,2.764,0,0,0-2.618,2.2,17.159,17.159,0,0,0-.134,2.27M37.8,40.041c0,.751-.012,1.485.007,2.219a.392.392,0,0,0,.428.381.407.407,0,0,0,.416-.422c.012-.344,0-.689.005-1.034,0-.379,0-.758,0-1.145Zm4.692-5.324a1.162,1.162,0,0,0,.59-1.209.523.523,0,0,0-.5-.481c-.029.569-.056,1.106-.086,1.69m-8.534.027a6.617,6.617,0,0,0-.159-1.716.593.593,0,0,0-.443.662,1.2,1.2,0,0,0,.6,1.053m3.854,4.391h.824v-.593H37.81Z" transform="translate(-23.489 -19.62)" fill="#fff"/>
        <path id="Path_8488" data-name="Path 8488" d="M59.465,129.493q1.265,0,2.53,0c.357,0,.564.161.564.431s-.207.432-.564.432q-2.545,0-5.089,0c-.364,0-.558-.153-.558-.432s.194-.431.558-.432q1.279,0,2.559,0" transform="translate(-44.714 -102.756)" fill="#fff"/>
      </g>
    </g>
  </g>
</svg>
