<svg xmlns="http://www.w3.org/2000/svg" xmlns:xlink="http://www.w3.org/1999/xlink" width="49" height="50" viewBox="0 0 49 50">
  <defs>
    <clipPath id="clip-path">
      <rect id="Rectangle_381" data-name="Rectangle 381" width="32.822" height="32.815" fill="#fff"/>
    </clipPath>
  </defs>
  <g id="Icon" transform="translate(-0.117)">
    <rect id="Rectangle_16" data-name="Rectangle 16" width="49" height="50" rx="16" transform="translate(0.117)" fill="#ee1f4f"/>
    <g id="Group_1523" data-name="Group 1523" transform="translate(7.867 8.355)">
      <g id="Group_1523-2" data-name="Group 1523" clip-path="url(#clip-path)">
        <path id="Path_8463" data-name="Path 8463" d="M186.875,52.021c-.168.2-.342.39-.644.273s-.327-.361-.318-.632c.006-.2-.012-.407,0-.608.021-.26-.1-.327-.338-.327q-3.765.009-7.53,0c-.248,0-.339.078-.337.331q.011,2.707,0,5.414c0,.253.092.346.339.337.3-.012.6-.008.9,0a1.126,1.126,0,0,1,1.187,1.187c0,.16,0,.319,0,.546.1-.109.164-.169.217-.238.249-.32.5-.639.74-.966a1.229,1.229,0,0,1,1.068-.534c1.1.008,2.2,0,3.3,0,.453,0,.454,0,.454-.467,0-.662,0-1.324,0-1.986,0-.269.012-.525.3-.647s.48.054.665.238v2.948a1.3,1.3,0,0,1-1.424.883c-1.046-.028-2.093,0-3.139-.012a.58.58,0,0,0-.537.258c-.422.577-.866,1.139-1.3,1.7-.271.35-.536.456-.85.35s-.447-.35-.448-.8c0-.363,0-.726,0-1.089,0-.412-.007-.418-.405-.42-.278,0-.555.005-.833,0a1.128,1.128,0,0,1-1.179-1.2q-.007-2.8,0-5.606a1.117,1.117,0,0,1,1.21-1.192c2.488,0,4.977.016,7.464-.012a1.356,1.356,0,0,1,1.446.852Z" transform="translate(-154.053 -43.368)" fill="#fff"/>
        <path id="Path_8464" data-name="Path 8464" d="M94.082,0c.317.3.393.584.164.785a.807.807,0,0,1-.489.169q-2.051.02-4.1,0c-.3,0-.385.094-.383.387q.017,2.66,0,5.319c0,.3.094.393.388.386.7-.016,1.41.006,2.115-.009a1.182,1.182,0,0,1,1.193.744c.117.251.247.5.406.81a5.567,5.567,0,0,0,.287-.563,1.416,1.416,0,0,1,1.618-1c.605.048,1.217,0,1.826.014.271.006.379-.075.377-.364q-.015-2.676,0-5.351c0-.271-.07-.4-.361-.374-.255.02-.513,0-.769.006s-.526-.011-.648-.3.053-.481.238-.665h1.667a1.4,1.4,0,0,1,.84,1.49c-.031,1.74-.009,3.481-.011,5.222A1.153,1.153,0,0,1,97.157,8c-.716,0-1.431.006-2.147,0a.349.349,0,0,0-.372.226c-.2.425-.418.841-.625,1.261a.683.683,0,0,1-1.272,0c-.2-.412-.418-.817-.609-1.233A.39.39,0,0,0,91.711,8c-.715.012-1.431.007-2.147,0a1.144,1.144,0,0,1-1.247-1.259c0-1.752.02-3.5-.011-5.254A1.4,1.4,0,0,1,89.146,0Z" transform="translate(-76.965)" fill="#fff"/>
        <path id="Path_8465" data-name="Path 8465" d="M59.238,133.127c-.089-.019-.151-.03-.211-.045a.442.442,0,0,1-.367-.489.431.431,0,0,1,.422-.442c.254-.025.512-.013.768-.015.427,0,.855.01,1.281-.006a1.213,1.213,0,0,0,1.205-1.205,1.927,1.927,0,0,1,.039-.412.469.469,0,0,1,.911.069,4.325,4.325,0,0,1,.013.448,1.044,1.044,0,0,0,1.106,1.1c.267.006.534,0,.8,0,.448,0,.669.145.7.447.025.287-.158.456-.63.549,0,.423-.009.857,0,1.29a2.761,2.761,0,0,1-1.428,2.609.353.353,0,0,0-.143.119,1,1,0,0,0,.661,1.087,3.448,3.448,0,0,0,.767-.01,1.657,1.657,0,0,0,.72-.289c.667-.549,1.32-1.12,1.941-1.721a1.891,1.891,0,0,0,.472-.808c.266-.932.469-1.882.721-2.819a1.487,1.487,0,0,1,2.9.633c-.254,1.254-.529,2.5-.812,3.752a3.178,3.178,0,0,1-.867,1.507c-1,1.036-1.994,2.082-3,3.114a1.508,1.508,0,0,0-.45,1.122c.007.769,0,1.538,0,2.307a1.127,1.127,0,0,1-1.243,1.253q-3.268,0-6.536,0a1.122,1.122,0,0,1-1.23-1.234c0-.769-.007-1.538,0-2.307a1.538,1.538,0,0,0-.459-1.151c-.948-.97-1.87-1.966-2.827-2.926a3.986,3.986,0,0,1-1.139-2.134c-.206-1.089-.476-2.166-.7-3.253a1.487,1.487,0,0,1,2.9-.67c.246.916.474,1.838.694,2.761a1.72,1.72,0,0,0,.567.939c.613.531,1.228,1.062,1.821,1.616a1.566,1.566,0,0,0,1.2.322c.635-.005.935-.256.995-.884a.411.411,0,0,0-.152-.324,2.776,2.776,0,0,1-1.412-2.559c.008-.437,0-.875,0-1.347m-5.316,1.6c.131.6.27,1.153.374,1.718a2.713,2.713,0,0,0,.766,1.445c.971.993,1.919,2.008,2.894,3a2.52,2.52,0,0,1,.759,1.9c-.013.715.007,1.431-.008,2.147-.006.285.072.391.378.389q3.173-.019,6.346,0c.313,0,.379-.115.373-.394-.014-.726,0-1.453-.007-2.179a2.469,2.469,0,0,1,.741-1.845c1-1.013,1.984-2.035,2.949-3.077a2.667,2.667,0,0,0,.6-.961c.216-.688.336-1.406.5-2.139l-1.075-.307c-.116.455-.228.888-.335,1.321a2.251,2.251,0,0,1-.7,1.163q-1.017.906-2.04,1.8a1.509,1.509,0,0,1-1.159.467,2.544,2.544,0,0,0-2.188.863,1,1,0,0,1-.128.1,1.176,1.176,0,0,1-1.432,0,3.489,3.489,0,0,1-.479-.375,1.855,1.855,0,0,0-1.614-.567,1.8,1.8,0,0,1-1.409-.5q-.994-.883-1.991-1.763a2.28,2.28,0,0,1-.719-1.186c-.107-.433-.22-.865-.334-1.313l-1.072.3m8.835-2.4c-.683.853-1.628.778-2.555.776,0,.559,0,1.07,0,1.581a1.667,1.667,0,0,0,.5,1.176,2.291,2.291,0,0,0,2.242.482,1.515,1.515,0,0,0,1.282-1.237,15.27,15.27,0,0,0,.111-2,2.144,2.144,0,0,1-1.582-.777m-.893,5.047-.566,1.354c.235.184.5.406.777.6a.377.377,0,0,0,.338.017c.3-.2.57-.43.8-.608l-.555-1.359Zm-7.1-3.889a7.081,7.081,0,0,0-.2-.709.487.487,0,0,0-.592-.317.516.516,0,0,0-.418.563c.034.249.1.493.16.761l1.049-.3m16.027.293a6.413,6.413,0,0,0,.156-.765.492.492,0,0,0-.4-.545.474.474,0,0,0-.6.287,5.762,5.762,0,0,0-.207.73l1.05.293" transform="translate(-45.844 -113.464)" fill="#fff"/>
        <path id="Path_8466" data-name="Path 8466" d="M6.743,58.546c0-.178-.006-.356,0-.534a1.116,1.116,0,0,1,1.139-1.135c.331-.011.662-.007.993,0,.2,0,.288-.08.288-.287q-.006-2.755,0-5.509c0-.206-.082-.282-.287-.282q-3.812.006-7.625,0c-.229,0-.294.093-.292.308.009.662,0,1.324,0,1.986,0,.4-.177.616-.491.609S0,53.482,0,53.1c0-.694,0-1.388,0-2.082a1.109,1.109,0,0,1,1.188-1.178q3.876-.005,7.753,0A1.108,1.108,0,0,1,10.121,51q.011,2.835,0,5.669a1.122,1.122,0,0,1-1.147,1.165c-.277.011-.555,0-.833,0-.436,0-.436,0-.437.452,0,.384,0,.769,0,1.153a.653.653,0,0,1-.452.7.667.667,0,0,1-.789-.27c-.449-.584-.909-1.16-1.342-1.755a.636.636,0,0,0-.59-.283c-1.078.012-2.157.007-3.236,0A1.153,1.153,0,0,1,0,56.53c0-.331-.005-.662,0-.993a.481.481,0,1,1,.958-.009c.008.32.019.642,0,.961-.02.295.084.394.381.39,1.068-.014,2.136.013,3.2-.013a1.427,1.427,0,0,1,1.334.653c.245.362.53.7.8,1.041l.069-.014" transform="translate(0 -43.436)" fill="#fff"/>
        <path id="Path_8467" data-name="Path 8467" d="M92.455,114.3a14.752,14.752,0,0,1,1.819.1,4,4,0,0,1,3.347,3.892c.028.95.01,1.9.005,2.851,0,.364-.2.59-.5.582s-.456-.223-.461-.577c-.015-1.057.031-2.118-.053-3.168a2.96,2.96,0,0,0-2.756-2.661,24.728,24.728,0,0,0-2.625-.013,3.053,3.053,0,0,0-3,3.154c-.009.9,0,1.794,0,2.691a.508.508,0,0,1-.283.527.451.451,0,0,1-.66-.378,17.723,17.723,0,0,1,.118-3.927,3.975,3.975,0,0,1,3.6-3.021c.478-.033.96,0,1.441,0Z" transform="translate(-76.041 -99.619)" fill="#fff"/>
        <path id="Path_8468" data-name="Path 8468" d="M23.3,63.215a.6.6,0,0,1,.626.412,1.054,1.054,0,0,0,1.115.817.62.62,0,0,1,.6.489.611.611,0,0,1-.233.713A1.026,1.026,0,0,0,25,66.94a.609.609,0,0,1-.234.685.589.589,0,0,1-.745.063,1.082,1.082,0,0,0-1.438,0,.592.592,0,0,1-.746-.056.675.675,0,0,1-.248-.686.149.149,0,0,1,.007-.031.968.968,0,0,0-.4-1.261.675.675,0,0,1,.387-1.212,1.024,1.024,0,0,0,1.087-.8.611.611,0,0,1,.621-.421m.661,3.325a1.009,1.009,0,0,1,.394-1.227,1.034,1.034,0,0,1-1.058-.757,1.044,1.044,0,0,1-1.039.773,1.058,1.058,0,0,1,.372,1.283,1.046,1.046,0,0,1,1.331-.071" transform="translate(-18.242 -55.097)" fill="#fff"/>
        <path id="Path_8469" data-name="Path 8469" d="M204.031,67.9c.3,0,.552,0,.806,0,.359,0,.562.174.567.466s-.207.486-.579.494c-.235,0-.47,0-.7.009-.019,0-.037.017-.09.044,0,.247.008.511,0,.775-.013.353-.2.551-.495.544s-.452-.2-.462-.538c-.007-.265,0-.529,0-.832-.3,0-.56,0-.823,0-.348-.008-.561-.194-.564-.48s.213-.473.559-.479c.256,0,.512,0,.828,0,0-.276,0-.537,0-.8.006-.374.19-.6.481-.592s.471.228.478.6c0,.245,0,.49,0,.786" transform="translate(-175.784 -57.966)" fill="#fff"/>
        <path id="Path_8470" data-name="Path 8470" d="M109.847,16.016a1.576,1.576,0,0,1,1.2-.605,1.359,1.359,0,0,1,1.283.8,1.3,1.3,0,0,1-.186,1.524c-.562.612-1.167,1.187-1.772,1.758a.743.743,0,0,1-1.072-.006c-.6-.564-1.192-1.133-1.752-1.733a1.4,1.4,0,0,1,.058-1.918,1.426,1.426,0,0,1,1.9-.129c.109.085.207.184.345.308m-.022,2.772c.58-.605,1.078-1.116,1.563-1.639a.427.427,0,0,0-.006-.633.432.432,0,0,0-.633-.03c-.133.105-.247.236-.371.353a.685.685,0,0,1-1.069.008c-.109-.1-.21-.213-.321-.312a.473.473,0,0,0-.686-.029.467.467,0,0,0,.021.684c.472.508.949,1.012,1.5,1.6" transform="translate(-93.429 -13.429)" fill="#fff"/>
      </g>
    </g>
  </g>
</svg>
