<svg xmlns="http://www.w3.org/2000/svg" xmlns:xlink="http://www.w3.org/1999/xlink" width="50" height="49" viewBox="0 0 50 49">
  <defs>
    <clipPath id="clip-path">
      <rect id="Rectangle_659" data-name="Rectangle 659" width="28.875" height="28.996" transform="translate(0 0)" fill="#fff"/>
    </clipPath>
  </defs>
  <g id="Icon" transform="translate(0 -0.239)">
    <rect id="Rectangle_16" data-name="Rectangle 16" width="50" height="49" rx="16" transform="translate(0 0.239)" fill="#ee1f4f"/>
    <g id="Group_2140" data-name="Group 2140" transform="translate(10.313 10.256)">
      <g id="Group_2139" data-name="Group 2139" transform="translate(0 0)" clip-path="url(#clip-path)">
        <path id="Path_8692" data-name="Path 8692" d="M10.864,0c.423.087.853.148,1.267.266a6.931,6.931,0,0,1,5.087,6.457c.053,1.252.048,2.511-.006,3.764A8.072,8.072,0,0,1,14.3,16.406c-.068.06-.136.121-.2.174.853.27,1.7.509,2.528.81a14.9,14.9,0,0,1,1.859.822,3.461,3.461,0,0,1,1.943,2.9c.062.731.034,1.47.032,2.206a.429.429,0,0,1-.437.457c-.24-.008-.4-.193-.407-.484,0-.151,0-.3,0-.453-.009-.566.016-1.135-.036-1.7A2.622,2.622,0,0,0,18.162,19c-.528-.288-1.095-.5-1.642-.755-.135-.063-.211-.028-.3.09a7.289,7.289,0,0,1-5.044,2.927,7.118,7.118,0,0,1-3.688-.482.342.342,0,0,0-.437.086,4.824,4.824,0,0,1-3.231,1.373c-.408.019-.578-.136-.58-.543,0-.925,0-1.85,0-2.775v-.311A3.01,3.01,0,0,0,.9,21.011a4.5,4.5,0,0,0-.043.592q0,3.03,0,6.059c0,.426.059.483.494.483h1.7c0-.488,0-.957,0-1.425,0-.338.235-.536.523-.458a.427.427,0,0,1,.324.469c0,.461,0,.921,0,1.4H16.584c0-.452,0-.892,0-1.333,0-.353.156-.554.425-.553s.423.2.424.555c0,.434,0,.868,0,1.348h.361c.481,0,.963,0,1.444,0,.3,0,.385-.088.387-.391,0-.717,0-1.434,0-2.152,0-.085,0-.17,0-.255a.421.421,0,0,1,.4-.427.4.4,0,0,1,.433.4c.009.905.027,1.812-.02,2.716a1.056,1.056,0,0,1-1.08.961c-.292.008-.585,0-.878,0H1.328A1.16,1.16,0,0,1,0,27.682c0-2.019,0-4.039,0-6.058a3.672,3.672,0,0,1,2.25-3.554,7.043,7.043,0,0,1,.72-.327c.219-.075.271-.2.271-.419q-.01-5.1-.005-10.192A7.052,7.052,0,0,1,4.729,2.685a.454.454,0,0,1,.5-.225c.321.089.412.424.18.726a5.922,5.922,0,0,0-.978,1.806c-.138.435-.227.885-.328,1.29.5-.023.957-.057,1.413-.062.906-.01,1.812,0,2.718,0a4.163,4.163,0,0,0,4.183-3.958c.017-.329,0-.659,0-1A5.931,5.931,0,0,0,9.713.873,6.137,6.137,0,0,0,6.952,1.8c-.288.181-.525.145-.669-.079s-.065-.461.237-.652A6.857,6.857,0,0,1,9.4.052,1.8,1.8,0,0,0,9.618,0ZM6.086,7.068c0,1.042,0,2.039,0,3.037a1.947,1.947,0,0,0,.052.391,4.734,4.734,0,0,0,2.088,2.911,3.15,3.15,0,0,0,3.885.118,4.684,4.684,0,0,0,2.284-3.15,5.54,5.54,0,0,0,.047-.873c.006-.818,0-1.637,0-2.466A3.007,3.007,0,0,1,12.177,5.23c-.055.052-.084.075-.109.1A5.126,5.126,0,0,1,8.02,7.07c-.64-.013-1.281,0-1.935,0M4.1,21.351c.1-.009.182-.011.263-.026A4.034,4.034,0,0,0,7.7,17.357c.008-1,0-2,.006-3a.473.473,0,0,0-.22-.441,5.225,5.225,0,0,1-2.2-3.368c-.033-.184-.048-.371-.068-.53L4.1,9.858Zm11.374-3.467c-.122-.041-.216-.079-.314-.1-.594-.146-1.188-.294-1.784-.433a1.757,1.757,0,0,1-1.448-1.8c0-.307,0-.614,0-.988a3.379,3.379,0,0,1-3.38-.014v.336c0,.792.029,1.586-.01,2.376A8.152,8.152,0,0,1,8.3,18.844a7.763,7.763,0,0,1-.475,1.134,6.511,6.511,0,0,0,7.649-2.094M13.3,1.713a1.106,1.106,0,0,0-.017.137,5.452,5.452,0,0,1-.411,2.237.746.746,0,0,0-.014.389,2.015,2.015,0,0,0,1.729,1.7c.58.071,1.168.078,1.748.114A5.942,5.942,0,0,0,13.3,1.713M13,16.3a7.317,7.317,0,0,0,2.952-3.692,7.176,7.176,0,0,0,.422-2.746l-1.062.154c-.037.244-.062.5-.117.743a5.363,5.363,0,0,1-2.211,3.207.476.476,0,0,0-.195.3,12.418,12.418,0,0,0,0,1.385A2.856,2.856,0,0,0,13,16.3M5.2,7.069h-.26a.763.763,0,0,0-.849.832c0,.094,0,.188,0,.282,0,.732.378,1.042,1.109.906ZM15.322,9.092c.673.121,1.052-.179,1.065-.835,0-.113,0-.226,0-.338-.016-.64-.407-.944-1.065-.809Z" transform="translate(0 0)" fill="#fff"/>
        <path id="Path_8693" data-name="Path 8693" d="M69.14,14.763a1.435,1.435,0,0,1-1.021,1.1,1.311,1.311,0,0,1-1.639-1.194.532.532,0,0,0-.216-.428,4.014,4.014,0,0,0-2.314-.884c-.374-.028-.752,0-1.166,0,.088.5.172.99.258,1.476a1.094,1.094,0,0,1-1.114,1.359c-.349.007-.7.008-1.048,0a1.077,1.077,0,0,1-1.091-1.1c-.008-.538-.007-1.076,0-1.613a.282.282,0,0,0-.183-.3,1.526,1.526,0,0,1-.892-1.457c0-.5-.006-1,0-1.5A1.558,1.558,0,0,1,60.28,8.649c1.1-.011,2.208,0,3.312-.006a4.069,4.069,0,0,0,2.674-.913.57.57,0,0,0,.2-.341,1.34,1.34,0,0,1,1.16-1.3,1.31,1.31,0,0,1,1.468,1.04.531.531,0,0,0,.049.1Zm-2.683-6.1a5.705,5.705,0,0,1-3.492.833v3a5.645,5.645,0,0,1,3.492.827Zm.863,2.311c0,1.18,0,2.359,0,3.539,0,.331.172.528.452.539s.486-.192.5-.525c0-.047,0-.094,0-.141q0-3.4,0-6.794a1.169,1.169,0,0,0-.03-.308.458.458,0,0,0-.6-.324.489.489,0,0,0-.33.532c0,1.161,0,2.321,0,3.482M62.081,9.5c-.644,0-1.273-.019-1.9.008a.676.676,0,0,0-.613.7q-.015.776,0,1.553a.716.716,0,0,0,.712.727c.206.011.414,0,.621,0h1.181ZM60.638,13.34c0,.6,0,1.167,0,1.731,0,.189.116.267.293.267.33,0,.66,0,.991,0,.23,0,.329-.125.29-.347-.086-.492-.172-.984-.274-1.473a.27.27,0,0,0-.189-.17c-.356-.017-.714-.008-1.111-.008" transform="translate(-40.265 -4.173)" fill="#fff"/>
        <path id="Path_8694" data-name="Path 8694" d="M40.576,71.005c.045-.192.1-.46.172-.722a.361.361,0,0,0-.14-.459,6.052,6.052,0,0,1-.536-.46.52.52,0,0,1-.163-.589.508.508,0,0,1,.456-.367c.272-.03.546-.04.815-.085a.378.378,0,0,0,.24-.174c.117-.225.2-.465.3-.7a.549.549,0,0,1,1.038,0,4.359,4.359,0,0,1,.214.522.47.47,0,0,0,.528.384,5.139,5.139,0,0,1,.62.051.544.544,0,0,1,.283.959c-.182.165-.364.329-.558.479a.323.323,0,0,0-.124.391c.066.235.114.476.168.715a.514.514,0,0,1-.213.571.529.529,0,0,1-.612.017c-.2-.119-.413-.231-.6-.369a.339.339,0,0,0-.453.007,5.124,5.124,0,0,1-.63.377.548.548,0,0,1-.8-.552m2.708-1.818a.878.878,0,0,1-1.044-.731.9.9,0,0,1-1.031.743.919.919,0,0,1,.389,1.225.906.906,0,0,1,1.284-.011.916.916,0,0,1,.4-1.227" transform="translate(-27.347 -46.006)" fill="#fff"/>
      </g>
    </g>
  </g>
</svg>
