<svg xmlns="http://www.w3.org/2000/svg" xmlns:xlink="http://www.w3.org/1999/xlink" width="50" height="49" viewBox="0 0 50 49">
  <defs>
    <clipPath id="clip-path">
      <rect id="Rectangle_383" data-name="Rectangle 383" width="27.77" height="31.115" fill="#fff"/>
    </clipPath>
  </defs>
  <g id="Icon" transform="translate(0.44 -0.239)">
    <rect id="Rectangle_16" data-name="Rectangle 16" width="50" height="49" rx="16" transform="translate(-0.44 0.239)" fill="#ee1f4f"/>
    <g id="Group_1526" data-name="Group 1526" transform="translate(11.44 8.599)">
      <g id="Group_1525" data-name="Group 1525" clip-path="url(#clip-path)">
        <path id="Path_8474" data-name="Path 8474" d="M35.132,0c.318.308.364.637.084.806a.987.987,0,0,1-.49.1Q26.464.915,18.2.912c-.537,0-1.073,0-1.61,0a1.534,1.534,0,0,0-1.583,1.539q-.024,2.932,0,5.864a1.531,1.531,0,0,0,1.566,1.526c1.013.009,2.025-.008,3.038.013a.684.684,0,0,1,.48.232c.215.3-.039.662-.447.667q-1.154.012-2.309,0a8.045,8.045,0,0,1-1.18-.049A2.391,2.391,0,0,1,14.1,8.35q-.036-2.962,0-5.925A2.432,2.432,0,0,1,16.011.063,1.43,1.43,0,0,0,16.175,0Z" transform="translate(-12.673)" fill="#fff"/>
        <path id="Path_8475" data-name="Path 8475" d="M142.635,0a6.069,6.069,0,0,1,.937.4,2.312,2.312,0,0,1,1.139,2.026c.012,1.965.023,3.93,0,5.895a2.438,2.438,0,0,1-2.508,2.432c-2.228.01-4.455,0-6.683,0q-2.445,0-4.891,0a1.128,1.128,0,0,1-.33-.029.449.449,0,0,1,.062-.872,1.873,1.873,0,0,1,.333-.009h11.362A1.584,1.584,0,0,0,143.81,8.1q0-2.735,0-5.469A1.571,1.571,0,0,0,142.1.912c-.243,0-.486-.005-.729,0s-.5-.014-.609-.289.046-.458.237-.624Z" transform="translate(-116.955)" fill="#fff"/>
        <path id="Path_8476" data-name="Path 8476" d="M3.447,83.068A1.86,1.86,0,0,1,6.175,83a5.224,5.224,0,0,1,1.147-.5,5.259,5.259,0,0,1,1.253.08c0-.017.01-.12.01-.223,0-.992-.009-1.985.008-2.977a1.8,1.8,0,0,1,1.248-1.7,1.841,1.841,0,0,1,2.008.56,2.031,2.031,0,0,1,.444,1.384q-.005,4.025,0,8.051v.42c.108-.087.178-.135.24-.193.467-.434.929-.874,1.4-1.3a1.563,1.563,0,0,1,2.475,1.865c-.553,1.091-1.117,2.178-1.677,3.266-.113.22-.3.376-.536.271a.741.741,0,0,1-.338-.4c-.037-.1.059-.267.122-.39q.805-1.581,1.621-3.157a.654.654,0,0,0-.036-.742.581.581,0,0,0-.644-.236,1.035,1.035,0,0,0-.409.239q-1.131,1.036-2.246,2.089c-.18.17-.364.3-.62.187s-.264-.329-.264-.563q0-4.663,0-9.326a2.523,2.523,0,0,0-.02-.393.932.932,0,0,0-.981-.806.915.915,0,0,0-.879.911c-.014.911-.006,1.823-.006,2.734q0,2.233,0,4.466a2.481,2.481,0,0,1-.006.273.444.444,0,0,1-.478.442.423.423,0,0,1-.421-.461c-.01-.455,0-.911,0-1.367,0-.375.006-.75,0-1.124a.953.953,0,0,0-.946-1.011A.937.937,0,0,0,6.7,84.376c-.006.78,0,1.56-.007,2.339a.667.667,0,0,1-.125.445.554.554,0,0,1-.477.122A.588.588,0,0,1,5.8,86.85c-.029-.819-.01-1.64-.016-2.46a.969.969,0,0,0-.721-1,.934.934,0,0,0-1.158.913c-.015.769,0,1.539-.005,2.309a2.505,2.505,0,0,1-.006.273.443.443,0,0,1-.477.443A.424.424,0,0,1,3,86.864c-.011-.435,0-.871,0-1.306,0-.395.006-.79,0-1.185a.952.952,0,0,0-.948-1.009.937.937,0,0,0-.935,1.014c-.006,1.144,0,2.289,0,3.433a1.334,1.334,0,0,1-.034.36.406.406,0,0,1-.462.308.407.407,0,0,1-.4-.353A1.042,1.042,0,0,1,.2,87.915q0-1.777,0-3.554a1.774,1.774,0,0,1,1.122-1.753,1.772,1.772,0,0,1,2.021.378c.029.026.061.049.1.083" transform="translate(-0.179 -69.812)" fill="#fff"/>
        <path id="Path_8477" data-name="Path 8477" d="M.929,200.017c0,.8.013,1.6-.005,2.4a1.8,1.8,0,0,0,.322,1.174,2.943,2.943,0,0,1,.578,2.1c-.05.6-.008,1.214-.011,1.821,0,.344-.161.538-.435.546s-.469-.193-.472-.547c-.006-.81.005-1.62-.008-2.429a.884.884,0,0,0-.129-.481,4.319,4.319,0,0,1-.764-2.833c.058-1.445.014-2.895.015-4.342a2.367,2.367,0,0,1,.012-.333.411.411,0,0,1,.412-.374.41.41,0,0,1,.452.326,1.33,1.33,0,0,1,.031.33q0,1.321,0,2.642" transform="translate(0 -177.003)" fill="#fff"/>
        <path id="Path_8478" data-name="Path 8478" d="M148.788,33.063a2.128,2.128,0,1,1,2.117,2.125,2.125,2.125,0,0,1-2.117-2.125m2.124,1.215a1.217,1.217,0,1,0-.018-2.434,1.217,1.217,0,0,0,.018,2.434" transform="translate(-133.877 -27.833)" fill="#fff"/>
        <path id="Path_8479" data-name="Path 8479" d="M103.694,33.063a2.128,2.128,0,1,1-2.115-2.13,2.124,2.124,0,0,1,2.115,2.13m-2.133,1.215a1.217,1.217,0,1,0-1.213-1.217,1.215,1.215,0,0,0,1.213,1.217" transform="translate(-89.473 -27.833)" fill="#fff"/>
        <path id="Path_8480" data-name="Path 8480" d="M62.8,31.545c0-.517,0-1.033,0-1.549,0-.422.146-.573.557-.58.294,0,.588-.01.881,0a1.219,1.219,0,0,1,1.131,1.667.412.412,0,0,0,.055.332,1.343,1.343,0,0,1,.214,1.426,1.281,1.281,0,0,1-1.181.817c-.384.02-.769.021-1.154.011a.456.456,0,0,1-.5-.516c-.006-.537,0-1.073,0-1.61m.926,1.2a6.751,6.751,0,0,0,.731-.006.437.437,0,0,0-.033-.869c-.228-.013-.457,0-.7,0Zm.008-2.495v.775a6.38,6.38,0,0,0,.748-.233.412.412,0,0,0,0-.315,6.225,6.225,0,0,0-.746-.227" transform="translate(-56.508 -26.463)" fill="#fff"/>
        <path id="Path_8481" data-name="Path 8481" d="M87.6,236.235c0-.364.012-.729,0-1.093a.726.726,0,0,1,.272-.607c.8-.731,1.58-1.481,2.384-2.206A3.416,3.416,0,0,0,91.1,231.2c.159-.349.341-.688.525-1.025a.441.441,0,0,1,.609-.23.451.451,0,0,1,.195.645,7.288,7.288,0,0,1-1.946,2.776,22.665,22.665,0,0,0-1.779,1.651.7.7,0,0,0-.186.437c-.021.617-.009,1.234-.009,1.852a1.779,1.779,0,0,1-.006.243.459.459,0,0,1-.473.421.447.447,0,0,1-.428-.461c-.009-.425,0-.85,0-1.275Z" transform="translate(-78.814 -206.857)" fill="#fff"/>
        <path id="Path_8482" data-name="Path 8482" d="M201.445,32.232c0,.277,0,.479,0,.681-.006.345-.161.532-.441.537s-.464-.193-.467-.549c0-.76,0-1.519,0-2.279,0-.3-.006-.608,0-.911a.472.472,0,0,1,.449-.513c.269-.005.45.2.457.528,0,.169,0,.338,0,.595.306-.281.553-.511.8-.738a3.085,3.085,0,0,1,.274-.24.45.45,0,0,1,.571.7c-.334.324-.683.633-1.025.949l-.285.262c.265.265.518.521.773.774.223.22.458.43.674.658a.432.432,0,0,1,.019.628.446.446,0,0,1-.651.011c-.3-.272-.585-.56-.878-.84-.071-.068-.146-.132-.273-.247" transform="translate(-180.436 -26.272)" fill="#fff"/>
        <path id="Path_8483" data-name="Path 8483" d="M250.2,118.578a2.25,2.25,0,0,1,.334.151c.282.2.561.4.833.61a.46.46,0,0,1,.129.663.451.451,0,0,1-.672.06,6.744,6.744,0,0,1-.846-.64.615.615,0,0,1-.132-.506c.035-.137.236-.232.354-.337" transform="translate(-224.795 -106.694)" fill="#fff"/>
        <path id="Path_8484" data-name="Path 8484" d="M228.327,127.19c0,.191.014.384,0,.574a.406.406,0,0,1-.44.4.4.4,0,0,1-.442-.4c-.021-.392-.02-.787,0-1.179a.444.444,0,0,1,.887,0c.015.2,0,.4,0,.6h0" transform="translate(-204.634 -113.519)" fill="#fff"/>
        <path id="Path_8485" data-name="Path 8485" d="M197.285,120.881c-.089-.072-.272-.152-.324-.284a.521.521,0,0,1,.058-.467,6.463,6.463,0,0,1,1.077-.779.431.431,0,0,1,.5.654,12.186,12.186,0,0,1-1.112.834c-.03.021-.077.018-.2.042" transform="translate(-177.196 -107.372)" fill="#fff"/>
      </g>
    </g>
  </g>
</svg>
