<?xml version="1.0" encoding="UTF-8"?><svg id="Layer_2" xmlns="http://www.w3.org/2000/svg" xmlns:xlink="http://www.w3.org/1999/xlink" viewBox="0 0 387.77 221.66"><defs><style>.cls-1{fill:none;}.cls-2{fill:url(#linear-gradient);}.cls-3{clip-path:url(#clippath);}.cls-4{opacity:.03;}.cls-5{opacity:.05;}.cls-6{opacity:.08;}.cls-7{opacity:.06;}.cls-8{opacity:.11;}.cls-9{opacity:.09;}.cls-10{opacity:.12;}.cls-11{fill:#696a6d;}.cls-12{fill:#ee1f56;}.cls-13{fill:#fff;}.cls-14{fill:#6b6c6e;}.cls-15{fill:#7e7f82;}.cls-16{fill:#818285;}.cls-17{fill:#68696b;}.cls-18{fill:#747578;}.cls-19{fill:#656668;}.cls-20{fill:#6c6d70;}.cls-21{fill:#7c7e81;}.cls-22{fill:#7f8184;}.cls-23{fill:#8b8d8f;}.cls-24{fill:#929496;}.cls-25{fill:#939598;}.cls-26{fill:#8c8e91;}.cls-27{fill:#8f9194;}.cls-28{fill:#909295;}.cls-29{fill:#66676a;}.cls-30{fill:#8d9092;}.cls-31{fill:#858789;}.cls-32{fill:#231f20;}.cls-33{fill:#404041;}.cls-34{fill:#424244;}.cls-35{fill:#363536;}.cls-36{fill:#444446;}.cls-37{fill:#3e3e3f;}.cls-38{fill:#6f7173;}.cls-39{fill:#898b8e;}.cls-40{fill:#494a4b;}.cls-41{fill:#464648;}.cls-42{fill:#545557;}.cls-43{fill:#86888b;}.cls-44{fill:#6e6f72;}.cls-45{fill:#888a8c;}.cls-46{fill:#636466;}.cls-47{fill:#5b5c5e;}.cls-48{fill:#595a5c;}.cls-49{fill:#565658;}.cls-50{fill:#5d2684;}.cls-51{fill:#2a2829;}.cls-52{fill:#48484a;}.cls-53{fill:#2d2a2b;}.cls-54{fill:#5c5d60;}.cls-55{fill:#2f2d2e;}.cls-56{fill:#383738;}.cls-57{fill:#3a393b;}.cls-58{fill:#343233;}.cls-59{fill:#57585a;}.cls-60{fill:#3c3c3d;}.cls-61{fill:#828486;}.cls-62{fill:#616265;}.cls-63{fill:#757779;}.cls-64{fill:#76787b;}.cls-65{fill:#797b7e;}.cls-66{fill:#4b4c4d;}.cls-67{fill:#5e5f61;}.cls-68{fill:#606163;}.cls-69{fill:#717275;}.cls-70{fill:#727476;}.cls-71{fill:#4f4f51;}.cls-72{fill:#525355;}.cls-73{fill:#787a7c;}.cls-74{fill:#838588;}.cls-75{fill:#312f31;}.cls-76{fill:#282526;}.cls-77{fill:#262223;}.cls-78{fill:#7b7d7f;}.cls-79{fill:#4d4d4f;}.cls-80{fill:#515153;}.cls-81{clip-path:url(#clippath-1);}.cls-82{clip-path:url(#clippath-4);}.cls-83{clip-path:url(#clippath-3);}.cls-84{clip-path:url(#clippath-2);}.cls-85{clip-path:url(#clippath-7);}.cls-86{clip-path:url(#clippath-8);}.cls-87{clip-path:url(#clippath-6);}.cls-88{clip-path:url(#clippath-5);}.cls-89{clip-path:url(#clippath-9);}.cls-90{clip-path:url(#clippath-60);}.cls-91{clip-path:url(#clippath-69);}.cls-92{clip-path:url(#clippath-20);}.cls-93{clip-path:url(#clippath-21);}.cls-94{clip-path:url(#clippath-24);}.cls-95{clip-path:url(#clippath-23);}.cls-96{clip-path:url(#clippath-22);}.cls-97{clip-path:url(#clippath-25);}.cls-98{clip-path:url(#clippath-44);}.cls-99{clip-path:url(#clippath-45);}.cls-100{clip-path:url(#clippath-40);}.cls-101{clip-path:url(#clippath-42);}.cls-102{clip-path:url(#clippath-41);}.cls-103{clip-path:url(#clippath-47);}.cls-104{clip-path:url(#clippath-43);}.cls-105{clip-path:url(#clippath-46);}.cls-106{clip-path:url(#clippath-48);}.cls-107{clip-path:url(#clippath-49);}.cls-108{clip-path:url(#clippath-27);}.cls-109{clip-path:url(#clippath-28);}.cls-110{clip-path:url(#clippath-26);}.cls-111{clip-path:url(#clippath-29);}.cls-112{clip-path:url(#clippath-34);}.cls-113{clip-path:url(#clippath-35);}.cls-114{clip-path:url(#clippath-36);}.cls-115{clip-path:url(#clippath-37);}.cls-116{clip-path:url(#clippath-39);}.cls-117{clip-path:url(#clippath-33);}.cls-118{clip-path:url(#clippath-32);}.cls-119{clip-path:url(#clippath-30);}.cls-120{clip-path:url(#clippath-38);}.cls-121{clip-path:url(#clippath-31);}.cls-122{clip-path:url(#clippath-53);}.cls-123{clip-path:url(#clippath-54);}.cls-124{clip-path:url(#clippath-50);}.cls-125{clip-path:url(#clippath-51);}.cls-126{clip-path:url(#clippath-52);}.cls-127{clip-path:url(#clippath-55);}.cls-128{clip-path:url(#clippath-56);}.cls-129{clip-path:url(#clippath-57);}.cls-130{clip-path:url(#clippath-58);}.cls-131{clip-path:url(#clippath-61);}.cls-132{clip-path:url(#clippath-64);}.cls-133{clip-path:url(#clippath-62);}.cls-134{clip-path:url(#clippath-68);}.cls-135{clip-path:url(#clippath-67);}.cls-136{clip-path:url(#clippath-73);}.cls-137{clip-path:url(#clippath-59);}.cls-138{clip-path:url(#clippath-65);}.cls-139{clip-path:url(#clippath-63);}.cls-140{clip-path:url(#clippath-66);}.cls-141{clip-path:url(#clippath-70);}.cls-142{clip-path:url(#clippath-72);}.cls-143{clip-path:url(#clippath-71);}.cls-144{clip-path:url(#clippath-14);}.cls-145{clip-path:url(#clippath-13);}.cls-146{clip-path:url(#clippath-12);}.cls-147{clip-path:url(#clippath-10);}.cls-148{clip-path:url(#clippath-15);}.cls-149{clip-path:url(#clippath-17);}.cls-150{clip-path:url(#clippath-16);}.cls-151{clip-path:url(#clippath-19);}.cls-152{clip-path:url(#clippath-11);}.cls-153{clip-path:url(#clippath-18);}.cls-154{fill:url(#linear-gradient-3);}.cls-155{fill:url(#linear-gradient-4);}.cls-156{fill:url(#linear-gradient-2);}.cls-157{fill:url(#linear-gradient-6);}.cls-158{fill:url(#linear-gradient-5);}.cls-159{opacity:.17;}.cls-160{opacity:.15;}.cls-161{opacity:.14;}.cls-162{opacity:.21;}.cls-163{opacity:.2;}.cls-164{opacity:.18;}.cls-165{opacity:.33;}.cls-166{opacity:.32;}.cls-167{opacity:.29;}.cls-168{opacity:.3;}.cls-169{opacity:.26;}.cls-170{opacity:.27;}.cls-171{opacity:.23;}.cls-172{opacity:.24;}.cls-173{opacity:.45;}.cls-174{opacity:.44;}.cls-175{opacity:.47;}.cls-176{opacity:.42;}.cls-177{opacity:.41;}.cls-178{opacity:.39;}.cls-179{opacity:.38;}.cls-180{opacity:.36;}.cls-181{opacity:.35;}.cls-182{opacity:.64;}.cls-183{opacity:.65;}.cls-184{opacity:.67;}.cls-185{opacity:.68;}.cls-186{opacity:.58;}.cls-187{opacity:.59;}.cls-188{opacity:.61;}.cls-189{opacity:.62;}.cls-190{opacity:.53;}.cls-191{opacity:.52;}.cls-192{opacity:.55;}.cls-193{opacity:.56;}.cls-194{opacity:.48;}.cls-195{opacity:.5;}.cls-196{opacity:.89;}.cls-197{opacity:.88;}.cls-198{opacity:.92;}.cls-199{opacity:.91;}.cls-200{opacity:.83;}.cls-201{opacity:.82;}.cls-202{opacity:.86;}.cls-203{opacity:.85;}.cls-204{opacity:.74;}.cls-205{opacity:.76;}.cls-206{opacity:.77;}.cls-207{opacity:.79;}.cls-208{opacity:.8;}.cls-209{opacity:.7;}.cls-210{opacity:.73;}.cls-211{opacity:.71;}.cls-212{opacity:.95;}.cls-213{opacity:.94;}.cls-214{opacity:.97;}.cls-215{opacity:.98;}.cls-216{opacity:.02;}.cls-217{opacity:0;}</style><linearGradient id="linear-gradient" x1="154.94" y1="525.99" x2="155.97" y2="590.25" gradientTransform="translate(0 754) scale(1 -1)" gradientUnits="userSpaceOnUse"><stop offset="0" stop-color="#fdec09"/><stop offset=".03" stop-color="#fcdf0e"/><stop offset=".17" stop-color="#f8ad21"/><stop offset=".3" stop-color="#f58131"/><stop offset=".44" stop-color="#f35e3e"/><stop offset=".58" stop-color="#f14249"/><stop offset=".72" stop-color="#ef2f50"/><stop offset=".86" stop-color="#ee2355"/><stop offset="1" stop-color="#ee1f56"/></linearGradient><clipPath id="clippath"><path class="cls-1" d="m6.5,194.66c-3.5-.07-6.4,2.69-6.5,6.18v14.64c.1,3.49,3,6.25,6.5,6.18h297.5c3.5.08,6.41-2.68,6.51-6.18v-14.64c-.1-3.5-3.01-6.26-6.51-6.18H6.5Z"/></clipPath><clipPath id="clippath-1"><path class="cls-1" d="m132.31,58.88c-1.38,17.81,10,33.16,27.21,39.49l.64-2.35c-14.09-5.9-23.31-19.63-23.46-34.9.03-10.32,4.27-20.19,11.74-27.31l.1-1.17c.08-1.12.08-2.23,0-3.35-9.22,7.51-15.37,18-16.27,29.59"/></clipPath><linearGradient id="linear-gradient-2" x1="-6000.9" y1="-2391.66" x2="-6000.26" y2="-2391.66" gradientTransform="translate(-236054.86 592689.14) rotate(90) scale(98.76)" gradientUnits="userSpaceOnUse"><stop offset="0" stop-color="#808285"/><stop offset="1" stop-color="#58595b"/></linearGradient><clipPath id="clippath-2"><path class="cls-1" d="m154.23,25.29c.56.54,1.15,1.05,1.77,1.52.58.43,1,.7,1.17.82l.4-.22c.35-.19.78-.42,1.35-.68,2.25-1.02,4.6-1.82,7-2.41,1.2-1.49,2.06-3.23,2.52-5.09-4.99,1.33-9.75,3.37-14.16,6.06"/></clipPath><linearGradient id="linear-gradient-3" x1="-6000.9" y1="-2391.37" x2="-6000.26" y2="-2391.37" gradientTransform="translate(-236057.93 592767.68) rotate(90) scale(98.78)" xlink:href="#linear-gradient-2"/><clipPath id="clippath-3"><path class="cls-1" d="m173.68,18.07c-.53,1.06-.82,2.6-.5,5.22h1.78c21.01-.08,38.12,16.86,38.25,37.87,0,19.12-12.39,30.87-24.15,35.57l.94,3.27c20.33-4.82,36.21-20.87,37.69-40.09,1.8-23.23-18.12-42.26-44.44-42.54h-.59c-3,0-5.99.24-8.95.73"/></clipPath><linearGradient id="linear-gradient-4" x1="-6000.9" y1="-2391.1" x2="-6000.26" y2="-2391.1" gradientTransform="translate(-235967.7 592699.32) rotate(90) scale(98.77)" xlink:href="#linear-gradient-2"/><clipPath id="clippath-4"><path class="cls-1" d="m166.76,100.42c3.29.65,6.64.98,10,1,2,.01,4.01-.08,6-.28l-1.76-2.3c-1.63.21-3.27.32-4.92.32-2.6-.02-5.19-.27-7.74-.75l-1.58,2.01Z"/></clipPath><linearGradient id="linear-gradient-5" x1="-6000.9" y1="-2391.2" x2="-6000.25" y2="-2391.2" gradientTransform="translate(-236099.94 592952.75) rotate(90) scale(98.81)" xlink:href="#linear-gradient-2"/><clipPath id="clippath-5"><path class="cls-1" d="m145.6,13.79c1.12,0,2.04.91,2.04,2.04s-.91,2.03-2.04,2.03-2.04-.91-2.04-2.03.91-2.03,2.04-2.03m25.33-.38c-.79-.64-.91-1.8-.27-2.59s1.8-.91,2.59-.27.91,1.8.27,2.59c-.35.44-.89.69-1.45.68-.42,0-.82-.15-1.14-.41m-2-3.81c-1.08,1.42-1.05,3.39.07,4.77,3,3.58.52,8.2-1.92,11.31-2.47.57-4.88,1.39-7.19,2.44-2.56,1.16-2.06,1.72-4.47-.09-3.08-2.29-5.91-5.9-5.73-9.5.09-1.46.62-2.65.14-4.07-.71-2.32-3.17-3.63-5.5-2.92s-3.63,3.17-2.92,5.5c.44,1.45,1.61,2.57,3.07,2.96,5.46,1.31,6.29,8.08,5.87,12.76,1.37-.68,2.78-1.25,4.24-1.71-16.62,11.08-21.11,33.54-10.03,50.16,4.81,7.22,12.07,12.47,20.43,14.79-.97-.03-1.94-.1-2.91-.23l-3.73,13.58,9.55-12.62c4.6,1.01,9.34,1.17,14,.46l9.4,12.36-3.58-13c-1.47.23-2.95.36-4.44.38,12.71-2.53,28.71-14.68,28.71-35.81-.1-20.17-16.54-36.44-36.72-36.34,0,0,0,0-.01,0-2.01,0-4.01.16-6,.46.89-.46,1.8-.88,2.73-1.24-.76-5.37.73-7.24,2.32-8.78.71-.51,1.23-1.23,1.5-2.06.47-1.58-.1-3.3-1.44-4.27-.68-.52-1.52-.81-2.38-.82-1.22,0-2.36.56-3.1,1.53"/></clipPath><linearGradient id="linear-gradient-6" x1="-6020.89" y1="-2367.54" x2="-6020.24" y2="-2367.54" gradientTransform="translate(-866176.28 -340630.58) rotate(-180) scale(143.9)" xlink:href="#linear-gradient"/><clipPath id="clippath-6"><rect class="cls-1" x="125.59" y="102.61" width="108.8" height="15.94"/></clipPath><clipPath id="clippath-7"><rect class="cls-1" x="125.59" y="102.61" width="108.8" height="15.94"/></clipPath><clipPath id="clippath-8"><rect class="cls-1" x="126.16" y="102.71" width="107.47" height="15.73"/></clipPath><clipPath id="clippath-9"><rect class="cls-1" x="126.74" y="102.82" width="106.14" height="15.52"/></clipPath><clipPath id="clippath-10"><rect class="cls-1" x="127.31" y="102.92" width="104.82" height="15.32"/></clipPath><clipPath id="clippath-11"><rect class="cls-1" x="127.89" y="103.03" width="103.49" height="15.12"/></clipPath><clipPath id="clippath-12"><rect class="cls-1" x="128.46" y="103.14" width="102.17" height="14.92"/></clipPath><clipPath id="clippath-13"><rect class="cls-1" x="129.04" y="103.25" width="100.84" height="14.71"/></clipPath><clipPath id="clippath-14"><rect class="cls-1" x="129.61" y="103.35" width="99.51" height="14.51"/></clipPath><clipPath id="clippath-15"><rect class="cls-1" x="130.19" y="103.46" width="98.19" height="14.29"/></clipPath><clipPath id="clippath-16"><rect class="cls-1" x="130.76" y="103.56" width="96.86" height="14.09"/></clipPath><clipPath id="clippath-17"><rect class="cls-1" x="131.34" y="103.67" width="95.53" height="13.89"/></clipPath><clipPath id="clippath-18"><rect class="cls-1" x="131.91" y="103.78" width="94.21" height="13.69"/></clipPath><clipPath id="clippath-19"><rect class="cls-1" x="132.49" y="103.89" width="92.88" height="13.48"/></clipPath><clipPath id="clippath-20"><rect class="cls-1" x="133.06" y="103.99" width="91.56" height="13.28"/></clipPath><clipPath id="clippath-21"><rect class="cls-1" x="133.64" y="104.09" width="90.23" height="13.07"/></clipPath><clipPath id="clippath-22"><rect class="cls-1" x="134.21" y="104.2" width="88.9" height="12.86"/></clipPath><clipPath id="clippath-23"><rect class="cls-1" x="134.79" y="104.31" width="87.58" height="12.66"/></clipPath><clipPath id="clippath-24"><rect class="cls-1" x="135.36" y="104.42" width="86.25" height="12.46"/></clipPath><clipPath id="clippath-25"><rect class="cls-1" x="135.94" y="104.52" width="84.93" height="12.25"/></clipPath><clipPath id="clippath-26"><rect class="cls-1" x="136.52" y="104.63" width="83.6" height="12.05"/></clipPath><clipPath id="clippath-27"><rect class="cls-1" x="137.09" y="104.74" width="82.27" height="11.85"/></clipPath><clipPath id="clippath-28"><rect class="cls-1" x="137.67" y="104.85" width="80.95" height="11.63"/></clipPath><clipPath id="clippath-29"><rect class="cls-1" x="138.24" y="104.95" width="79.62" height="11.43"/></clipPath><clipPath id="clippath-30"><rect class="cls-1" x="138.82" y="105.06" width="78.29" height="11.23"/></clipPath><clipPath id="clippath-31"><rect class="cls-1" x="139.39" y="105.16" width="76.97" height="11.02"/></clipPath><clipPath id="clippath-32"><rect class="cls-1" x="139.97" y="105.27" width="75.64" height="10.82"/></clipPath><clipPath id="clippath-33"><rect class="cls-1" x="140.54" y="105.38" width="74.32" height="10.62"/></clipPath><clipPath id="clippath-34"><rect class="cls-1" x="141.12" y="105.49" width="72.99" height="10.4"/></clipPath><clipPath id="clippath-35"><rect class="cls-1" x="141.69" y="105.59" width="71.66" height="10.2"/></clipPath><clipPath id="clippath-36"><rect class="cls-1" x="142.27" y="105.7" width="70.34" height="10"/></clipPath><clipPath id="clippath-37"><rect class="cls-1" x="142.84" y="105.8" width="69.01" height="9.79"/></clipPath><clipPath id="clippath-38"><rect class="cls-1" x="143.42" y="105.91" width="67.68" height="9.59"/></clipPath><clipPath id="clippath-39"><rect class="cls-1" x="143.99" y="106.02" width="66.36" height="9.39"/></clipPath><clipPath id="clippath-40"><rect class="cls-1" x="144.57" y="106.12" width="65.03" height="9.18"/></clipPath><clipPath id="clippath-41"><rect class="cls-1" x="145.14" y="106.23" width="63.71" height="8.97"/></clipPath><clipPath id="clippath-42"><rect class="cls-1" x="145.72" y="106.33" width="62.38" height="8.77"/></clipPath><clipPath id="clippath-43"><rect class="cls-1" x="146.29" y="106.44" width="61.05" height="8.56"/></clipPath><clipPath id="clippath-44"><rect class="cls-1" x="146.87" y="106.55" width="59.73" height="8.36"/></clipPath><clipPath id="clippath-45"><rect class="cls-1" x="147.44" y="106.66" width="58.4" height="8.16"/></clipPath><clipPath id="clippath-46"><rect class="cls-1" x="148.02" y="106.76" width="57.08" height="7.96"/></clipPath><clipPath id="clippath-47"><rect class="cls-1" x="148.59" y="106.87" width="55.75" height="7.74"/></clipPath><clipPath id="clippath-48"><rect class="cls-1" x="149.17" y="106.97" width="54.42" height="7.54"/></clipPath><clipPath id="clippath-49"><rect class="cls-1" x="149.74" y="107.08" width="53.1" height="7.33"/></clipPath><clipPath id="clippath-50"><rect class="cls-1" x="150.32" y="107.19" width="51.77" height="7.13"/></clipPath><clipPath id="clippath-51"><rect class="cls-1" x="150.9" y="107.3" width="50.44" height="6.93"/></clipPath><clipPath id="clippath-52"><rect class="cls-1" x="151.47" y="107.4" width="49.12" height="6.73"/></clipPath><clipPath id="clippath-53"><rect class="cls-1" x="152.05" y="107.51" width="47.79" height="6.51"/></clipPath><clipPath id="clippath-54"><rect class="cls-1" x="152.62" y="107.62" width="46.47" height="6.31"/></clipPath><clipPath id="clippath-55"><rect class="cls-1" x="153.2" y="107.72" width="45.14" height="6.11"/></clipPath><clipPath id="clippath-56"><rect class="cls-1" x="153.77" y="107.83" width="43.81" height="5.9"/></clipPath><clipPath id="clippath-57"><rect class="cls-1" x="154.35" y="107.93" width="42.49" height="5.7"/></clipPath><clipPath id="clippath-58"><rect class="cls-1" x="154.92" y="108.04" width="41.16" height="5.5"/></clipPath><clipPath id="clippath-59"><rect class="cls-1" x="155.5" y="108.15" width="39.84" height="5.3"/></clipPath><clipPath id="clippath-60"><rect class="cls-1" x="156.07" y="108.26" width="38.51" height="5.08"/></clipPath><clipPath id="clippath-61"><rect class="cls-1" x="156.65" y="108.36" width="37.18" height="4.88"/></clipPath><clipPath id="clippath-62"><rect class="cls-1" x="157.22" y="108.47" width="35.86" height="4.67"/></clipPath><clipPath id="clippath-63"><rect class="cls-1" x="157.8" y="108.57" width="34.53" height="4.47"/></clipPath><clipPath id="clippath-64"><rect class="cls-1" x="158.37" y="108.68" width="33.2" height="4.27"/></clipPath><clipPath id="clippath-65"><rect class="cls-1" x="158.95" y="108.79" width="31.88" height="4.07"/></clipPath><clipPath id="clippath-66"><rect class="cls-1" x="159.52" y="108.9" width="30.55" height="3.85"/></clipPath><clipPath id="clippath-67"><rect class="cls-1" x="160.1" y="109" width="29.23" height="3.65"/></clipPath><clipPath id="clippath-68"><rect class="cls-1" x="160.67" y="109.11" width="27.9" height="3.44"/></clipPath><clipPath id="clippath-69"><rect class="cls-1" x="161.25" y="109.21" width="26.57" height="3.24"/></clipPath><clipPath id="clippath-70"><rect class="cls-1" x="161.82" y="109.32" width="25.25" height="3.04"/></clipPath><clipPath id="clippath-71"><rect class="cls-1" x="162.4" y="109.43" width="23.92" height="2.84"/></clipPath><clipPath id="clippath-72"><rect class="cls-1" x="162.97" y="109.54" width="22.6" height="2.62"/></clipPath><clipPath id="clippath-73"><rect class="cls-1" x="163.55" y="109.64" width="21.27" height="2.42"/></clipPath></defs><g id="Layer_1-2"><g id="Layer_2-2"><g id="Layer_1-2"><path class="cls-2" d="m6.5,194.66c-3.5-.07-6.4,2.69-6.5,6.18v14.64c.1,3.49,3,6.25,6.5,6.18h297.5c3.5.08,6.41-2.68,6.51-6.18v-14.64c-.1-3.5-3.01-6.26-6.51-6.18H6.5Z"/><g class="cls-3"><rect class="cls-12" y="194.66" width="310.54" height="27.01"/></g><path class="cls-12" d="m269.71,35.32c4.03-2.42,8.66-3.69,13.36-3.66v22.34h-6c-5.54,0-9.82,1.18-12.87,3.54s-4.58,6.35-4.58,12v31h-20.84V32.39h20.86v12.81c2.51-4.06,5.96-7.45,10.07-9.88"/><path class="cls-12" d="m293.31,5.36c5.31-4.15,12.75-4.15,18.06,0,2.24,1.99,3.49,4.87,3.42,7.87.07,2.97-1.18,5.82-3.42,7.77-5.31,4.15-12.75,4.15-18.06,0-2.22-1.96-3.47-4.79-3.41-7.75-.07-3,1.17-5.87,3.41-7.87m19.4,95.11h-20.86V32.39h20.86v68.1Z"/><path class="cls-12" d="m372.56,38c5.18,4.34,8.62,10.41,9.7,17.08h-19.52c-.46-2.57-1.83-4.88-3.85-6.53-2.15-1.63-4.8-2.47-7.5-2.37-1.92-.14-3.83.4-5.39,1.52-1.23,1.08-1.9,2.66-1.81,4.3,0,2.12,1.12,3.7,3.36,4.76,3.39,1.45,6.93,2.53,10.55,3.24,4.34.97,8.62,2.21,12.81,3.72,3.36,1.29,6.34,3.41,8.66,6.16,2.44,2.85,3.66,6.67,3.66,11.47.06,3.7-1.05,7.33-3.17,10.37-2.33,3.17-5.5,5.62-9.15,7.08-4.49,1.8-9.31,2.67-14.15,2.56-9.2,0-16.56-2.03-22.09-6.1s-8.9-9.9-10.12-17.49h20.13c.18,2.68,1.54,5.14,3.72,6.72,2.47,1.64,5.4,2.44,8.36,2.31,1.93.14,3.84-.45,5.36-1.64,1.24-1.09,1.93-2.68,1.88-4.33.09-2.23-1.26-4.27-3.35-5.07-3.53-1.41-7.19-2.49-10.92-3.23-4.23-.83-8.38-1.98-12.44-3.42-3.26-1.22-6.16-3.26-8.42-5.91-2.36-2.73-3.54-6.46-3.54-11.17-.15-5.77,2.45-11.27,7-14.82,4.67-3.78,11.22-5.67,19.65-5.68,8.62,0,15.51,2.16,20.68,6.47"/><path class="cls-12" d="m116.76,38.42c5,5.12,7.5,12.24,7.5,21.35v39.78h-20.74v-37c0-4.4-1.16-7.8-3.48-10.19s-5.51-3.59-9.58-3.6c-4.07,0-7.26,1.2-9.58,3.6-2.32,2.4-3.48,5.81-3.47,10.22v37h-20.74v-37c0-4.4-1.16-7.8-3.48-10.19s-5.51-3.59-9.58-3.6c-4.07,0-7.26,1.2-9.57,3.6-2.31,2.4-3.47,5.8-3.48,10.19v37H9.69V31.47h20.87v8.53c2.17-2.9,5.02-5.23,8.29-6.78,3.62-1.71,7.59-2.56,11.6-2.5,4.78-.09,9.5,1.04,13.72,3.28,3.99,2.16,7.27,5.42,9.46,9.39,2.41-3.79,5.72-6.94,9.63-9.15,4.03-2.35,8.63-3.58,13.3-3.54,8.46.02,15.19,2.59,20.2,7.72Z"/><g class="cls-81"><rect class="cls-156" x="130.74" y="29.22" width="29.6" height="69.24" transform="translate(-.33 .76) rotate(-.3)"/></g><g class="cls-84"><rect class="cls-154" x="154.21" y="19.21" width="14.2" height="8.48" transform="translate(-.12 .84) rotate(-.3)"/></g><g class="cls-83"><rect class="cls-155" x="172.63" y="17.21" width="57.04" height="82.94" transform="translate(-.3 1.05) rotate(-.3)"/></g><g class="cls-82"><rect class="cls-158" x="166.75" y="98.37" width="15.99" height="3.17" transform="translate(-.52 .92) rotate(-.3)"/></g><g class="cls-88"><rect class="cls-157" x="112.71" y=".46" width="125.1" height="116.72" transform="translate(30.85 174.25) rotate(-57.19)"/></g><path class="cls-50" d="m160.17,46.47c-3.35,6.89-3.71,21.1-.57,27.54,1.13,2.33,2.87,3.93,5.58,4.1,7.32.48,21.65-6.79,26.25-13.09,2.15-2.92,2.18-5.49.06-8.5-4.3-6-16.12-13.24-23.44-14.13-3.79-.47-6.18.68-7.88,4.08"/><path class="cls-50" d="m154.38,38c1.23-1.07,2.35-2,3.67-3,.68-.52,1.66-.39,2.18.29s.39,1.66-.29,2.18h0c-.61.46-3.43,1.57-4.46,2.09-.53.16-1.09-.14-1.25-.66-.09-.31-.03-.64.16-.9"/><path class="cls-50" d="m142.74,61.78c.04-2.42.32-4.84.83-7.21.65-2.77,1.7-5.44,3.11-7.91,1.29-2.1,2.77-4.09,4.41-5.93.39-.4,1.04-.4,1.43,0s.4,1.04,0,1.44h0c-1.63,1.65-3.09,3.45-4.38,5.38-1.46,2.27-2.58,4.75-3.32,7.35-.61,2.29-.98,4.64-1.12,7-.02.28-.25.49-.53.47-.28-.02-.49-.25-.47-.53h0"/><path class="cls-13" d="m164.62,45.18c-7.08,2-8,27.27-2.43,32.59,5.28,5.06,29.73-7.76,29.73-15.44s-19.86-19.24-27.3-17.15"/><path class="cls-13" d="m153.53,38c1.23-1.07,2.35-2,3.67-3,.68-.52,1.66-.39,2.18.29s.39,1.66-.29,2.18h0c-.62.46-3.44,1.57-4.46,2.09-.53.16-1.09-.14-1.25-.66-.09-.31-.03-.64.16-.9"/><path class="cls-13" d="m141.89,61.78c.04-2.42.32-4.84.83-7.21.65-2.77,1.7-5.44,3.11-7.91,1.29-2.11,2.76-4.09,4.41-5.93.39-.4,1.04-.4,1.43,0s.4,1.04,0,1.44h0c-1.63,1.65-3.09,3.45-4.38,5.38-1.46,2.27-2.57,4.75-3.3,7.35-.61,2.29-.98,4.64-1.12,7-.02.28-.25.49-.53.47-.28-.02-.49-.25-.47-.53h0"/><path class="cls-13" d="m222.23,49.63c.03,1.81-1.41,3.31-3.22,3.34-1.81.03-3.31-1.41-3.34-3.22s1.41-3.31,3.22-3.34c.04,0,.07,0,.11,0,1.79,0,3.24,1.43,3.26,3.22"/><path class="cls-13" d="m222.1,59.14c.02,1.17-.92,2.13-2.09,2.15-1.17.02-2.13-.92-2.15-2.09-.02-1.17.92-2.13,2.09-2.15.02,0,.03,0,.05,0,1.15.01,2.09.94,2.11,2.09"/><path class="cls-13" d="m220.36,66.81c.01.82-.64,1.49-1.46,1.5-.82.01-1.49-.64-1.5-1.46-.01-.82.64-1.49,1.46-1.5,0,0,.02,0,.03,0,.81,0,1.46.64,1.47,1.45,0,0,0,0,0,.01"/><g class="cls-170"><g class="cls-87"><g><g class="cls-217"><g class="cls-85"><path class="cls-25" d="m234.38,110.45c.25,4.4-23.9,8-53.94,8.09s-54.6-3.44-54.85-7.84,23.9-8,53.94-8.09,54.6,3.44,54.85,7.84"/></g></g><g class="cls-216"><g class="cls-86"><path class="cls-24" d="m233.63,110.45c.25,4.35-23.61,7.92-53.29,8s-53.93-3.4-54.18-7.74,23.62-7.92,53.29-8,53.93,3.4,54.18,7.74"/></g></g><g class="cls-4"><g class="cls-89"><path class="cls-28" d="m232.88,110.46c.24,4.29-23.32,7.82-52.63,7.88s-53.25-3.34-53.51-7.64,23.32-7.81,52.62-7.88,53.28,3.35,53.52,7.64"/></g></g><g class="cls-5"><g class="cls-147"><path class="cls-27" d="m232.13,110.47c.24,4.23-23,7.71-52,7.78s-52.6-3.31-52.85-7.54,23-7.72,52-7.78,52.61,3.3,52.85,7.54"/></g></g><g class="cls-7"><g class="cls-152"><path class="cls-30" d="m231.38,110.47c.24,4.18-22.74,7.61-51.32,7.68s-51.93-3.27-52.17-7.44,22.74-7.61,51.31-7.68,51.94,3.27,52.18,7.44"/></g></g><g class="cls-6"><g class="cls-146"><path class="cls-26" d="m230.63,110.48c.23,4.11-22.45,7.5-50.66,7.57s-51.27-3.22-51.51-7.34,22.45-7.51,50.66-7.57,51.27,3.22,51.51,7.34"/></g></g><g class="cls-9"><g class="cls-145"><path class="cls-23" d="m229.87,110.48c.24,4.06-22.15,7.41-50,7.47s-50.61-3.17-50.84-7.24,22.16-7.4,50-7.46,50.61,3.17,50.83,7.23"/></g></g><g class="cls-8"><g class="cls-144"><path class="cls-39" d="m229.12,110.49c.23,4-21.86,7.3-49.34,7.36s-49.94-3.13-50.17-7.13,21.87-7.3,49.34-7.37,50,3.13,50.17,7.14"/></g></g><g class="cls-10"><g class="cls-148"><path class="cls-45" d="m228.37,110.49c.23,4-21.57,7.2-48.68,7.27s-49.27-3.09-49.5-7,21.57-7.2,48.68-7.26,49.28,3.09,49.5,7"/></g></g><g class="cls-161"><g class="cls-150"><path class="cls-43" d="m227.62,110.5c.23,3.89-21.28,7.09-48,7.16s-48.6-3-48.83-6.94,21.29-7.09,48-7.16,48.61,3,48.83,6.94"/></g></g><g class="cls-160"><g class="cls-149"><path class="cls-31" d="m226.87,110.51c.22,3.83-21,7-47.37,7s-47.94-3-48.16-6.83,21-7,47.37-7.06,47.94,3,48.16,6.84"/></g></g><g class="cls-159"><g class="cls-153"><path class="cls-74" d="m226.12,110.51c.22,3.78-20.7,6.89-46.71,6.95s-47.28-2.95-47.49-6.73,20.7-6.89,46.71-7,47.28,3,47.49,6.73"/></g></g><g class="cls-164"><g class="cls-151"><path class="cls-61" d="m225.37,110.52c.21,3.72-20.41,6.78-46.06,6.84s-46.61-2.91-46.82-6.63,20.41-6.79,46-6.85,46.62,2.91,46.83,6.64"/></g></g><g class="cls-163"><g class="cls-92"><path class="cls-16" d="m224.62,110.52c.21,3.67-20.12,6.69-45.4,6.74s-45.94-2.86-46.15-6.53,20.11-6.68,45.39-6.74,45.95,2.87,46.16,6.53"/></g></g><g class="cls-162"><g class="cls-93"><path class="cls-22" d="m223.87,110.53c.2,3.61-19.83,6.58-44.74,6.64s-45.28-2.82-45.49-6.43,19.83-6.58,44.74-6.64,45.28,2.82,45.49,6.43"/></g></g><g class="cls-171"><g class="cls-96"><path class="cls-15" d="m223.12,110.53c.2,3.56-19.54,6.48-44.09,6.54s-44.61-2.78-44.81-6.33,19.53-6.48,44.08-6.54,44.62,2.78,44.82,6.33"/></g></g><g class="cls-172"><g class="cls-95"><path class="cls-21" d="m222.37,110.54c.2,3.5-19.25,6.37-43.43,6.43s-43.95-2.73-44.15-6.23,19.25-6.37,43.43-6.43,43.95,2.73,44.15,6.23"/></g></g><g class="cls-169"><g class="cls-94"><path class="cls-78" d="m221.61,110.55c.2,3.44-19,6.27-42.77,6.32s-43.28-2.69-43.47-6.12,18.95-6.28,42.76-6.33,43.29,2.69,43.48,6.13"/></g></g><g class="cls-170"><g class="cls-97"><path class="cls-65" d="m220.86,110.55c.2,3.39-18.66,6.17-42.11,6.22s-42.61-2.64-42.81-6,18.66-6.17,42.11-6.23,42.62,2.65,42.81,6"/></g></g><g class="cls-167"><g class="cls-110"><path class="cls-73" d="m220.11,110.56c.19,3.32-18.37,6.06-41.45,6.12s-41.95-2.6-42.14-5.93,18.37-6.07,41.45-6.12,41.95,2.6,42.14,5.93"/></g></g><g class="cls-168"><g class="cls-108"><path class="cls-64" d="m219.36,110.56c.19,3.27-18.08,6-40.8,6s-41.28-2.56-41.47-5.83,18.08-6,40.8-6,41.29,2.55,41.47,5.82"/></g></g><g class="cls-166"><g class="cls-109"><path class="cls-63" d="m218.61,110.57c.19,3.21-17.79,5.86-40.14,5.91s-40.62-2.51-40.8-5.72,17.79-5.86,40.14-5.92,40.62,2.52,40.8,5.73"/></g></g><g class="cls-165"><g class="cls-111"><path class="cls-18" d="m217.86,110.57c.18,3.16-17.5,5.76-39.49,5.81s-40-2.46-40.13-5.62,17.5-5.76,39.48-5.81,40,2.47,40.14,5.62"/></g></g><g class="cls-181"><g class="cls-119"><path class="cls-70" d="m217.11,110.58c.18,3.1-17.21,5.65-38.83,5.7s-39.28-2.42-39.46-5.52,17.21-5.65,38.82-5.7,39.29,2.42,39.47,5.52"/></g></g><g class="cls-180"><g class="cls-121"><path class="cls-69" d="m216.36,110.59c.17,3-16.92,5.55-38.17,5.6s-38.62-2.38-38.8-5.43,16.92-5.55,38.17-5.6,38.63,2.38,38.8,5.43"/></g></g><g class="cls-179"><g class="cls-118"><path class="cls-38" d="m215.61,110.59c.17,3-16.63,5.45-37.52,5.5s-38-2.34-38.12-5.32,16.62-5.45,37.51-5.5,38,2.33,38.13,5.32"/></g></g><g class="cls-178"><g class="cls-117"><path class="cls-44" d="m214.86,110.6c.16,2.93-16.34,5.34-36.86,5.39s-37.29-2.29-37.46-5.22,16.34-5.35,36.85-5.39,37.3,2.29,37.47,5.22"/></g></g><g class="cls-177"><g class="cls-112"><path class="cls-20" d="m214.11,110.6c.16,2.88-16.05,5.24-36.2,5.29s-36.63-2.24-36.79-5.12,16-5.24,36.19-5.29,36.63,2.25,36.8,5.12"/></g></g><g class="cls-176"><g class="cls-113"><path class="cls-14" d="m213.35,110.61c.17,2.82-15.75,5.14-35.54,5.18s-36-2.2-36.12-5,15.76-5.14,35.54-5.19,36,2.2,36.12,5"/></g></g><g class="cls-174"><g class="cls-114"><path class="cls-11" d="m212.6,110.62c.16,2.76-15.46,5-34.88,5.07s-35.29-2.15-35.45-4.91,15.46-5,34.88-5.08,35.3,2.15,35.45,4.92"/></g></g><g class="cls-173"><g class="cls-115"><path class="cls-17" d="m211.85,110.62c.16,2.71-15.17,4.93-34.22,5s-34.63-2.11-34.79-4.82,15.17-4.93,34.23-5,34.63,2.12,34.78,4.82"/></g></g><g class="cls-175"><g class="cls-120"><path class="cls-29" d="m211.1,110.63c.15,2.65-14.88,4.83-33.57,4.87s-34-2.07-34.11-4.72,14.88-4.78,33.58-4.87,34,2.07,34.12,4.72"/></g></g><g class="cls-194"><g class="cls-116"><path class="cls-19" d="m210.35,110.63c.15,2.6-14.59,4.73-32.91,4.77s-33.3-2-33.45-4.61,14.59-4.73,32.91-4.77,33.3,2,33.45,4.61"/></g></g><g class="cls-195"><g class="cls-100"><path class="cls-46" d="m209.6,110.64c.15,2.54-14.3,4.62-32.26,4.66s-32.62-2-32.77-4.51,14.3-4.62,32.25-4.67,32.64,2,32.78,4.52"/></g></g><g class="cls-191"><g class="cls-102"><path class="cls-62" d="m208.85,110.64c.14,2.48-14,4.52-31.6,4.56s-32-1.93-32.11-4.41,14-4.52,31.6-4.56,32,1.94,32.11,4.41"/></g></g><g class="cls-190"><g class="cls-101"><path class="cls-68" d="m208.1,110.65c.14,2.42-13.72,4.42-30.94,4.46s-31.3-1.89-31.44-4.32,13.71-4.41,30.94-4.45,31.3,1.89,31.44,4.31"/></g></g><g class="cls-192"><g class="cls-104"><path class="cls-67" d="m207.35,110.66c.13,2.36-13.43,4.31-30.29,4.35s-30.63-1.85-30.77-4.21,13.43-4.32,30.28-4.36,30.64,1.85,30.78,4.22"/></g></g><g class="cls-193"><g class="cls-98"><path class="cls-54" d="m206.6,110.66c.13,2.31-13.14,4.21-29.63,4.25s-30-1.8-30.1-4.11,13.13-4.21,29.62-4.25,30,1.8,30.11,4.11"/></g></g><g class="cls-186"><g class="cls-99"><path class="cls-47" d="m205.84,110.67c.13,2.25-12.84,4.1-29,4.14s-29.3-1.75-29.43-4,12.85-4.11,29-4.14,29.31,1.76,29.43,4"/></g></g><g class="cls-187"><g class="cls-105"><path class="cls-48" d="m205.09,110.67c.13,2.2-12.55,4-28.31,4s-28.63-1.67-28.78-3.86,12.55-4,28.31-4,28.64,1.72,28.76,3.91"/></g></g><g class="cls-188"><g class="cls-103"><path class="cls-59" d="m204.34,110.68c.13,2.14-12.26,3.9-27.65,3.94s-28-1.67-28.09-3.81,12.26-3.9,27.65-3.94,28,1.67,28.09,3.81"/></g></g><g class="cls-189"><g class="cls-106"><path class="cls-49" d="m203.59,110.68c.12,2.09-12,3.8-27,3.84s-27.3-1.63-27.42-3.71,12-3.8,27-3.83,27.31,1.62,27.43,3.7"/></g></g><g class="cls-182"><g class="cls-107"><path class="cls-42" d="m202.84,110.69c.12,2-11.68,3.7-26.34,3.73s-26.64-1.58-26.75-3.61,11.67-3.69,26.33-3.73,26.65,1.58,26.76,3.61"/></g></g><g class="cls-183"><g class="cls-124"><path class="cls-72" d="m202.09,110.7c.11,2-11.39,3.59-25.68,3.62s-26-1.53-26.09-3.5,11.39-3.6,25.68-3.63,26,1.54,26.09,3.51"/></g></g><g class="cls-184"><g class="cls-125"><path class="cls-80" d="m201.34,110.7c.11,1.92-11.09,3.49-25,3.52s-25.3-1.49-25.41-3.4,11.09-3.49,25-3.52,25.31,1.49,25.42,3.4"/></g></g><g class="cls-185"><g class="cls-126"><path class="cls-71" d="m200.59,110.71c.1,1.86-10.81,3.38-24.37,3.42s-24.64-1.45-24.75-3.31,10.81-3.39,24.36-3.42,24.65,1.45,24.76,3.31"/></g></g><g class="cls-209"><g class="cls-122"><path class="cls-79" d="m199.84,110.71c.1,1.81-10.51,3.29-23.72,3.32s-24-1.4-24.07-3.21,10.51-3.28,23.7-3.31,24,1.4,24.09,3.2"/></g></g><g class="cls-211"><g class="cls-123"><path class="cls-66" d="m199.09,110.72c.1,1.75-10.23,3.18-23.06,3.21s-23.31-1.36-23.41-3.1,10.22-3.18,23-3.21,23.32,1.36,23.42,3.1"/></g></g><g class="cls-210"><g class="cls-127"><path class="cls-40" d="m198.34,110.72c.09,1.69-9.93,3.08-22.4,3.11s-22.65-1.31-22.74-3,9.93-3.08,22.39-3.11,22.65,1.32,22.75,3"/></g></g><g class="cls-204"><g class="cls-128"><path class="cls-52" d="m197.58,110.73c.1,1.63-9.64,3-21.74,3s-22-1.27-22.07-2.9,9.64-3,21.74-3,22,1.27,22.07,2.9"/></g></g><g class="cls-205"><g class="cls-129"><path class="cls-41" d="m196.83,110.74c.09,1.57-9.34,2.87-21.08,2.89s-21.31-1.22-21.4-2.79,9.35-2.88,21.07-2.9,21.32,1.22,21.41,2.8"/></g></g><g class="cls-206"><g class="cls-130"><path class="cls-36" d="m196.08,110.74c.09,1.52-9.05,2.77-20.42,2.8s-20.65-1.18-20.74-2.7,9.06-2.77,20.42-2.8,20.66,1.19,20.74,2.7"/></g></g><g class="cls-207"><g class="cls-137"><path class="cls-34" d="m195.33,110.75c.09,1.46-8.76,2.66-19.77,2.69s-20-1.14-20.06-2.6,8.76-2.67,19.76-2.69,20,1.14,20.07,2.6"/></g></g><g class="cls-208"><g class="cls-90"><path class="cls-33" d="m194.58,110.75c.08,1.41-8.47,2.57-19.11,2.59s-19.32-1.09-19.4-2.5,8.48-2.56,19.11-2.58,19.32,1.09,19.4,2.49"/></g></g><g class="cls-201"><g class="cls-131"><path class="cls-37" d="m193.83,110.76c.08,1.35-8.18,2.46-18.45,2.48s-18.65-1-18.73-2.39,8.18-2.46,18.45-2.49,18.65,1,18.73,2.4"/></g></g><g class="cls-200"><g class="cls-133"><path class="cls-60" d="m193.08,110.77c.07,1.29-7.89,2.35-17.8,2.37s-18-1-18.06-2.29,7.9-2.36,17.79-2.38,18,1,18.07,2.3"/></g></g><g class="cls-203"><g class="cls-139"><path class="cls-57" d="m192.33,110.77c.07,1.24-7.6,2.25-17.14,2.28s-17.32-1-17.39-2.2,7.6-2.25,17.13-2.27,17.33,1,17.4,2.19"/></g></g><g class="cls-202"><g class="cls-132"><path class="cls-56" d="m191.58,110.78c.06,1.18-7.31,2.15-16.49,2.17s-16.65-.92-16.72-2.09,7.31-2.16,16.48-2.18,16.66.92,16.73,2.1"/></g></g><g class="cls-197"><g class="cls-138"><path class="cls-35" d="m190.83,110.78c.06,1.13-7,2-15.83,2.07s-16-.87-16.05-2,7-2,15.82-2.07,16,.87,16.06,2"/></g></g><g class="cls-196"><g class="cls-140"><path class="cls-58" d="m190.07,110.79c.07,1.07-6.72,1.94-15.16,2s-15.33-.82-15.39-1.89,6.73-2,15.17-2,15.32.82,15.38,1.89"/></g></g><g class="cls-199"><g class="cls-135"><path class="cls-75" d="m189.32,110.79c.06,1-6.43,1.85-14.51,1.86s-14.65-.78-14.71-1.79,6.44-1.84,14.5-1.86,14.67.79,14.72,1.79"/></g></g><g class="cls-198"><g class="cls-134"><path class="cls-55" d="m188.57,110.8c.06,1-6.14,1.74-13.85,1.76s-14-.74-14.05-1.69,6.15-1.74,13.85-1.76,14,.74,14,1.69"/></g></g><g class="cls-213"><g class="cls-91"><path class="cls-53" d="m187.82,110.81c.05.89-5.85,1.63-13.2,1.65s-13.32-.69-13.37-1.59,5.85-1.64,13.19-1.65,13.33.69,13.38,1.59"/></g></g><g class="cls-212"><g class="cls-141"><path class="cls-51" d="m187.07,110.81c.05.84-5.56,1.53-12.54,1.55s-12.66-.65-12.71-1.49,5.57-1.53,12.54-1.55,12.66.65,12.71,1.49"/></g></g><g class="cls-214"><g class="cls-143"><path class="cls-76" d="m186.32,110.82c.05.78-5.27,1.43-11.88,1.44s-12-.6-12-1.39,5.27-1.43,11.88-1.44,12,.61,12,1.39"/></g></g><g class="cls-215"><g class="cls-142"><path class="cls-77" d="m185.57,110.82c0,.73-5,1.33-11.23,1.34s-11.34-.56-11.34-1.28,5-1.33,11.22-1.34,11.34.56,11.38,1.28"/></g></g><g class="cls-136"><path class="cls-32" d="m184.82,110.83c0,.67-4.69,1.22-10.57,1.24s-10.66-.52-10.7-1.19,4.69-1.23,10.56-1.24,10.67.52,10.71,1.19"/></g></g></g></g><path class="cls-13" d="m372.31,20.58h-3.45v9.89h-2.74v-9.89h-3.44v-2.23h9.63v2.23Z"/><path class="cls-13" d="m387.76,29h-2.37v-6.37c0-.69,0-1.45.09-2.28h-.06c-.08.48-.19.95-.33,1.41l-2.49,7.24h-1.97l-2.54-7.16c-.07-.19-.18-.69-.33-1.49h-.07c.07,1.05.11,1.97.11,2.76v5.89h-2.12v-10.65h3.51l2.18,6.32c.17.49.3,1,.38,1.52h0c.11-.52.25-1.03.42-1.54l2.18-6.3h3.43v10.65Z"/><path class="cls-13" d="m20.41,213c-1.46.78-3.09,1.16-4.74,1.1-1.81.1-3.59-.52-4.94-1.74-1.25-1.27-1.91-3-1.81-4.78-.06-1.87.66-3.69,2-5,1.42-1.33,3.32-2.02,5.26-1.93,1.24-.02,2.48.17,3.65.57v2.78c-1.13-.61-2.4-.91-3.68-.87-1.12-.05-2.21.38-3,1.18-1.5,1.8-1.55,4.4-.12,6.26.72.75,1.74,1.15,2.78,1.1.57.02,1.14-.08,1.67-.3v-2.54h-2.6v-2.34h5.53v6.51Z"/><path class="cls-13" d="m31.09,210h-6.09c.1,1.35.95,2,2.55,2,.95.02,1.88-.24,2.69-.73v2.07c-1.04.5-2.19.74-3.34.69-2.37.24-4.49-1.49-4.73-3.87-.03-.29-.03-.58,0-.86-.07-1.35.41-2.68,1.34-3.66.86-.89,2.06-1.38,3.3-1.35,1.17-.07,2.32.37,3.14,1.2.78.91,1.17,2.08,1.11,3.28l.03,1.23Zm-2.66-1.76c0-1.33-.54-2-1.61-2-.46,0-.9.21-1.19.57-.34.4-.56.9-.62,1.42h3.42Z"/><path class="cls-13" d="m38.41,213.74c-.6.26-1.26.38-1.91.34-2,0-3-1.05-3-3.15v-4.25h-1.5v-2.12h1.51v-2l2.85-.82v2.82h2.09v2.12h-2.13v3.75c0,1,.39,1.45,1.15,1.45.33,0,.65-.1.94-.26v2.12Z"/><path class="cls-13" d="m44.83,213.35v-2.9c.51.43,1.09.77,1.71,1,.6.22,1.23.33,1.87.33.34,0,.67-.02,1-.1.24-.05.48-.15.69-.27.17-.11.31-.25.41-.42.09-.16.13-.34.13-.52,0-.24-.07-.48-.21-.68-.17-.22-.37-.41-.6-.56-.28-.18-.58-.34-.89-.48-.35-.16-.72-.32-1.12-.48-.87-.33-1.65-.87-2.27-1.56-.51-.62-.77-1.41-.75-2.21-.02-.61.13-1.21.41-1.74.27-.48.65-.9,1.11-1.21.5-.32,1.05-.56,1.63-.69.66-.15,1.33-.23,2-.22.6,0,1.2.03,1.8.12.5.07.98.2,1.45.38v2.71c-.23-.16-.47-.29-.72-.4-.26-.12-.52-.21-.79-.29-.27-.07-.54-.13-.81-.16-.25-.04-.51-.06-.77-.06-.3,0-.61.03-.9.1-.24.05-.48.14-.69.26-.17.11-.32.25-.44.42-.1.16-.15.35-.15.54,0,.21.05.41.17.58.13.19.3.36.49.49.24.17.5.32.77.45.3.15.64.31,1,.46.49.2.96.43,1.41.7.39.23.75.51,1.06.83.29.3.53.66.68,1.05.37,1.05.31,2.2-.17,3.21-.27.49-.66.9-1.13,1.2-.5.31-1.06.54-1.64.66-.66.14-1.33.2-2,.2-.67,0-1.34-.06-2-.19-.6-.1-1.19-.28-1.74-.55Z"/><path class="cls-13" d="m64,210h-6.06c.09,1.35.94,2,2.54,2,.95.02,1.89-.23,2.7-.73v2.07c-1.04.5-2.19.74-3.35.69-2.37.24-4.49-1.49-4.73-3.87-.03-.29-.03-.58,0-.86-.07-1.35.41-2.68,1.34-3.66.86-.89,2.06-1.38,3.3-1.35,1.17-.07,2.32.37,3.14,1.2.79.92,1.19,2.12,1.12,3.33v1.18Zm-2.65-1.76c0-1.33-.54-2-1.62-2-.46,0-.9.21-1.19.57-.35.4-.56.89-.61,1.42h3.42Z"/><path class="cls-13" d="m74,210h-6c.1,1.35,1,2,2.55,2,.95.02,1.88-.24,2.69-.73v2.07c-1.04.5-2.19.74-3.34.69-2.39.23-4.51-1.51-4.74-3.9-.03-.28-.03-.55,0-.83-.06-1.35.42-2.67,1.35-3.66.86-.89,2.06-1.38,3.3-1.35,1.17-.07,2.32.37,3.14,1.2.77.93,1.14,2.13,1.05,3.33v1.18Zm-2.66-1.76c0-1.33-.54-2-1.61-2-.46,0-.9.21-1.19.57-.34.4-.56.9-.62,1.42h3.42Z"/><path class="cls-13" d="m84.71,213.85h-2.85v-5.16c0-1.44-.52-2.16-1.55-2.16-.47,0-.92.2-1.22.57-.33.41-.5.92-.48,1.45v5.3h-2.87v-9.29h2.87v1.44h0c.6-1.09,1.76-1.74,3-1.69,2.06,0,3.08,1.27,3.08,3.82l.02,5.72Z"/><path class="cls-13" d="m89.69,211.56l-1.33,4.59h-2.23l.92-4.59h2.64Z"/><path class="cls-13" d="m108.67,213.85h-2.94v-5.3h-5.38v5.3h-2.93v-13h2.93v5.15h5.38v-5.18h2.94v13.03Z"/><path class="cls-13" d="m119.71,210h-6.06c.1,1.35.95,2,2.55,2,.95.02,1.88-.24,2.69-.73v2.07c-1.04.5-2.19.74-3.35.69-2.37.24-4.49-1.49-4.73-3.87-.03-.29-.03-.58,0-.86-.07-1.35.42-2.67,1.34-3.66.87-.89,2.07-1.38,3.31-1.35,1.17-.07,2.32.37,3.14,1.2.78.91,1.17,2.08,1.11,3.28v1.23Zm-2.66-1.76c0-1.33-.54-2-1.61-2-.46,0-.9.21-1.2.57-.34.4-.55.9-.61,1.42h3.42Z"/><path class="cls-13" d="m129.14,213.85h-2.71v-1.33h0c-.55,1-1.62,1.61-2.76,1.56-.79.04-1.55-.24-2.13-.77-.52-.53-.8-1.25-.78-2,0-1.81,1.07-2.85,3.2-3.12l2.53-.34c0-1-.56-1.52-1.66-1.52-1.13.01-2.22.36-3.15,1v-2.16c.52-.25,1.07-.44,1.64-.55.62-.14,1.25-.22,1.89-.23,2.64,0,4,1.32,4,4l-.07,5.46Zm-2.69-3.77v-.63l-1.69.22c-.93.12-1.4.54-1.4,1.26,0,.3.12.59.34.8.25.22.58.33.92.32.5.02.98-.19,1.32-.56.35-.39.53-.89.51-1.41Z"/><path class="cls-13" d="m137.46,207.15c-.37-.2-.78-.29-1.2-.28-.57-.03-1.11.23-1.46.68-.38.55-.57,1.21-.53,1.87v4.43h-2.86v-9.29h2.86v1.73h0c.28-1.12,1.29-1.91,2.45-1.89.24,0,.48.03.7.11l.04,2.64Z"/><path class="cls-13" d="m147.7,213.85h-2.87v-1.28h0c-.61.98-1.71,1.56-2.87,1.51-1.07.04-2.1-.41-2.8-1.23-.76-.98-1.14-2.2-1.06-3.43-.07-1.33.35-2.65,1.17-3.7.75-.91,1.88-1.42,3.06-1.38,1.01-.1,1.99.41,2.5,1.29h0v-5.53h2.87v13.75Zm-2.81-4.52v-.69c.02-.55-.17-1.09-.53-1.51-.7-.76-1.87-.8-2.63-.11-.09.08-.16.16-.23.26-.38.61-.57,1.33-.53,2.05-.04.67.14,1.34.52,1.89.63.79,1.79.91,2.57.28.1-.08.19-.17.28-.28.4-.55.59-1.22.55-1.89Z"/><path class="cls-13" d="m152.65,211.56l-1.33,4.59h-2.23l.92-4.59h2.64Z"/><path class="cls-13" d="m172.3,214.06c-.31,0-.62-.04-.91-.13-.28-.08-.55-.2-.81-.34-.26-.15-.5-.32-.73-.52-.23-.19-.46-.4-.66-.63-.25.21-.52.4-.8.57-.34.2-.7.37-1.07.52-.43.16-.86.29-1.31.38-1.16.23-2.35.2-3.49-.1-.56-.15-1.09-.41-1.56-.76-.43-.33-.77-.76-1-1.25-.25-.54-.38-1.13-.37-1.72,0-.48.09-.95.28-1.38.18-.37.42-.71.72-1,.3-.3.63-.56,1-.78.36-.22.75-.4,1.14-.55-.2-.15-.39-.32-.57-.5-.19-.19-.36-.4-.51-.63-.15-.23-.28-.47-.37-.73-.09-.27-.14-.56-.14-.85,0-.44.09-.88.29-1.27.2-.37.47-.68.81-.93.38-.27.8-.47,1.25-.58.52-.14,1.06-.21,1.6-.2.52,0,1.03.07,1.53.21.43.12.83.32,1.19.58.32.23.58.54.77.89.18.36.27.75.27,1.15.01.63-.2,1.25-.6,1.74-.46.54-1.04.95-1.7,1.2.29.14.56.29.83.46.28.17.54.37.78.58.26.23.51.48.74.74.27.29.51.61.72.95.48-.59.84-1.27,1.07-2,.21-.71.32-1.46.32-2.2v-.67c-.03-.2-.07-.4-.13-.59h2.44c.06.19.11.38.14.57.03.21.05.43.05.64,0,.58-.07,1.15-.19,1.71-.12.55-.29,1.09-.52,1.6-.22.51-.49.99-.81,1.44-.31.45-.67.88-1.05,1.27.26.28.57.52.91.71.27.15.58.24.89.25.3,0,.6-.03.89-.09.27-.05.54-.15.79-.27v2.16c-.32.13-.66.23-1,.29-.37.06-.75.08-1.12.06Zm-7.68-2.17c.34,0,.67-.03,1-.1.3-.07.6-.16.89-.28.27-.11.53-.24.77-.4.23-.14.45-.3.66-.47-.27-.43-.58-.84-.91-1.23-.28-.3-.58-.59-.9-.86-.28-.23-.58-.43-.89-.6-.29-.17-.58-.31-.88-.45-.25.12-.48.26-.71.41-.23.14-.43.31-.61.51-.17.2-.31.43-.42.67-.11.28-.16.57-.16.87,0,.27.05.54.16.79.1.23.25.44.44.61.2.18.43.31.68.39.28.1.58.14.88.14h0Zm1.68-8.23c0-.16-.03-.32-.1-.47-.06-.13-.16-.25-.27-.35-.12-.1-.25-.17-.39-.22-.15-.05-.3-.08-.46-.08-.19,0-.37.03-.55.09-.16.06-.31.14-.44.25-.12.1-.22.22-.28.36-.07.14-.1.3-.1.46,0,.34.11.67.32.94.21.28.48.52.78.69.2-.07.39-.16.57-.26.17-.09.33-.21.47-.34.14-.13.25-.29.33-.47.08-.19.12-.39.12-.6Z"/><path class="cls-13" d="m192.19,213.85h-3.36l-2-3.35c-.15-.25-.29-.48-.43-.68-.12-.18-.27-.35-.42-.51-.13-.13-.28-.24-.45-.33-.16-.07-.33-.11-.5-.11h-.79v5h-2.93v-13h4.64c3.16,0,4.74,1.17,4.74,3.53,0,.43-.07.86-.21,1.26-.14.36-.34.7-.59,1-.26.31-.57.58-.92.79-.37.23-.78.41-1.2.53h0c.2.07.39.16.56.29.19.15.37.31.53.48.17.18.33.38.48.58.15.21.3.42.42.62l2.43,3.9Zm-8-10.81v3.62h1.27c.56.03,1.1-.17,1.51-.55.38-.35.59-.84.58-1.36,0-1.14-.68-1.71-2-1.71h-1.36Z"/><path class="cls-13" d="m201.54,210h-6.06c.1,1.35,1,2,2.55,2,.95.02,1.88-.24,2.69-.73v2.07c-1.04.5-2.19.74-3.34.69-2.37.24-4.49-1.49-4.73-3.87-.03-.29-.03-.58,0-.86-.07-1.35.41-2.68,1.34-3.66.86-.89,2.06-1.38,3.3-1.35,1.17-.07,2.32.37,3.14,1.2.78.91,1.17,2.08,1.11,3.28v1.23Zm-2.66-1.76c0-1.33-.53-2-1.61-2-.46,0-.9.21-1.19.57-.34.4-.56.9-.62,1.42h3.42Z"/><path class="cls-13" d="m218,213.85h-2.86v-5.3c0-1.34-.49-2-1.48-2-.46,0-.9.22-1.15.61-.31.44-.47.97-.45,1.51v5.2h-2.86v-5.37c0-1.31-.49-2-1.46-2-.46-.01-.91.2-1.18.58-.31.46-.47,1.02-.44,1.58v5.16h-2.86v-9.29h2.86v1.47h0c.31-.5.73-.91,1.24-1.21.54-.31,1.14-.47,1.76-.46,1.18-.09,2.28.62,2.69,1.73.63-1.11,1.84-1.78,3.12-1.73,2,0,3,1.24,3,3.73l.07,5.79Z"/><path class="cls-13" d="m228.6,210h-6.06c.1,1.35,1,2,2.55,2,.95.02,1.89-.23,2.7-.73v2.07c-1.04.5-2.19.74-3.35.69-2.37.24-4.49-1.49-4.73-3.87-.03-.29-.03-.58,0-.86-.07-1.35.41-2.68,1.34-3.66.86-.89,2.06-1.38,3.3-1.35,1.17-.07,2.32.37,3.14,1.2.78.91,1.17,2.08,1.11,3.28v1.23Zm-2.6-1.74c0-1.33-.54-2-1.62-2-.46,0-.9.21-1.19.57-.35.4-.56.89-.61,1.42h3.42Z"/><path class="cls-13" d="m245.05,213.85h-2.85v-5.3c0-1.34-.5-2-1.49-2-.46,0-.9.22-1.15.61-.31.44-.47.97-.45,1.51v5.2h-2.86v-5.37c0-1.31-.49-2-1.46-2-.47-.01-.91.2-1.18.58-.31.46-.47,1.02-.44,1.58v5.16h-2.86v-9.29h2.86v1.47h0c.31-.5.74-.92,1.25-1.21.53-.31,1.14-.47,1.75-.46,1.18-.09,2.28.62,2.69,1.73.63-1.11,1.84-1.78,3.12-1.73,2,0,3,1.24,3,3.73l.07,5.79Z"/><path class="cls-13" d="m250.22,212.77h0v1.08h-2.86v-13.75h2.86v5.9h0c.64-1.04,1.78-1.65,3-1.62,1.07-.06,2.1.4,2.77,1.23.7.98,1.05,2.17,1,3.37.07,1.34-.34,2.66-1.14,3.73-.72.92-1.83,1.44-3,1.41-1.06.06-2.06-.46-2.63-1.35Zm-.08-3.92v1c-.02.54.17,1.07.52,1.48.32.39.81.61,1.32.59.6.02,1.17-.26,1.52-.75.39-.65.56-1.41.5-2.17.04-.64-.14-1.27-.5-1.8-.34-.43-.86-.68-1.41-.65-.55-.01-1.07.23-1.42.65-.38.46-.57,1.05-.53,1.65Z"/><path class="cls-13" d="m267.18,210h-6.06c.1,1.35.95,2,2.55,2,.95.02,1.88-.24,2.69-.73v2.07c-1.04.5-2.19.74-3.34.69-2.39.23-4.51-1.51-4.74-3.9-.03-.28-.03-.55,0-.83-.06-1.35.42-2.67,1.35-3.66.86-.89,2.06-1.38,3.3-1.35,1.17-.07,2.32.37,3.14,1.2.78.91,1.17,2.08,1.11,3.28v1.23Zm-2.66-1.76c0-1.33-.54-2-1.61-2-.46,0-.9.21-1.2.57-.34.4-.55.9-.61,1.42h3.42Z"/><path class="cls-13" d="m274.94,207.15c-.37-.2-.79-.29-1.21-.28-.57-.02-1.11.23-1.46.68-.38.55-.56,1.21-.52,1.87v4.43h-2.87v-9.29h2.87v1.73h0c.27-1.12,1.28-1.91,2.44-1.89.24,0,.48.03.71.11l.04,2.64Z"/><path class="cls-13" d="m284.43,210h-6.06c.1,1.35.95,2,2.55,2,.95.02,1.88-.24,2.69-.73v2.07c-1.04.5-2.19.74-3.34.69-2.37.24-4.49-1.49-4.73-3.87-.03-.29-.03-.58,0-.86-.07-1.35.41-2.68,1.34-3.66.86-.89,2.06-1.38,3.3-1.35,1.17-.07,2.32.37,3.14,1.2.78.91,1.17,2.08,1.11,3.28v1.23Zm-2.66-1.76c0-1.33-.54-2-1.61-2-.46,0-.9.21-1.19.57-.34.4-.56.9-.62,1.42h3.42Z"/><path class="cls-13" d="m295.22,213.85h-2.86v-1.28h0c-.61.98-1.71,1.56-2.87,1.51-1.07.04-2.11-.41-2.81-1.23-.76-.98-1.13-2.2-1.06-3.43-.07-1.33.35-2.65,1.17-3.7.76-.91,1.89-1.42,3.07-1.38,1.01-.09,1.99.41,2.5,1.29h0v-5.53h2.86v13.75Zm-2.81-4.52v-.69c.02-.55-.17-1.09-.53-1.51-.69-.75-1.86-.8-2.61-.11-.09.08-.17.17-.24.26-.39.61-.58,1.33-.54,2.05-.04.67.14,1.34.52,1.89.63.79,1.79.91,2.57.28.1-.08.19-.17.28-.28.4-.55.6-1.21.55-1.89Z"/><path class="cls-13" d="m299.47,214.06c-.44.01-.87-.14-1.19-.44-.31-.27-.49-.66-.48-1.07,0-.41.17-.8.48-1.07.33-.28.76-.42,1.19-.41.44-.02.86.13,1.19.42.31.27.48.65.47,1.06,0,.41-.16.8-.46,1.08-.33.3-.76.45-1.2.43Zm1.53-13.21l-.35,9h-2.32l-.34-9h3.01Z"/><line class="cls-1" x1="217.47" y1=".22" x2="213.85" y2="15.6"/><polygon class="cls-13" points="218.42 .45 213.85 15.6 216.53 0 218.42 .45"/><line class="cls-1" x1="229.68" y1="5.2" x2="220.18" y2="18.32"/><polygon class="cls-13" points="230.47 5.77 220.19 18.32 228.9 4.63 230.47 5.77"/><line class="cls-1" x1="239.64" y1="11.08" x2="222.45" y2="25.1"/><polygon class="cls-13" points="240.25 11.83 222.45 25.1 239.02 10.33 240.25 11.83"/><path class="cls-13" d="m139.23,157.32h-34.23c.07,2.63,1.14,5.14,3,7,1.73,1.63,4.04,2.51,6.42,2.44,3.77,0,6.4-1.6,7.88-4.79h16.11c-.81,3.22-2.34,6.22-4.47,8.77-2.2,2.63-4.97,4.72-8.1,6.11-3.43,1.51-7.14,2.27-10.89,2.21-4.51.09-8.96-.96-12.95-3.06-3.75-2.04-6.82-5.11-8.86-8.86-4.21-8.48-4.21-18.44,0-26.92,2.01-3.75,5.07-6.83,8.81-8.85,4-2.12,8.47-3.19,13-3.1,4.43-.09,8.82.94,12.75,3,3.67,1.96,6.7,4.95,8.72,8.59,2.16,3.99,3.24,8.47,3.14,13-.03,1.49-.14,2.98-.33,4.46Zm-15.23-8.41c.1-2.36-.88-4.64-2.66-6.2-1.85-1.56-4.22-2.38-6.64-2.3-2.34-.07-4.62.72-6.42,2.21-1.82,1.62-2.97,3.87-3.23,6.29h18.95Z"/><path class="cls-13" d="m147.33,140.23c1.73-3.63,4.45-6.69,7.84-8.85,3.32-2.07,7.16-3.15,11.07-3.1,3.08-.04,6.13.64,8.89,2,2.56,1.24,4.74,3.14,6.33,5.5v-22.91h15.15v65.53h-15.15v-7.09c-1.46,2.42-3.55,4.39-6.06,5.69-2.83,1.46-5.98,2.19-9.16,2.12-3.91.06-7.76-1.03-11.07-3.12-3.4-2.19-6.11-5.29-7.84-8.94-3.84-8.52-3.84-18.27,0-26.79v-.04Zm31,4.52c-1.97-2.14-4.76-3.33-7.66-3.28-2.9-.05-5.68,1.12-7.67,3.23-2.09,2.16-3.13,5.13-3.14,8.9,0,3.77,1.04,6.77,3.14,9,4.01,4.23,10.68,4.41,14.91.41.14-.13.27-.27.41-.41,2.1-2.19,3.15-5.17,3.14-8.95,0-3.78-1.05-6.75-3.14-8.9h0Z"/><path class="cls-13" d="m208.69,121.5c-1.64-1.47-2.56-3.59-2.52-5.8-.05-2.23.87-4.38,2.52-5.88,1.78-1.6,4.12-2.45,6.51-2.35,2.37-.09,4.67.75,6.42,2.35,1.65,1.5,2.57,3.65,2.52,5.88.04,2.21-.88,4.33-2.52,5.8-1.75,1.6-4.05,2.44-6.42,2.35-2.39.1-4.73-.75-6.51-2.35Zm14,7.49v49.41h-15.1v-49.4h15.1Z"/><path class="cls-13" d="m233.57,140.23c1.73-3.63,4.45-6.69,7.84-8.85,3.32-2.07,7.16-3.15,11.07-3.1,3.18-.07,6.33.66,9.16,2.12,2.48,1.29,4.58,3.21,6.07,5.58v-7h15.14v49.42h-15.14v-7c-1.54,2.35-3.66,4.28-6.15,5.58-2.83,1.46-5.98,2.19-9.17,2.12-3.89.04-7.72-1.05-11-3.14-3.4-2.19-6.11-5.29-7.84-8.94-3.83-8.52-3.83-18.27,0-26.79h.02Zm31,4.52c-4.06-4.24-10.8-4.39-15.04-.32-.09.09-.19.18-.28.27-2.1,2.16-3.15,5.13-3.15,8.9,0,3.77,1.05,6.77,3.15,9,1.96,2.16,4.75,3.37,7.66,3.32,2.9.05,5.69-1.14,7.66-3.27,2.09-2.19,3.14-5.17,3.14-8.95s-1.05-6.76-3.14-8.95Z"/><path class="cls-13" d="m82,133.06c3.63,3.72,5.44,8.89,5.45,15.5v28.86h-15.07v-26.83c0-3.18-.85-5.65-2.53-7.39-1.85-1.81-4.37-2.75-6.95-2.61-2.56-.13-5.06.82-6.9,2.61-1.68,1.74-2.52,4.21-2.52,7.39v26.83h-15.11v-26.83c0-3.18-.84-5.65-2.52-7.39-1.86-1.82-4.4-2.77-7-2.61-2.55-.12-5.03.83-6.85,2.61-1.69,1.74-2.53,4.21-2.53,7.39v26.83H4.28v-49.42h15.14v6.2c1.57-2.1,3.63-3.78,6-4.91,2.63-1.25,5.5-1.87,8.41-1.82,3.48-.07,6.92.76,10,2.39,2.89,1.57,5.27,3.94,6.86,6.82,1.75-2.76,4.16-5.04,7-6.64,2.93-1.71,6.26-2.59,9.65-2.57,6.13,0,11.02,1.87,14.66,5.59Z"/></g></g></g></svg>