<svg xmlns="http://www.w3.org/2000/svg" xmlns:xlink="http://www.w3.org/1999/xlink" viewBox="0 0 387.76 221.66"><defs><style>.cls-1{fill:url(#linear-gradient);}.cls-2{fill:none;}.cls-3{isolation:isolate;}.cls-4{clip-path:url(#clip-path);}.cls-5{fill:url(#linear-gradient-3);}.cls-6{fill:#ee1f56;}.cls-7{fill:#6b287a;}.cls-8{clip-path:url(#clip-path-2);}.cls-9{fill:url(#linear-gradient-4);}.cls-10{clip-path:url(#clip-path-3);}.cls-11{fill:url(#linear-gradient-5);}.cls-12{clip-path:url(#clip-path-4);}.cls-13{fill:url(#linear-gradient-6);}.cls-14{clip-path:url(#clip-path-5);}.cls-15{fill:url(#linear-gradient-7);}.cls-16{clip-path:url(#clip-path-6);}.cls-17{fill:url(#linear-gradient-8);}.cls-18{fill:#5d2684;}.cls-19{fill:#fff;}.cls-20{opacity:0.27;}.cls-21{clip-path:url(#clip-path-7);}.cls-102,.cls-105,.cls-108,.cls-111,.cls-114,.cls-117,.cls-120,.cls-123,.cls-126,.cls-129,.cls-132,.cls-135,.cls-138,.cls-141,.cls-144,.cls-147,.cls-150,.cls-153,.cls-156,.cls-159,.cls-162,.cls-165,.cls-168,.cls-171,.cls-174,.cls-177,.cls-180,.cls-183,.cls-186,.cls-189,.cls-192,.cls-195,.cls-198,.cls-201,.cls-204,.cls-207,.cls-210,.cls-213,.cls-216,.cls-219,.cls-22,.cls-24,.cls-27,.cls-30,.cls-33,.cls-36,.cls-39,.cls-42,.cls-45,.cls-48,.cls-51,.cls-54,.cls-57,.cls-60,.cls-63,.cls-66,.cls-69,.cls-72,.cls-75,.cls-78,.cls-81,.cls-84,.cls-87,.cls-90,.cls-93,.cls-96,.cls-99{mix-blend-mode:multiply;}.cls-22{opacity:0;}.cls-23{fill:#939598;}.cls-24{opacity:0.02;}.cls-25{clip-path:url(#clip-path-9);}.cls-26{fill:#929496;}.cls-27{opacity:0.03;}.cls-28{clip-path:url(#clip-path-10);}.cls-29{fill:#909295;}.cls-30{opacity:0.05;}.cls-31{clip-path:url(#clip-path-11);}.cls-32{fill:#8f9194;}.cls-33{opacity:0.06;}.cls-34{clip-path:url(#clip-path-12);}.cls-35{fill:#8d9092;}.cls-36{opacity:0.08;}.cls-37{clip-path:url(#clip-path-13);}.cls-38{fill:#8c8e91;}.cls-39{opacity:0.09;}.cls-40{clip-path:url(#clip-path-14);}.cls-41{fill:#8b8d8f;}.cls-42{opacity:0.11;}.cls-43{clip-path:url(#clip-path-15);}.cls-44{fill:#898b8e;}.cls-45{opacity:0.12;}.cls-46{clip-path:url(#clip-path-16);}.cls-47{fill:#888a8c;}.cls-48{opacity:0.14;}.cls-49{clip-path:url(#clip-path-17);}.cls-50{fill:#86888b;}.cls-51{opacity:0.15;}.cls-52{clip-path:url(#clip-path-18);}.cls-53{fill:#858789;}.cls-54{opacity:0.17;}.cls-55{clip-path:url(#clip-path-19);}.cls-56{fill:#838588;}.cls-57{opacity:0.18;}.cls-58{clip-path:url(#clip-path-20);}.cls-59{fill:#828486;}.cls-60{opacity:0.2;}.cls-61{clip-path:url(#clip-path-21);}.cls-62{fill:#818285;}.cls-63{opacity:0.21;}.cls-64{clip-path:url(#clip-path-22);}.cls-65{fill:#7f8184;}.cls-66{opacity:0.23;}.cls-67{clip-path:url(#clip-path-23);}.cls-68{fill:#7e7f82;}.cls-69{opacity:0.24;}.cls-70{clip-path:url(#clip-path-24);}.cls-71{fill:#7c7e81;}.cls-72{opacity:0.26;}.cls-73{clip-path:url(#clip-path-25);}.cls-74{fill:#7b7d7f;}.cls-75{opacity:0.27;}.cls-76{clip-path:url(#clip-path-26);}.cls-77{fill:#797b7e;}.cls-78{opacity:0.29;}.cls-79{clip-path:url(#clip-path-27);}.cls-80{fill:#787a7c;}.cls-81{opacity:0.3;}.cls-82{clip-path:url(#clip-path-28);}.cls-83{fill:#76787b;}.cls-84{opacity:0.32;}.cls-85{clip-path:url(#clip-path-29);}.cls-86{fill:#757779;}.cls-87{opacity:0.33;}.cls-88{clip-path:url(#clip-path-30);}.cls-89{fill:#747578;}.cls-90{opacity:0.35;}.cls-91{clip-path:url(#clip-path-31);}.cls-92{fill:#727476;}.cls-93{opacity:0.36;}.cls-94{clip-path:url(#clip-path-32);}.cls-95{fill:#717275;}.cls-96{opacity:0.38;}.cls-97{clip-path:url(#clip-path-33);}.cls-98{fill:#6f7173;}.cls-99{opacity:0.39;}.cls-100{clip-path:url(#clip-path-34);}.cls-101{fill:#6e6f72;}.cls-102{opacity:0.41;}.cls-103{clip-path:url(#clip-path-35);}.cls-104{fill:#6c6d70;}.cls-105{opacity:0.42;}.cls-106{clip-path:url(#clip-path-36);}.cls-107{fill:#6b6c6e;}.cls-108{opacity:0.44;}.cls-109{clip-path:url(#clip-path-37);}.cls-110{fill:#696a6d;}.cls-111{opacity:0.45;}.cls-112{clip-path:url(#clip-path-38);}.cls-113{fill:#68696b;}.cls-114{opacity:0.47;}.cls-115{clip-path:url(#clip-path-39);}.cls-116{fill:#66676a;}.cls-117{opacity:0.48;}.cls-118{clip-path:url(#clip-path-40);}.cls-119{fill:#656668;}.cls-120{opacity:0.5;}.cls-121{clip-path:url(#clip-path-41);}.cls-122{fill:#636466;}.cls-123{opacity:0.52;}.cls-124{clip-path:url(#clip-path-42);}.cls-125{fill:#616265;}.cls-126{opacity:0.53;}.cls-127{clip-path:url(#clip-path-43);}.cls-128{fill:#606163;}.cls-129{opacity:0.55;}.cls-130{clip-path:url(#clip-path-44);}.cls-131{fill:#5e5f61;}.cls-132{opacity:0.56;}.cls-133{clip-path:url(#clip-path-45);}.cls-134{fill:#5c5d60;}.cls-135{opacity:0.58;}.cls-136{clip-path:url(#clip-path-46);}.cls-137{fill:#5b5c5e;}.cls-138{opacity:0.59;}.cls-139{clip-path:url(#clip-path-47);}.cls-140{fill:#595a5c;}.cls-141{opacity:0.61;}.cls-142{clip-path:url(#clip-path-48);}.cls-143{fill:#57585a;}.cls-144{opacity:0.62;}.cls-145{clip-path:url(#clip-path-49);}.cls-146{fill:#565658;}.cls-147{opacity:0.64;}.cls-148{clip-path:url(#clip-path-50);}.cls-149{fill:#545557;}.cls-150{opacity:0.65;}.cls-151{clip-path:url(#clip-path-51);}.cls-152{fill:#525355;}.cls-153{opacity:0.67;}.cls-154{clip-path:url(#clip-path-52);}.cls-155{fill:#515153;}.cls-156{opacity:0.68;}.cls-157{clip-path:url(#clip-path-53);}.cls-158{fill:#4f4f51;}.cls-159{opacity:0.7;}.cls-160{clip-path:url(#clip-path-54);}.cls-161{fill:#4d4d4f;}.cls-162{opacity:0.71;}.cls-163{clip-path:url(#clip-path-55);}.cls-164{fill:#4b4c4d;}.cls-165{opacity:0.73;}.cls-166{clip-path:url(#clip-path-56);}.cls-167{fill:#494a4b;}.cls-168{opacity:0.74;}.cls-169{clip-path:url(#clip-path-57);}.cls-170{fill:#48484a;}.cls-171{opacity:0.76;}.cls-172{clip-path:url(#clip-path-58);}.cls-173{fill:#464648;}.cls-174{opacity:0.77;}.cls-175{clip-path:url(#clip-path-59);}.cls-176{fill:#444446;}.cls-177{opacity:0.79;}.cls-178{clip-path:url(#clip-path-60);}.cls-179{fill:#424244;}.cls-180{opacity:0.8;}.cls-181{clip-path:url(#clip-path-61);}.cls-182{fill:#404041;}.cls-183{opacity:0.82;}.cls-184{clip-path:url(#clip-path-62);}.cls-185{fill:#3e3e3f;}.cls-186{opacity:0.83;}.cls-187{clip-path:url(#clip-path-63);}.cls-188{fill:#3c3c3d;}.cls-189{opacity:0.85;}.cls-190{clip-path:url(#clip-path-64);}.cls-191{fill:#3a393b;}.cls-192{opacity:0.86;}.cls-193{clip-path:url(#clip-path-65);}.cls-194{fill:#383738;}.cls-195{opacity:0.88;}.cls-196{clip-path:url(#clip-path-66);}.cls-197{fill:#363536;}.cls-198{opacity:0.89;}.cls-199{clip-path:url(#clip-path-67);}.cls-200{fill:#343233;}.cls-201{opacity:0.91;}.cls-202{clip-path:url(#clip-path-68);}.cls-203{fill:#312f31;}.cls-204{opacity:0.92;}.cls-205{clip-path:url(#clip-path-69);}.cls-206{fill:#2f2d2e;}.cls-207{opacity:0.94;}.cls-208{clip-path:url(#clip-path-70);}.cls-209{fill:#2d2a2b;}.cls-210{opacity:0.95;}.cls-211{clip-path:url(#clip-path-71);}.cls-212{fill:#2a2829;}.cls-213{opacity:0.97;}.cls-214{clip-path:url(#clip-path-72);}.cls-215{fill:#282526;}.cls-216{opacity:0.98;}.cls-217{clip-path:url(#clip-path-73);}.cls-218{fill:#262223;}.cls-220{clip-path:url(#clip-path-74);}.cls-221{fill:#231f20;}.cls-222{fill:#020202;}</style><linearGradient id="linear-gradient" x1="154.95" y1="228.01" x2="155.98" y2="163.75" gradientUnits="userSpaceOnUse"><stop offset="0" stop-color="#fdec09"/><stop offset="0.03" stop-color="#fcdf0e"/><stop offset="0.17" stop-color="#f8ad21"/><stop offset="0.3" stop-color="#f58131"/><stop offset="0.44" stop-color="#f35e3e"/><stop offset="0.58" stop-color="#f14249"/><stop offset="0.72" stop-color="#ef2f50"/><stop offset="0.86" stop-color="#ee2355"/><stop offset="1" stop-color="#ee1f56"/></linearGradient><clipPath id="clip-path"><path class="cls-1" d="M6.5,194.66A6.37,6.37,0,0,0,0,200.84v14.64a6.37,6.37,0,0,0,6.5,6.18H304a6.37,6.37,0,0,0,6.51-6.18V200.84a6.37,6.37,0,0,0-6.51-6.18Z"/></clipPath><linearGradient id="linear-gradient-3" x1="154.95" y1="228.01" x2="155.98" y2="163.75" xlink:href="#linear-gradient"/><clipPath id="clip-path-2"><path class="cls-2" d="M132.31,58.88c-1.38,17.81,10,33.16,27.21,39.49l.64-2.35a38.24,38.24,0,0,1-23.46-34.9,37.85,37.85,0,0,1,11.74-27.31l.1-1.17a23.18,23.18,0,0,0,0-3.35c-9.22,7.51-15.37,18-16.27,29.59"/></clipPath><linearGradient id="linear-gradient-4" x1="-2747.65" y1="3128.35" x2="-2747" y2="3128.35" gradientTransform="matrix(0, 98.76, 98.76, 0, -308822.81, 271385.12)" gradientUnits="userSpaceOnUse"><stop offset="0" stop-color="#808285"/><stop offset="1" stop-color="#58595b"/></linearGradient><clipPath id="clip-path-3"><path class="cls-2" d="M154.23,25.29A18.82,18.82,0,0,0,156,26.81c.58.43,1,.7,1.17.82l.4-.22c.35-.19.78-.42,1.35-.68a40.46,40.46,0,0,1,7-2.41,13.14,13.14,0,0,0,2.52-5.09,54,54,0,0,0-14.16,6.06"/></clipPath><linearGradient id="linear-gradient-5" x1="-2747.65" y1="3128.27" x2="-2747" y2="3128.27" gradientTransform="matrix(0, 98.78, 98.78, 0, -308840.53, 271420.21)" xlink:href="#linear-gradient-4"/><clipPath id="clip-path-4"><path class="cls-2" d="M173.68,18.07c-.53,1.06-.82,2.6-.5,5.22.6,0,1.18,0,1.78,0a38.11,38.11,0,0,1,38.25,37.87c0,19.12-12.39,30.87-24.15,35.57L190,100c20.33-4.82,36.21-20.87,37.69-40.09,1.8-23.23-18.12-42.26-44.44-42.54h-.59a55.15,55.15,0,0,0-8.95.73"/></clipPath><linearGradient id="linear-gradient-6" x1="-2747.65" y1="3128.06" x2="-2747" y2="3128.06" gradientTransform="matrix(0, 98.77, 98.77, 0, -308743.48, 271389.21)" xlink:href="#linear-gradient-4"/><clipPath id="clip-path-5"><path class="cls-2" d="M166.76,100.42a53.67,53.67,0,0,0,10,1,57.18,57.18,0,0,0,6-.28L181,98.84a39.31,39.31,0,0,1-4.92.32,42.9,42.9,0,0,1-7.74-.75Z"/></clipPath><linearGradient id="linear-gradient-7" x1="-2747.65" y1="3128.19" x2="-2747" y2="3128.19" gradientTransform="matrix(0, 98.81, 98.81, 0, -308909.91, 271507.17)" xlink:href="#linear-gradient-4"/><clipPath id="clip-path-6"><path class="cls-2" d="M145.6,13.79a2,2,0,1,1,0,4.07,2,2,0,1,1,0-4.07m25.33-.38a1.84,1.84,0,1,1,1.14.41,1.86,1.86,0,0,1-1.14-.41m-2-3.81a3.86,3.86,0,0,0,.07,4.77c3,3.58.52,8.2-1.92,11.31a37.82,37.82,0,0,0-7.19,2.44c-2.56,1.16-2.06,1.72-4.47-.09-3.08-2.29-5.91-5.9-5.73-9.5.09-1.46.62-2.65.14-4.07A4.4,4.4,0,1,0,144.49,20c5.46,1.31,6.29,8.08,5.87,12.76a28.67,28.67,0,0,1,4.24-1.71A36.17,36.17,0,0,0,165,96a28.51,28.51,0,0,1-2.91-.23l-3.73,13.58,9.55-12.62a38.22,38.22,0,0,0,14,.46l9.4,12.36-3.58-13a30.92,30.92,0,0,1-4.44.38C196,94.4,212,82.25,212,61.12a36.53,36.53,0,0,0-36.73-36.34,41.12,41.12,0,0,0-6,.46A28,28,0,0,1,172,24c-.76-5.37.73-7.24,2.32-8.78a4.11,4.11,0,0,0,1.5-2.06,3.9,3.9,0,0,0-1.44-4.27A4,4,0,0,0,172,8.07,3.9,3.9,0,0,0,168.9,9.6"/></clipPath><linearGradient id="linear-gradient-8" x1="-2755.13" y1="3118.28" x2="-2754.48" y2="3118.28" gradientTransform="matrix(-143.9, 0, 0, 143.9, -396241.08, -448655.89)" xlink:href="#linear-gradient"/><clipPath id="clip-path-7"><rect class="cls-2" x="125.59" y="102.61" width="108.8" height="15.94"/></clipPath><clipPath id="clip-path-9"><rect class="cls-2" x="126.16" y="102.71" width="107.47" height="15.73"/></clipPath><clipPath id="clip-path-10"><rect class="cls-2" x="126.74" y="102.82" width="106.14" height="15.52"/></clipPath><clipPath id="clip-path-11"><rect class="cls-2" x="127.31" y="102.92" width="104.82" height="15.32"/></clipPath><clipPath id="clip-path-12"><rect class="cls-2" x="127.89" y="103.03" width="103.49" height="15.12"/></clipPath><clipPath id="clip-path-13"><rect class="cls-2" x="128.46" y="103.14" width="102.17" height="14.92"/></clipPath><clipPath id="clip-path-14"><rect class="cls-2" x="129.04" y="103.25" width="100.84" height="14.71"/></clipPath><clipPath id="clip-path-15"><rect class="cls-2" x="129.61" y="103.35" width="99.51" height="14.51"/></clipPath><clipPath id="clip-path-16"><rect class="cls-2" x="130.19" y="103.46" width="98.19" height="14.29"/></clipPath><clipPath id="clip-path-17"><rect class="cls-2" x="130.76" y="103.56" width="96.86" height="14.09"/></clipPath><clipPath id="clip-path-18"><rect class="cls-2" x="131.34" y="103.67" width="95.53" height="13.89"/></clipPath><clipPath id="clip-path-19"><rect class="cls-2" x="131.91" y="103.78" width="94.21" height="13.69"/></clipPath><clipPath id="clip-path-20"><rect class="cls-2" x="132.49" y="103.89" width="92.88" height="13.48"/></clipPath><clipPath id="clip-path-21"><rect class="cls-2" x="133.06" y="103.99" width="91.56" height="13.28"/></clipPath><clipPath id="clip-path-22"><rect class="cls-2" x="133.64" y="104.09" width="90.23" height="13.07"/></clipPath><clipPath id="clip-path-23"><rect class="cls-2" x="134.21" y="104.2" width="88.9" height="12.86"/></clipPath><clipPath id="clip-path-24"><rect class="cls-2" x="134.79" y="104.31" width="87.58" height="12.66"/></clipPath><clipPath id="clip-path-25"><rect class="cls-2" x="135.36" y="104.42" width="86.25" height="12.46"/></clipPath><clipPath id="clip-path-26"><rect class="cls-2" x="135.94" y="104.52" width="84.93" height="12.25"/></clipPath><clipPath id="clip-path-27"><rect class="cls-2" x="136.52" y="104.63" width="83.6" height="12.05"/></clipPath><clipPath id="clip-path-28"><rect class="cls-2" x="137.09" y="104.74" width="82.27" height="11.85"/></clipPath><clipPath id="clip-path-29"><rect class="cls-2" x="137.67" y="104.85" width="80.95" height="11.63"/></clipPath><clipPath id="clip-path-30"><rect class="cls-2" x="138.24" y="104.95" width="79.62" height="11.43"/></clipPath><clipPath id="clip-path-31"><rect class="cls-2" x="138.82" y="105.06" width="78.29" height="11.23"/></clipPath><clipPath id="clip-path-32"><rect class="cls-2" x="139.39" y="105.16" width="76.97" height="11.02"/></clipPath><clipPath id="clip-path-33"><rect class="cls-2" x="139.97" y="105.27" width="75.64" height="10.82"/></clipPath><clipPath id="clip-path-34"><rect class="cls-2" x="140.54" y="105.38" width="74.32" height="10.62"/></clipPath><clipPath id="clip-path-35"><rect class="cls-2" x="141.12" y="105.49" width="72.99" height="10.4"/></clipPath><clipPath id="clip-path-36"><rect class="cls-2" x="141.69" y="105.59" width="71.66" height="10.2"/></clipPath><clipPath id="clip-path-37"><rect class="cls-2" x="142.27" y="105.7" width="70.34" height="10"/></clipPath><clipPath id="clip-path-38"><rect class="cls-2" x="142.84" y="105.8" width="69.01" height="9.79"/></clipPath><clipPath id="clip-path-39"><rect class="cls-2" x="143.42" y="105.91" width="67.68" height="9.59"/></clipPath><clipPath id="clip-path-40"><rect class="cls-2" x="143.99" y="106.02" width="66.36" height="9.39"/></clipPath><clipPath id="clip-path-41"><rect class="cls-2" x="144.57" y="106.12" width="65.03" height="9.18"/></clipPath><clipPath id="clip-path-42"><rect class="cls-2" x="145.14" y="106.23" width="63.71" height="8.97"/></clipPath><clipPath id="clip-path-43"><rect class="cls-2" x="145.72" y="106.33" width="62.38" height="8.77"/></clipPath><clipPath id="clip-path-44"><rect class="cls-2" x="146.29" y="106.44" width="61.05" height="8.56"/></clipPath><clipPath id="clip-path-45"><rect class="cls-2" x="146.87" y="106.55" width="59.73" height="8.36"/></clipPath><clipPath id="clip-path-46"><rect class="cls-2" x="147.44" y="106.66" width="58.4" height="8.16"/></clipPath><clipPath id="clip-path-47"><rect class="cls-2" x="148.02" y="106.76" width="57.08" height="7.96"/></clipPath><clipPath id="clip-path-48"><rect class="cls-2" x="148.59" y="106.87" width="55.75" height="7.74"/></clipPath><clipPath id="clip-path-49"><rect class="cls-2" x="149.17" y="106.97" width="54.42" height="7.54"/></clipPath><clipPath id="clip-path-50"><rect class="cls-2" x="149.74" y="107.08" width="53.1" height="7.33"/></clipPath><clipPath id="clip-path-51"><rect class="cls-2" x="150.32" y="107.19" width="51.77" height="7.13"/></clipPath><clipPath id="clip-path-52"><rect class="cls-2" x="150.9" y="107.3" width="50.44" height="6.93"/></clipPath><clipPath id="clip-path-53"><rect class="cls-2" x="151.47" y="107.4" width="49.12" height="6.73"/></clipPath><clipPath id="clip-path-54"><rect class="cls-2" x="152.05" y="107.51" width="47.79" height="6.51"/></clipPath><clipPath id="clip-path-55"><rect class="cls-2" x="152.62" y="107.62" width="46.47" height="6.31"/></clipPath><clipPath id="clip-path-56"><rect class="cls-2" x="153.2" y="107.72" width="45.14" height="6.11"/></clipPath><clipPath id="clip-path-57"><rect class="cls-2" x="153.77" y="107.83" width="43.81" height="5.9"/></clipPath><clipPath id="clip-path-58"><rect class="cls-2" x="154.35" y="107.93" width="42.49" height="5.7"/></clipPath><clipPath id="clip-path-59"><rect class="cls-2" x="154.92" y="108.04" width="41.16" height="5.5"/></clipPath><clipPath id="clip-path-60"><rect class="cls-2" x="155.5" y="108.15" width="39.84" height="5.3"/></clipPath><clipPath id="clip-path-61"><rect class="cls-2" x="156.07" y="108.26" width="38.51" height="5.08"/></clipPath><clipPath id="clip-path-62"><rect class="cls-2" x="156.65" y="108.36" width="37.18" height="4.88"/></clipPath><clipPath id="clip-path-63"><rect class="cls-2" x="157.22" y="108.47" width="35.86" height="4.67"/></clipPath><clipPath id="clip-path-64"><rect class="cls-2" x="157.8" y="108.57" width="34.53" height="4.47"/></clipPath><clipPath id="clip-path-65"><rect class="cls-2" x="158.37" y="108.68" width="33.2" height="4.27"/></clipPath><clipPath id="clip-path-66"><rect class="cls-2" x="158.95" y="108.79" width="31.88" height="4.07"/></clipPath><clipPath id="clip-path-67"><rect class="cls-2" x="159.52" y="108.9" width="30.55" height="3.85"/></clipPath><clipPath id="clip-path-68"><rect class="cls-2" x="160.1" y="109" width="29.23" height="3.65"/></clipPath><clipPath id="clip-path-69"><rect class="cls-2" x="160.67" y="109.11" width="27.9" height="3.44"/></clipPath><clipPath id="clip-path-70"><rect class="cls-2" x="161.25" y="109.21" width="26.57" height="3.24"/></clipPath><clipPath id="clip-path-71"><rect class="cls-2" x="161.82" y="109.32" width="25.25" height="3.04"/></clipPath><clipPath id="clip-path-72"><rect class="cls-2" x="162.4" y="109.43" width="23.92" height="2.84"/></clipPath><clipPath id="clip-path-73"><rect class="cls-2" x="162.97" y="109.54" width="22.6" height="2.62"/></clipPath><clipPath id="clip-path-74"><rect class="cls-2" x="163.55" y="109.64" width="21.27" height="2.42"/></clipPath></defs><g class="cls-3"><g id="Layer_2" data-name="Layer 2"><g id="Layer_1-2" data-name="Layer 1"><path class="cls-1" d="M6.5,194.66A6.37,6.37,0,0,0,0,200.84v14.64a6.37,6.37,0,0,0,6.5,6.18H304a6.37,6.37,0,0,0,6.51-6.18V200.84a6.37,6.37,0,0,0-6.51-6.18Z"/><g class="cls-4"><rect class="cls-5" y="194.66" width="310.54" height="27.01"/></g><path class="cls-6" d="M269.71,35.32a25.68,25.68,0,0,1,13.36-3.66V54h-6c-5.54,0-9.82,1.18-12.87,3.54s-4.58,6.35-4.58,12v31H238.78V32.39h20.86V45.2a29.55,29.55,0,0,1,10.07-9.88"/><path class="cls-6" d="M293.31,5.36a14.66,14.66,0,0,1,18.06,0,10.19,10.19,0,0,1,3.42,7.87A10,10,0,0,1,311.37,21a14.66,14.66,0,0,1-18.06,0,10.05,10.05,0,0,1-3.41-7.75,10.22,10.22,0,0,1,3.41-7.87m19.4,95.11H291.85V32.39h20.86Z"/><path class="cls-6" d="M372.56,38a28.15,28.15,0,0,1,9.7,17.08H362.74a10.92,10.92,0,0,0-3.85-6.53,11.69,11.69,0,0,0-7.5-2.37A8.19,8.19,0,0,0,346,47.7,5.33,5.33,0,0,0,344.19,52c0,2.12,1.12,3.7,3.36,4.76A52.63,52.63,0,0,0,358.1,60a105.51,105.51,0,0,1,12.81,3.72,21.3,21.3,0,0,1,8.66,6.16q3.66,4.27,3.66,11.47a17.61,17.61,0,0,1-3.17,10.37,21,21,0,0,1-9.15,7.08,35.76,35.76,0,0,1-14.15,2.56q-13.8,0-22.09-6.1T324.55,77.77h20.13a9.05,9.05,0,0,0,3.72,6.72,14,14,0,0,0,8.36,2.31,7.79,7.79,0,0,0,5.36-1.64A5.56,5.56,0,0,0,364,80.83a5.21,5.21,0,0,0-3.35-5.07,62.62,62.62,0,0,0-10.92-3.23,87.52,87.52,0,0,1-12.44-3.42,20.54,20.54,0,0,1-8.42-5.91q-3.54-4.1-3.54-11.17a18.22,18.22,0,0,1,7-14.82q7-5.67,19.65-5.68,12.93,0,20.68,6.47"/><path class="cls-7" d="M141.27,157.32H107a10.23,10.23,0,0,0,3,7,9,9,0,0,0,6.42,2.44q5.65,0,7.88-4.79h16.11a22.25,22.25,0,0,1-12.57,14.88,26,26,0,0,1-10.89,2.21A26.58,26.58,0,0,1,104,176a22.09,22.09,0,0,1-8.86-8.86,30.25,30.25,0,0,1,0-26.92,21.71,21.71,0,0,1,8.81-8.85,26.66,26.66,0,0,1,13-3.1,26.39,26.39,0,0,1,12.75,3,21.65,21.65,0,0,1,8.72,8.59,26.13,26.13,0,0,1,3.14,13A40.22,40.22,0,0,1,141.27,157.32ZM126,148.91a7.8,7.8,0,0,0-2.66-6.2,9.79,9.79,0,0,0-6.64-2.3,9.61,9.61,0,0,0-6.42,2.21,9.85,9.85,0,0,0-3.23,6.29Z"/><path class="cls-7" d="M149.37,140.23a21.45,21.45,0,0,1,7.84-8.85,20.39,20.39,0,0,1,11.06-3.1,19.51,19.51,0,0,1,8.9,2,16.19,16.19,0,0,1,6.33,5.49V112.87h15.15V178.4H183.5v-7.09a15.45,15.45,0,0,1-6.06,5.67,19,19,0,0,1-9.17,2.12A20.17,20.17,0,0,1,157.21,176a21.71,21.71,0,0,1-7.84-8.94,32.59,32.59,0,0,1,0-26.79Zm31,4.52a10.19,10.19,0,0,0-7.66-3.28A10.3,10.3,0,0,0,165,144.7q-3.14,3.24-3.14,8.9t3.14,9a10.54,10.54,0,0,0,15.32,0q3.15-3.27,3.14-8.94T180.36,144.75Z"/><path class="cls-7" d="M210.73,121.5a7.59,7.59,0,0,1-2.52-5.8,7.69,7.69,0,0,1,2.52-5.88,9.15,9.15,0,0,1,6.51-2.35,9,9,0,0,1,6.42,2.35,7.69,7.69,0,0,1,2.52,5.88,7.59,7.59,0,0,1-2.52,5.8,9,9,0,0,1-6.42,2.35A9.15,9.15,0,0,1,210.73,121.5Zm14,7.49V178.4H209.63V129Z"/><path class="cls-7" d="M235.61,140.23a21.45,21.45,0,0,1,7.84-8.85,20.45,20.45,0,0,1,11.07-3.1,19.06,19.06,0,0,1,9.16,2.12,15.71,15.71,0,0,1,6.07,5.58v-7h15.14V178.4H269.75v-7A16.47,16.47,0,0,1,263.6,177a19,19,0,0,1-9.17,2.12,20.07,20.07,0,0,1-11-3.14,21.71,21.71,0,0,1-7.84-8.94,32.69,32.69,0,0,1,0-26.79Zm31,4.52a10.64,10.64,0,0,0-15.32-.05q-3.15,3.24-3.15,8.9t3.15,9a10.54,10.54,0,0,0,15.32,0q3.13-3.27,3.14-8.94T266.61,144.75Z"/><path class="cls-7" d="M82,133.06q5.44,5.58,5.45,15.5v28.86H72.38V150.59c0-3.18-.85-5.65-2.53-7.39a9.21,9.21,0,0,0-6.95-2.61A9.21,9.21,0,0,0,56,143.2c-1.68,1.74-2.52,4.21-2.52,7.39v26.83H38.37V150.59c0-3.18-.84-5.65-2.52-7.39a9.21,9.21,0,0,0-7-2.61A9.21,9.21,0,0,0,22,143.2c-1.69,1.74-2.53,4.21-2.53,7.39v26.83H4.28V128H19.42v6.2a16.37,16.37,0,0,1,6-4.91,19,19,0,0,1,8.42-1.82,20.49,20.49,0,0,1,10,2.39,17.18,17.18,0,0,1,6.86,6.82,19.86,19.86,0,0,1,7-6.64,18.89,18.89,0,0,1,9.65-2.57Q76.54,127.48,82,133.06Z"/><path class="cls-6" d="M116.76,38.42q7.5,7.68,7.5,21.35V99.55H103.52v-37q0-6.6-3.48-10.19t-9.58-3.6c-4.06,0-7.26,1.2-9.57,3.6s-3.48,5.79-3.48,10.19v37H56.67v-37q0-6.6-3.48-10.19t-9.58-3.6q-6.11,0-9.58,3.6T30.56,62.58v37H9.69V31.46H30.56V40a22.34,22.34,0,0,1,8.29-6.78,26.2,26.2,0,0,1,11.59-2.5A28.17,28.17,0,0,1,64.17,34a23.61,23.61,0,0,1,9.46,9.39,27.4,27.4,0,0,1,9.63-9.15,26,26,0,0,1,13.3-3.54Q109.25,30.73,116.76,38.42Z"/><g class="cls-8"><rect class="cls-9" x="130.75" y="29.21" width="29.6" height="69.24" transform="translate(-0.34 0.77) rotate(-0.3)"/></g><g class="cls-10"><rect class="cls-11" x="154.21" y="19.19" width="14.2" height="8.48" transform="translate(-0.12 0.86) rotate(-0.3)"/></g><g class="cls-12"><rect class="cls-13" x="172.64" y="17.19" width="57.04" height="82.94" transform="matrix(1, -0.01, 0.01, 1, -0.31, 1.07)"/></g><g class="cls-14"><rect class="cls-15" x="166.76" y="98.36" width="15.99" height="3.17" transform="translate(-0.53 0.93) rotate(-0.3)"/></g><g class="cls-16"><rect class="cls-17" x="112.7" y="0.45" width="125.1" height="116.72" transform="translate(30.87 174.25) rotate(-57.19)"/></g><path class="cls-18" d="M160.17,46.47c-3.35,6.89-3.71,21.1-.57,27.54,1.13,2.33,2.87,3.93,5.58,4.1,7.32.48,21.65-6.79,26.25-13.09,2.15-2.92,2.18-5.49.06-8.5-4.3-6-16.12-13.24-23.44-14.13-3.79-.47-6.18.68-7.88,4.08"/><path class="cls-18" d="M154.38,38c1.23-1.07,2.35-2,3.67-3a1.55,1.55,0,0,1,1.88,2.47c-.61.46-3.43,1.57-4.46,2.09A1,1,0,0,1,154.38,38"/><path class="cls-18" d="M142.74,61.78a37.69,37.69,0,0,1,.83-7.21,29.42,29.42,0,0,1,3.11-7.91,41.81,41.81,0,0,1,4.41-5.93,1,1,0,1,1,1.44,1.43,36.55,36.55,0,0,0-4.38,5.38,27.46,27.46,0,0,0-3.32,7.35,35.32,35.32,0,0,0-1.12,7,.49.49,0,0,1-1-.06"/><path class="cls-19" d="M164.62,45.18c-7.08,2-8,27.27-2.43,32.59,5.28,5.06,29.73-7.76,29.73-15.44,0-7.38-19.86-19.24-27.3-17.15"/><path class="cls-19" d="M153.53,38c1.23-1.07,2.35-2,3.67-3a1.55,1.55,0,0,1,1.88,2.47c-.62.46-3.44,1.57-4.46,2.09A1,1,0,0,1,153.53,38"/><path class="cls-19" d="M141.89,61.78a37.69,37.69,0,0,1,.83-7.21,29.42,29.42,0,0,1,3.11-7.91,41.06,41.06,0,0,1,4.41-5.93,1,1,0,1,1,1.44,1.43,36.55,36.55,0,0,0-4.38,5.38A27.46,27.46,0,0,0,144,54.89a35.32,35.32,0,0,0-1.12,7,.49.49,0,0,1-1-.06"/><path class="cls-19" d="M222.23,49.63A3.28,3.28,0,1,1,219,46.41a3.25,3.25,0,0,1,3.26,3.22"/><path class="cls-19" d="M222.1,59.14A2.12,2.12,0,1,1,220,57.05a2.13,2.13,0,0,1,2.11,2.09"/><path class="cls-19" d="M220.36,66.81a1.48,1.48,0,1,1-1.47-1.46,1.46,1.46,0,0,1,1.47,1.46"/><g class="cls-20"><g class="cls-21"><g class="cls-22"><g class="cls-21"><path class="cls-23" d="M234.38,110.45c.25,4.4-23.9,8-53.94,8.09s-54.6-3.44-54.85-7.84,23.9-8,53.94-8.09,54.6,3.44,54.85,7.84"/></g></g><g class="cls-24"><g class="cls-25"><path class="cls-26" d="M233.63,110.45c.25,4.35-23.61,7.92-53.29,8s-53.93-3.4-54.18-7.74,23.62-7.92,53.29-8,53.93,3.4,54.18,7.74"/></g></g><g class="cls-27"><g class="cls-28"><path class="cls-29" d="M232.88,110.46c.24,4.29-23.32,7.82-52.63,7.88S127,115,126.74,110.7s23.32-7.81,52.62-7.88,53.28,3.35,53.52,7.64"/></g></g><g class="cls-30"><g class="cls-31"><path class="cls-32" d="M232.13,110.47c.24,4.23-23,7.71-52,7.78s-52.6-3.31-52.85-7.54,23-7.72,52-7.78,52.61,3.3,52.85,7.54"/></g></g><g class="cls-33"><g class="cls-34"><path class="cls-35" d="M231.38,110.47c.24,4.18-22.74,7.61-51.32,7.68s-51.93-3.27-52.17-7.44,22.74-7.61,51.31-7.68,51.94,3.27,52.18,7.44"/></g></g><g class="cls-36"><g class="cls-37"><path class="cls-38" d="M230.63,110.48c.23,4.11-22.45,7.5-50.66,7.57s-51.27-3.22-51.51-7.34,22.45-7.51,50.66-7.57,51.27,3.22,51.51,7.34"/></g></g><g class="cls-39"><g class="cls-40"><path class="cls-41" d="M229.87,110.48c.24,4.06-22.15,7.41-50,7.47s-50.61-3.17-50.84-7.24,22.16-7.4,50-7.46,50.61,3.17,50.83,7.23"/></g></g><g class="cls-42"><g class="cls-43"><path class="cls-44" d="M229.12,110.49c.23,4-21.86,7.3-49.34,7.36s-49.94-3.13-50.17-7.13,21.87-7.3,49.34-7.37,50,3.13,50.17,7.14"/></g></g><g class="cls-45"><g class="cls-46"><path class="cls-47" d="M228.37,110.49c.23,4-21.57,7.2-48.68,7.27s-49.27-3.09-49.5-7,21.57-7.2,48.68-7.26,49.28,3.09,49.5,7"/></g></g><g class="cls-48"><g class="cls-49"><path class="cls-50" d="M227.62,110.5c.23,3.89-21.28,7.09-48,7.16s-48.6-3-48.83-6.94,21.29-7.09,48-7.16,48.61,3,48.83,6.94"/></g></g><g class="cls-51"><g class="cls-52"><path class="cls-53" d="M226.87,110.51c.22,3.83-21,7-47.37,7s-47.94-3-48.16-6.83,21-7,47.37-7.06,47.94,3,48.16,6.84"/></g></g><g class="cls-54"><g class="cls-55"><path class="cls-56" d="M226.12,110.51c.22,3.78-20.7,6.89-46.71,6.95s-47.28-2.95-47.49-6.73,20.7-6.89,46.71-7,47.28,3,47.49,6.73"/></g></g><g class="cls-57"><g class="cls-58"><path class="cls-59" d="M225.37,110.52c.21,3.72-20.41,6.78-46.06,6.84s-46.61-2.91-46.82-6.63,20.41-6.79,46-6.85,46.62,2.91,46.83,6.64"/></g></g><g class="cls-60"><g class="cls-61"><path class="cls-62" d="M224.62,110.52c.21,3.67-20.12,6.69-45.4,6.74s-45.94-2.86-46.15-6.53,20.11-6.68,45.39-6.74,45.95,2.87,46.16,6.53"/></g></g><g class="cls-63"><g class="cls-64"><path class="cls-65" d="M223.87,110.53c.2,3.61-19.83,6.58-44.74,6.64s-45.28-2.82-45.49-6.43,19.83-6.58,44.74-6.64,45.28,2.82,45.49,6.43"/></g></g><g class="cls-66"><g class="cls-67"><path class="cls-68" d="M223.12,110.53c.2,3.56-19.54,6.48-44.09,6.54s-44.61-2.78-44.81-6.33,19.53-6.48,44.08-6.54,44.62,2.78,44.82,6.33"/></g></g><g class="cls-69"><g class="cls-70"><path class="cls-71" d="M222.37,110.54c.2,3.5-19.25,6.37-43.43,6.43s-43.95-2.73-44.15-6.23,19.25-6.37,43.43-6.43,43.95,2.73,44.15,6.23"/></g></g><g class="cls-72"><g class="cls-73"><path class="cls-74" d="M221.61,110.55c.2,3.44-19,6.27-42.77,6.32s-43.28-2.69-43.47-6.12,18.95-6.28,42.76-6.33,43.29,2.69,43.48,6.13"/></g></g><g class="cls-75"><g class="cls-76"><path class="cls-77" d="M220.86,110.55c.2,3.39-18.66,6.17-42.11,6.22s-42.61-2.64-42.81-6,18.66-6.17,42.11-6.23,42.62,2.65,42.81,6"/></g></g><g class="cls-78"><g class="cls-79"><path class="cls-80" d="M220.11,110.56c.19,3.32-18.37,6.06-41.45,6.12s-41.95-2.6-42.14-5.93,18.37-6.07,41.45-6.12,41.95,2.6,42.14,5.93"/></g></g><g class="cls-81"><g class="cls-82"><path class="cls-83" d="M219.36,110.56c.19,3.27-18.08,6-40.8,6s-41.28-2.56-41.47-5.83,18.08-6,40.8-6,41.29,2.55,41.47,5.82"/></g></g><g class="cls-84"><g class="cls-85"><path class="cls-86" d="M218.61,110.57c.19,3.21-17.79,5.86-40.14,5.91s-40.62-2.51-40.8-5.72,17.79-5.86,40.14-5.92,40.62,2.52,40.8,5.73"/></g></g><g class="cls-87"><g class="cls-88"><path class="cls-89" d="M217.86,110.57c.18,3.16-17.5,5.76-39.49,5.81s-40-2.46-40.13-5.62,17.5-5.76,39.48-5.81,40,2.47,40.14,5.62"/></g></g><g class="cls-90"><g class="cls-91"><path class="cls-92" d="M217.11,110.58c.18,3.1-17.21,5.65-38.83,5.7s-39.28-2.42-39.46-5.52,17.21-5.65,38.82-5.7,39.29,2.42,39.47,5.52"/></g></g><g class="cls-93"><g class="cls-94"><path class="cls-95" d="M216.36,110.59c.17,3-16.92,5.55-38.17,5.6s-38.62-2.38-38.8-5.43,16.92-5.55,38.17-5.6,38.63,2.38,38.8,5.43"/></g></g><g class="cls-96"><g class="cls-97"><path class="cls-98" d="M215.61,110.59c.17,3-16.63,5.45-37.52,5.5s-38-2.34-38.12-5.32,16.62-5.45,37.51-5.5,38,2.33,38.13,5.32"/></g></g><g class="cls-99"><g class="cls-100"><path class="cls-101" d="M214.86,110.6c.16,2.93-16.34,5.34-36.86,5.39s-37.29-2.29-37.46-5.22,16.34-5.35,36.85-5.39,37.3,2.29,37.47,5.22"/></g></g><g class="cls-102"><g class="cls-103"><path class="cls-104" d="M214.11,110.6c.16,2.88-16.05,5.24-36.2,5.29s-36.63-2.24-36.79-5.12,16-5.24,36.19-5.29,36.63,2.25,36.8,5.12"/></g></g><g class="cls-105"><g class="cls-106"><path class="cls-107" d="M213.35,110.61c.17,2.82-15.75,5.14-35.54,5.18s-36-2.2-36.12-5,15.76-5.14,35.54-5.19,36,2.2,36.12,5"/></g></g><g class="cls-108"><g class="cls-109"><path class="cls-110" d="M212.6,110.62c.16,2.76-15.46,5-34.88,5.07s-35.29-2.15-35.45-4.91,15.46-5,34.88-5.08,35.3,2.15,35.45,4.92"/></g></g><g class="cls-111"><g class="cls-112"><path class="cls-113" d="M211.85,110.62c.16,2.71-15.17,4.93-34.22,5s-34.63-2.11-34.79-4.82,15.17-4.93,34.23-5,34.63,2.12,34.78,4.82"/></g></g><g class="cls-114"><g class="cls-115"><path class="cls-116" d="M211.1,110.63c.15,2.65-14.88,4.83-33.57,4.87s-34-2.07-34.11-4.72S158.3,106,177,105.91s34,2.07,34.12,4.72"/></g></g><g class="cls-117"><g class="cls-118"><path class="cls-119" d="M210.35,110.63c.15,2.6-14.59,4.73-32.91,4.77s-33.3-2-33.45-4.61,14.59-4.73,32.91-4.77,33.3,2,33.45,4.61"/></g></g><g class="cls-120"><g class="cls-121"><path class="cls-122" d="M209.6,110.64c.15,2.54-14.3,4.62-32.26,4.66s-32.62-2-32.77-4.51,14.3-4.62,32.25-4.67,32.64,2,32.78,4.52"/></g></g><g class="cls-123"><g class="cls-124"><path class="cls-125" d="M208.85,110.64c.14,2.48-14,4.52-31.6,4.56s-32-1.93-32.11-4.41,14-4.52,31.6-4.56,32,1.94,32.11,4.41"/></g></g><g class="cls-126"><g class="cls-127"><path class="cls-128" d="M208.1,110.65c.14,2.42-13.72,4.42-30.94,4.46s-31.3-1.89-31.44-4.32,13.71-4.41,30.94-4.45,31.3,1.89,31.44,4.31"/></g></g><g class="cls-129"><g class="cls-130"><path class="cls-131" d="M207.35,110.66c.13,2.36-13.43,4.31-30.29,4.35s-30.63-1.85-30.77-4.21,13.43-4.32,30.28-4.36,30.64,1.85,30.78,4.22"/></g></g><g class="cls-132"><g class="cls-133"><path class="cls-134" d="M206.6,110.66c.13,2.31-13.14,4.21-29.63,4.25s-30-1.8-30.1-4.11,13.13-4.21,29.62-4.25,30,1.8,30.11,4.11"/></g></g><g class="cls-135"><g class="cls-136"><path class="cls-137" d="M205.84,110.67c.13,2.25-12.84,4.1-29,4.14s-29.3-1.75-29.43-4,12.85-4.11,29-4.14,29.31,1.76,29.43,4"/></g></g><g class="cls-138"><g class="cls-139"><path class="cls-140" d="M205.09,110.67c.13,2.2-12.55,4-28.31,4S148.15,113,148,110.81s12.55-4,28.31-4,28.64,1.72,28.76,3.91"/></g></g><g class="cls-141"><g class="cls-142"><path class="cls-143" d="M204.34,110.68c.13,2.14-12.26,3.9-27.65,3.94s-28-1.67-28.09-3.81,12.26-3.9,27.65-3.94,28,1.67,28.09,3.81"/></g></g><g class="cls-144"><g class="cls-145"><path class="cls-146" d="M203.59,110.68c.12,2.09-12,3.8-27,3.84s-27.3-1.63-27.42-3.71,12-3.8,27-3.83,27.31,1.62,27.43,3.7"/></g></g><g class="cls-147"><g class="cls-148"><path class="cls-149" d="M202.84,110.69c.12,2-11.68,3.7-26.34,3.73s-26.64-1.58-26.75-3.61,11.67-3.69,26.33-3.73,26.65,1.58,26.76,3.61"/></g></g><g class="cls-150"><g class="cls-151"><path class="cls-152" d="M202.09,110.7c.11,2-11.39,3.59-25.68,3.62s-26-1.53-26.09-3.5,11.39-3.6,25.68-3.63,26,1.54,26.09,3.51"/></g></g><g class="cls-153"><g class="cls-154"><path class="cls-155" d="M201.34,110.7c.11,1.92-11.09,3.49-25,3.52s-25.3-1.49-25.41-3.4,11.09-3.49,25-3.52,25.31,1.49,25.42,3.4"/></g></g><g class="cls-156"><g class="cls-157"><path class="cls-158" d="M200.59,110.71c.1,1.86-10.81,3.38-24.37,3.42s-24.64-1.45-24.75-3.31,10.81-3.39,24.36-3.42,24.65,1.45,24.76,3.31"/></g></g><g class="cls-159"><g class="cls-160"><path class="cls-161" d="M199.84,110.71c.1,1.81-10.51,3.29-23.72,3.32s-24-1.4-24.07-3.21,10.51-3.28,23.7-3.31,24,1.4,24.09,3.2"/></g></g><g class="cls-162"><g class="cls-163"><path class="cls-164" d="M199.09,110.72c.1,1.75-10.23,3.18-23.06,3.21s-23.31-1.36-23.41-3.1,10.22-3.18,23-3.21,23.32,1.36,23.42,3.1"/></g></g><g class="cls-165"><g class="cls-166"><path class="cls-167" d="M198.34,110.72c.09,1.69-9.93,3.08-22.4,3.11s-22.65-1.31-22.74-3,9.93-3.08,22.39-3.11,22.65,1.32,22.75,3"/></g></g><g class="cls-168"><g class="cls-169"><path class="cls-170" d="M197.58,110.73c.1,1.63-9.64,3-21.74,3s-22-1.27-22.07-2.9,9.64-3,21.74-3,22,1.27,22.07,2.9"/></g></g><g class="cls-171"><g class="cls-172"><path class="cls-173" d="M196.83,110.74c.09,1.57-9.34,2.87-21.08,2.89s-21.31-1.22-21.4-2.79,9.35-2.88,21.07-2.9,21.32,1.22,21.41,2.8"/></g></g><g class="cls-174"><g class="cls-175"><path class="cls-176" d="M196.08,110.74c.09,1.52-9.05,2.77-20.42,2.8s-20.65-1.18-20.74-2.7,9.06-2.77,20.42-2.8,20.66,1.19,20.74,2.7"/></g></g><g class="cls-177"><g class="cls-178"><path class="cls-179" d="M195.33,110.75c.09,1.46-8.76,2.66-19.77,2.69s-20-1.14-20.06-2.6,8.76-2.67,19.76-2.69,20,1.14,20.07,2.6"/></g></g><g class="cls-180"><g class="cls-181"><path class="cls-182" d="M194.58,110.75c.08,1.41-8.47,2.57-19.11,2.59s-19.32-1.09-19.4-2.5,8.48-2.56,19.11-2.58,19.32,1.09,19.4,2.49"/></g></g><g class="cls-183"><g class="cls-184"><path class="cls-185" d="M193.83,110.76c.08,1.35-8.18,2.46-18.45,2.48s-18.65-1-18.73-2.39,8.18-2.46,18.45-2.49,18.65,1,18.73,2.4"/></g></g><g class="cls-186"><g class="cls-187"><path class="cls-188" d="M193.08,110.77c.07,1.29-7.89,2.35-17.8,2.37s-18-1-18.06-2.29,7.9-2.36,17.79-2.38,18,1,18.07,2.3"/></g></g><g class="cls-189"><g class="cls-190"><path class="cls-191" d="M192.33,110.77c.07,1.24-7.6,2.25-17.14,2.28s-17.32-1-17.39-2.2,7.6-2.25,17.13-2.27,17.33,1,17.4,2.19"/></g></g><g class="cls-192"><g class="cls-193"><path class="cls-194" d="M191.58,110.78c.06,1.18-7.31,2.15-16.49,2.17s-16.65-.92-16.72-2.09,7.31-2.16,16.48-2.18,16.66.92,16.73,2.1"/></g></g><g class="cls-195"><g class="cls-196"><path class="cls-197" d="M190.83,110.78c.06,1.13-7,2-15.83,2.07s-16-.87-16.05-2,7-2,15.82-2.07,16,.87,16.06,2"/></g></g><g class="cls-198"><g class="cls-199"><path class="cls-200" d="M190.07,110.79c.07,1.07-6.72,1.94-15.16,2s-15.33-.82-15.39-1.89,6.73-2,15.17-2,15.32.82,15.38,1.89"/></g></g><g class="cls-201"><g class="cls-202"><path class="cls-203" d="M189.32,110.79c.06,1-6.43,1.85-14.51,1.86s-14.65-.78-14.71-1.79,6.44-1.84,14.5-1.86,14.67.79,14.72,1.79"/></g></g><g class="cls-204"><g class="cls-205"><path class="cls-206" d="M188.57,110.8c.06,1-6.14,1.74-13.85,1.76s-14-.74-14.05-1.69,6.15-1.74,13.85-1.76,14,.74,14,1.69"/></g></g><g class="cls-207"><g class="cls-208"><path class="cls-209" d="M187.82,110.81c.05.89-5.85,1.63-13.2,1.65s-13.32-.69-13.37-1.59,5.85-1.64,13.19-1.65,13.33.69,13.38,1.59"/></g></g><g class="cls-210"><g class="cls-211"><path class="cls-212" d="M187.07,110.81c.05.84-5.56,1.53-12.54,1.55s-12.66-.65-12.71-1.49,5.57-1.53,12.54-1.55,12.66.65,12.71,1.49"/></g></g><g class="cls-213"><g class="cls-214"><path class="cls-215" d="M186.32,110.82c.05.78-5.27,1.43-11.88,1.44s-12-.6-12-1.39,5.27-1.43,11.88-1.44,12,.61,12,1.39"/></g></g><g class="cls-216"><g class="cls-217"><path class="cls-218" d="M185.57,110.82c0,.73-5,1.33-11.23,1.34S163,111.6,163,110.88s5-1.33,11.22-1.34,11.34.56,11.38,1.28"/></g></g><g class="cls-219"><g class="cls-220"><path class="cls-221" d="M184.82,110.83c0,.67-4.69,1.22-10.57,1.24s-10.66-.52-10.7-1.19,4.69-1.23,10.56-1.24,10.67.52,10.71,1.19"/></g></g></g></g><path class="cls-221" d="M372.31,20.58h-3.45v9.89h-2.74V20.58h-3.44V18.35h9.63Z"/><path class="cls-221" d="M387.76,30.47h-2.7V23.22c0-.78,0-1.65.1-2.59h-.07a11.22,11.22,0,0,1-.38,1.6l-2.84,8.24h-2.23l-2.89-8.15c-.08-.22-.2-.79-.38-1.69h-.07c.07,1.19.11,2.24.11,3.14v6.7H374V18.35h4l2.48,7.19a9.72,9.72,0,0,1,.43,1.73h0c.15-.67.32-1.25.48-1.75l2.48-7.17h3.9Z"/><path class="cls-19" d="M20.41,213a9.39,9.39,0,0,1-4.74,1.1,6.81,6.81,0,0,1-4.94-1.74,6.3,6.3,0,0,1-1.81-4.78,6.7,6.7,0,0,1,2-5,7.19,7.19,0,0,1,5.26-1.93,10.72,10.72,0,0,1,3.65.57V204a7.24,7.24,0,0,0-3.68-.87,3.93,3.93,0,0,0-3,1.18,5,5,0,0,0-.12,6.26,3.64,3.64,0,0,0,2.78,1.1,3.87,3.87,0,0,0,1.67-.3v-2.54H14.87v-2.34h5.54Z"/><path class="cls-19" d="M31.09,210H25c.1,1.35.95,2,2.55,2a5,5,0,0,0,2.69-.73v2.07a7,7,0,0,1-3.34.69,4.34,4.34,0,0,1-4.74-4.73,5,5,0,0,1,1.35-3.66,4.46,4.46,0,0,1,3.3-1.35,4.07,4.07,0,0,1,3.14,1.2,4.67,4.67,0,0,1,1.11,3.28Zm-2.66-1.76c0-1.33-.53-2-1.61-2a1.53,1.53,0,0,0-1.19.57,2.64,2.64,0,0,0-.62,1.42Z"/><path class="cls-19" d="M38.41,213.74a4.26,4.26,0,0,1-1.91.34q-3,0-3-3.15v-4.25H32v-2.12h1.51v-2l2.85-.82v2.82h2.09v2.12H36.32v3.75c0,1,.39,1.45,1.16,1.45a2,2,0,0,0,.93-.26Z"/><path class="cls-19" d="M44.83,213.35v-2.9a5.69,5.69,0,0,0,1.71,1,5.54,5.54,0,0,0,1.87.33,4,4,0,0,0,1-.1,2.42,2.42,0,0,0,.69-.27,1.26,1.26,0,0,0,.41-.42,1,1,0,0,0,.13-.52,1.14,1.14,0,0,0-.21-.68,2.5,2.5,0,0,0-.6-.56,6,6,0,0,0-.89-.48c-.34-.16-.72-.32-1.12-.48a5.82,5.82,0,0,1-2.27-1.56,3.36,3.36,0,0,1-.75-2.21,3.5,3.5,0,0,1,.41-1.74,3.68,3.68,0,0,1,1.11-1.21,5.21,5.21,0,0,1,1.63-.69,8.29,8.29,0,0,1,2-.22,12,12,0,0,1,1.8.12,7,7,0,0,1,1.45.38v2.71a4.47,4.47,0,0,0-.71-.4,5.89,5.89,0,0,0-.8-.29,5.8,5.8,0,0,0-.81-.16,5.19,5.19,0,0,0-.77-.06,3.59,3.59,0,0,0-.9.1,2.31,2.31,0,0,0-.69.26,1.48,1.48,0,0,0-.44.42,1,1,0,0,0-.15.54,1.06,1.06,0,0,0,.17.58,2.07,2.07,0,0,0,.49.49,4.9,4.9,0,0,0,.77.45c.3.15.65.31,1,.46a11.41,11.41,0,0,1,1.4.7,4.7,4.7,0,0,1,1.06.83,3,3,0,0,1,.68,1.05,4.2,4.2,0,0,1-.17,3.21,3.39,3.39,0,0,1-1.12,1.2,5.19,5.19,0,0,1-1.65.66,9.77,9.77,0,0,1-2,.2,10.31,10.31,0,0,1-2-.19A6.18,6.18,0,0,1,44.83,213.35Z"/><path class="cls-19" d="M64,210H57.94c.09,1.35.94,2,2.54,2a5,5,0,0,0,2.7-.73v2.07a7.1,7.1,0,0,1-3.35.69,4.32,4.32,0,0,1-4.73-4.73,4.94,4.94,0,0,1,1.34-3.66,4.46,4.46,0,0,1,3.3-1.35,4.07,4.07,0,0,1,3.14,1.2A4.67,4.67,0,0,1,64,208.82Zm-2.65-1.76c0-1.33-.54-2-1.62-2a1.53,1.53,0,0,0-1.19.57,2.55,2.55,0,0,0-.61,1.42Z"/><path class="cls-19" d="M74,210H68c.1,1.35,1,2,2.55,2a5,5,0,0,0,2.69-.73v2.07a7,7,0,0,1-3.34.69,4.32,4.32,0,0,1-4.73-4.73,4.94,4.94,0,0,1,1.34-3.66,4.46,4.46,0,0,1,3.3-1.35,4.07,4.07,0,0,1,3.14,1.2A4.67,4.67,0,0,1,74,208.82Zm-2.66-1.76c0-1.33-.53-2-1.61-2a1.53,1.53,0,0,0-1.19.57,2.64,2.64,0,0,0-.62,1.42Z"/><path class="cls-19" d="M84.71,213.85H81.86v-5.16c0-1.44-.52-2.16-1.54-2.16a1.54,1.54,0,0,0-1.23.57,2.19,2.19,0,0,0-.48,1.45v5.3H75.75v-9.29h2.86V206h0a3.27,3.27,0,0,1,3-1.69c2.06,0,3.08,1.27,3.08,3.82Z"/><path class="cls-19" d="M89.69,211.56l-1.33,4.59H86.13l.92-4.59Z"/><path class="cls-19" d="M108.67,213.85h-2.94v-5.3h-5.38v5.3H97.42v-13h2.93V206h5.38v-5.18h2.94Z"/><path class="cls-19" d="M119.71,210h-6.06c.1,1.35.95,2,2.55,2a5,5,0,0,0,2.69-.73v2.07a7.05,7.05,0,0,1-3.34.69,4.34,4.34,0,0,1-4.74-4.73,5,5,0,0,1,1.35-3.66,4.46,4.46,0,0,1,3.3-1.35,4.07,4.07,0,0,1,3.14,1.2,4.67,4.67,0,0,1,1.11,3.28Zm-2.66-1.76c0-1.33-.54-2-1.61-2a1.53,1.53,0,0,0-1.19.57,2.64,2.64,0,0,0-.62,1.42Z"/><path class="cls-19" d="M129.14,213.85h-2.71v-1.33h0a3,3,0,0,1-2.76,1.56,2.91,2.91,0,0,1-2.13-.77,2.72,2.72,0,0,1-.77-2c0-1.81,1.06-2.85,3.2-3.12l2.52-.34c0-1-.55-1.52-1.65-1.52a5.64,5.64,0,0,0-3.16,1v-2.16a7.08,7.08,0,0,1,1.64-.55,9,9,0,0,1,1.89-.23q4,0,4,4Zm-2.69-3.77v-.63l-1.69.22c-.93.12-1.4.54-1.4,1.26a1.06,1.06,0,0,0,.34.8,1.32,1.32,0,0,0,.92.32,1.71,1.71,0,0,0,1.32-.56A2,2,0,0,0,126.45,210.08Z"/><path class="cls-19" d="M137.47,207.15a2.49,2.49,0,0,0-1.21-.28,1.75,1.75,0,0,0-1.46.68,3,3,0,0,0-.53,1.87v4.43h-2.86v-9.29h2.86v1.73h0a2.48,2.48,0,0,1,2.45-1.89,1.92,1.92,0,0,1,.71.11Z"/><path class="cls-19" d="M147.7,213.85h-2.87v-1.28h0a3.23,3.23,0,0,1-2.88,1.51,3.52,3.52,0,0,1-2.8-1.23,5.08,5.08,0,0,1-1.06-3.43,5.56,5.56,0,0,1,1.17-3.7,3.82,3.82,0,0,1,3.06-1.38,2.61,2.61,0,0,1,2.51,1.29h0V200.1h2.87Zm-2.81-4.52v-.69a2.21,2.21,0,0,0-.53-1.51,1.85,1.85,0,0,0-2.85.15,3.44,3.44,0,0,0-.54,2.05,3,3,0,0,0,.52,1.89,1.83,1.83,0,0,0,2.85,0A2.87,2.87,0,0,0,144.89,209.33Z"/><path class="cls-19" d="M152.66,211.56l-1.34,4.59h-2.23l.93-4.59Z"/><path class="cls-19" d="M172.31,214.06a3,3,0,0,1-.91-.13,3.94,3.94,0,0,1-.82-.34,4.62,4.62,0,0,1-.73-.52,5.52,5.52,0,0,1-.65-.63,8.62,8.62,0,0,1-.81.57,7.62,7.62,0,0,1-1.07.52,8.48,8.48,0,0,1-1.31.38,7.42,7.42,0,0,1-1.53.15,7.15,7.15,0,0,1-2-.26,4.71,4.71,0,0,1-1.56-.75,3.65,3.65,0,0,1-1-1.25,3.92,3.92,0,0,1-.37-1.72,3.37,3.37,0,0,1,.28-1.38,3.91,3.91,0,0,1,.72-1,4.54,4.54,0,0,1,1-.78,7.46,7.46,0,0,1,1.14-.55,6.18,6.18,0,0,1-.57-.5,3.9,3.9,0,0,1-.51-.63,3.1,3.1,0,0,1-.36-.73,2.41,2.41,0,0,1-.14-.85,2.62,2.62,0,0,1,.29-1.27,2.58,2.58,0,0,1,.81-.93,3.56,3.56,0,0,1,1.24-.58,5.8,5.8,0,0,1,1.6-.2,5.24,5.24,0,0,1,1.53.21,3.77,3.77,0,0,1,1.19.58,2.61,2.61,0,0,1,.77.89,2.47,2.47,0,0,1,.27,1.15,2.67,2.67,0,0,1-.6,1.74,4.13,4.13,0,0,1-1.7,1.2,7.37,7.37,0,0,1,.83.46,6.06,6.06,0,0,1,.78.58,6.53,6.53,0,0,1,.75.74,7.57,7.57,0,0,1,.71.95,6.08,6.08,0,0,0,1.07-2,7.58,7.58,0,0,0,.32-2.19,4.92,4.92,0,0,0,0-.67,3.63,3.63,0,0,0-.13-.59h2.44a4.71,4.71,0,0,1,.14.57,3.87,3.87,0,0,1,.05.64,7.41,7.41,0,0,1-.19,1.71,8.43,8.43,0,0,1-1.33,3,10,10,0,0,1-1.05,1.27,3.45,3.45,0,0,0,.92.71,1.85,1.85,0,0,0,.89.25,4.63,4.63,0,0,0,.89-.09,3.1,3.1,0,0,0,.78-.27v2.16a5.43,5.43,0,0,1-1,.29A5.09,5.09,0,0,1,172.31,214.06Zm-7.68-2.17a4.58,4.58,0,0,0,1-.1,4.87,4.87,0,0,0,.89-.28,4.77,4.77,0,0,0,.78-.4,6.8,6.8,0,0,0,.65-.47,9.36,9.36,0,0,0-.91-1.23,7.94,7.94,0,0,0-.9-.86,6.26,6.26,0,0,0-.88-.6,9.29,9.29,0,0,0-.89-.45,6.23,6.23,0,0,0-.71.41,2.7,2.7,0,0,0-.6.51,2.23,2.23,0,0,0-.42.67,2.14,2.14,0,0,0-.16.87,2,2,0,0,0,.15.79,1.76,1.76,0,0,0,.44.61,2,2,0,0,0,.68.39A2.71,2.71,0,0,0,164.63,211.89Zm1.67-8.23a1,1,0,0,0-.1-.47.85.85,0,0,0-.27-.35,1.07,1.07,0,0,0-.39-.22,1.39,1.39,0,0,0-.46-.08,1.63,1.63,0,0,0-.55.09,1.22,1.22,0,0,0-.43.25,1,1,0,0,0-.29.36,1.06,1.06,0,0,0-.1.46,1.57,1.57,0,0,0,.32.94,2.51,2.51,0,0,0,.79.69,4.79,4.79,0,0,0,.56-.26,2.43,2.43,0,0,0,.48-.34,1.7,1.7,0,0,0,.32-.47A1.4,1.4,0,0,0,166.3,203.66Z"/><path class="cls-19" d="M192.19,213.85h-3.36l-2-3.35c-.15-.25-.3-.48-.44-.68a3.81,3.81,0,0,0-.42-.51,1.87,1.87,0,0,0-.44-.33,1.26,1.26,0,0,0-.51-.11h-.79v5h-2.93v-13h4.65c3.15,0,4.73,1.17,4.73,3.53a3.62,3.62,0,0,1-.21,1.26,3.46,3.46,0,0,1-.59,1,3.53,3.53,0,0,1-.92.79,4.66,4.66,0,0,1-1.2.53v0a2,2,0,0,1,.56.29,4.69,4.69,0,0,1,.53.48,5.48,5.48,0,0,1,.48.58c.16.21.3.41.43.62Zm-8-10.81v3.62h1.27a2.09,2.09,0,0,0,1.52-.55,1.81,1.81,0,0,0,.58-1.36q0-1.71-2-1.71Z"/><path class="cls-19" d="M201.54,210h-6c.09,1.35.94,2,2.54,2a5,5,0,0,0,2.7-.73v2.07a7.1,7.1,0,0,1-3.35.69,4.32,4.32,0,0,1-4.73-4.73,5,5,0,0,1,1.34-3.66,4.49,4.49,0,0,1,3.3-1.35,4.05,4.05,0,0,1,3.14,1.2,4.67,4.67,0,0,1,1.11,3.28Zm-2.65-1.76c0-1.33-.54-2-1.62-2a1.54,1.54,0,0,0-1.19.57,2.62,2.62,0,0,0-.61,1.42Z"/><path class="cls-19" d="M218,213.85h-2.85v-5.3c0-1.34-.5-2-1.49-2a1.36,1.36,0,0,0-1.15.61,2.46,2.46,0,0,0-.44,1.51v5.2h-2.87V208.5c0-1.31-.49-2-1.46-2a1.38,1.38,0,0,0-1.17.58,2.51,2.51,0,0,0-.45,1.58v5.16h-2.86v-9.29h2.86V206h0a3.54,3.54,0,0,1,1.25-1.21,3.42,3.42,0,0,1,1.75-.46,2.68,2.68,0,0,1,2.7,1.73,3.41,3.41,0,0,1,3.12-1.73q3,0,3,3.73Z"/><path class="cls-19" d="M228.6,210h-6c.09,1.35.94,2,2.54,2a5,5,0,0,0,2.7-.73v2.07a7.1,7.1,0,0,1-3.35.69,4.32,4.32,0,0,1-4.73-4.73,5,5,0,0,1,1.34-3.66,4.47,4.47,0,0,1,3.3-1.35,4.05,4.05,0,0,1,3.14,1.2,4.67,4.67,0,0,1,1.11,3.28ZM226,208.26c0-1.33-.54-2-1.62-2a1.54,1.54,0,0,0-1.19.57,2.62,2.62,0,0,0-.61,1.42Z"/><path class="cls-19" d="M245.05,213.85H242.2v-5.3c0-1.34-.5-2-1.49-2a1.36,1.36,0,0,0-1.15.61,2.46,2.46,0,0,0-.45,1.51v5.2h-2.86V208.5c0-1.31-.49-2-1.46-2a1.41,1.41,0,0,0-1.18.58,2.58,2.58,0,0,0-.44,1.58v5.16h-2.86v-9.29h2.86V206h0a3.54,3.54,0,0,1,1.25-1.21,3.42,3.42,0,0,1,1.75-.46,2.68,2.68,0,0,1,2.7,1.73,3.4,3.4,0,0,1,3.11-1.73q3,0,3,3.73Z"/><path class="cls-19" d="M250.22,212.77h0v1.08h-2.87V200.1h2.87V206h0a3.41,3.41,0,0,1,3-1.62,3.33,3.33,0,0,1,2.77,1.23,5.36,5.36,0,0,1,1,3.37,5.8,5.8,0,0,1-1.13,3.73,3.7,3.7,0,0,1-3,1.41A2.94,2.94,0,0,1,250.22,212.77Zm-.08-3.92v1a2.15,2.15,0,0,0,.52,1.49,1.64,1.64,0,0,0,1.32.59,1.76,1.76,0,0,0,1.52-.75A3.67,3.67,0,0,0,254,209a2.9,2.9,0,0,0-.49-1.8,1.68,1.68,0,0,0-1.41-.65,1.82,1.82,0,0,0-1.43.65A2.4,2.4,0,0,0,250.14,208.85Z"/><path class="cls-19" d="M267.18,210h-6.06c.1,1.35.95,2,2.55,2a5,5,0,0,0,2.69-.73v2.07a7,7,0,0,1-3.34.69,4.34,4.34,0,0,1-4.74-4.73,5,5,0,0,1,1.35-3.66,4.46,4.46,0,0,1,3.3-1.35,4.07,4.07,0,0,1,3.14,1.2,4.67,4.67,0,0,1,1.11,3.28Zm-2.66-1.76c0-1.33-.54-2-1.61-2a1.53,1.53,0,0,0-1.19.57,2.64,2.64,0,0,0-.62,1.42Z"/><path class="cls-19" d="M274.94,207.15a2.42,2.42,0,0,0-1.2-.28,1.74,1.74,0,0,0-1.46.68,3,3,0,0,0-.53,1.87v4.43h-2.86v-9.29h2.86v1.73h0a2.48,2.48,0,0,1,2.45-1.89,1.86,1.86,0,0,1,.7.11Z"/><path class="cls-19" d="M284.43,210h-6.05c.09,1.35.94,2,2.54,2a5,5,0,0,0,2.7-.73v2.07a7.1,7.1,0,0,1-3.35.69,4.32,4.32,0,0,1-4.73-4.73,4.94,4.94,0,0,1,1.34-3.66,4.46,4.46,0,0,1,3.3-1.35,4.07,4.07,0,0,1,3.14,1.2,4.67,4.67,0,0,1,1.11,3.28Zm-2.65-1.76c0-1.33-.54-2-1.62-2a1.54,1.54,0,0,0-1.19.57,2.55,2.55,0,0,0-.61,1.42Z"/><path class="cls-19" d="M295.22,213.85h-2.86v-1.28h0a3.22,3.22,0,0,1-2.87,1.51,3.51,3.51,0,0,1-2.8-1.23,5.08,5.08,0,0,1-1.06-3.43,5.61,5.61,0,0,1,1.16-3.7,3.84,3.84,0,0,1,3.07-1.38,2.6,2.6,0,0,1,2.5,1.29h0V200.1h2.86Zm-2.81-4.52v-.69a2.2,2.2,0,0,0-.52-1.51,1.86,1.86,0,0,0-2.86.15,3.44,3.44,0,0,0-.53,2.05,3,3,0,0,0,.51,1.89,1.73,1.73,0,0,0,1.44.66,1.69,1.69,0,0,0,1.41-.7A2.87,2.87,0,0,0,292.41,209.33Z"/><path class="cls-19" d="M299.48,214.06a1.69,1.69,0,0,1-1.2-.44,1.42,1.42,0,0,1-.47-1.07,1.39,1.39,0,0,1,.47-1.07,1.8,1.8,0,0,1,1.2-.41,1.71,1.71,0,0,1,1.19.42,1.47,1.47,0,0,1,0,2.14A1.66,1.66,0,0,1,299.48,214.06ZM301,200.85l-.35,9h-2.32l-.34-9Z"/><line class="cls-6" x1="217.47" y1="0.22" x2="213.85" y2="15.6"/><polygon class="cls-222" points="218.42 0.45 213.85 15.6 216.53 0 218.42 0.45"/><line class="cls-6" x1="229.68" y1="5.2" x2="220.18" y2="18.32"/><polygon class="cls-222" points="230.47 5.77 220.19 18.32 228.9 4.63 230.47 5.77"/><line class="cls-6" x1="239.64" y1="11.08" x2="222.45" y2="25.1"/><polygon class="cls-222" points="240.25 11.83 222.45 25.1 239.02 10.33 240.25 11.83"/></g></g></g></svg>