<svg xmlns="http://www.w3.org/2000/svg" xmlns:xlink="http://www.w3.org/1999/xlink" width="87" height="86" viewBox="0 0 87 86">
  <defs>
    <clipPath id="clip-path">
      <rect id="Rectangle_370" data-name="Rectangle 370" width="50.049" height="53.329" fill="#56006c"/>
    </clipPath>
  </defs>
  <g id="Group_2149" data-name="Group 2149" transform="translate(0.49 0.123)">
    <rect id="Rectangle_183" data-name="Rectangle 183" width="87" height="86" rx="16" transform="translate(-0.49 -0.123)" fill="#6d007d" opacity="0.2"/>
    <g id="Group_1504" data-name="Group 1504" transform="translate(17.097 16.156)">
      <g id="Group_1503" data-name="Group 1503" clip-path="url(#clip-path)">
        <path id="Path_8419" data-name="Path 8419" d="M37.312,0A2.217,2.217,0,0,1,37.7.525c.208.586-.19,1.035-.9,1.036q-5.232,0-10.465.005a6.141,6.141,0,0,0-1.086.086,4.176,4.176,0,0,0-3.472,4.041c-.038,2.95-.019,5.9,0,8.85a.829.829,0,0,0,.281.551,4.864,4.864,0,0,1,1.811,3.921c0,2.707.006,5.414-.01,8.122,0,.368.088.612.452.691a10.041,10.041,0,0,0,1.923.364c3,.039,6,.016,9.007.018.877,0,1.107.233,1.11,1.111,0,.849,0,1.7,0,2.663.217-.154.364-.252.5-.359,1.323-1.011,2.653-2.014,3.962-3.043a1.661,1.661,0,0,1,1.146-.378c.676.022,1.353.008,2.03.005a4.282,4.282,0,0,0,4.48-4.489q.011-7.5,0-14.994c0-.937.01-1.874,0-2.811a4.267,4.267,0,0,0-4.4-4.352c-.607,0-1.215-.007-1.822,0-.43.006-.862.013-1.046-.478A.927.927,0,0,1,41.583,0h3.333c.446.129.9.23,1.338.39a5.717,5.717,0,0,1,3.774,5.3q.035,9.191,0,18.383a5.8,5.8,0,0,1-5.652,5.688,1.786,1.786,0,0,1-.364,0,4.518,4.518,0,0,0-3.9,1.3c-1.214,1.082-2.576,2-3.869,2.993a.831.831,0,0,1-1.452-.7c.011-1.176,0-2.353,0-3.543-3.653-.258-7.286.289-10.9-.361v3.926h.589c2.014,0,4.027,0,6.041,0a3.631,3.631,0,0,1,3.928,3.926q.006,1.614,0,3.229c0,.731-.245,1.039-.8,1.031-.531-.007-.761-.3-.765-1.008-.005-1.111,0-2.222,0-3.333a2.065,2.065,0,0,0-2.3-2.282q-4.843-.01-9.687,0a2.055,2.055,0,0,0-2.282,2.293q-.009,4.817,0,9.634a2.066,2.066,0,0,0,2.29,2.286c1.667,0,3.333,0,5,0,.886,0,1.11.224,1.115,1.1,0,.188,0,.375,0,.692.626-.478,1.185-.87,1.7-1.311a1.784,1.784,0,0,1,1.423-.487,4.825,4.825,0,0,0,.78,0,2.005,2.005,0,0,0,1.919-1.79c.052-.516.018-1.04.04-1.56.024-.562.292-.831.791-.822a.7.7,0,0,1,.754.8,10.8,10.8,0,0,1-.148,2.273,3.412,3.412,0,0,1-3.379,2.644,2.591,2.591,0,0,0-1.874.673c-.679.592-1.422,1.11-2.134,1.665a.849.849,0,0,1-.954.2.868.868,0,0,1-.489-.9c.008-.518,0-1.036,0-1.622H24.139c-1.111,0-2.222,0-3.333,0A3.589,3.589,0,0,1,17.062,47c-.021-2.656-.006-5.312-.006-7.968v-.684c-.507.385-.914.693-1.318,1-.825.635-1.651,1.269-2.471,1.911a.852.852,0,0,1-.96.181.833.833,0,0,1-.45-.863c.009-.881,0-1.762,0-2.707h-.674c-2.066,0-4.132.011-6.2,0A4.753,4.753,0,0,1,0,33.053Q0,29.225,0,25.4c0-.612.207-.882.68-.925.547-.05.873.269.878.9.01,1.163,0,2.326,0,3.489,0,1.337,0,2.673,0,4.01a3.2,3.2,0,0,0,3.4,3.436c2.413.015,4.826,0,7.239,0,1.023,0,1.213.192,1.214,1.22,0,.5,0,1,0,1.585.2-.132.329-.206.446-.295q.992-.76,1.978-1.526a4.428,4.428,0,0,0,1.643-1.908,3.155,3.155,0,0,1,2.9-1.964c.617-.044,1.24-.008,1.914-.008v-.7q0-6.77,0-13.54a3.253,3.253,0,0,0-3.568-3.547c-4.548,0-9.1.039-13.644-.018a3.329,3.329,0,0,0-3.534,3.539c.028.415.013.833,0,1.25-.016.581-.3.878-.807.869S0,20.981.006,20.408a15.438,15.438,0,0,1,.114-2.54,4.641,4.641,0,0,1,4.536-3.792c4.861-.029,9.721-.011,14.582-.006.291,0,.583.055.937.09.01-.2.027-.376.027-.557q0-3.7,0-7.395A5.808,5.808,0,0,1,25.2.071.577.577,0,0,0,25.333,0Z" transform="translate(0)" fill="#56006c"/>
        <path id="Path_8420" data-name="Path 8420" d="M62.161,196.8c.566,0,1.084.022,1.6-.017.119-.009.292-.21.32-.347.153-.764.26-1.538.4-2.3.113-.62.432-.888.925-.809s.7.467.6,1.073c-.126.781-.249,1.563-.383,2.406.734,0,1.407,0,2.08,0,.625,0,.968.276.982.761.014.509-.331.794-.987.8-.761.005-1.523,0-2.334,0-.107.632-.21,1.236-.325,1.915h2.173c.208,0,.417-.007.625,0,.548.03.852.314.847.782s-.311.758-.863.77c-.8.018-1.6.034-2.394,0-.483-.023-.713.085-.759.619-.063.723-.221,1.438-.355,2.153a.779.779,0,0,1-.948.719.8.8,0,0,1-.581-1.008c.123-.77.247-1.539.368-2.309,0-.029-.017-.063-.037-.129H61.312c-.15.9-.3,1.82-.457,2.735a.782.782,0,1,1-1.548-.2c.008-.1.03-.206.047-.308.118-.717.237-1.435.373-2.259-.555,0-1.08,0-1.6,0a6.378,6.378,0,0,1-.779-.022.709.709,0,0,1-.68-.776.692.692,0,0,1,.71-.744c.728-.028,1.457-.026,2.185-.014.309,0,.473-.06.5-.417.037-.478.147-.951.238-1.5H58.059c-.208,0-.417.007-.624-.006a.773.773,0,1,1-.006-1.547c.763-.025,1.527-.008,2.29-.009h.833c.141-.836.278-1.65.417-2.463a3.885,3.885,0,0,1,.092-.458.715.715,0,0,1,.871-.553.687.687,0,0,1,.628.813c-.067.637-.192,1.268-.29,1.9-.036.235-.067.47-.108.76m-.579,3.443h1.875l.308-1.878c-.578,0-1.111-.015-1.642.013a.423.423,0,0,0-.281.28c-.1.5-.171,1.018-.26,1.585" transform="translate(-50.742 -173.136)" fill="#56006c"/>
        <path id="Path_8421" data-name="Path 8421" d="M203.787,370.857a2.8,2.8,0,0,1,4.261-2.594.459.459,0,0,0,.4.019,2.715,2.715,0,0,1,3.289.26,3.135,3.135,0,0,1,.855,3.423,4.26,4.26,0,0,1-1.619,2.176,22.349,22.349,0,0,1-2.233,1.418,1.025,1.025,0,0,1-.827.049,9.9,9.9,0,0,1-3.129-2.2,3.757,3.757,0,0,1-1-2.554m7.534.089-.133-.066c0-.052,0-.1,0-.156a1.326,1.326,0,0,0-.926-1.252c-.547-.158-.89-.008-1.308.568a.779.779,0,0,1-1.4-.061,1.1,1.1,0,0,0-1.24-.539,1.187,1.187,0,0,0-.929,1.011,1.978,1.978,0,0,0,.6,1.951,23.081,23.081,0,0,0,2.088,1.529.4.4,0,0,0,.369.011,17.328,17.328,0,0,0,2.114-1.576,5.157,5.157,0,0,0,.757-1.42" transform="translate(-182.522 -329.444)" fill="#56006c"/>
        <path id="Path_8422" data-name="Path 8422" d="M256.188,72.373a4.3,4.3,0,0,1-.985.258c-1.266.031-2.533.017-3.8.01-.657,0-.925-.259-.927-.907q-.009-4.581,0-9.163c0-.661.257-.921.911-.926,1.3-.01,2.6-.015,3.9.007a4.716,4.716,0,0,1,.946.238c.795-.956,1.723-1.945,2.488-3.048a6.481,6.481,0,0,0,.644-1.945c.083-.3.042-.633.145-.919a1.524,1.524,0,0,1,1.363-1.051,1.482,1.482,0,0,1,1.52.8,5.977,5.977,0,0,1,.439,5.068c-.072.209-.15.417-.247.686,1.227,0,2.4,0,3.578,0a2.029,2.029,0,0,1,2.268,2.235q0,3.592,0,7.184a1.955,1.955,0,0,1-1.943,2.083c-2.619.04-5.241.049-7.859-.032a12.152,12.152,0,0,1-2.443-.577m4.889-15.793c-.058.055-.093.074-.1.1a.507.507,0,0,0-.028.152,6.342,6.342,0,0,1-1.814,4.1q-1.336,1.46-2.617,2.969a1.165,1.165,0,0,0-.274.681q-.033,2.682,0,5.364a.9.9,0,0,0,.295.593,3.863,3.863,0,0,0,2.6.905q3.516,0,7.031,0c.586,0,.707-.126.707-.7q0-3.489,0-6.979c0-.63-.092-.719-.729-.721-1.528,0-3.055,0-4.583-.012-.8-.007-1.122-.511-.825-1.251.226-.563.5-1.111.681-1.686a4.315,4.315,0,0,0-.339-3.513m-6.447,6.667h-2.553v7.816h2.553Z" transform="translate(-224.335 -49.187)" fill="#56006c"/>
      </g>
    </g>
  </g>
</svg>
