<svg id="Group_1434" data-name="Group 1434" xmlns="http://www.w3.org/2000/svg" xmlns:xlink="http://www.w3.org/1999/xlink" width="23.867" height="23.863" viewBox="0 0 23.867 23.863">
  <defs>
    <clipPath id="clip-path">
      <rect id="Rectangle_334" data-name="Rectangle 334" width="23.867" height="23.863" fill="#e60c35"/>
    </clipPath>
  </defs>
  <g id="Group_1433" data-name="Group 1433" clip-path="url(#clip-path)">
    <path id="Path_8389" data-name="Path 8389" d="M103.84,203.008a4.42,4.42,0,0,1-.5-.168,1.965,1.965,0,0,1-1.2-1.907c-.006-1.242,0-2.485,0-3.727V187.92h.795v11.107h9.139v.795h-9.1a12.352,12.352,0,0,0,.012,1.469,1.137,1.137,0,0,0,1.181.923c1.235,0,2.47,0,3.7,0h5.025v.794Z" transform="translate(-97.361 -179.146)" fill="#e60c35"/>
    <path id="Path_8390" data-name="Path 8390" d="M271.868,235.372a1.919,1.919,0,0,0-.306-1.151,3.978,3.978,0,0,1,.067-4.1.3.3,0,0,0-.056-.448q-1.479-1.453-2.935-2.928a1.8,1.8,0,1,1,2.5-2.6c.394.374.771.766,1.156,1.15l1.351,1.35c.053.053.109.1.2.188v-4.965h.8v.263c0,1.747,0,3.494,0,5.241a.566.566,0,0,0,.205.485c.166.138.32.292.485.444l-.587.567c-.052-.049-.114-.105-.173-.165q-1.953-1.951-3.9-3.9a1.031,1.031,0,0,0-.962-.347,1,1,0,0,0-.59,1.642c.055.065.117.125.177.185l3.13,3.13c.283.283.3.385.1.731a4.279,4.279,0,0,0-.668,1.719,3.174,3.174,0,0,0,.54,2.21,1.293,1.293,0,0,1,.265.906c-.012.131,0,.264,0,.4Z" transform="translate(-255.553 -211.51)" fill="#e60c35"/>
    <path id="Path_8391" data-name="Path 8391" d="M420.906,275.769c0-.248.008-.5.008-.744,0-2.344-.009-4.687,0-7.031a3.751,3.751,0,0,0-.952-2.6c-.184-.209-.356-.429-.547-.659l.595-.492a4.982,4.982,0,0,1,1.694,3.541q0,3.934,0,7.869c0,.038-.007.077-.011.115Z" transform="translate(-399.837 -251.906)" fill="#e60c35"/>
    <rect id="Rectangle_331" data-name="Rectangle 331" width="1.571" height="0.792" transform="translate(0 5.175)" fill="#e60c35"/>
    <path id="Path_8392" data-name="Path 8392" d="M65.267,72.414l-.79.115c0,.625-.01,1.237.005,1.848.006.239.193.362.483.363.691,0,1.383,0,2.074,0,.53,0,.615.086.615.626q0,3.9,0,7.806v.3h.8V80.313h.792v3.158h.794V81.908h.8v.414c0,.474,0,.948,0,1.421,0,.409-.134.54-.549.541q-1.445,0-2.89,0c-.412,0-.546-.134-.546-.544q0-3.938,0-7.875v-.329h-.825c-.373,0-.746,0-1.119,0A1.2,1.2,0,0,1,63.679,74.3c0-.542,0-1.085,0-1.656l-1.533.216c-.653.093-1.306.189-1.959.278a.386.386,0,0,1-.477-.4q-.007-1.969,0-3.938c0-.315.209-.464.537-.395q2.572.545,5.143,1.1c.674.145.673.151.673.84V73.13h1.149c0-.01.013-.038,0-.052a3.138,3.138,0,0,1-.269-2.434,1.921,1.921,0,0,1,1.983-1.472,1.959,1.959,0,0,1,1.883,1.739,5.1,5.1,0,0,1,.01,1.161,7.439,7.439,0,0,1-.293,1.073c.049.006.153.013.255.031a1.917,1.917,0,0,1,1.608,1.675c.059.606.011,1.222.011,1.853h-.765c0-.51,0-1.013,0-1.516a1.186,1.186,0,0,0-.9-1.2,1.743,1.743,0,0,0-.415-.037q-2.237,0-4.475,0c-.457,0-.576-.121-.577-.583,0-.309,0-.618,0-.949m-4.752-3.146v3.02l4.74-.675V70.284l-4.74-1.016m7.127,2.286c.013.21.01.422.043.627a1.186,1.186,0,0,0,1.176.967,1.156,1.156,0,0,0,1.148-.965,5.757,5.757,0,0,0,0-1.253,1.152,1.152,0,0,0-1.147-.966,1.183,1.183,0,0,0-1.177.964c-.033.206-.03.417-.043.626" transform="translate(-56.917 -65.191)" fill="#e60c35"/>
    <path id="Path_8393" data-name="Path 8393" d="M325.718,7.974c-.177-.011-.331-.015-.483-.032A1.962,1.962,0,0,1,323.429,6c-.022-1.35-.025-2.7,0-4.052A1.967,1.967,0,0,1,325.454,0Q327.8,0,330.136,0a1.984,1.984,0,0,1,2.04,2.049q.006,1.921,0,3.842a1.994,1.994,0,0,1-2.029,2.065.272.272,0,0,1-.047,0,2.5,2.5,0,0,0-1.878.539c-.678.476-1.4.886-2.106,1.328a.419.419,0,0,1-.673-.47c.1-.453.181-.909.274-1.382m.667.737c.107-.063.179-.1.248-.145.678-.424,1.352-.854,2.036-1.267a1.021,1.021,0,0,1,.456-.13c.341-.019.683,0,1.025-.008A1.2,1.2,0,0,0,331.382,5.9q0-1.934,0-3.867A1.189,1.189,0,0,0,330.146.8Q327.8.791,325.462.8a1.175,1.175,0,0,0-1.239,1.182q-.025,2,0,4.007a1.175,1.175,0,0,0,1.2,1.176c.209.008.419,0,.629,0,.474,0,.611.173.516.641-.058.287-.116.575-.184.907" transform="translate(-308.311 0.001)" fill="#e60c35"/>
    <path id="Path_8394" data-name="Path 8394" d="M102.848,2.451h8.314v.771H102.02a6.891,6.891,0,0,1,.107-1.787,1.909,1.909,0,0,1,.731-1,1.847,1.847,0,0,1,1.084-.371q3.763-.008,7.526,0a.616.616,0,0,1,.083.013V.858h-7.382a1.25,1.25,0,0,0-1.321,1.593" transform="translate(-97.252 -0.062)" fill="#e60c35"/>
    <path id="Path_8395" data-name="Path 8395" d="M8.111,69.627l-1.588-.394.19-.77,1.586.394-.188.77" transform="translate(-6.218 -65.266)" fill="#e60c35"/>
    <path id="Path_8396" data-name="Path 8396" d="M6.5,145.563l1.586-.4.193.768-1.586.4-.193-.77" transform="translate(-6.2 -138.39)" fill="#e60c35"/>
    <rect id="Rectangle_332" data-name="Rectangle 332" width="0.753" height="1.563" transform="translate(13.151 9.951)" fill="#e60c35"/>
    <rect id="Rectangle_333" data-name="Rectangle 333" width="0.766" height="0.769" transform="translate(11.551 21.495)" fill="#e60c35"/>
    <path id="Path_8397" data-name="Path 8397" d="M358.859,35.558c.581.169.917-.119,1.154-.61a2.443,2.443,0,0,1,.245-.368.412.412,0,0,1,.715,0,8.581,8.581,0,0,1,.486.738.44.44,0,0,0,.469.245c.317-.019.636,0,.954-.006.207,0,.389.026.482.241a.43.43,0,0,1-.159.514c-.277.272-.544.554-.826.819a.29.29,0,0,0-.089.327c.1.374.185.752.286,1.126a.406.406,0,0,1-.126.461.411.411,0,0,1-.48.02c-.394-.2-.785-.406-1.187-.589a.456.456,0,0,0-.337,0c-.395.179-.78.381-1.166.578a.434.434,0,0,1-.5-.008.423.423,0,0,1-.124-.486c.09-.353.171-.708.272-1.058a.345.345,0,0,0-.107-.405c-.281-.256-.539-.536-.811-.8a.426.426,0,0,1-.143-.5.418.418,0,0,1,.459-.242c.178.007.357,0,.535,0m.369.861c.135.126.27.254.408.378a.479.479,0,0,1,.147.545c-.062.2-.1.408-.156.647.267-.134.5-.243.722-.364a.525.525,0,0,1,.53,0c.224.118.453.227.723.361-.052-.214-.08-.389-.138-.553a.571.571,0,0,1,.191-.7c.123-.1.233-.214.349-.322a.775.775,0,0,0-.374-.053.616.616,0,0,1-.668-.351c-.094-.174-.218-.331-.345-.52a2.737,2.737,0,0,1-.53.724,2.606,2.606,0,0,1-.859.211" transform="translate(-341.123 -32.768)" fill="#e60c35"/>
  </g>
</svg>
