<svg xmlns="http://www.w3.org/2000/svg" xmlns:xlink="http://www.w3.org/1999/xlink" width="15.852" height="18.917" viewBox="0 0 15.852 18.917">
  <defs>
    <clipPath id="clip-path">
      <rect id="Rectangle_335" data-name="Rectangle 335" width="15.852" height="18.917" fill="#d20030"/>
    </clipPath>
  </defs>
  <g id="Group_1436" data-name="Group 1436" transform="translate(0 0)">
    <g id="Group_1435" data-name="Group 1435" transform="translate(0 0)" clip-path="url(#clip-path)">
      <path id="Path_8398" data-name="Path 8398" d="M7.766,18.917c-.621-.263-1.256-.5-1.86-.795A9.794,9.794,0,0,1,.453,11.368a14.822,14.822,0,0,1-.438-3.25C-.013,6.555,0,4.991.009,3.428a.666.666,0,0,1,.713-.683c.473-.026.948-.034,1.419-.084A8.662,8.662,0,0,0,7.2.424c.077-.07.152-.144.23-.214a.675.675,0,0,1,.976,0c.413.348.82.71,1.263,1.018a8.242,8.242,0,0,0,3.712,1.392c.548.07,1.1.094,1.655.121s.785.257.789.8c.011,1.237.039,2.475.027,3.713a17.568,17.568,0,0,1-.543,4.385,9.738,9.738,0,0,1-5.269,6.428c-.64.322-1.316.571-1.975.854ZM1.333,4.085c0,.058-.009.119-.01.18-.01.794-.025,1.588-.028,2.382a18.554,18.554,0,0,0,.413,4.344,8.408,8.408,0,0,0,2.529,4.432,10.77,10.77,0,0,0,3.6,2.093A.3.3,0,0,0,8.04,17.5c.679-.316,1.379-.6,2.027-.967a8.148,8.148,0,0,0,3.315-3.475,11.289,11.289,0,0,0,1.093-4.616c.062-1.4.023-2.806.028-4.209,0-.054-.009-.108-.013-.161-.474-.053-.939-.1-1.4-.159A9.624,9.624,0,0,1,8.112,1.72c-.15-.126-.233-.139-.391-.005A9.5,9.5,0,0,1,3.145,3.849c-.592.1-1.193.157-1.812.236" transform="translate(0 0)" fill="#d20030"/>
      <path id="Path_8399" data-name="Path 8399" d="M20.362,31.106l.881-.884q1.155-1.155,2.311-2.31a.659.659,0,0,1,1.13.226.629.629,0,0,1-.1.594,1.622,1.622,0,0,1-.161.177l-3.459,3.459a.692.692,0,0,1-1.143,0q-.855-.855-1.71-1.71a.647.647,0,0,1-.18-.676.627.627,0,0,1,.506-.458.666.666,0,0,1,.632.222c.391.392.784.782,1.174,1.176a1.01,1.01,0,0,1,.115.183" transform="translate(-13.398 -20.715)" fill="#d20030"/>
    </g>
  </g>
</svg>
