<svg id="Group_1432" data-name="Group 1432" xmlns="http://www.w3.org/2000/svg" xmlns:xlink="http://www.w3.org/1999/xlink" width="23.873" height="23.863" viewBox="0 0 23.873 23.863">
  <defs>
    <clipPath id="clip-path">
      <rect id="Rectangle_330" data-name="Rectangle 330" width="23.873" height="23.863" fill="#d20030"/>
    </clipPath>
  </defs>
  <g id="Group_1431" data-name="Group 1431" clip-path="url(#clip-path)">
    <path id="Path_8382" data-name="Path 8382" d="M0,241.32a4.829,4.829,0,0,1,.874-1.625,4.255,4.255,0,0,1,1.6-1.174c.05-.021.1-.044.147-.068,0,0,.006-.013.015-.037a2.327,2.327,0,0,1-.846-1.942,2.264,2.264,0,0,1,.782-1.611,2.333,2.333,0,0,1,3.2.111,2.361,2.361,0,0,1-.2,3.465,4.4,4.4,0,0,1,1.844,1.325,5.656,5.656,0,0,1,2.833-2.065,3,3,0,1,1,3.367,0,5.644,5.644,0,0,1,2.832,2.063,4.37,4.37,0,0,1,1.854-1.326,2.338,2.338,0,0,1-.862-2.1,2.241,2.241,0,0,1,.77-1.471,2.318,2.318,0,0,1,3.135.047,2.265,2.265,0,0,1,.733,1.8,2.352,2.352,0,0,1-.879,1.733,4.379,4.379,0,0,1,1.489.935,4.25,4.25,0,0,1,1.1,1.758,1.25,1.25,0,0,1-1.2,1.673c-1.608.007-3.215,0-4.823,0h-.316c0,.165,0,.316,0,.468a1.759,1.759,0,0,1-1.425,1.93c-.013,0-.022.02-.033.03H7.877c-.011-.01-.021-.026-.033-.03A1.756,1.756,0,0,1,6.418,243.3c0-.159,0-.318,0-.491H6.1q-2.4,0-4.8,0a1.256,1.256,0,0,1-1.257-.919.968.968,0,0,0-.047-.1v-.466m11.933,3.169c1.243,0,2.485,0,3.728,0a.974.974,0,0,0,1.021-.86,6.927,6.927,0,0,0-.011-1.372,4.764,4.764,0,0,0-3.665-3.949,4.779,4.779,0,0,0-5.847,5.067,1.034,1.034,0,0,0,1.116,1.114q1.829,0,3.658,0m-.011-11.527a2.241,2.241,0,1,0,2.25,2.222,2.233,2.233,0,0,0-2.25-2.222m5.543,9.1H18.3q2.108,0,4.215,0c.488,0,.717-.315.539-.77a4.314,4.314,0,0,0-.414-.828,3.494,3.494,0,0,0-5.645-.173.324.324,0,0,0-.08.237c.17.5.358,1,.553,1.536m-11.056,0c.175-.5.326-.97.509-1.428a.3.3,0,0,0-.041-.349A3.384,3.384,0,0,0,3.508,239a3.337,3.337,0,0,0-2.681,2.251c-.2.517.019.813.573.813H6.408Zm11.764-5.46a1.584,1.584,0,0,0,1.576,1.589,1.583,1.583,0,1,0,.005-3.167,1.573,1.573,0,0,0-1.582,1.578m-12.479,0a1.583,1.583,0,0,0-3.166.011,1.583,1.583,0,1,0,3.166-.011" transform="translate(0 -221.372)" fill="#d20030"/>
    <path id="Path_8383" data-name="Path 8383" d="M0,65.873A.775.775,0,0,1,.738,65.5c.52-.008,1.039-.048,1.559-.066a.241.241,0,0,0,.251-.187c.19-.525.4-1.044.588-1.568a.571.571,0,0,1,.533-.444c.246-.009.42.136.535.436.2.521.4,1.041.592,1.566a.254.254,0,0,0,.266.2c.559.02,1.117.05,1.675.074a.572.572,0,0,1,.566.333.523.523,0,0,1-.186.641c-.444.364-.889.728-1.345,1.078a.277.277,0,0,0-.107.353c.156.536.3,1.076.441,1.615a.534.534,0,0,1-.186.642.556.556,0,0,1-.671-.035c-.471-.315-.949-.618-1.419-.935a.237.237,0,0,0-.311,0c-.47.317-.948.621-1.42.934a.555.555,0,0,1-.671.036.538.538,0,0,1-.18-.664c.137-.509.264-1.021.42-1.524A.374.374,0,0,0,1.5,67.5c-.4-.3-.782-.613-1.162-.932A3.833,3.833,0,0,1,0,66.2v-.326m6.23.366c-.535-.029-1-.061-1.472-.077a.566.566,0,0,1-.56-.406c-.14-.378-.284-.755-.428-1.131-.025-.066-.058-.128-.1-.229-.187.489-.357.93-.523,1.372a.553.553,0,0,1-.545.392c-.4.014-.807.039-1.21.061-.07,0-.139.02-.248.036.376.3.705.585,1.053.843a.657.657,0,0,1,.265.81c-.134.426-.238.861-.367,1.336.43-.281.824-.528,1.208-.792a.6.6,0,0,1,.753,0c.307.211.622.41.934.613.072.047.146.091.267.166-.133-.5-.24-.932-.369-1.362a.622.622,0,0,1,.248-.752c.357-.269.7-.558,1.1-.882" transform="translate(0 -60.282)" fill="#d20030"/>
    <path id="Path_8384" data-name="Path 8384" d="M177.989,69.815c.075-.285.128-.5.184-.7.109-.4.212-.81.333-1.21a.247.247,0,0,0-.1-.315c-.447-.348-.885-.707-1.326-1.063a.524.524,0,0,1-.234-.625.546.546,0,0,1,.556-.376c.566-.026,1.132-.056,1.7-.076a.257.257,0,0,0,.268-.2c.194-.531.4-1.059.6-1.587.11-.285.282-.425.524-.415a.553.553,0,0,1,.523.421c.191.524.4,1.042.59,1.566a.268.268,0,0,0,.28.213c.574.018,1.148.042,1.721.079a.526.526,0,0,1,.487.78.908.908,0,0,1-.22.235c-.432.354-.866.706-1.306,1.05a.235.235,0,0,0-.1.294c.16.559.308,1.121.458,1.682a.522.522,0,0,1-.2.617.533.533,0,0,1-.632-.016c-.46-.3-.929-.593-1.378-.911a.347.347,0,0,0-.47.006c-.459.318-.931.616-1.4.92a.471.471,0,0,1-.568.016,1.778,1.778,0,0,1-.3-.385m2.529-5.358h-.054c-.164.434-.331.866-.492,1.3a.575.575,0,0,1-.579.414c-.326.006-.651.028-.977.046-.14.008-.279.024-.468.041.407.328.767.622,1.131.91a.566.566,0,0,1,.216.657c-.111.387-.212.778-.315,1.167-.016.062-.024.127-.045.245.4-.259.758-.47,1.092-.718a.7.7,0,0,1,.931,0c.336.245.694.46,1.092.719-.024-.123-.033-.188-.05-.252-.1-.389-.205-.779-.315-1.167a.553.553,0,0,1,.2-.64c.256-.2.51-.407.763-.611.116-.094.231-.19.391-.323-.522-.028-.979-.062-1.436-.074a.6.6,0,0,1-.607-.443c-.153-.428-.322-.851-.484-1.276" transform="translate(-168.56 -60.292)" fill="#d20030"/>
    <path id="Path_8385" data-name="Path 8385" d="M359.214,70.271a1.705,1.705,0,0,1-.289-.13c-.471-.3-.94-.6-1.4-.92a.279.279,0,0,0-.37,0c-.449.305-.906.6-1.362.894a.565.565,0,0,1-.709.048.578.578,0,0,1-.165-.693c.147-.514.273-1.034.428-1.546a.3.3,0,0,0-.131-.386c-.437-.335-.863-.686-1.29-1.033a.53.53,0,0,1-.226-.63.541.541,0,0,1,.541-.364c.566-.027,1.132-.056,1.7-.076a.266.266,0,0,0,.283-.206c.187-.525.4-1.042.59-1.566a.559.559,0,0,1,.519-.428c.248-.012.425.132.54.43.194.506.4,1.01.572,1.523a.324.324,0,0,0,.352.251c.535.016,1.071.03,1.6.078a.86.86,0,0,1,.49.208.5.5,0,0,1-.116.768c-.445.363-.892.724-1.344,1.078a.247.247,0,0,0-.1.311c.164.558.313,1.119.46,1.682a.54.54,0,0,1-.57.7m-1.872-5.89c-.19.5-.359.937-.524,1.378a.567.567,0,0,1-.56.407c-.427.014-.853.042-1.28.067a.888.888,0,0,0-.155.041c.293.236.558.451.825.664.609.486.608.485.4,1.233-.093.34-.184.681-.291,1.079.45-.294.846-.55,1.239-.811a.557.557,0,0,1,.673-.006c.116.078.233.154.351.23l.9.584c-.12-.442-.2-.838-.337-1.216a.756.756,0,0,1,.324-1c.33-.224.626-.5.988-.789-.515-.028-.962-.066-1.41-.072a.629.629,0,0,1-.651-.483c-.143-.418-.312-.827-.495-1.306" transform="translate(-337.151 -60.285)" fill="#d20030"/>
    <path id="Path_8386" data-name="Path 8386" d="M296.465,42.068a1.583,1.583,0,0,1-.2.32q-.727.672-1.469,1.326a.373.373,0,1,1-.5-.553c.488-.444.979-.884,1.47-1.325a.333.333,0,0,1,.424-.077,1.6,1.6,0,0,1,.271.308" transform="translate(-280.414 -39.763)" fill="#d20030"/>
    <path id="Path_8387" data-name="Path 8387" d="M170.7,43.581c-.089.112-.154.272-.256.3a.532.532,0,0,1-.421-.068c-.341-.268-.653-.573-.976-.864-.167-.151-.337-.3-.5-.453a.379.379,0,0,1-.058-.555.362.362,0,0,1,.539-.008q.751.662,1.488,1.34a1.426,1.426,0,0,1,.185.306" transform="translate(-160.527 -39.866)" fill="#d20030"/>
    <path id="Path_8388" data-name="Path 8388" d="M248.223,1.071c0,.2,0,.4,0,.6,0,.273-.146.433-.378.43s-.364-.157-.366-.417c0-.426,0-.852,0-1.277a.373.373,0,0,1,.376-.41.378.378,0,0,1,.367.421c0,.217,0,.434,0,.65" transform="translate(-235.918 0)" fill="#d20030"/>
  </g>
</svg>
